G75*
%MOIN*%
%OFA0B0*%
%FSLAX25Y25*%
%IPPOS*%
%LPD*%
%AMOC8*
5,1,8,0,0,1.08239X$1,22.5*
%
%ADD10C,0.00000*%
%ADD11C,0.01200*%
%ADD12R,0.04331X0.03937*%
%ADD13C,0.04331*%
%ADD14C,0.07400*%
%ADD15C,0.05800*%
%ADD16R,0.02600X0.08000*%
%ADD17C,0.06000*%
%ADD18C,0.03200*%
%ADD19C,0.03562*%
%ADD20C,0.01600*%
D10*
X0001000Y0001000D02*
X0001000Y0394701D01*
X0394701Y0394701D01*
X0394701Y0001000D01*
X0001000Y0001000D01*
X0295429Y0036000D02*
X0295431Y0036198D01*
X0295439Y0036396D01*
X0295451Y0036594D01*
X0295468Y0036791D01*
X0295490Y0036988D01*
X0295516Y0037184D01*
X0295548Y0037380D01*
X0295584Y0037575D01*
X0295625Y0037768D01*
X0295671Y0037961D01*
X0295721Y0038153D01*
X0295777Y0038343D01*
X0295836Y0038532D01*
X0295901Y0038719D01*
X0295970Y0038905D01*
X0296043Y0039089D01*
X0296121Y0039271D01*
X0296204Y0039451D01*
X0296291Y0039629D01*
X0296382Y0039805D01*
X0296478Y0039978D01*
X0296577Y0040149D01*
X0296681Y0040318D01*
X0296789Y0040484D01*
X0296901Y0040647D01*
X0297017Y0040808D01*
X0297137Y0040966D01*
X0297261Y0041120D01*
X0297389Y0041272D01*
X0297520Y0041420D01*
X0297655Y0041565D01*
X0297793Y0041707D01*
X0297935Y0041845D01*
X0298080Y0041980D01*
X0298228Y0042111D01*
X0298380Y0042239D01*
X0298534Y0042363D01*
X0298692Y0042483D01*
X0298853Y0042599D01*
X0299016Y0042711D01*
X0299182Y0042819D01*
X0299351Y0042923D01*
X0299522Y0043022D01*
X0299695Y0043118D01*
X0299871Y0043209D01*
X0300049Y0043296D01*
X0300229Y0043379D01*
X0300411Y0043457D01*
X0300595Y0043530D01*
X0300781Y0043599D01*
X0300968Y0043664D01*
X0301157Y0043723D01*
X0301347Y0043779D01*
X0301539Y0043829D01*
X0301732Y0043875D01*
X0301925Y0043916D01*
X0302120Y0043952D01*
X0302316Y0043984D01*
X0302512Y0044010D01*
X0302709Y0044032D01*
X0302906Y0044049D01*
X0303104Y0044061D01*
X0303302Y0044069D01*
X0303500Y0044071D01*
X0303698Y0044069D01*
X0303896Y0044061D01*
X0304094Y0044049D01*
X0304291Y0044032D01*
X0304488Y0044010D01*
X0304684Y0043984D01*
X0304880Y0043952D01*
X0305075Y0043916D01*
X0305268Y0043875D01*
X0305461Y0043829D01*
X0305653Y0043779D01*
X0305843Y0043723D01*
X0306032Y0043664D01*
X0306219Y0043599D01*
X0306405Y0043530D01*
X0306589Y0043457D01*
X0306771Y0043379D01*
X0306951Y0043296D01*
X0307129Y0043209D01*
X0307305Y0043118D01*
X0307478Y0043022D01*
X0307649Y0042923D01*
X0307818Y0042819D01*
X0307984Y0042711D01*
X0308147Y0042599D01*
X0308308Y0042483D01*
X0308466Y0042363D01*
X0308620Y0042239D01*
X0308772Y0042111D01*
X0308920Y0041980D01*
X0309065Y0041845D01*
X0309207Y0041707D01*
X0309345Y0041565D01*
X0309480Y0041420D01*
X0309611Y0041272D01*
X0309739Y0041120D01*
X0309863Y0040966D01*
X0309983Y0040808D01*
X0310099Y0040647D01*
X0310211Y0040484D01*
X0310319Y0040318D01*
X0310423Y0040149D01*
X0310522Y0039978D01*
X0310618Y0039805D01*
X0310709Y0039629D01*
X0310796Y0039451D01*
X0310879Y0039271D01*
X0310957Y0039089D01*
X0311030Y0038905D01*
X0311099Y0038719D01*
X0311164Y0038532D01*
X0311223Y0038343D01*
X0311279Y0038153D01*
X0311329Y0037961D01*
X0311375Y0037768D01*
X0311416Y0037575D01*
X0311452Y0037380D01*
X0311484Y0037184D01*
X0311510Y0036988D01*
X0311532Y0036791D01*
X0311549Y0036594D01*
X0311561Y0036396D01*
X0311569Y0036198D01*
X0311571Y0036000D01*
X0311569Y0035802D01*
X0311561Y0035604D01*
X0311549Y0035406D01*
X0311532Y0035209D01*
X0311510Y0035012D01*
X0311484Y0034816D01*
X0311452Y0034620D01*
X0311416Y0034425D01*
X0311375Y0034232D01*
X0311329Y0034039D01*
X0311279Y0033847D01*
X0311223Y0033657D01*
X0311164Y0033468D01*
X0311099Y0033281D01*
X0311030Y0033095D01*
X0310957Y0032911D01*
X0310879Y0032729D01*
X0310796Y0032549D01*
X0310709Y0032371D01*
X0310618Y0032195D01*
X0310522Y0032022D01*
X0310423Y0031851D01*
X0310319Y0031682D01*
X0310211Y0031516D01*
X0310099Y0031353D01*
X0309983Y0031192D01*
X0309863Y0031034D01*
X0309739Y0030880D01*
X0309611Y0030728D01*
X0309480Y0030580D01*
X0309345Y0030435D01*
X0309207Y0030293D01*
X0309065Y0030155D01*
X0308920Y0030020D01*
X0308772Y0029889D01*
X0308620Y0029761D01*
X0308466Y0029637D01*
X0308308Y0029517D01*
X0308147Y0029401D01*
X0307984Y0029289D01*
X0307818Y0029181D01*
X0307649Y0029077D01*
X0307478Y0028978D01*
X0307305Y0028882D01*
X0307129Y0028791D01*
X0306951Y0028704D01*
X0306771Y0028621D01*
X0306589Y0028543D01*
X0306405Y0028470D01*
X0306219Y0028401D01*
X0306032Y0028336D01*
X0305843Y0028277D01*
X0305653Y0028221D01*
X0305461Y0028171D01*
X0305268Y0028125D01*
X0305075Y0028084D01*
X0304880Y0028048D01*
X0304684Y0028016D01*
X0304488Y0027990D01*
X0304291Y0027968D01*
X0304094Y0027951D01*
X0303896Y0027939D01*
X0303698Y0027931D01*
X0303500Y0027929D01*
X0303302Y0027931D01*
X0303104Y0027939D01*
X0302906Y0027951D01*
X0302709Y0027968D01*
X0302512Y0027990D01*
X0302316Y0028016D01*
X0302120Y0028048D01*
X0301925Y0028084D01*
X0301732Y0028125D01*
X0301539Y0028171D01*
X0301347Y0028221D01*
X0301157Y0028277D01*
X0300968Y0028336D01*
X0300781Y0028401D01*
X0300595Y0028470D01*
X0300411Y0028543D01*
X0300229Y0028621D01*
X0300049Y0028704D01*
X0299871Y0028791D01*
X0299695Y0028882D01*
X0299522Y0028978D01*
X0299351Y0029077D01*
X0299182Y0029181D01*
X0299016Y0029289D01*
X0298853Y0029401D01*
X0298692Y0029517D01*
X0298534Y0029637D01*
X0298380Y0029761D01*
X0298228Y0029889D01*
X0298080Y0030020D01*
X0297935Y0030155D01*
X0297793Y0030293D01*
X0297655Y0030435D01*
X0297520Y0030580D01*
X0297389Y0030728D01*
X0297261Y0030880D01*
X0297137Y0031034D01*
X0297017Y0031192D01*
X0296901Y0031353D01*
X0296789Y0031516D01*
X0296681Y0031682D01*
X0296577Y0031851D01*
X0296478Y0032022D01*
X0296382Y0032195D01*
X0296291Y0032371D01*
X0296204Y0032549D01*
X0296121Y0032729D01*
X0296043Y0032911D01*
X0295970Y0033095D01*
X0295901Y0033281D01*
X0295836Y0033468D01*
X0295777Y0033657D01*
X0295721Y0033847D01*
X0295671Y0034039D01*
X0295625Y0034232D01*
X0295584Y0034425D01*
X0295548Y0034620D01*
X0295516Y0034816D01*
X0295490Y0035012D01*
X0295468Y0035209D01*
X0295451Y0035406D01*
X0295439Y0035604D01*
X0295431Y0035802D01*
X0295429Y0036000D01*
X0362929Y0036000D02*
X0362931Y0036198D01*
X0362939Y0036396D01*
X0362951Y0036594D01*
X0362968Y0036791D01*
X0362990Y0036988D01*
X0363016Y0037184D01*
X0363048Y0037380D01*
X0363084Y0037575D01*
X0363125Y0037768D01*
X0363171Y0037961D01*
X0363221Y0038153D01*
X0363277Y0038343D01*
X0363336Y0038532D01*
X0363401Y0038719D01*
X0363470Y0038905D01*
X0363543Y0039089D01*
X0363621Y0039271D01*
X0363704Y0039451D01*
X0363791Y0039629D01*
X0363882Y0039805D01*
X0363978Y0039978D01*
X0364077Y0040149D01*
X0364181Y0040318D01*
X0364289Y0040484D01*
X0364401Y0040647D01*
X0364517Y0040808D01*
X0364637Y0040966D01*
X0364761Y0041120D01*
X0364889Y0041272D01*
X0365020Y0041420D01*
X0365155Y0041565D01*
X0365293Y0041707D01*
X0365435Y0041845D01*
X0365580Y0041980D01*
X0365728Y0042111D01*
X0365880Y0042239D01*
X0366034Y0042363D01*
X0366192Y0042483D01*
X0366353Y0042599D01*
X0366516Y0042711D01*
X0366682Y0042819D01*
X0366851Y0042923D01*
X0367022Y0043022D01*
X0367195Y0043118D01*
X0367371Y0043209D01*
X0367549Y0043296D01*
X0367729Y0043379D01*
X0367911Y0043457D01*
X0368095Y0043530D01*
X0368281Y0043599D01*
X0368468Y0043664D01*
X0368657Y0043723D01*
X0368847Y0043779D01*
X0369039Y0043829D01*
X0369232Y0043875D01*
X0369425Y0043916D01*
X0369620Y0043952D01*
X0369816Y0043984D01*
X0370012Y0044010D01*
X0370209Y0044032D01*
X0370406Y0044049D01*
X0370604Y0044061D01*
X0370802Y0044069D01*
X0371000Y0044071D01*
X0371198Y0044069D01*
X0371396Y0044061D01*
X0371594Y0044049D01*
X0371791Y0044032D01*
X0371988Y0044010D01*
X0372184Y0043984D01*
X0372380Y0043952D01*
X0372575Y0043916D01*
X0372768Y0043875D01*
X0372961Y0043829D01*
X0373153Y0043779D01*
X0373343Y0043723D01*
X0373532Y0043664D01*
X0373719Y0043599D01*
X0373905Y0043530D01*
X0374089Y0043457D01*
X0374271Y0043379D01*
X0374451Y0043296D01*
X0374629Y0043209D01*
X0374805Y0043118D01*
X0374978Y0043022D01*
X0375149Y0042923D01*
X0375318Y0042819D01*
X0375484Y0042711D01*
X0375647Y0042599D01*
X0375808Y0042483D01*
X0375966Y0042363D01*
X0376120Y0042239D01*
X0376272Y0042111D01*
X0376420Y0041980D01*
X0376565Y0041845D01*
X0376707Y0041707D01*
X0376845Y0041565D01*
X0376980Y0041420D01*
X0377111Y0041272D01*
X0377239Y0041120D01*
X0377363Y0040966D01*
X0377483Y0040808D01*
X0377599Y0040647D01*
X0377711Y0040484D01*
X0377819Y0040318D01*
X0377923Y0040149D01*
X0378022Y0039978D01*
X0378118Y0039805D01*
X0378209Y0039629D01*
X0378296Y0039451D01*
X0378379Y0039271D01*
X0378457Y0039089D01*
X0378530Y0038905D01*
X0378599Y0038719D01*
X0378664Y0038532D01*
X0378723Y0038343D01*
X0378779Y0038153D01*
X0378829Y0037961D01*
X0378875Y0037768D01*
X0378916Y0037575D01*
X0378952Y0037380D01*
X0378984Y0037184D01*
X0379010Y0036988D01*
X0379032Y0036791D01*
X0379049Y0036594D01*
X0379061Y0036396D01*
X0379069Y0036198D01*
X0379071Y0036000D01*
X0379069Y0035802D01*
X0379061Y0035604D01*
X0379049Y0035406D01*
X0379032Y0035209D01*
X0379010Y0035012D01*
X0378984Y0034816D01*
X0378952Y0034620D01*
X0378916Y0034425D01*
X0378875Y0034232D01*
X0378829Y0034039D01*
X0378779Y0033847D01*
X0378723Y0033657D01*
X0378664Y0033468D01*
X0378599Y0033281D01*
X0378530Y0033095D01*
X0378457Y0032911D01*
X0378379Y0032729D01*
X0378296Y0032549D01*
X0378209Y0032371D01*
X0378118Y0032195D01*
X0378022Y0032022D01*
X0377923Y0031851D01*
X0377819Y0031682D01*
X0377711Y0031516D01*
X0377599Y0031353D01*
X0377483Y0031192D01*
X0377363Y0031034D01*
X0377239Y0030880D01*
X0377111Y0030728D01*
X0376980Y0030580D01*
X0376845Y0030435D01*
X0376707Y0030293D01*
X0376565Y0030155D01*
X0376420Y0030020D01*
X0376272Y0029889D01*
X0376120Y0029761D01*
X0375966Y0029637D01*
X0375808Y0029517D01*
X0375647Y0029401D01*
X0375484Y0029289D01*
X0375318Y0029181D01*
X0375149Y0029077D01*
X0374978Y0028978D01*
X0374805Y0028882D01*
X0374629Y0028791D01*
X0374451Y0028704D01*
X0374271Y0028621D01*
X0374089Y0028543D01*
X0373905Y0028470D01*
X0373719Y0028401D01*
X0373532Y0028336D01*
X0373343Y0028277D01*
X0373153Y0028221D01*
X0372961Y0028171D01*
X0372768Y0028125D01*
X0372575Y0028084D01*
X0372380Y0028048D01*
X0372184Y0028016D01*
X0371988Y0027990D01*
X0371791Y0027968D01*
X0371594Y0027951D01*
X0371396Y0027939D01*
X0371198Y0027931D01*
X0371000Y0027929D01*
X0370802Y0027931D01*
X0370604Y0027939D01*
X0370406Y0027951D01*
X0370209Y0027968D01*
X0370012Y0027990D01*
X0369816Y0028016D01*
X0369620Y0028048D01*
X0369425Y0028084D01*
X0369232Y0028125D01*
X0369039Y0028171D01*
X0368847Y0028221D01*
X0368657Y0028277D01*
X0368468Y0028336D01*
X0368281Y0028401D01*
X0368095Y0028470D01*
X0367911Y0028543D01*
X0367729Y0028621D01*
X0367549Y0028704D01*
X0367371Y0028791D01*
X0367195Y0028882D01*
X0367022Y0028978D01*
X0366851Y0029077D01*
X0366682Y0029181D01*
X0366516Y0029289D01*
X0366353Y0029401D01*
X0366192Y0029517D01*
X0366034Y0029637D01*
X0365880Y0029761D01*
X0365728Y0029889D01*
X0365580Y0030020D01*
X0365435Y0030155D01*
X0365293Y0030293D01*
X0365155Y0030435D01*
X0365020Y0030580D01*
X0364889Y0030728D01*
X0364761Y0030880D01*
X0364637Y0031034D01*
X0364517Y0031192D01*
X0364401Y0031353D01*
X0364289Y0031516D01*
X0364181Y0031682D01*
X0364077Y0031851D01*
X0363978Y0032022D01*
X0363882Y0032195D01*
X0363791Y0032371D01*
X0363704Y0032549D01*
X0363621Y0032729D01*
X0363543Y0032911D01*
X0363470Y0033095D01*
X0363401Y0033281D01*
X0363336Y0033468D01*
X0363277Y0033657D01*
X0363221Y0033847D01*
X0363171Y0034039D01*
X0363125Y0034232D01*
X0363084Y0034425D01*
X0363048Y0034620D01*
X0363016Y0034816D01*
X0362990Y0035012D01*
X0362968Y0035209D01*
X0362951Y0035406D01*
X0362939Y0035604D01*
X0362931Y0035802D01*
X0362929Y0036000D01*
D11*
X0391000Y0006000D02*
X0281000Y0006000D01*
X0281000Y0276000D01*
X0391000Y0276000D01*
X0391000Y0006000D01*
X0258500Y0108500D02*
X0258366Y0108634D01*
X0258366Y0108366D01*
X0253634Y0113099D02*
X0253634Y0113366D01*
X0258500Y0118233D01*
X0258500Y0118500D01*
X0253634Y0113099D02*
X0247949Y0107414D01*
X0239319Y0098784D02*
X0239319Y0119319D01*
X0234586Y0124051D02*
X0239319Y0128784D01*
X0239319Y0149319D01*
X0234586Y0154051D02*
X0239319Y0158784D01*
X0239319Y0179319D01*
X0234586Y0184051D02*
X0234586Y0184586D01*
X0241000Y0191000D01*
X0241000Y0193500D01*
X0247949Y0197414D02*
X0248634Y0198099D01*
X0252384Y0202116D01*
X0248500Y0206000D01*
X0248500Y0208500D01*
X0234358Y0218108D02*
X0234358Y0222642D01*
X0234358Y0218108D02*
X0231000Y0214750D01*
X0231000Y0203500D01*
X0227250Y0207250D02*
X0226000Y0205733D01*
X0223634Y0203366D01*
X0223634Y0203099D01*
X0217949Y0197414D01*
X0211000Y0191000D02*
X0211000Y0181000D01*
X0209319Y0179319D01*
X0204586Y0184051D02*
X0201000Y0180465D01*
X0201000Y0171000D01*
X0211000Y0161000D01*
X0211000Y0151000D01*
X0209319Y0149319D01*
X0204586Y0154051D02*
X0201000Y0150465D01*
X0201000Y0141000D01*
X0211000Y0131000D01*
X0211000Y0121000D01*
X0209319Y0119319D01*
X0204586Y0124051D02*
X0204035Y0123500D01*
X0201000Y0121000D01*
X0201000Y0111000D01*
X0211000Y0101000D01*
X0211000Y0091000D01*
X0209319Y0089319D01*
X0204586Y0094051D02*
X0201535Y0091000D01*
X0201000Y0091000D01*
X0201000Y0081000D01*
X0211000Y0071000D01*
X0211000Y0061000D01*
X0209319Y0059319D01*
X0204586Y0064051D02*
X0201000Y0060465D01*
X0201000Y0056000D01*
X0211000Y0046000D01*
X0221000Y0046000D01*
X0243500Y0068500D01*
X0243500Y0073500D01*
X0233500Y0083500D01*
X0239319Y0089319D01*
X0234586Y0094051D02*
X0239319Y0098784D01*
X0233500Y0103500D02*
X0233500Y0103500D01*
X0228366Y0108366D02*
X0228366Y0108634D01*
X0223634Y0113099D02*
X0223634Y0113366D01*
X0228500Y0118233D01*
X0228500Y0118500D01*
X0223634Y0113099D02*
X0217949Y0107414D01*
X0203500Y0103500D02*
X0203500Y0103500D01*
X0198366Y0108366D02*
X0198366Y0108634D01*
X0193634Y0113099D02*
X0193634Y0113366D01*
X0193634Y0113099D02*
X0187949Y0107414D01*
X0196000Y0115465D01*
X0196000Y0118500D01*
X0179319Y0119319D02*
X0179319Y0098784D01*
X0174586Y0094051D01*
X0179319Y0089319D02*
X0179319Y0068784D01*
X0174586Y0064051D01*
X0179319Y0059319D02*
X0179319Y0038784D01*
X0174586Y0034051D01*
X0179319Y0029319D02*
X0166000Y0016000D01*
X0151000Y0016000D01*
X0141000Y0026000D01*
X0141000Y0030465D01*
X0144586Y0034051D01*
X0149319Y0029319D02*
X0151000Y0031000D01*
X0151000Y0041000D01*
X0141000Y0051000D01*
X0141000Y0061000D01*
X0144035Y0063500D01*
X0144586Y0064051D01*
X0149319Y0059319D02*
X0151000Y0061000D01*
X0151000Y0071000D01*
X0141000Y0081000D01*
X0141000Y0091000D01*
X0141535Y0091000D01*
X0144586Y0094051D01*
X0149319Y0089319D02*
X0151000Y0091000D01*
X0151000Y0101000D01*
X0141000Y0111000D01*
X0141000Y0121000D01*
X0141535Y0121000D01*
X0144586Y0124051D01*
X0149319Y0119319D02*
X0151000Y0121000D01*
X0151000Y0131000D01*
X0141000Y0141000D01*
X0007142Y0141000D02*
X0007182Y0144285D01*
X0007303Y0147568D01*
X0007505Y0150847D01*
X0007787Y0154120D01*
X0008149Y0157386D01*
X0008591Y0160641D01*
X0009113Y0163885D01*
X0009714Y0167114D01*
X0010394Y0170328D01*
X0011154Y0173525D01*
X0011991Y0176702D01*
X0012906Y0179857D01*
X0013898Y0182989D01*
X0014967Y0186095D01*
X0016111Y0189175D01*
X0017331Y0192225D01*
X0018626Y0195245D01*
X0019994Y0198232D01*
X0021435Y0201184D01*
X0022948Y0204100D01*
X0024532Y0206978D01*
X0026186Y0209817D01*
X0027910Y0212614D01*
X0029701Y0215368D01*
X0031560Y0218077D01*
X0033484Y0220739D01*
X0035474Y0223354D01*
X0037526Y0225919D01*
X0039642Y0228432D01*
X0041818Y0230894D01*
X0044054Y0233301D01*
X0046348Y0235652D01*
X0048699Y0237946D01*
X0051106Y0240182D01*
X0053568Y0242358D01*
X0056081Y0244474D01*
X0058646Y0246526D01*
X0061261Y0248516D01*
X0063923Y0250440D01*
X0066632Y0252299D01*
X0069386Y0254090D01*
X0072183Y0255814D01*
X0075022Y0257468D01*
X0077900Y0259052D01*
X0080816Y0260565D01*
X0083768Y0262006D01*
X0086755Y0263374D01*
X0089775Y0264669D01*
X0092825Y0265889D01*
X0095905Y0267033D01*
X0099011Y0268102D01*
X0102143Y0269094D01*
X0105298Y0270009D01*
X0108475Y0270846D01*
X0111672Y0271606D01*
X0114886Y0272286D01*
X0118115Y0272887D01*
X0121359Y0273409D01*
X0124614Y0273851D01*
X0127880Y0274213D01*
X0131153Y0274495D01*
X0134432Y0274697D01*
X0137715Y0274818D01*
X0141000Y0274858D01*
X0144285Y0274818D01*
X0147568Y0274697D01*
X0150847Y0274495D01*
X0154120Y0274213D01*
X0157386Y0273851D01*
X0160641Y0273409D01*
X0163885Y0272887D01*
X0167114Y0272286D01*
X0170328Y0271606D01*
X0173525Y0270846D01*
X0176702Y0270009D01*
X0179857Y0269094D01*
X0182989Y0268102D01*
X0186095Y0267033D01*
X0189175Y0265889D01*
X0192225Y0264669D01*
X0195245Y0263374D01*
X0198232Y0262006D01*
X0201184Y0260565D01*
X0204100Y0259052D01*
X0206978Y0257468D01*
X0209817Y0255814D01*
X0212614Y0254090D01*
X0215368Y0252299D01*
X0218077Y0250440D01*
X0220739Y0248516D01*
X0223354Y0246526D01*
X0225919Y0244474D01*
X0228432Y0242358D01*
X0230894Y0240182D01*
X0233301Y0237946D01*
X0235652Y0235652D01*
X0237946Y0233301D01*
X0240182Y0230894D01*
X0242358Y0228432D01*
X0244474Y0225919D01*
X0246526Y0223354D01*
X0248516Y0220739D01*
X0250440Y0218077D01*
X0252299Y0215368D01*
X0254090Y0212614D01*
X0255814Y0209817D01*
X0257468Y0206978D01*
X0259052Y0204100D01*
X0260565Y0201184D01*
X0262006Y0198232D01*
X0263374Y0195245D01*
X0264669Y0192225D01*
X0265889Y0189175D01*
X0267033Y0186095D01*
X0268102Y0182989D01*
X0269094Y0179857D01*
X0270009Y0176702D01*
X0270846Y0173525D01*
X0271606Y0170328D01*
X0272286Y0167114D01*
X0272887Y0163885D01*
X0273409Y0160641D01*
X0273851Y0157386D01*
X0274213Y0154120D01*
X0274495Y0150847D01*
X0274697Y0147568D01*
X0274818Y0144285D01*
X0274858Y0141000D01*
X0274818Y0137715D01*
X0274697Y0134432D01*
X0274495Y0131153D01*
X0274213Y0127880D01*
X0273851Y0124614D01*
X0273409Y0121359D01*
X0272887Y0118115D01*
X0272286Y0114886D01*
X0271606Y0111672D01*
X0270846Y0108475D01*
X0270009Y0105298D01*
X0269094Y0102143D01*
X0268102Y0099011D01*
X0267033Y0095905D01*
X0265889Y0092825D01*
X0264669Y0089775D01*
X0263374Y0086755D01*
X0262006Y0083768D01*
X0260565Y0080816D01*
X0259052Y0077900D01*
X0257468Y0075022D01*
X0255814Y0072183D01*
X0254090Y0069386D01*
X0252299Y0066632D01*
X0250440Y0063923D01*
X0248516Y0061261D01*
X0246526Y0058646D01*
X0244474Y0056081D01*
X0242358Y0053568D01*
X0240182Y0051106D01*
X0237946Y0048699D01*
X0235652Y0046348D01*
X0233301Y0044054D01*
X0230894Y0041818D01*
X0228432Y0039642D01*
X0225919Y0037526D01*
X0223354Y0035474D01*
X0220739Y0033484D01*
X0218077Y0031560D01*
X0215368Y0029701D01*
X0212614Y0027910D01*
X0209817Y0026186D01*
X0206978Y0024532D01*
X0204100Y0022948D01*
X0201184Y0021435D01*
X0198232Y0019994D01*
X0195245Y0018626D01*
X0192225Y0017331D01*
X0189175Y0016111D01*
X0186095Y0014967D01*
X0182989Y0013898D01*
X0179857Y0012906D01*
X0176702Y0011991D01*
X0173525Y0011154D01*
X0170328Y0010394D01*
X0167114Y0009714D01*
X0163885Y0009113D01*
X0160641Y0008591D01*
X0157386Y0008149D01*
X0154120Y0007787D01*
X0150847Y0007505D01*
X0147568Y0007303D01*
X0144285Y0007182D01*
X0141000Y0007142D01*
X0137715Y0007182D01*
X0134432Y0007303D01*
X0131153Y0007505D01*
X0127880Y0007787D01*
X0124614Y0008149D01*
X0121359Y0008591D01*
X0118115Y0009113D01*
X0114886Y0009714D01*
X0111672Y0010394D01*
X0108475Y0011154D01*
X0105298Y0011991D01*
X0102143Y0012906D01*
X0099011Y0013898D01*
X0095905Y0014967D01*
X0092825Y0016111D01*
X0089775Y0017331D01*
X0086755Y0018626D01*
X0083768Y0019994D01*
X0080816Y0021435D01*
X0077900Y0022948D01*
X0075022Y0024532D01*
X0072183Y0026186D01*
X0069386Y0027910D01*
X0066632Y0029701D01*
X0063923Y0031560D01*
X0061261Y0033484D01*
X0058646Y0035474D01*
X0056081Y0037526D01*
X0053568Y0039642D01*
X0051106Y0041818D01*
X0048699Y0044054D01*
X0046348Y0046348D01*
X0044054Y0048699D01*
X0041818Y0051106D01*
X0039642Y0053568D01*
X0037526Y0056081D01*
X0035474Y0058646D01*
X0033484Y0061261D01*
X0031560Y0063923D01*
X0029701Y0066632D01*
X0027910Y0069386D01*
X0026186Y0072183D01*
X0024532Y0075022D01*
X0022948Y0077900D01*
X0021435Y0080816D01*
X0019994Y0083768D01*
X0018626Y0086755D01*
X0017331Y0089775D01*
X0016111Y0092825D01*
X0014967Y0095905D01*
X0013898Y0099011D01*
X0012906Y0102143D01*
X0011991Y0105298D01*
X0011154Y0108475D01*
X0010394Y0111672D01*
X0009714Y0114886D01*
X0009113Y0118115D01*
X0008591Y0121359D01*
X0008149Y0124614D01*
X0007787Y0127880D01*
X0007505Y0131153D01*
X0007303Y0134432D01*
X0007182Y0137715D01*
X0007142Y0141000D01*
X0021000Y0141000D02*
X0031000Y0131000D01*
X0031000Y0121000D01*
X0029319Y0119319D01*
X0024586Y0124051D02*
X0024035Y0123500D01*
X0021000Y0121000D01*
X0021000Y0111000D01*
X0031000Y0101000D01*
X0031000Y0091000D01*
X0029319Y0089319D01*
X0024586Y0094051D02*
X0024586Y0101164D01*
X0023500Y0102250D01*
X0037949Y0107414D02*
X0043634Y0113099D01*
X0043634Y0113366D01*
X0048500Y0118233D01*
X0048500Y0118500D01*
X0054586Y0124051D02*
X0059319Y0128784D01*
X0059319Y0149319D01*
X0054586Y0154051D02*
X0059319Y0158784D01*
X0059319Y0179319D01*
X0054586Y0184051D02*
X0059319Y0188784D01*
X0059319Y0209319D01*
X0054586Y0214051D02*
X0056000Y0215465D01*
X0056000Y0216000D01*
X0061000Y0221000D01*
X0067949Y0227414D02*
X0073634Y0233099D01*
X0073634Y0233366D01*
X0073634Y0233634D01*
X0073500Y0238500D01*
X0081000Y0240465D02*
X0081000Y0231000D01*
X0091000Y0221000D01*
X0091000Y0211000D01*
X0089319Y0209319D01*
X0084586Y0214051D02*
X0081000Y0210465D01*
X0081000Y0201000D01*
X0091000Y0191000D01*
X0091000Y0181000D01*
X0089319Y0179319D01*
X0084586Y0184051D02*
X0084035Y0183500D01*
X0081000Y0181000D01*
X0081000Y0171000D01*
X0091000Y0161000D01*
X0091000Y0151000D01*
X0089319Y0149319D01*
X0084586Y0154051D02*
X0084035Y0153500D01*
X0081000Y0151000D01*
X0081000Y0141000D01*
X0091000Y0131000D01*
X0091000Y0121000D01*
X0089319Y0119319D01*
X0084586Y0124051D02*
X0084035Y0123500D01*
X0081000Y0121000D01*
X0081000Y0111000D01*
X0091000Y0101000D01*
X0091000Y0091000D01*
X0089319Y0089319D01*
X0084586Y0094051D02*
X0081535Y0091000D01*
X0081000Y0091000D01*
X0081000Y0081000D01*
X0091000Y0071000D01*
X0091000Y0061000D01*
X0089319Y0059319D01*
X0084586Y0064051D02*
X0084035Y0063500D01*
X0081000Y0061000D01*
X0081000Y0051000D01*
X0076000Y0046000D01*
X0076000Y0031000D01*
X0081000Y0026000D01*
X0086000Y0026000D01*
X0089319Y0029319D01*
X0084586Y0034051D02*
X0086535Y0036000D01*
X0096000Y0036000D01*
X0106000Y0026000D01*
X0116000Y0026000D01*
X0119319Y0029319D01*
X0114586Y0034051D02*
X0119319Y0038784D01*
X0119319Y0059319D01*
X0114586Y0064051D02*
X0119319Y0068784D01*
X0119319Y0089319D01*
X0114586Y0094051D02*
X0119319Y0098784D01*
X0119319Y0119319D01*
X0114586Y0124051D02*
X0119319Y0128784D01*
X0119319Y0149319D01*
X0114586Y0154051D02*
X0119319Y0158784D01*
X0119319Y0179319D01*
X0114586Y0184051D02*
X0119319Y0188784D01*
X0119319Y0209319D01*
X0114586Y0214051D02*
X0119319Y0218784D01*
X0119319Y0239319D01*
X0114586Y0244051D02*
X0116000Y0245465D01*
X0116000Y0246000D01*
X0121000Y0251000D01*
X0127949Y0257414D02*
X0133634Y0263099D01*
X0133634Y0263366D01*
X0133634Y0268366D01*
X0133500Y0268500D01*
X0138366Y0258634D02*
X0138366Y0258366D01*
X0138634Y0258366D01*
X0146000Y0261000D02*
X0151000Y0256000D01*
X0151000Y0241000D01*
X0149319Y0239319D01*
X0144586Y0244051D02*
X0141000Y0240465D01*
X0141000Y0231000D01*
X0151000Y0221000D01*
X0151000Y0211000D01*
X0149319Y0209319D01*
X0144586Y0214051D02*
X0144035Y0213500D01*
X0141000Y0211000D01*
X0141000Y0201000D01*
X0151000Y0191000D01*
X0151000Y0181000D01*
X0149319Y0179319D01*
X0144586Y0184051D02*
X0145285Y0184750D01*
X0141000Y0181000D01*
X0141000Y0171000D01*
X0151000Y0161000D01*
X0151000Y0151000D01*
X0149319Y0149319D01*
X0144586Y0154051D02*
X0144035Y0153500D01*
X0141000Y0151000D01*
X0141000Y0141000D01*
X0138366Y0138634D02*
X0138366Y0138366D01*
X0143500Y0133500D02*
X0143500Y0133500D01*
X0133634Y0143099D02*
X0133634Y0143366D01*
X0133634Y0143099D02*
X0127949Y0137414D01*
X0136000Y0145465D01*
X0136000Y0148500D01*
X0143500Y0163500D02*
X0143500Y0163500D01*
X0138366Y0168366D02*
X0138366Y0168634D01*
X0133634Y0173099D02*
X0133634Y0173366D01*
X0136000Y0175733D01*
X0136000Y0178500D01*
X0133634Y0173099D02*
X0127949Y0167414D01*
X0108500Y0178233D02*
X0108500Y0178500D01*
X0108500Y0178233D02*
X0103634Y0173366D01*
X0097949Y0167681D01*
X0097949Y0167414D01*
X0102681Y0162949D02*
X0102681Y0162681D01*
X0108500Y0148500D02*
X0108500Y0148233D01*
X0103634Y0143366D01*
X0097949Y0137681D01*
X0097949Y0137414D01*
X0094051Y0144051D02*
X0094051Y0144586D01*
X0083500Y0133500D02*
X0083500Y0133500D01*
X0078366Y0138366D02*
X0078366Y0138634D01*
X0076000Y0145465D02*
X0076000Y0148500D01*
X0076000Y0145465D02*
X0067949Y0137414D01*
X0073634Y0143099D01*
X0073634Y0143366D01*
X0067949Y0167414D02*
X0067949Y0167681D01*
X0073634Y0173366D01*
X0076000Y0175733D01*
X0076000Y0178500D01*
X0066000Y0176535D02*
X0064051Y0174586D01*
X0078366Y0168634D02*
X0078366Y0168366D01*
X0102681Y0192681D02*
X0102681Y0192949D01*
X0097949Y0197414D02*
X0108500Y0207965D01*
X0108500Y0208500D01*
X0103634Y0203366D02*
X0097949Y0197681D01*
X0097949Y0197414D01*
X0078366Y0198366D02*
X0078366Y0198634D01*
X0073634Y0203366D02*
X0076000Y0205733D01*
X0076000Y0208500D01*
X0073634Y0203366D02*
X0067949Y0197681D01*
X0067949Y0197414D01*
X0048500Y0208500D02*
X0043500Y0203500D01*
X0043634Y0203366D01*
X0043500Y0203500D02*
X0043500Y0202965D01*
X0037949Y0197414D01*
X0042681Y0192949D02*
X0042681Y0192681D01*
X0048500Y0178500D02*
X0048500Y0178233D01*
X0043634Y0173366D01*
X0043634Y0173099D01*
X0037949Y0167414D01*
X0042681Y0162949D02*
X0042681Y0162681D01*
X0048366Y0168366D02*
X0048366Y0168634D01*
X0031000Y0161000D02*
X0031000Y0151000D01*
X0029319Y0149319D01*
X0024586Y0154051D02*
X0021535Y0151000D01*
X0021000Y0151000D01*
X0021000Y0141000D01*
X0037949Y0137414D02*
X0043634Y0143099D01*
X0043634Y0143366D01*
X0048500Y0148233D01*
X0048500Y0148500D01*
X0042681Y0132949D02*
X0042681Y0132681D01*
X0059319Y0119319D02*
X0059319Y0098784D01*
X0054586Y0094051D01*
X0059319Y0089319D02*
X0059319Y0068784D01*
X0054586Y0064051D01*
X0059319Y0059319D02*
X0061000Y0061000D01*
X0061000Y0066000D01*
X0063500Y0068500D01*
X0063500Y0071000D01*
X0067949Y0077414D02*
X0073634Y0083099D01*
X0073634Y0083366D01*
X0076000Y0085733D01*
X0076000Y0088500D01*
X0072681Y0102681D02*
X0072681Y0102949D01*
X0067949Y0107414D02*
X0076000Y0115465D01*
X0076000Y0118500D01*
X0073634Y0113366D02*
X0067949Y0107681D01*
X0067949Y0107414D01*
X0042681Y0102949D02*
X0042681Y0102681D01*
X0072681Y0072949D02*
X0072681Y0072681D01*
X0097949Y0077414D02*
X0103634Y0083099D01*
X0103634Y0083366D01*
X0108500Y0088233D01*
X0108500Y0088500D01*
X0113500Y0103500D02*
X0113500Y0103500D01*
X0108366Y0108366D02*
X0108366Y0108634D01*
X0103634Y0113366D02*
X0103366Y0113366D01*
X0108500Y0118500D01*
X0103366Y0113366D02*
X0098500Y0108500D01*
X0098500Y0107965D01*
X0097949Y0107414D01*
X0113500Y0133500D02*
X0113500Y0133500D01*
X0108366Y0138366D02*
X0108366Y0138634D01*
X0136000Y0118500D02*
X0136000Y0115465D01*
X0127949Y0107414D01*
X0133634Y0113099D01*
X0133634Y0113366D01*
X0138366Y0108634D02*
X0138366Y0108366D01*
X0143500Y0103500D02*
X0143500Y0103500D01*
X0157949Y0107414D02*
X0168500Y0117965D01*
X0168500Y0118500D01*
X0163634Y0113366D02*
X0163634Y0113099D01*
X0157949Y0107414D01*
X0168366Y0108366D02*
X0168366Y0108634D01*
X0173500Y0103500D02*
X0173500Y0103500D01*
X0168500Y0088500D02*
X0168500Y0087965D01*
X0157949Y0077414D01*
X0163634Y0083099D01*
X0163634Y0083366D01*
X0168366Y0078634D02*
X0168366Y0078366D01*
X0173500Y0073500D02*
X0173500Y0073500D01*
X0187949Y0077414D02*
X0193634Y0083099D01*
X0193634Y0083366D01*
X0196000Y0085733D01*
X0196000Y0088500D01*
X0198366Y0078634D02*
X0198366Y0078366D01*
X0203500Y0073500D02*
X0203500Y0073500D01*
X0217949Y0077414D02*
X0223634Y0083099D01*
X0223634Y0083366D01*
X0228500Y0088233D01*
X0228500Y0088500D01*
X0228366Y0078634D02*
X0228366Y0078366D01*
X0233500Y0073500D02*
X0233500Y0073500D01*
X0196000Y0058500D02*
X0196000Y0055465D01*
X0187949Y0047414D01*
X0193634Y0053099D01*
X0193634Y0053366D01*
X0192681Y0042949D02*
X0192681Y0042681D01*
X0168500Y0058233D02*
X0168500Y0058500D01*
X0168500Y0058233D02*
X0163634Y0053366D01*
X0163634Y0053099D01*
X0157949Y0047414D01*
X0162681Y0042949D02*
X0162681Y0042681D01*
X0143500Y0043500D02*
X0143500Y0043500D01*
X0132681Y0042949D02*
X0132681Y0042681D01*
X0127949Y0047414D02*
X0133634Y0053099D01*
X0133634Y0053366D01*
X0136000Y0055733D01*
X0136000Y0058500D01*
X0132681Y0072681D02*
X0132681Y0072949D01*
X0127949Y0077414D02*
X0133634Y0083099D01*
X0133634Y0083366D01*
X0136000Y0085733D01*
X0136000Y0088500D01*
X0108500Y0058500D02*
X0108500Y0058233D01*
X0103634Y0053366D01*
X0103634Y0053099D01*
X0097949Y0047414D01*
X0102681Y0042949D02*
X0108366Y0048634D01*
X0113500Y0043500D01*
X0102681Y0042949D02*
X0102681Y0042681D01*
X0102681Y0072681D02*
X0102681Y0072949D01*
X0157949Y0137414D02*
X0163634Y0143099D01*
X0163634Y0143366D01*
X0168500Y0148233D01*
X0168500Y0148500D01*
X0174586Y0154051D02*
X0179319Y0158784D01*
X0179319Y0179319D01*
X0174586Y0184051D02*
X0179319Y0188784D01*
X0179319Y0209319D01*
X0174586Y0214051D02*
X0176819Y0216284D01*
X0181000Y0221000D01*
X0176000Y0226000D01*
X0176000Y0236000D01*
X0179319Y0239319D01*
X0174586Y0244051D02*
X0176000Y0245465D01*
X0176535Y0246000D01*
X0183500Y0246000D01*
X0188500Y0248500D02*
X0194750Y0242250D01*
X0197250Y0242250D01*
X0202250Y0237250D01*
X0208500Y0243500D01*
X0208233Y0243500D01*
X0208634Y0243366D01*
X0213366Y0238634D02*
X0218366Y0238634D01*
X0218500Y0238500D01*
X0223634Y0233366D01*
X0223634Y0233099D01*
X0217949Y0227414D01*
X0211000Y0231000D02*
X0211000Y0211000D01*
X0209319Y0209319D01*
X0204586Y0214051D02*
X0201000Y0210465D01*
X0201000Y0201000D01*
X0211000Y0191000D01*
X0203500Y0193500D02*
X0203500Y0193500D01*
X0198366Y0198366D02*
X0198366Y0198634D01*
X0193634Y0203099D02*
X0193634Y0203366D01*
X0196000Y0205733D01*
X0196000Y0208500D01*
X0193634Y0203099D02*
X0187949Y0197414D01*
X0173500Y0193500D02*
X0173500Y0193500D01*
X0168366Y0198366D02*
X0168366Y0198634D01*
X0163634Y0203099D02*
X0163634Y0203366D01*
X0168500Y0208233D01*
X0168500Y0208500D01*
X0163634Y0203099D02*
X0157949Y0197414D01*
X0143500Y0193500D02*
X0143500Y0193500D01*
X0138366Y0198366D02*
X0138366Y0198634D01*
X0133634Y0203366D02*
X0127949Y0197681D01*
X0127949Y0197414D01*
X0136000Y0205465D01*
X0136000Y0208500D01*
X0143500Y0223500D02*
X0143500Y0223500D01*
X0138366Y0228366D02*
X0138366Y0228634D01*
X0133634Y0233366D02*
X0127949Y0227681D01*
X0127949Y0227414D01*
X0133634Y0233366D02*
X0136000Y0235733D01*
X0136000Y0238500D01*
X0132681Y0252681D02*
X0132681Y0252949D01*
X0111000Y0266000D02*
X0106535Y0266000D01*
X0097949Y0257414D01*
X0103634Y0263099D01*
X0103634Y0263366D01*
X0102681Y0252949D02*
X0102681Y0252681D01*
X0093500Y0248500D02*
X0093500Y0243500D01*
X0089319Y0239319D01*
X0084586Y0244051D02*
X0081000Y0240465D01*
X0078366Y0228634D02*
X0078366Y0228366D01*
X0083500Y0223500D02*
X0083500Y0223500D01*
X0097949Y0227414D02*
X0103634Y0233099D01*
X0103634Y0233366D01*
X0108500Y0238233D01*
X0108500Y0238500D01*
X0094586Y0234586D02*
X0094051Y0234586D01*
X0102681Y0222949D02*
X0102681Y0222681D01*
X0113500Y0223500D02*
X0113500Y0223500D01*
X0157949Y0227414D02*
X0157949Y0227681D01*
X0163634Y0233366D01*
X0168500Y0238233D01*
X0168500Y0238500D01*
X0176000Y0245465D02*
X0176000Y0246000D01*
X0177086Y0257414D02*
X0171000Y0263500D01*
X0163500Y0263500D01*
X0163634Y0263366D01*
X0163634Y0263099D01*
X0157949Y0257414D01*
X0162681Y0252949D02*
X0162681Y0252681D01*
X0177086Y0257414D02*
X0187949Y0257414D01*
X0192681Y0252681D02*
X0188500Y0248500D01*
X0196000Y0238500D02*
X0196000Y0236000D01*
X0193500Y0233500D01*
X0193500Y0233233D01*
X0187949Y0227681D01*
X0187949Y0227414D01*
X0193500Y0233233D02*
X0193634Y0233366D01*
X0198366Y0228634D02*
X0198366Y0228366D01*
X0203500Y0223500D02*
X0203500Y0223500D01*
X0222681Y0222949D02*
X0222681Y0222681D01*
X0228366Y0198634D02*
X0228366Y0198366D01*
X0228500Y0178500D02*
X0228500Y0178233D01*
X0223634Y0173366D01*
X0217949Y0167681D01*
X0217949Y0167414D01*
X0228366Y0168366D02*
X0228366Y0168634D01*
X0247949Y0167414D02*
X0253634Y0173099D01*
X0253634Y0173366D01*
X0256267Y0176000D01*
X0261000Y0176000D01*
X0263500Y0173500D01*
X0258366Y0168634D02*
X0258366Y0168366D01*
X0263500Y0163500D02*
X0263500Y0163500D01*
X0258500Y0148500D02*
X0258500Y0148233D01*
X0253634Y0143366D01*
X0253634Y0143099D01*
X0247949Y0137414D01*
X0258366Y0138366D02*
X0258366Y0138634D01*
X0263500Y0133500D02*
X0263500Y0133500D01*
X0233500Y0133500D02*
X0233500Y0133500D01*
X0228366Y0138366D02*
X0228366Y0138634D01*
X0223634Y0143099D02*
X0223634Y0143366D01*
X0217949Y0137681D01*
X0217949Y0137414D01*
X0223634Y0143366D02*
X0223634Y0143634D01*
X0228500Y0148500D01*
X0203500Y0163500D02*
X0203500Y0163500D01*
X0198366Y0168366D02*
X0198366Y0168634D01*
X0193634Y0173099D02*
X0193634Y0173366D01*
X0196000Y0175733D01*
X0196000Y0178500D01*
X0193634Y0173099D02*
X0187949Y0167414D01*
X0173500Y0163500D02*
X0173500Y0163500D01*
X0168366Y0168366D02*
X0168366Y0168634D01*
X0163634Y0173099D02*
X0163634Y0173366D01*
X0168500Y0178233D01*
X0168500Y0178500D01*
X0163634Y0173099D02*
X0157949Y0167414D01*
X0179319Y0149319D02*
X0179319Y0128784D01*
X0174586Y0124051D01*
X0173500Y0133500D02*
X0173500Y0133500D01*
X0168366Y0138366D02*
X0168366Y0138634D01*
X0187949Y0137414D02*
X0193634Y0143099D01*
X0193634Y0143366D01*
X0196000Y0145733D01*
X0196000Y0148500D01*
X0162681Y0222681D02*
X0162681Y0222949D01*
X0048108Y0220608D02*
X0031000Y0203500D01*
X0031000Y0181000D01*
X0029319Y0179319D01*
X0024586Y0184051D02*
X0021000Y0180465D01*
X0021000Y0171000D01*
X0031000Y0161000D01*
D12*
G36*
X0043773Y0170444D02*
X0040712Y0173505D01*
X0043495Y0176288D01*
X0046556Y0173227D01*
X0043773Y0170444D01*
G37*
G36*
X0048505Y0165712D02*
X0045444Y0168773D01*
X0048227Y0171556D01*
X0051288Y0168495D01*
X0048505Y0165712D01*
G37*
G36*
X0043773Y0140444D02*
X0040712Y0143505D01*
X0043495Y0146288D01*
X0046556Y0143227D01*
X0043773Y0140444D01*
G37*
G36*
X0048505Y0135712D02*
X0045444Y0138773D01*
X0048227Y0141556D01*
X0051288Y0138495D01*
X0048505Y0135712D01*
G37*
G36*
X0043773Y0110444D02*
X0040712Y0113505D01*
X0043495Y0116288D01*
X0046556Y0113227D01*
X0043773Y0110444D01*
G37*
G36*
X0048505Y0105712D02*
X0045444Y0108773D01*
X0048227Y0111556D01*
X0051288Y0108495D01*
X0048505Y0105712D01*
G37*
G36*
X0073773Y0110444D02*
X0070712Y0113505D01*
X0073495Y0116288D01*
X0076556Y0113227D01*
X0073773Y0110444D01*
G37*
G36*
X0078505Y0105712D02*
X0075444Y0108773D01*
X0078227Y0111556D01*
X0081288Y0108495D01*
X0078505Y0105712D01*
G37*
G36*
X0073773Y0080444D02*
X0070712Y0083505D01*
X0073495Y0086288D01*
X0076556Y0083227D01*
X0073773Y0080444D01*
G37*
G36*
X0078505Y0075712D02*
X0075444Y0078773D01*
X0078227Y0081556D01*
X0081288Y0078495D01*
X0078505Y0075712D01*
G37*
G36*
X0103773Y0080444D02*
X0100712Y0083505D01*
X0103495Y0086288D01*
X0106556Y0083227D01*
X0103773Y0080444D01*
G37*
G36*
X0108505Y0075712D02*
X0105444Y0078773D01*
X0108227Y0081556D01*
X0111288Y0078495D01*
X0108505Y0075712D01*
G37*
G36*
X0103773Y0050444D02*
X0100712Y0053505D01*
X0103495Y0056288D01*
X0106556Y0053227D01*
X0103773Y0050444D01*
G37*
G36*
X0108505Y0045712D02*
X0105444Y0048773D01*
X0108227Y0051556D01*
X0111288Y0048495D01*
X0108505Y0045712D01*
G37*
G36*
X0133773Y0050444D02*
X0130712Y0053505D01*
X0133495Y0056288D01*
X0136556Y0053227D01*
X0133773Y0050444D01*
G37*
G36*
X0138505Y0045712D02*
X0135444Y0048773D01*
X0138227Y0051556D01*
X0141288Y0048495D01*
X0138505Y0045712D01*
G37*
G36*
X0163773Y0050444D02*
X0160712Y0053505D01*
X0163495Y0056288D01*
X0166556Y0053227D01*
X0163773Y0050444D01*
G37*
G36*
X0168505Y0045712D02*
X0165444Y0048773D01*
X0168227Y0051556D01*
X0171288Y0048495D01*
X0168505Y0045712D01*
G37*
G36*
X0193773Y0050444D02*
X0190712Y0053505D01*
X0193495Y0056288D01*
X0196556Y0053227D01*
X0193773Y0050444D01*
G37*
G36*
X0198505Y0045712D02*
X0195444Y0048773D01*
X0198227Y0051556D01*
X0201288Y0048495D01*
X0198505Y0045712D01*
G37*
G36*
X0198505Y0075712D02*
X0195444Y0078773D01*
X0198227Y0081556D01*
X0201288Y0078495D01*
X0198505Y0075712D01*
G37*
G36*
X0193773Y0080444D02*
X0190712Y0083505D01*
X0193495Y0086288D01*
X0196556Y0083227D01*
X0193773Y0080444D01*
G37*
G36*
X0168505Y0075712D02*
X0165444Y0078773D01*
X0168227Y0081556D01*
X0171288Y0078495D01*
X0168505Y0075712D01*
G37*
G36*
X0163773Y0080444D02*
X0160712Y0083505D01*
X0163495Y0086288D01*
X0166556Y0083227D01*
X0163773Y0080444D01*
G37*
G36*
X0138505Y0075712D02*
X0135444Y0078773D01*
X0138227Y0081556D01*
X0141288Y0078495D01*
X0138505Y0075712D01*
G37*
G36*
X0133773Y0080444D02*
X0130712Y0083505D01*
X0133495Y0086288D01*
X0136556Y0083227D01*
X0133773Y0080444D01*
G37*
G36*
X0138505Y0105712D02*
X0135444Y0108773D01*
X0138227Y0111556D01*
X0141288Y0108495D01*
X0138505Y0105712D01*
G37*
G36*
X0133773Y0110444D02*
X0130712Y0113505D01*
X0133495Y0116288D01*
X0136556Y0113227D01*
X0133773Y0110444D01*
G37*
G36*
X0108505Y0105712D02*
X0105444Y0108773D01*
X0108227Y0111556D01*
X0111288Y0108495D01*
X0108505Y0105712D01*
G37*
G36*
X0103773Y0110444D02*
X0100712Y0113505D01*
X0103495Y0116288D01*
X0106556Y0113227D01*
X0103773Y0110444D01*
G37*
G36*
X0108505Y0135712D02*
X0105444Y0138773D01*
X0108227Y0141556D01*
X0111288Y0138495D01*
X0108505Y0135712D01*
G37*
G36*
X0103773Y0140444D02*
X0100712Y0143505D01*
X0103495Y0146288D01*
X0106556Y0143227D01*
X0103773Y0140444D01*
G37*
G36*
X0078505Y0135712D02*
X0075444Y0138773D01*
X0078227Y0141556D01*
X0081288Y0138495D01*
X0078505Y0135712D01*
G37*
G36*
X0073773Y0140444D02*
X0070712Y0143505D01*
X0073495Y0146288D01*
X0076556Y0143227D01*
X0073773Y0140444D01*
G37*
G36*
X0078505Y0165712D02*
X0075444Y0168773D01*
X0078227Y0171556D01*
X0081288Y0168495D01*
X0078505Y0165712D01*
G37*
G36*
X0073773Y0170444D02*
X0070712Y0173505D01*
X0073495Y0176288D01*
X0076556Y0173227D01*
X0073773Y0170444D01*
G37*
G36*
X0078505Y0195712D02*
X0075444Y0198773D01*
X0078227Y0201556D01*
X0081288Y0198495D01*
X0078505Y0195712D01*
G37*
G36*
X0073773Y0200444D02*
X0070712Y0203505D01*
X0073495Y0206288D01*
X0076556Y0203227D01*
X0073773Y0200444D01*
G37*
G36*
X0048505Y0195712D02*
X0045444Y0198773D01*
X0048227Y0201556D01*
X0051288Y0198495D01*
X0048505Y0195712D01*
G37*
G36*
X0043773Y0200444D02*
X0040712Y0203505D01*
X0043495Y0206288D01*
X0046556Y0203227D01*
X0043773Y0200444D01*
G37*
G36*
X0073773Y0230444D02*
X0070712Y0233505D01*
X0073495Y0236288D01*
X0076556Y0233227D01*
X0073773Y0230444D01*
G37*
G36*
X0078505Y0225712D02*
X0075444Y0228773D01*
X0078227Y0231556D01*
X0081288Y0228495D01*
X0078505Y0225712D01*
G37*
G36*
X0103773Y0230444D02*
X0100712Y0233505D01*
X0103495Y0236288D01*
X0106556Y0233227D01*
X0103773Y0230444D01*
G37*
G36*
X0108505Y0225712D02*
X0105444Y0228773D01*
X0108227Y0231556D01*
X0111288Y0228495D01*
X0108505Y0225712D01*
G37*
G36*
X0103773Y0200444D02*
X0100712Y0203505D01*
X0103495Y0206288D01*
X0106556Y0203227D01*
X0103773Y0200444D01*
G37*
G36*
X0108505Y0195712D02*
X0105444Y0198773D01*
X0108227Y0201556D01*
X0111288Y0198495D01*
X0108505Y0195712D01*
G37*
G36*
X0103773Y0170444D02*
X0100712Y0173505D01*
X0103495Y0176288D01*
X0106556Y0173227D01*
X0103773Y0170444D01*
G37*
G36*
X0108505Y0165712D02*
X0105444Y0168773D01*
X0108227Y0171556D01*
X0111288Y0168495D01*
X0108505Y0165712D01*
G37*
G36*
X0133773Y0170444D02*
X0130712Y0173505D01*
X0133495Y0176288D01*
X0136556Y0173227D01*
X0133773Y0170444D01*
G37*
G36*
X0138505Y0165712D02*
X0135444Y0168773D01*
X0138227Y0171556D01*
X0141288Y0168495D01*
X0138505Y0165712D01*
G37*
G36*
X0133773Y0140444D02*
X0130712Y0143505D01*
X0133495Y0146288D01*
X0136556Y0143227D01*
X0133773Y0140444D01*
G37*
G36*
X0138505Y0135712D02*
X0135444Y0138773D01*
X0138227Y0141556D01*
X0141288Y0138495D01*
X0138505Y0135712D01*
G37*
G36*
X0163773Y0140444D02*
X0160712Y0143505D01*
X0163495Y0146288D01*
X0166556Y0143227D01*
X0163773Y0140444D01*
G37*
G36*
X0168505Y0135712D02*
X0165444Y0138773D01*
X0168227Y0141556D01*
X0171288Y0138495D01*
X0168505Y0135712D01*
G37*
G36*
X0163773Y0110444D02*
X0160712Y0113505D01*
X0163495Y0116288D01*
X0166556Y0113227D01*
X0163773Y0110444D01*
G37*
G36*
X0168505Y0105712D02*
X0165444Y0108773D01*
X0168227Y0111556D01*
X0171288Y0108495D01*
X0168505Y0105712D01*
G37*
G36*
X0193773Y0110444D02*
X0190712Y0113505D01*
X0193495Y0116288D01*
X0196556Y0113227D01*
X0193773Y0110444D01*
G37*
G36*
X0198505Y0105712D02*
X0195444Y0108773D01*
X0198227Y0111556D01*
X0201288Y0108495D01*
X0198505Y0105712D01*
G37*
G36*
X0223773Y0110444D02*
X0220712Y0113505D01*
X0223495Y0116288D01*
X0226556Y0113227D01*
X0223773Y0110444D01*
G37*
G36*
X0228505Y0105712D02*
X0225444Y0108773D01*
X0228227Y0111556D01*
X0231288Y0108495D01*
X0228505Y0105712D01*
G37*
G36*
X0223773Y0080444D02*
X0220712Y0083505D01*
X0223495Y0086288D01*
X0226556Y0083227D01*
X0223773Y0080444D01*
G37*
G36*
X0228505Y0075712D02*
X0225444Y0078773D01*
X0228227Y0081556D01*
X0231288Y0078495D01*
X0228505Y0075712D01*
G37*
G36*
X0258505Y0105712D02*
X0255444Y0108773D01*
X0258227Y0111556D01*
X0261288Y0108495D01*
X0258505Y0105712D01*
G37*
G36*
X0253773Y0110444D02*
X0250712Y0113505D01*
X0253495Y0116288D01*
X0256556Y0113227D01*
X0253773Y0110444D01*
G37*
G36*
X0258505Y0135712D02*
X0255444Y0138773D01*
X0258227Y0141556D01*
X0261288Y0138495D01*
X0258505Y0135712D01*
G37*
G36*
X0253773Y0140444D02*
X0250712Y0143505D01*
X0253495Y0146288D01*
X0256556Y0143227D01*
X0253773Y0140444D01*
G37*
G36*
X0228505Y0135712D02*
X0225444Y0138773D01*
X0228227Y0141556D01*
X0231288Y0138495D01*
X0228505Y0135712D01*
G37*
G36*
X0223773Y0140444D02*
X0220712Y0143505D01*
X0223495Y0146288D01*
X0226556Y0143227D01*
X0223773Y0140444D01*
G37*
G36*
X0198505Y0135712D02*
X0195444Y0138773D01*
X0198227Y0141556D01*
X0201288Y0138495D01*
X0198505Y0135712D01*
G37*
G36*
X0193773Y0140444D02*
X0190712Y0143505D01*
X0193495Y0146288D01*
X0196556Y0143227D01*
X0193773Y0140444D01*
G37*
G36*
X0198505Y0165712D02*
X0195444Y0168773D01*
X0198227Y0171556D01*
X0201288Y0168495D01*
X0198505Y0165712D01*
G37*
G36*
X0193773Y0170444D02*
X0190712Y0173505D01*
X0193495Y0176288D01*
X0196556Y0173227D01*
X0193773Y0170444D01*
G37*
G36*
X0168505Y0165712D02*
X0165444Y0168773D01*
X0168227Y0171556D01*
X0171288Y0168495D01*
X0168505Y0165712D01*
G37*
G36*
X0163773Y0170444D02*
X0160712Y0173505D01*
X0163495Y0176288D01*
X0166556Y0173227D01*
X0163773Y0170444D01*
G37*
G36*
X0168505Y0195712D02*
X0165444Y0198773D01*
X0168227Y0201556D01*
X0171288Y0198495D01*
X0168505Y0195712D01*
G37*
G36*
X0163773Y0200444D02*
X0160712Y0203505D01*
X0163495Y0206288D01*
X0166556Y0203227D01*
X0163773Y0200444D01*
G37*
G36*
X0138505Y0195712D02*
X0135444Y0198773D01*
X0138227Y0201556D01*
X0141288Y0198495D01*
X0138505Y0195712D01*
G37*
G36*
X0133773Y0200444D02*
X0130712Y0203505D01*
X0133495Y0206288D01*
X0136556Y0203227D01*
X0133773Y0200444D01*
G37*
G36*
X0138505Y0225712D02*
X0135444Y0228773D01*
X0138227Y0231556D01*
X0141288Y0228495D01*
X0138505Y0225712D01*
G37*
G36*
X0133773Y0230444D02*
X0130712Y0233505D01*
X0133495Y0236288D01*
X0136556Y0233227D01*
X0133773Y0230444D01*
G37*
G36*
X0138505Y0255712D02*
X0135444Y0258773D01*
X0138227Y0261556D01*
X0141288Y0258495D01*
X0138505Y0255712D01*
G37*
G36*
X0133773Y0260444D02*
X0130712Y0263505D01*
X0133495Y0266288D01*
X0136556Y0263227D01*
X0133773Y0260444D01*
G37*
G36*
X0108505Y0255712D02*
X0105444Y0258773D01*
X0108227Y0261556D01*
X0111288Y0258495D01*
X0108505Y0255712D01*
G37*
G36*
X0103773Y0260444D02*
X0100712Y0263505D01*
X0103495Y0266288D01*
X0106556Y0263227D01*
X0103773Y0260444D01*
G37*
G36*
X0163773Y0260444D02*
X0160712Y0263505D01*
X0163495Y0266288D01*
X0166556Y0263227D01*
X0163773Y0260444D01*
G37*
G36*
X0168505Y0255712D02*
X0165444Y0258773D01*
X0168227Y0261556D01*
X0171288Y0258495D01*
X0168505Y0255712D01*
G37*
G36*
X0163773Y0230444D02*
X0160712Y0233505D01*
X0163495Y0236288D01*
X0166556Y0233227D01*
X0163773Y0230444D01*
G37*
G36*
X0168505Y0225712D02*
X0165444Y0228773D01*
X0168227Y0231556D01*
X0171288Y0228495D01*
X0168505Y0225712D01*
G37*
G36*
X0193773Y0230444D02*
X0190712Y0233505D01*
X0193495Y0236288D01*
X0196556Y0233227D01*
X0193773Y0230444D01*
G37*
G36*
X0198505Y0225712D02*
X0195444Y0228773D01*
X0198227Y0231556D01*
X0201288Y0228495D01*
X0198505Y0225712D01*
G37*
G36*
X0213227Y0241556D02*
X0216288Y0238495D01*
X0213505Y0235712D01*
X0210444Y0238773D01*
X0213227Y0241556D01*
G37*
G36*
X0208495Y0246288D02*
X0211556Y0243227D01*
X0208773Y0240444D01*
X0205712Y0243505D01*
X0208495Y0246288D01*
G37*
G36*
X0223773Y0230444D02*
X0220712Y0233505D01*
X0223495Y0236288D01*
X0226556Y0233227D01*
X0223773Y0230444D01*
G37*
G36*
X0228505Y0225712D02*
X0225444Y0228773D01*
X0228227Y0231556D01*
X0231288Y0228495D01*
X0228505Y0225712D01*
G37*
G36*
X0223773Y0200444D02*
X0220712Y0203505D01*
X0223495Y0206288D01*
X0226556Y0203227D01*
X0223773Y0200444D01*
G37*
G36*
X0228505Y0195712D02*
X0225444Y0198773D01*
X0228227Y0201556D01*
X0231288Y0198495D01*
X0228505Y0195712D01*
G37*
G36*
X0223773Y0170444D02*
X0220712Y0173505D01*
X0223495Y0176288D01*
X0226556Y0173227D01*
X0223773Y0170444D01*
G37*
G36*
X0228505Y0165712D02*
X0225444Y0168773D01*
X0228227Y0171556D01*
X0231288Y0168495D01*
X0228505Y0165712D01*
G37*
G36*
X0253773Y0170444D02*
X0250712Y0173505D01*
X0253495Y0176288D01*
X0256556Y0173227D01*
X0253773Y0170444D01*
G37*
G36*
X0258505Y0165712D02*
X0255444Y0168773D01*
X0258227Y0171556D01*
X0261288Y0168495D01*
X0258505Y0165712D01*
G37*
G36*
X0257255Y0194462D02*
X0254194Y0197523D01*
X0256977Y0200306D01*
X0260038Y0197245D01*
X0257255Y0194462D01*
G37*
G36*
X0252523Y0199194D02*
X0249462Y0202255D01*
X0252245Y0205038D01*
X0255306Y0201977D01*
X0252523Y0199194D01*
G37*
G36*
X0198505Y0195712D02*
X0195444Y0198773D01*
X0198227Y0201556D01*
X0201288Y0198495D01*
X0198505Y0195712D01*
G37*
G36*
X0193773Y0200444D02*
X0190712Y0203505D01*
X0193495Y0206288D01*
X0196556Y0203227D01*
X0193773Y0200444D01*
G37*
D13*
X0189201Y0198666D02*
X0186697Y0196162D01*
X0186697Y0196162D01*
X0189201Y0198666D01*
X0189201Y0198666D01*
X0182799Y0203334D02*
X0185303Y0205838D01*
X0182799Y0203334D02*
X0182799Y0203334D01*
X0185303Y0205838D01*
X0185303Y0205838D01*
X0180571Y0210571D02*
X0178067Y0208067D01*
X0178067Y0208067D01*
X0180571Y0210571D01*
X0180571Y0210571D01*
X0175838Y0215303D02*
X0173334Y0212799D01*
X0173334Y0212799D01*
X0175838Y0215303D01*
X0175838Y0215303D01*
X0168666Y0219201D02*
X0166162Y0216697D01*
X0166162Y0216697D01*
X0168666Y0219201D01*
X0168666Y0219201D01*
X0163933Y0223933D02*
X0161429Y0221429D01*
X0161429Y0221429D01*
X0163933Y0223933D01*
X0163933Y0223933D01*
X0159201Y0228666D02*
X0156697Y0226162D01*
X0156697Y0226162D01*
X0159201Y0228666D01*
X0159201Y0228666D01*
X0152799Y0233334D02*
X0155303Y0235838D01*
X0152799Y0233334D02*
X0152799Y0233334D01*
X0155303Y0235838D01*
X0155303Y0235838D01*
X0150571Y0240571D02*
X0148067Y0238067D01*
X0148067Y0238067D01*
X0150571Y0240571D01*
X0150571Y0240571D01*
X0145838Y0245303D02*
X0143334Y0242799D01*
X0143334Y0242799D01*
X0145838Y0245303D01*
X0145838Y0245303D01*
X0138666Y0249201D02*
X0136162Y0246697D01*
X0136162Y0246697D01*
X0138666Y0249201D01*
X0138666Y0249201D01*
X0133933Y0253933D02*
X0131429Y0251429D01*
X0131429Y0251429D01*
X0133933Y0253933D01*
X0133933Y0253933D01*
X0129201Y0258666D02*
X0126697Y0256162D01*
X0126697Y0256162D01*
X0129201Y0258666D01*
X0129201Y0258666D01*
X0115838Y0245303D02*
X0113334Y0242799D01*
X0113334Y0242799D01*
X0115838Y0245303D01*
X0115838Y0245303D01*
X0120571Y0240571D02*
X0118067Y0238067D01*
X0118067Y0238067D01*
X0120571Y0240571D01*
X0120571Y0240571D01*
X0125303Y0235838D02*
X0122799Y0233334D01*
X0122799Y0233334D01*
X0125303Y0235838D01*
X0125303Y0235838D01*
X0129201Y0228666D02*
X0126697Y0226162D01*
X0126697Y0226162D01*
X0129201Y0228666D01*
X0129201Y0228666D01*
X0133933Y0223933D02*
X0131429Y0221429D01*
X0131429Y0221429D01*
X0133933Y0223933D01*
X0133933Y0223933D01*
X0138666Y0219201D02*
X0136162Y0216697D01*
X0136162Y0216697D01*
X0138666Y0219201D01*
X0138666Y0219201D01*
X0143334Y0212799D02*
X0145838Y0215303D01*
X0143334Y0212799D02*
X0143334Y0212799D01*
X0145838Y0215303D01*
X0145838Y0215303D01*
X0150571Y0210571D02*
X0148067Y0208067D01*
X0148067Y0208067D01*
X0150571Y0210571D01*
X0150571Y0210571D01*
X0155303Y0205838D02*
X0152799Y0203334D01*
X0152799Y0203334D01*
X0155303Y0205838D01*
X0155303Y0205838D01*
X0159201Y0198666D02*
X0156697Y0196162D01*
X0156697Y0196162D01*
X0159201Y0198666D01*
X0159201Y0198666D01*
X0163933Y0193933D02*
X0161429Y0191429D01*
X0161429Y0191429D01*
X0163933Y0193933D01*
X0163933Y0193933D01*
X0168666Y0189201D02*
X0166162Y0186697D01*
X0166162Y0186697D01*
X0168666Y0189201D01*
X0168666Y0189201D01*
X0173334Y0182799D02*
X0175838Y0185303D01*
X0173334Y0182799D02*
X0173334Y0182799D01*
X0175838Y0185303D01*
X0175838Y0185303D01*
X0180571Y0180571D02*
X0178067Y0178067D01*
X0178067Y0178067D01*
X0180571Y0180571D01*
X0180571Y0180571D01*
X0185303Y0175838D02*
X0182799Y0173334D01*
X0182799Y0173334D01*
X0185303Y0175838D01*
X0185303Y0175838D01*
X0189201Y0168666D02*
X0186697Y0166162D01*
X0186697Y0166162D01*
X0189201Y0168666D01*
X0189201Y0168666D01*
X0193933Y0163933D02*
X0191429Y0161429D01*
X0191429Y0161429D01*
X0193933Y0163933D01*
X0193933Y0163933D01*
X0198666Y0159201D02*
X0196162Y0156697D01*
X0196162Y0156697D01*
X0198666Y0159201D01*
X0198666Y0159201D01*
X0203334Y0152799D02*
X0205838Y0155303D01*
X0203334Y0152799D02*
X0203334Y0152799D01*
X0205838Y0155303D01*
X0205838Y0155303D01*
X0210571Y0150571D02*
X0208067Y0148067D01*
X0208067Y0148067D01*
X0210571Y0150571D01*
X0210571Y0150571D01*
X0215303Y0145838D02*
X0212799Y0143334D01*
X0212799Y0143334D01*
X0215303Y0145838D01*
X0215303Y0145838D01*
X0219201Y0138666D02*
X0216697Y0136162D01*
X0216697Y0136162D01*
X0219201Y0138666D01*
X0219201Y0138666D01*
X0223933Y0133933D02*
X0221429Y0131429D01*
X0221429Y0131429D01*
X0223933Y0133933D01*
X0223933Y0133933D01*
X0228666Y0129201D02*
X0226162Y0126697D01*
X0226162Y0126697D01*
X0228666Y0129201D01*
X0228666Y0129201D01*
X0233334Y0122799D02*
X0235838Y0125303D01*
X0233334Y0122799D02*
X0233334Y0122799D01*
X0235838Y0125303D01*
X0235838Y0125303D01*
X0240571Y0120571D02*
X0238067Y0118067D01*
X0238067Y0118067D01*
X0240571Y0120571D01*
X0240571Y0120571D01*
X0245303Y0115838D02*
X0242799Y0113334D01*
X0242799Y0113334D01*
X0245303Y0115838D01*
X0245303Y0115838D01*
X0249201Y0108666D02*
X0246697Y0106162D01*
X0246697Y0106162D01*
X0249201Y0108666D01*
X0249201Y0108666D01*
X0253933Y0103933D02*
X0251429Y0101429D01*
X0251429Y0101429D01*
X0253933Y0103933D01*
X0253933Y0103933D01*
X0258666Y0099201D02*
X0256162Y0096697D01*
X0256162Y0096697D01*
X0258666Y0099201D01*
X0258666Y0099201D01*
X0245303Y0085838D02*
X0242799Y0083334D01*
X0242799Y0083334D01*
X0245303Y0085838D01*
X0245303Y0085838D01*
X0240571Y0090571D02*
X0238067Y0088067D01*
X0238067Y0088067D01*
X0240571Y0090571D01*
X0240571Y0090571D01*
X0235838Y0095303D02*
X0233334Y0092799D01*
X0233334Y0092799D01*
X0235838Y0095303D01*
X0235838Y0095303D01*
X0228666Y0099201D02*
X0226162Y0096697D01*
X0226162Y0096697D01*
X0228666Y0099201D01*
X0228666Y0099201D01*
X0223933Y0103933D02*
X0221429Y0101429D01*
X0221429Y0101429D01*
X0223933Y0103933D01*
X0223933Y0103933D01*
X0219201Y0108666D02*
X0216697Y0106162D01*
X0216697Y0106162D01*
X0219201Y0108666D01*
X0219201Y0108666D01*
X0212799Y0113334D02*
X0215303Y0115838D01*
X0212799Y0113334D02*
X0212799Y0113334D01*
X0215303Y0115838D01*
X0215303Y0115838D01*
X0210571Y0120571D02*
X0208067Y0118067D01*
X0208067Y0118067D01*
X0210571Y0120571D01*
X0210571Y0120571D01*
X0205838Y0125303D02*
X0203334Y0122799D01*
X0203334Y0122799D01*
X0205838Y0125303D01*
X0205838Y0125303D01*
X0198666Y0129201D02*
X0196162Y0126697D01*
X0196162Y0126697D01*
X0198666Y0129201D01*
X0198666Y0129201D01*
X0193933Y0133933D02*
X0191429Y0131429D01*
X0191429Y0131429D01*
X0193933Y0133933D01*
X0193933Y0133933D01*
X0189201Y0138666D02*
X0186697Y0136162D01*
X0186697Y0136162D01*
X0189201Y0138666D01*
X0189201Y0138666D01*
X0182799Y0143334D02*
X0185303Y0145838D01*
X0182799Y0143334D02*
X0182799Y0143334D01*
X0185303Y0145838D01*
X0185303Y0145838D01*
X0180571Y0150571D02*
X0178067Y0148067D01*
X0178067Y0148067D01*
X0180571Y0150571D01*
X0180571Y0150571D01*
X0175838Y0155303D02*
X0173334Y0152799D01*
X0173334Y0152799D01*
X0175838Y0155303D01*
X0175838Y0155303D01*
X0168666Y0159201D02*
X0166162Y0156697D01*
X0166162Y0156697D01*
X0168666Y0159201D01*
X0168666Y0159201D01*
X0163933Y0163933D02*
X0161429Y0161429D01*
X0161429Y0161429D01*
X0163933Y0163933D01*
X0163933Y0163933D01*
X0159201Y0168666D02*
X0156697Y0166162D01*
X0156697Y0166162D01*
X0159201Y0168666D01*
X0159201Y0168666D01*
X0152799Y0173334D02*
X0155303Y0175838D01*
X0152799Y0173334D02*
X0152799Y0173334D01*
X0155303Y0175838D01*
X0155303Y0175838D01*
X0150571Y0180571D02*
X0148067Y0178067D01*
X0148067Y0178067D01*
X0150571Y0180571D01*
X0150571Y0180571D01*
X0145838Y0185303D02*
X0143334Y0182799D01*
X0143334Y0182799D01*
X0145838Y0185303D01*
X0145838Y0185303D01*
X0138666Y0189201D02*
X0136162Y0186697D01*
X0136162Y0186697D01*
X0138666Y0189201D01*
X0138666Y0189201D01*
X0133933Y0193933D02*
X0131429Y0191429D01*
X0131429Y0191429D01*
X0133933Y0193933D01*
X0133933Y0193933D01*
X0129201Y0198666D02*
X0126697Y0196162D01*
X0126697Y0196162D01*
X0129201Y0198666D01*
X0129201Y0198666D01*
X0122799Y0203334D02*
X0125303Y0205838D01*
X0122799Y0203334D02*
X0122799Y0203334D01*
X0125303Y0205838D01*
X0125303Y0205838D01*
X0120571Y0210571D02*
X0118067Y0208067D01*
X0118067Y0208067D01*
X0120571Y0210571D01*
X0120571Y0210571D01*
X0115838Y0215303D02*
X0113334Y0212799D01*
X0113334Y0212799D01*
X0115838Y0215303D01*
X0115838Y0215303D01*
X0108666Y0219201D02*
X0106162Y0216697D01*
X0106162Y0216697D01*
X0108666Y0219201D01*
X0108666Y0219201D01*
X0103933Y0223933D02*
X0101429Y0221429D01*
X0101429Y0221429D01*
X0103933Y0223933D01*
X0103933Y0223933D01*
X0099201Y0228666D02*
X0096697Y0226162D01*
X0096697Y0226162D01*
X0099201Y0228666D01*
X0099201Y0228666D01*
X0092799Y0233334D02*
X0095303Y0235838D01*
X0092799Y0233334D02*
X0092799Y0233334D01*
X0095303Y0235838D01*
X0095303Y0235838D01*
X0090571Y0240571D02*
X0088067Y0238067D01*
X0088067Y0238067D01*
X0090571Y0240571D01*
X0090571Y0240571D01*
X0085838Y0245303D02*
X0083334Y0242799D01*
X0083334Y0242799D01*
X0085838Y0245303D01*
X0085838Y0245303D01*
X0096697Y0256162D02*
X0099201Y0258666D01*
X0096697Y0256162D02*
X0096697Y0256162D01*
X0099201Y0258666D01*
X0099201Y0258666D01*
X0103933Y0253933D02*
X0101429Y0251429D01*
X0101429Y0251429D01*
X0103933Y0253933D01*
X0103933Y0253933D01*
X0108666Y0249201D02*
X0106162Y0246697D01*
X0106162Y0246697D01*
X0108666Y0249201D01*
X0108666Y0249201D01*
X0085838Y0215303D02*
X0083334Y0212799D01*
X0083334Y0212799D01*
X0085838Y0215303D01*
X0085838Y0215303D01*
X0090571Y0210571D02*
X0088067Y0208067D01*
X0088067Y0208067D01*
X0090571Y0210571D01*
X0090571Y0210571D01*
X0095303Y0205838D02*
X0092799Y0203334D01*
X0092799Y0203334D01*
X0095303Y0205838D01*
X0095303Y0205838D01*
X0099201Y0198666D02*
X0096697Y0196162D01*
X0096697Y0196162D01*
X0099201Y0198666D01*
X0099201Y0198666D01*
X0103933Y0193933D02*
X0101429Y0191429D01*
X0101429Y0191429D01*
X0103933Y0193933D01*
X0103933Y0193933D01*
X0108666Y0189201D02*
X0106162Y0186697D01*
X0106162Y0186697D01*
X0108666Y0189201D01*
X0108666Y0189201D01*
X0113334Y0182799D02*
X0115838Y0185303D01*
X0113334Y0182799D02*
X0113334Y0182799D01*
X0115838Y0185303D01*
X0115838Y0185303D01*
X0120571Y0180571D02*
X0118067Y0178067D01*
X0118067Y0178067D01*
X0120571Y0180571D01*
X0120571Y0180571D01*
X0125303Y0175838D02*
X0122799Y0173334D01*
X0122799Y0173334D01*
X0125303Y0175838D01*
X0125303Y0175838D01*
X0129201Y0168666D02*
X0126697Y0166162D01*
X0126697Y0166162D01*
X0129201Y0168666D01*
X0129201Y0168666D01*
X0133933Y0163933D02*
X0131429Y0161429D01*
X0131429Y0161429D01*
X0133933Y0163933D01*
X0133933Y0163933D01*
X0138666Y0159201D02*
X0136162Y0156697D01*
X0136162Y0156697D01*
X0138666Y0159201D01*
X0138666Y0159201D01*
X0143334Y0152799D02*
X0145838Y0155303D01*
X0143334Y0152799D02*
X0143334Y0152799D01*
X0145838Y0155303D01*
X0145838Y0155303D01*
X0150571Y0150571D02*
X0148067Y0148067D01*
X0148067Y0148067D01*
X0150571Y0150571D01*
X0150571Y0150571D01*
X0155303Y0145838D02*
X0152799Y0143334D01*
X0152799Y0143334D01*
X0155303Y0145838D01*
X0155303Y0145838D01*
X0159201Y0138666D02*
X0156697Y0136162D01*
X0156697Y0136162D01*
X0159201Y0138666D01*
X0159201Y0138666D01*
X0163933Y0133933D02*
X0161429Y0131429D01*
X0161429Y0131429D01*
X0163933Y0133933D01*
X0163933Y0133933D01*
X0168666Y0129201D02*
X0166162Y0126697D01*
X0166162Y0126697D01*
X0168666Y0129201D01*
X0168666Y0129201D01*
X0173334Y0122799D02*
X0175838Y0125303D01*
X0173334Y0122799D02*
X0173334Y0122799D01*
X0175838Y0125303D01*
X0175838Y0125303D01*
X0180571Y0120571D02*
X0178067Y0118067D01*
X0178067Y0118067D01*
X0180571Y0120571D01*
X0180571Y0120571D01*
X0185303Y0115838D02*
X0182799Y0113334D01*
X0182799Y0113334D01*
X0185303Y0115838D01*
X0185303Y0115838D01*
X0189201Y0108666D02*
X0186697Y0106162D01*
X0186697Y0106162D01*
X0189201Y0108666D01*
X0189201Y0108666D01*
X0193933Y0103933D02*
X0191429Y0101429D01*
X0191429Y0101429D01*
X0193933Y0103933D01*
X0193933Y0103933D01*
X0198666Y0099201D02*
X0196162Y0096697D01*
X0196162Y0096697D01*
X0198666Y0099201D01*
X0198666Y0099201D01*
X0203334Y0092799D02*
X0205838Y0095303D01*
X0203334Y0092799D02*
X0203334Y0092799D01*
X0205838Y0095303D01*
X0205838Y0095303D01*
X0210571Y0090571D02*
X0208067Y0088067D01*
X0208067Y0088067D01*
X0210571Y0090571D01*
X0210571Y0090571D01*
X0215303Y0085838D02*
X0212799Y0083334D01*
X0212799Y0083334D01*
X0215303Y0085838D01*
X0215303Y0085838D01*
X0219201Y0078666D02*
X0216697Y0076162D01*
X0216697Y0076162D01*
X0219201Y0078666D01*
X0219201Y0078666D01*
X0223933Y0073933D02*
X0221429Y0071429D01*
X0221429Y0071429D01*
X0223933Y0073933D01*
X0223933Y0073933D01*
X0228666Y0069201D02*
X0226162Y0066697D01*
X0226162Y0066697D01*
X0228666Y0069201D01*
X0228666Y0069201D01*
X0215303Y0055838D02*
X0212799Y0053334D01*
X0212799Y0053334D01*
X0215303Y0055838D01*
X0215303Y0055838D01*
X0210571Y0060571D02*
X0208067Y0058067D01*
X0208067Y0058067D01*
X0210571Y0060571D01*
X0210571Y0060571D01*
X0205838Y0065303D02*
X0203334Y0062799D01*
X0203334Y0062799D01*
X0205838Y0065303D01*
X0205838Y0065303D01*
X0198666Y0069201D02*
X0196162Y0066697D01*
X0196162Y0066697D01*
X0198666Y0069201D01*
X0198666Y0069201D01*
X0193933Y0073933D02*
X0191429Y0071429D01*
X0191429Y0071429D01*
X0193933Y0073933D01*
X0193933Y0073933D01*
X0189201Y0078666D02*
X0186697Y0076162D01*
X0186697Y0076162D01*
X0189201Y0078666D01*
X0189201Y0078666D01*
X0182799Y0083334D02*
X0185303Y0085838D01*
X0182799Y0083334D02*
X0182799Y0083334D01*
X0185303Y0085838D01*
X0185303Y0085838D01*
X0180571Y0090571D02*
X0178067Y0088067D01*
X0178067Y0088067D01*
X0180571Y0090571D01*
X0180571Y0090571D01*
X0175838Y0095303D02*
X0173334Y0092799D01*
X0173334Y0092799D01*
X0175838Y0095303D01*
X0175838Y0095303D01*
X0168666Y0099201D02*
X0166162Y0096697D01*
X0166162Y0096697D01*
X0168666Y0099201D01*
X0168666Y0099201D01*
X0163933Y0103933D02*
X0161429Y0101429D01*
X0161429Y0101429D01*
X0163933Y0103933D01*
X0163933Y0103933D01*
X0159201Y0108666D02*
X0156697Y0106162D01*
X0156697Y0106162D01*
X0159201Y0108666D01*
X0159201Y0108666D01*
X0152799Y0113334D02*
X0155303Y0115838D01*
X0152799Y0113334D02*
X0152799Y0113334D01*
X0155303Y0115838D01*
X0155303Y0115838D01*
X0150571Y0120571D02*
X0148067Y0118067D01*
X0148067Y0118067D01*
X0150571Y0120571D01*
X0150571Y0120571D01*
X0145838Y0125303D02*
X0143334Y0122799D01*
X0143334Y0122799D01*
X0145838Y0125303D01*
X0145838Y0125303D01*
X0138666Y0129201D02*
X0136162Y0126697D01*
X0136162Y0126697D01*
X0138666Y0129201D01*
X0138666Y0129201D01*
X0133933Y0133933D02*
X0131429Y0131429D01*
X0131429Y0131429D01*
X0133933Y0133933D01*
X0133933Y0133933D01*
X0129201Y0138666D02*
X0126697Y0136162D01*
X0126697Y0136162D01*
X0129201Y0138666D01*
X0129201Y0138666D01*
X0122799Y0143334D02*
X0125303Y0145838D01*
X0122799Y0143334D02*
X0122799Y0143334D01*
X0125303Y0145838D01*
X0125303Y0145838D01*
X0120571Y0150571D02*
X0118067Y0148067D01*
X0118067Y0148067D01*
X0120571Y0150571D01*
X0120571Y0150571D01*
X0115838Y0155303D02*
X0113334Y0152799D01*
X0113334Y0152799D01*
X0115838Y0155303D01*
X0115838Y0155303D01*
X0108666Y0159201D02*
X0106162Y0156697D01*
X0106162Y0156697D01*
X0108666Y0159201D01*
X0108666Y0159201D01*
X0103933Y0163933D02*
X0101429Y0161429D01*
X0101429Y0161429D01*
X0103933Y0163933D01*
X0103933Y0163933D01*
X0099201Y0168666D02*
X0096697Y0166162D01*
X0096697Y0166162D01*
X0099201Y0168666D01*
X0099201Y0168666D01*
X0092799Y0173334D02*
X0095303Y0175838D01*
X0092799Y0173334D02*
X0092799Y0173334D01*
X0095303Y0175838D01*
X0095303Y0175838D01*
X0090571Y0180571D02*
X0088067Y0178067D01*
X0088067Y0178067D01*
X0090571Y0180571D01*
X0090571Y0180571D01*
X0085838Y0185303D02*
X0083334Y0182799D01*
X0083334Y0182799D01*
X0085838Y0185303D01*
X0085838Y0185303D01*
X0078666Y0189201D02*
X0076162Y0186697D01*
X0076162Y0186697D01*
X0078666Y0189201D01*
X0078666Y0189201D01*
X0073933Y0193933D02*
X0071429Y0191429D01*
X0071429Y0191429D01*
X0073933Y0193933D01*
X0073933Y0193933D01*
X0069201Y0198666D02*
X0066697Y0196162D01*
X0066697Y0196162D01*
X0069201Y0198666D01*
X0069201Y0198666D01*
X0062799Y0203334D02*
X0065303Y0205838D01*
X0062799Y0203334D02*
X0062799Y0203334D01*
X0065303Y0205838D01*
X0065303Y0205838D01*
X0060571Y0210571D02*
X0058067Y0208067D01*
X0058067Y0208067D01*
X0060571Y0210571D01*
X0060571Y0210571D01*
X0055838Y0215303D02*
X0053334Y0212799D01*
X0053334Y0212799D01*
X0055838Y0215303D01*
X0055838Y0215303D01*
X0066697Y0226162D02*
X0069201Y0228666D01*
X0066697Y0226162D02*
X0066697Y0226162D01*
X0069201Y0228666D01*
X0069201Y0228666D01*
X0073933Y0223933D02*
X0071429Y0221429D01*
X0071429Y0221429D01*
X0073933Y0223933D01*
X0073933Y0223933D01*
X0078666Y0219201D02*
X0076162Y0216697D01*
X0076162Y0216697D01*
X0078666Y0219201D01*
X0078666Y0219201D01*
X0048666Y0189201D02*
X0046162Y0186697D01*
X0046162Y0186697D01*
X0048666Y0189201D01*
X0048666Y0189201D01*
X0043933Y0193933D02*
X0041429Y0191429D01*
X0041429Y0191429D01*
X0043933Y0193933D01*
X0043933Y0193933D01*
X0039201Y0198666D02*
X0036697Y0196162D01*
X0036697Y0196162D01*
X0039201Y0198666D01*
X0039201Y0198666D01*
X0025838Y0185303D02*
X0023334Y0182799D01*
X0023334Y0182799D01*
X0025838Y0185303D01*
X0025838Y0185303D01*
X0030571Y0180571D02*
X0028067Y0178067D01*
X0028067Y0178067D01*
X0030571Y0180571D01*
X0030571Y0180571D01*
X0035303Y0175838D02*
X0032799Y0173334D01*
X0032799Y0173334D01*
X0035303Y0175838D01*
X0035303Y0175838D01*
X0039201Y0168666D02*
X0036697Y0166162D01*
X0036697Y0166162D01*
X0039201Y0168666D01*
X0039201Y0168666D01*
X0043933Y0163933D02*
X0041429Y0161429D01*
X0041429Y0161429D01*
X0043933Y0163933D01*
X0043933Y0163933D01*
X0048666Y0159201D02*
X0046162Y0156697D01*
X0046162Y0156697D01*
X0048666Y0159201D01*
X0048666Y0159201D01*
X0053334Y0152799D02*
X0055838Y0155303D01*
X0053334Y0152799D02*
X0053334Y0152799D01*
X0055838Y0155303D01*
X0055838Y0155303D01*
X0060571Y0150571D02*
X0058067Y0148067D01*
X0058067Y0148067D01*
X0060571Y0150571D01*
X0060571Y0150571D01*
X0065303Y0145838D02*
X0062799Y0143334D01*
X0062799Y0143334D01*
X0065303Y0145838D01*
X0065303Y0145838D01*
X0069201Y0138666D02*
X0066697Y0136162D01*
X0066697Y0136162D01*
X0069201Y0138666D01*
X0069201Y0138666D01*
X0073933Y0133933D02*
X0071429Y0131429D01*
X0071429Y0131429D01*
X0073933Y0133933D01*
X0073933Y0133933D01*
X0078666Y0129201D02*
X0076162Y0126697D01*
X0076162Y0126697D01*
X0078666Y0129201D01*
X0078666Y0129201D01*
X0083334Y0122799D02*
X0085838Y0125303D01*
X0083334Y0122799D02*
X0083334Y0122799D01*
X0085838Y0125303D01*
X0085838Y0125303D01*
X0090571Y0120571D02*
X0088067Y0118067D01*
X0088067Y0118067D01*
X0090571Y0120571D01*
X0090571Y0120571D01*
X0095303Y0115838D02*
X0092799Y0113334D01*
X0092799Y0113334D01*
X0095303Y0115838D01*
X0095303Y0115838D01*
X0099201Y0108666D02*
X0096697Y0106162D01*
X0096697Y0106162D01*
X0099201Y0108666D01*
X0099201Y0108666D01*
X0103933Y0103933D02*
X0101429Y0101429D01*
X0101429Y0101429D01*
X0103933Y0103933D01*
X0103933Y0103933D01*
X0108666Y0099201D02*
X0106162Y0096697D01*
X0106162Y0096697D01*
X0108666Y0099201D01*
X0108666Y0099201D01*
X0113334Y0092799D02*
X0115838Y0095303D01*
X0113334Y0092799D02*
X0113334Y0092799D01*
X0115838Y0095303D01*
X0115838Y0095303D01*
X0120571Y0090571D02*
X0118067Y0088067D01*
X0118067Y0088067D01*
X0120571Y0090571D01*
X0120571Y0090571D01*
X0125303Y0085838D02*
X0122799Y0083334D01*
X0122799Y0083334D01*
X0125303Y0085838D01*
X0125303Y0085838D01*
X0129201Y0078666D02*
X0126697Y0076162D01*
X0126697Y0076162D01*
X0129201Y0078666D01*
X0129201Y0078666D01*
X0133933Y0073933D02*
X0131429Y0071429D01*
X0131429Y0071429D01*
X0133933Y0073933D01*
X0133933Y0073933D01*
X0138666Y0069201D02*
X0136162Y0066697D01*
X0136162Y0066697D01*
X0138666Y0069201D01*
X0138666Y0069201D01*
X0143334Y0062799D02*
X0145838Y0065303D01*
X0143334Y0062799D02*
X0143334Y0062799D01*
X0145838Y0065303D01*
X0145838Y0065303D01*
X0150571Y0060571D02*
X0148067Y0058067D01*
X0148067Y0058067D01*
X0150571Y0060571D01*
X0150571Y0060571D01*
X0155303Y0055838D02*
X0152799Y0053334D01*
X0152799Y0053334D01*
X0155303Y0055838D01*
X0155303Y0055838D01*
X0159201Y0048666D02*
X0156697Y0046162D01*
X0156697Y0046162D01*
X0159201Y0048666D01*
X0159201Y0048666D01*
X0163933Y0043933D02*
X0161429Y0041429D01*
X0161429Y0041429D01*
X0163933Y0043933D01*
X0163933Y0043933D01*
X0168666Y0039201D02*
X0166162Y0036697D01*
X0166162Y0036697D01*
X0168666Y0039201D01*
X0168666Y0039201D01*
X0173334Y0032799D02*
X0175838Y0035303D01*
X0173334Y0032799D02*
X0173334Y0032799D01*
X0175838Y0035303D01*
X0175838Y0035303D01*
X0180571Y0030571D02*
X0178067Y0028067D01*
X0178067Y0028067D01*
X0180571Y0030571D01*
X0180571Y0030571D01*
X0185303Y0025838D02*
X0182799Y0023334D01*
X0182799Y0023334D01*
X0185303Y0025838D01*
X0185303Y0025838D01*
X0196162Y0036697D02*
X0198666Y0039201D01*
X0196162Y0036697D02*
X0196162Y0036697D01*
X0198666Y0039201D01*
X0198666Y0039201D01*
X0193933Y0043933D02*
X0191429Y0041429D01*
X0191429Y0041429D01*
X0193933Y0043933D01*
X0193933Y0043933D01*
X0189201Y0048666D02*
X0186697Y0046162D01*
X0186697Y0046162D01*
X0189201Y0048666D01*
X0189201Y0048666D01*
X0182799Y0053334D02*
X0185303Y0055838D01*
X0182799Y0053334D02*
X0182799Y0053334D01*
X0185303Y0055838D01*
X0185303Y0055838D01*
X0180571Y0060571D02*
X0178067Y0058067D01*
X0178067Y0058067D01*
X0180571Y0060571D01*
X0180571Y0060571D01*
X0175838Y0065303D02*
X0173334Y0062799D01*
X0173334Y0062799D01*
X0175838Y0065303D01*
X0175838Y0065303D01*
X0168666Y0069201D02*
X0166162Y0066697D01*
X0166162Y0066697D01*
X0168666Y0069201D01*
X0168666Y0069201D01*
X0163933Y0073933D02*
X0161429Y0071429D01*
X0161429Y0071429D01*
X0163933Y0073933D01*
X0163933Y0073933D01*
X0159201Y0078666D02*
X0156697Y0076162D01*
X0156697Y0076162D01*
X0159201Y0078666D01*
X0159201Y0078666D01*
X0152799Y0083334D02*
X0155303Y0085838D01*
X0152799Y0083334D02*
X0152799Y0083334D01*
X0155303Y0085838D01*
X0155303Y0085838D01*
X0150571Y0090571D02*
X0148067Y0088067D01*
X0148067Y0088067D01*
X0150571Y0090571D01*
X0150571Y0090571D01*
X0145838Y0095303D02*
X0143334Y0092799D01*
X0143334Y0092799D01*
X0145838Y0095303D01*
X0145838Y0095303D01*
X0138666Y0099201D02*
X0136162Y0096697D01*
X0136162Y0096697D01*
X0138666Y0099201D01*
X0138666Y0099201D01*
X0133933Y0103933D02*
X0131429Y0101429D01*
X0131429Y0101429D01*
X0133933Y0103933D01*
X0133933Y0103933D01*
X0129201Y0108666D02*
X0126697Y0106162D01*
X0126697Y0106162D01*
X0129201Y0108666D01*
X0129201Y0108666D01*
X0122799Y0113334D02*
X0125303Y0115838D01*
X0122799Y0113334D02*
X0122799Y0113334D01*
X0125303Y0115838D01*
X0125303Y0115838D01*
X0120571Y0120571D02*
X0118067Y0118067D01*
X0118067Y0118067D01*
X0120571Y0120571D01*
X0120571Y0120571D01*
X0115838Y0125303D02*
X0113334Y0122799D01*
X0113334Y0122799D01*
X0115838Y0125303D01*
X0115838Y0125303D01*
X0108666Y0129201D02*
X0106162Y0126697D01*
X0106162Y0126697D01*
X0108666Y0129201D01*
X0108666Y0129201D01*
X0103933Y0133933D02*
X0101429Y0131429D01*
X0101429Y0131429D01*
X0103933Y0133933D01*
X0103933Y0133933D01*
X0099201Y0138666D02*
X0096697Y0136162D01*
X0096697Y0136162D01*
X0099201Y0138666D01*
X0099201Y0138666D01*
X0092799Y0143334D02*
X0095303Y0145838D01*
X0092799Y0143334D02*
X0092799Y0143334D01*
X0095303Y0145838D01*
X0095303Y0145838D01*
X0090571Y0150571D02*
X0088067Y0148067D01*
X0088067Y0148067D01*
X0090571Y0150571D01*
X0090571Y0150571D01*
X0085838Y0155303D02*
X0083334Y0152799D01*
X0083334Y0152799D01*
X0085838Y0155303D01*
X0085838Y0155303D01*
X0078666Y0159201D02*
X0076162Y0156697D01*
X0076162Y0156697D01*
X0078666Y0159201D01*
X0078666Y0159201D01*
X0073933Y0163933D02*
X0071429Y0161429D01*
X0071429Y0161429D01*
X0073933Y0163933D01*
X0073933Y0163933D01*
X0069201Y0168666D02*
X0066697Y0166162D01*
X0066697Y0166162D01*
X0069201Y0168666D01*
X0069201Y0168666D01*
X0062799Y0173334D02*
X0065303Y0175838D01*
X0062799Y0173334D02*
X0062799Y0173334D01*
X0065303Y0175838D01*
X0065303Y0175838D01*
X0060571Y0180571D02*
X0058067Y0178067D01*
X0058067Y0178067D01*
X0060571Y0180571D01*
X0060571Y0180571D01*
X0055838Y0185303D02*
X0053334Y0182799D01*
X0053334Y0182799D01*
X0055838Y0185303D01*
X0055838Y0185303D01*
X0025838Y0155303D02*
X0023334Y0152799D01*
X0023334Y0152799D01*
X0025838Y0155303D01*
X0025838Y0155303D01*
X0030571Y0150571D02*
X0028067Y0148067D01*
X0028067Y0148067D01*
X0030571Y0150571D01*
X0030571Y0150571D01*
X0035303Y0145838D02*
X0032799Y0143334D01*
X0032799Y0143334D01*
X0035303Y0145838D01*
X0035303Y0145838D01*
X0039201Y0138666D02*
X0036697Y0136162D01*
X0036697Y0136162D01*
X0039201Y0138666D01*
X0039201Y0138666D01*
X0043933Y0133933D02*
X0041429Y0131429D01*
X0041429Y0131429D01*
X0043933Y0133933D01*
X0043933Y0133933D01*
X0048666Y0129201D02*
X0046162Y0126697D01*
X0046162Y0126697D01*
X0048666Y0129201D01*
X0048666Y0129201D01*
X0053334Y0122799D02*
X0055838Y0125303D01*
X0053334Y0122799D02*
X0053334Y0122799D01*
X0055838Y0125303D01*
X0055838Y0125303D01*
X0060571Y0120571D02*
X0058067Y0118067D01*
X0058067Y0118067D01*
X0060571Y0120571D01*
X0060571Y0120571D01*
X0065303Y0115838D02*
X0062799Y0113334D01*
X0062799Y0113334D01*
X0065303Y0115838D01*
X0065303Y0115838D01*
X0069201Y0108666D02*
X0066697Y0106162D01*
X0066697Y0106162D01*
X0069201Y0108666D01*
X0069201Y0108666D01*
X0073933Y0103933D02*
X0071429Y0101429D01*
X0071429Y0101429D01*
X0073933Y0103933D01*
X0073933Y0103933D01*
X0078666Y0099201D02*
X0076162Y0096697D01*
X0076162Y0096697D01*
X0078666Y0099201D01*
X0078666Y0099201D01*
X0083334Y0092799D02*
X0085838Y0095303D01*
X0083334Y0092799D02*
X0083334Y0092799D01*
X0085838Y0095303D01*
X0085838Y0095303D01*
X0090571Y0090571D02*
X0088067Y0088067D01*
X0088067Y0088067D01*
X0090571Y0090571D01*
X0090571Y0090571D01*
X0095303Y0085838D02*
X0092799Y0083334D01*
X0092799Y0083334D01*
X0095303Y0085838D01*
X0095303Y0085838D01*
X0099201Y0078666D02*
X0096697Y0076162D01*
X0096697Y0076162D01*
X0099201Y0078666D01*
X0099201Y0078666D01*
X0103933Y0073933D02*
X0101429Y0071429D01*
X0101429Y0071429D01*
X0103933Y0073933D01*
X0103933Y0073933D01*
X0108666Y0069201D02*
X0106162Y0066697D01*
X0106162Y0066697D01*
X0108666Y0069201D01*
X0108666Y0069201D01*
X0113334Y0062799D02*
X0115838Y0065303D01*
X0113334Y0062799D02*
X0113334Y0062799D01*
X0115838Y0065303D01*
X0115838Y0065303D01*
X0120571Y0060571D02*
X0118067Y0058067D01*
X0118067Y0058067D01*
X0120571Y0060571D01*
X0120571Y0060571D01*
X0125303Y0055838D02*
X0122799Y0053334D01*
X0122799Y0053334D01*
X0125303Y0055838D01*
X0125303Y0055838D01*
X0129201Y0048666D02*
X0126697Y0046162D01*
X0126697Y0046162D01*
X0129201Y0048666D01*
X0129201Y0048666D01*
X0133933Y0043933D02*
X0131429Y0041429D01*
X0131429Y0041429D01*
X0133933Y0043933D01*
X0133933Y0043933D01*
X0138666Y0039201D02*
X0136162Y0036697D01*
X0136162Y0036697D01*
X0138666Y0039201D01*
X0138666Y0039201D01*
X0143334Y0032799D02*
X0145838Y0035303D01*
X0143334Y0032799D02*
X0143334Y0032799D01*
X0145838Y0035303D01*
X0145838Y0035303D01*
X0150571Y0030571D02*
X0148067Y0028067D01*
X0148067Y0028067D01*
X0150571Y0030571D01*
X0150571Y0030571D01*
X0155303Y0025838D02*
X0152799Y0023334D01*
X0152799Y0023334D01*
X0155303Y0025838D01*
X0155303Y0025838D01*
X0125303Y0025838D02*
X0122799Y0023334D01*
X0122799Y0023334D01*
X0125303Y0025838D01*
X0125303Y0025838D01*
X0120571Y0030571D02*
X0118067Y0028067D01*
X0118067Y0028067D01*
X0120571Y0030571D01*
X0120571Y0030571D01*
X0115838Y0035303D02*
X0113334Y0032799D01*
X0113334Y0032799D01*
X0115838Y0035303D01*
X0115838Y0035303D01*
X0108666Y0039201D02*
X0106162Y0036697D01*
X0106162Y0036697D01*
X0108666Y0039201D01*
X0108666Y0039201D01*
X0103933Y0043933D02*
X0101429Y0041429D01*
X0101429Y0041429D01*
X0103933Y0043933D01*
X0103933Y0043933D01*
X0099201Y0048666D02*
X0096697Y0046162D01*
X0096697Y0046162D01*
X0099201Y0048666D01*
X0099201Y0048666D01*
X0092799Y0053334D02*
X0095303Y0055838D01*
X0092799Y0053334D02*
X0092799Y0053334D01*
X0095303Y0055838D01*
X0095303Y0055838D01*
X0090571Y0060571D02*
X0088067Y0058067D01*
X0088067Y0058067D01*
X0090571Y0060571D01*
X0090571Y0060571D01*
X0085838Y0065303D02*
X0083334Y0062799D01*
X0083334Y0062799D01*
X0085838Y0065303D01*
X0085838Y0065303D01*
X0078666Y0069201D02*
X0076162Y0066697D01*
X0076162Y0066697D01*
X0078666Y0069201D01*
X0078666Y0069201D01*
X0073933Y0073933D02*
X0071429Y0071429D01*
X0071429Y0071429D01*
X0073933Y0073933D01*
X0073933Y0073933D01*
X0069201Y0078666D02*
X0066697Y0076162D01*
X0066697Y0076162D01*
X0069201Y0078666D01*
X0069201Y0078666D01*
X0062799Y0083334D02*
X0065303Y0085838D01*
X0062799Y0083334D02*
X0062799Y0083334D01*
X0065303Y0085838D01*
X0065303Y0085838D01*
X0060571Y0090571D02*
X0058067Y0088067D01*
X0058067Y0088067D01*
X0060571Y0090571D01*
X0060571Y0090571D01*
X0055838Y0095303D02*
X0053334Y0092799D01*
X0053334Y0092799D01*
X0055838Y0095303D01*
X0055838Y0095303D01*
X0048666Y0099201D02*
X0046162Y0096697D01*
X0046162Y0096697D01*
X0048666Y0099201D01*
X0048666Y0099201D01*
X0043933Y0103933D02*
X0041429Y0101429D01*
X0041429Y0101429D01*
X0043933Y0103933D01*
X0043933Y0103933D01*
X0039201Y0108666D02*
X0036697Y0106162D01*
X0036697Y0106162D01*
X0039201Y0108666D01*
X0039201Y0108666D01*
X0032799Y0113334D02*
X0035303Y0115838D01*
X0032799Y0113334D02*
X0032799Y0113334D01*
X0035303Y0115838D01*
X0035303Y0115838D01*
X0030571Y0120571D02*
X0028067Y0118067D01*
X0028067Y0118067D01*
X0030571Y0120571D01*
X0030571Y0120571D01*
X0025838Y0125303D02*
X0023334Y0122799D01*
X0023334Y0122799D01*
X0025838Y0125303D01*
X0025838Y0125303D01*
X0025838Y0095303D02*
X0023334Y0092799D01*
X0023334Y0092799D01*
X0025838Y0095303D01*
X0025838Y0095303D01*
X0030571Y0090571D02*
X0028067Y0088067D01*
X0028067Y0088067D01*
X0030571Y0090571D01*
X0030571Y0090571D01*
X0035303Y0085838D02*
X0032799Y0083334D01*
X0032799Y0083334D01*
X0035303Y0085838D01*
X0035303Y0085838D01*
X0055838Y0065303D02*
X0053334Y0062799D01*
X0053334Y0062799D01*
X0055838Y0065303D01*
X0055838Y0065303D01*
X0060571Y0060571D02*
X0058067Y0058067D01*
X0058067Y0058067D01*
X0060571Y0060571D01*
X0060571Y0060571D01*
X0065303Y0055838D02*
X0062799Y0053334D01*
X0062799Y0053334D01*
X0065303Y0055838D01*
X0065303Y0055838D01*
X0085838Y0035303D02*
X0083334Y0032799D01*
X0083334Y0032799D01*
X0085838Y0035303D01*
X0085838Y0035303D01*
X0090571Y0030571D02*
X0088067Y0028067D01*
X0088067Y0028067D01*
X0090571Y0030571D01*
X0090571Y0030571D01*
X0095303Y0025838D02*
X0092799Y0023334D01*
X0092799Y0023334D01*
X0095303Y0025838D01*
X0095303Y0025838D01*
X0226162Y0156697D02*
X0228666Y0159201D01*
X0226162Y0156697D02*
X0226162Y0156697D01*
X0228666Y0159201D01*
X0228666Y0159201D01*
X0223933Y0163933D02*
X0221429Y0161429D01*
X0221429Y0161429D01*
X0223933Y0163933D01*
X0223933Y0163933D01*
X0219201Y0168666D02*
X0216697Y0166162D01*
X0216697Y0166162D01*
X0219201Y0168666D01*
X0219201Y0168666D01*
X0212799Y0173334D02*
X0215303Y0175838D01*
X0212799Y0173334D02*
X0212799Y0173334D01*
X0215303Y0175838D01*
X0215303Y0175838D01*
X0210571Y0180571D02*
X0208067Y0178067D01*
X0208067Y0178067D01*
X0210571Y0180571D01*
X0210571Y0180571D01*
X0205838Y0185303D02*
X0203334Y0182799D01*
X0203334Y0182799D01*
X0205838Y0185303D01*
X0205838Y0185303D01*
X0198666Y0189201D02*
X0196162Y0186697D01*
X0196162Y0186697D01*
X0198666Y0189201D01*
X0198666Y0189201D01*
X0193933Y0193933D02*
X0191429Y0191429D01*
X0191429Y0191429D01*
X0193933Y0193933D01*
X0193933Y0193933D01*
X0208067Y0208067D02*
X0210571Y0210571D01*
X0208067Y0208067D02*
X0208067Y0208067D01*
X0210571Y0210571D01*
X0210571Y0210571D01*
X0215303Y0205838D02*
X0212799Y0203334D01*
X0212799Y0203334D01*
X0215303Y0205838D01*
X0215303Y0205838D01*
X0219201Y0198666D02*
X0216697Y0196162D01*
X0216697Y0196162D01*
X0219201Y0198666D01*
X0219201Y0198666D01*
X0223933Y0193933D02*
X0221429Y0191429D01*
X0221429Y0191429D01*
X0223933Y0193933D01*
X0223933Y0193933D01*
X0228666Y0189201D02*
X0226162Y0186697D01*
X0226162Y0186697D01*
X0228666Y0189201D01*
X0228666Y0189201D01*
X0233334Y0182799D02*
X0235838Y0185303D01*
X0233334Y0182799D02*
X0233334Y0182799D01*
X0235838Y0185303D01*
X0235838Y0185303D01*
X0240571Y0180571D02*
X0238067Y0178067D01*
X0238067Y0178067D01*
X0240571Y0180571D01*
X0240571Y0180571D01*
X0245303Y0175838D02*
X0242799Y0173334D01*
X0242799Y0173334D01*
X0245303Y0175838D01*
X0245303Y0175838D01*
X0249201Y0168666D02*
X0246697Y0166162D01*
X0246697Y0166162D01*
X0249201Y0168666D01*
X0249201Y0168666D01*
X0253933Y0163933D02*
X0251429Y0161429D01*
X0251429Y0161429D01*
X0253933Y0163933D01*
X0253933Y0163933D01*
X0258666Y0159201D02*
X0256162Y0156697D01*
X0256162Y0156697D01*
X0258666Y0159201D01*
X0258666Y0159201D01*
X0245303Y0145838D02*
X0242799Y0143334D01*
X0242799Y0143334D01*
X0245303Y0145838D01*
X0245303Y0145838D01*
X0240571Y0150571D02*
X0238067Y0148067D01*
X0238067Y0148067D01*
X0240571Y0150571D01*
X0240571Y0150571D01*
X0235838Y0155303D02*
X0233334Y0152799D01*
X0233334Y0152799D01*
X0235838Y0155303D01*
X0235838Y0155303D01*
X0249201Y0138666D02*
X0246697Y0136162D01*
X0246697Y0136162D01*
X0249201Y0138666D01*
X0249201Y0138666D01*
X0253933Y0133933D02*
X0251429Y0131429D01*
X0251429Y0131429D01*
X0253933Y0133933D01*
X0253933Y0133933D01*
X0258666Y0129201D02*
X0256162Y0126697D01*
X0256162Y0126697D01*
X0258666Y0129201D01*
X0258666Y0129201D01*
X0256162Y0186697D02*
X0258666Y0189201D01*
X0256162Y0186697D02*
X0256162Y0186697D01*
X0258666Y0189201D01*
X0258666Y0189201D01*
X0253933Y0193933D02*
X0251429Y0191429D01*
X0251429Y0191429D01*
X0253933Y0193933D01*
X0253933Y0193933D01*
X0249201Y0198666D02*
X0246697Y0196162D01*
X0246697Y0196162D01*
X0249201Y0198666D01*
X0249201Y0198666D01*
X0228666Y0219201D02*
X0226162Y0216697D01*
X0226162Y0216697D01*
X0228666Y0219201D01*
X0228666Y0219201D01*
X0223933Y0223933D02*
X0221429Y0221429D01*
X0221429Y0221429D01*
X0223933Y0223933D01*
X0223933Y0223933D01*
X0219201Y0228666D02*
X0216697Y0226162D01*
X0216697Y0226162D01*
X0219201Y0228666D01*
X0219201Y0228666D01*
X0205838Y0215303D02*
X0203334Y0212799D01*
X0203334Y0212799D01*
X0205838Y0215303D01*
X0205838Y0215303D01*
X0198666Y0219201D02*
X0196162Y0216697D01*
X0196162Y0216697D01*
X0198666Y0219201D01*
X0198666Y0219201D01*
X0193933Y0223933D02*
X0191429Y0221429D01*
X0191429Y0221429D01*
X0193933Y0223933D01*
X0193933Y0223933D01*
X0189201Y0228666D02*
X0186697Y0226162D01*
X0186697Y0226162D01*
X0189201Y0228666D01*
X0189201Y0228666D01*
X0182799Y0233334D02*
X0185303Y0235838D01*
X0182799Y0233334D02*
X0182799Y0233334D01*
X0185303Y0235838D01*
X0185303Y0235838D01*
X0180571Y0240571D02*
X0178067Y0238067D01*
X0178067Y0238067D01*
X0180571Y0240571D01*
X0180571Y0240571D01*
X0175838Y0245303D02*
X0173334Y0242799D01*
X0173334Y0242799D01*
X0175838Y0245303D01*
X0175838Y0245303D01*
X0168666Y0249201D02*
X0166162Y0246697D01*
X0166162Y0246697D01*
X0168666Y0249201D01*
X0168666Y0249201D01*
X0163933Y0253933D02*
X0161429Y0251429D01*
X0161429Y0251429D01*
X0163933Y0253933D01*
X0163933Y0253933D01*
X0159201Y0258666D02*
X0156697Y0256162D01*
X0156697Y0256162D01*
X0159201Y0258666D01*
X0159201Y0258666D01*
X0186697Y0256162D02*
X0189201Y0258666D01*
X0186697Y0256162D02*
X0186697Y0256162D01*
X0189201Y0258666D01*
X0189201Y0258666D01*
X0193933Y0253933D02*
X0191429Y0251429D01*
X0191429Y0251429D01*
X0193933Y0253933D01*
X0193933Y0253933D01*
X0198666Y0249201D02*
X0196162Y0246697D01*
X0196162Y0246697D01*
X0198666Y0249201D01*
X0198666Y0249201D01*
D14*
X0234358Y0222642D03*
X0241429Y0215571D03*
X0248500Y0208500D03*
X0062250Y0234750D03*
X0055179Y0227679D03*
X0048108Y0220608D03*
D15*
X0306000Y0224750D03*
X0306000Y0214750D03*
X0306000Y0204750D03*
X0306000Y0194750D03*
X0306000Y0184750D03*
X0306000Y0174750D03*
X0306000Y0164750D03*
X0306000Y0154750D03*
X0306000Y0144750D03*
X0306000Y0134750D03*
X0316000Y0134750D03*
X0326000Y0134750D03*
X0336000Y0134750D03*
X0356000Y0134750D03*
X0366000Y0134750D03*
X0366000Y0144750D03*
X0366000Y0154750D03*
X0366000Y0164750D03*
X0366000Y0174750D03*
X0366000Y0184750D03*
X0366000Y0194750D03*
X0366000Y0204750D03*
X0366000Y0214750D03*
X0366000Y0224750D03*
X0366000Y0234750D03*
X0366000Y0244750D03*
X0366000Y0254750D03*
X0366000Y0264750D03*
X0306000Y0264750D03*
X0306000Y0254750D03*
X0306000Y0244750D03*
X0306000Y0234750D03*
D16*
X0313500Y0223300D03*
X0318500Y0223300D03*
X0323500Y0223300D03*
X0328500Y0223300D03*
X0333500Y0223300D03*
X0338500Y0223300D03*
X0343500Y0223300D03*
X0348500Y0223300D03*
X0353500Y0223300D03*
X0358500Y0223300D03*
X0358500Y0183700D03*
X0353500Y0183700D03*
X0348500Y0183700D03*
X0343500Y0183700D03*
X0338500Y0183700D03*
X0333500Y0183700D03*
X0328500Y0183700D03*
X0323500Y0183700D03*
X0318500Y0183700D03*
X0313500Y0183700D03*
D17*
X0294000Y0151000D02*
X0288000Y0151000D01*
X0288000Y0141000D02*
X0294000Y0141000D01*
X0306000Y0121500D02*
X0306000Y0115500D01*
X0316000Y0115500D02*
X0316000Y0121500D01*
X0326000Y0121500D02*
X0326000Y0115500D01*
X0326000Y0104000D02*
X0326000Y0098000D01*
X0316000Y0098000D02*
X0316000Y0104000D01*
X0306000Y0104000D02*
X0306000Y0098000D01*
X0306000Y0086500D02*
X0306000Y0080500D01*
X0316000Y0080500D02*
X0316000Y0086500D01*
X0326000Y0086500D02*
X0326000Y0080500D01*
X0326000Y0069000D02*
X0326000Y0063000D01*
X0316000Y0063000D02*
X0316000Y0069000D01*
X0306000Y0069000D02*
X0306000Y0063000D01*
X0346000Y0063000D02*
X0346000Y0069000D01*
X0356000Y0069000D02*
X0356000Y0063000D01*
X0366000Y0063000D02*
X0366000Y0069000D01*
X0366000Y0080500D02*
X0366000Y0086500D01*
X0356000Y0086500D02*
X0356000Y0080500D01*
X0346000Y0080500D02*
X0346000Y0086500D01*
X0346000Y0098000D02*
X0346000Y0104000D01*
X0356000Y0104000D02*
X0356000Y0098000D01*
X0366000Y0098000D02*
X0366000Y0104000D01*
X0366000Y0115500D02*
X0366000Y0121500D01*
X0356000Y0121500D02*
X0356000Y0115500D01*
X0346000Y0115500D02*
X0346000Y0121500D01*
X0378000Y0139750D02*
X0384000Y0139750D01*
X0384000Y0149750D02*
X0378000Y0149750D01*
X0378000Y0184750D02*
X0384000Y0184750D01*
X0384000Y0194750D02*
X0378000Y0194750D01*
X0378000Y0204750D02*
X0384000Y0204750D01*
X0294000Y0244750D02*
X0288000Y0244750D01*
X0288000Y0254750D02*
X0294000Y0254750D01*
X0294000Y0264750D02*
X0288000Y0264750D01*
D18*
X0241429Y0215571D02*
X0241429Y0215179D01*
X0236000Y0209750D01*
X0236000Y0196000D01*
X0233500Y0193500D01*
X0233500Y0193500D01*
X0228366Y0198634D01*
X0233500Y0193500D01*
X0228366Y0198366D02*
X0222681Y0192681D01*
X0221551Y0191551D01*
X0214051Y0174586D01*
X0222681Y0162681D02*
X0221551Y0161551D01*
X0214051Y0144586D01*
X0222681Y0132681D02*
X0221551Y0131551D01*
X0214051Y0114586D01*
X0203500Y0103500D02*
X0198366Y0108634D01*
X0198366Y0108366D02*
X0192681Y0102681D01*
X0191551Y0101551D01*
X0184051Y0084586D01*
X0192681Y0072681D02*
X0191551Y0071551D01*
X0184051Y0054586D01*
X0192681Y0042949D02*
X0198366Y0048634D01*
X0203500Y0043500D01*
X0192681Y0042681D02*
X0191551Y0041551D01*
X0184051Y0024586D01*
X0173500Y0043500D02*
X0168366Y0048634D01*
X0162681Y0042949D01*
X0162681Y0042681D02*
X0161551Y0041551D01*
X0154051Y0024586D01*
X0143500Y0043500D02*
X0138366Y0048634D01*
X0132681Y0042949D01*
X0132681Y0042681D02*
X0131551Y0041551D01*
X0124051Y0024586D01*
X0120465Y0021000D01*
X0108500Y0021000D01*
X0097637Y0021000D01*
X0094051Y0024586D01*
X0094051Y0054586D02*
X0101551Y0071551D01*
X0102681Y0072681D01*
X0102681Y0072949D02*
X0108366Y0078634D01*
X0113500Y0073500D01*
X0124051Y0084586D02*
X0131551Y0101551D01*
X0132681Y0102681D01*
X0138366Y0108366D01*
X0138366Y0108634D02*
X0143500Y0103500D01*
X0154051Y0114586D02*
X0161551Y0131551D01*
X0162681Y0132681D01*
X0168366Y0138366D01*
X0168366Y0138634D02*
X0173500Y0133500D01*
X0184051Y0144586D02*
X0191551Y0161551D01*
X0192681Y0162681D01*
X0198366Y0168366D01*
X0198366Y0168634D02*
X0203500Y0163500D01*
X0222681Y0162681D02*
X0228366Y0168366D01*
X0228366Y0168634D02*
X0233500Y0163500D01*
X0244051Y0174586D02*
X0248339Y0183577D01*
X0251000Y0181000D01*
X0248339Y0183577D02*
X0252681Y0192681D01*
X0257116Y0197384D01*
X0258366Y0168634D02*
X0263500Y0163500D01*
X0258366Y0168366D02*
X0252681Y0162681D01*
X0251551Y0161551D01*
X0244051Y0144586D01*
X0252681Y0132681D02*
X0251551Y0131551D01*
X0244051Y0114586D01*
X0252681Y0102681D02*
X0251551Y0101551D01*
X0244051Y0084586D01*
X0233500Y0073500D02*
X0228366Y0078634D01*
X0228366Y0078366D02*
X0222681Y0072681D01*
X0221551Y0071551D01*
X0214051Y0054586D01*
X0203500Y0073500D02*
X0198366Y0078634D01*
X0198366Y0078366D02*
X0192681Y0072681D01*
X0173500Y0073500D02*
X0168366Y0078634D01*
X0168366Y0078366D02*
X0162681Y0072681D01*
X0161551Y0071551D01*
X0154051Y0054586D01*
X0143500Y0073500D02*
X0138366Y0078634D01*
X0132681Y0072949D01*
X0132681Y0072681D02*
X0131551Y0071551D01*
X0124051Y0054586D01*
X0094051Y0084586D02*
X0101551Y0101551D01*
X0102681Y0102681D01*
X0108366Y0108366D01*
X0108366Y0108634D02*
X0113500Y0103500D01*
X0124051Y0114586D02*
X0131551Y0131551D01*
X0132681Y0132681D01*
X0138366Y0138366D01*
X0138366Y0138634D02*
X0143500Y0133500D01*
X0154051Y0144586D02*
X0161551Y0161551D01*
X0162681Y0162681D01*
X0168366Y0168366D01*
X0168366Y0168634D02*
X0173500Y0163500D01*
X0184051Y0174586D02*
X0191551Y0191551D01*
X0192681Y0192681D01*
X0198366Y0198366D01*
X0198366Y0198634D02*
X0203500Y0193500D01*
X0209750Y0199750D02*
X0214051Y0204051D01*
X0214051Y0204586D01*
X0221551Y0221551D01*
X0222681Y0222681D01*
X0222681Y0222949D02*
X0228366Y0228634D01*
X0203500Y0223500D02*
X0198366Y0228634D01*
X0198366Y0228366D02*
X0192681Y0222681D01*
X0190301Y0220301D01*
X0184051Y0204586D01*
X0173500Y0193500D02*
X0168366Y0198634D01*
X0168366Y0198366D02*
X0162681Y0192681D01*
X0160301Y0190301D01*
X0154051Y0174586D01*
X0143500Y0163500D02*
X0138366Y0168634D01*
X0138366Y0168366D02*
X0132681Y0162681D01*
X0131551Y0161551D01*
X0124051Y0144586D01*
X0113500Y0133500D02*
X0108366Y0138634D01*
X0108366Y0138366D02*
X0102681Y0132681D01*
X0101551Y0131551D01*
X0094051Y0114586D01*
X0083500Y0103500D02*
X0078366Y0108634D01*
X0072681Y0102949D01*
X0072681Y0102681D02*
X0071551Y0101551D01*
X0064051Y0084586D01*
X0072681Y0072949D02*
X0078366Y0078634D01*
X0083500Y0073500D01*
X0072681Y0072681D02*
X0071551Y0071551D01*
X0064051Y0054586D01*
X0034051Y0084586D02*
X0041551Y0101551D01*
X0042681Y0102681D01*
X0042681Y0102949D02*
X0048366Y0108634D01*
X0053500Y0103500D01*
X0064051Y0114586D02*
X0071551Y0131551D01*
X0072681Y0132681D01*
X0078366Y0138366D01*
X0078366Y0138634D02*
X0083500Y0133500D01*
X0094051Y0144586D02*
X0100301Y0160301D01*
X0102681Y0162681D01*
X0102681Y0162949D02*
X0108366Y0168634D01*
X0113500Y0163500D01*
X0124051Y0174586D02*
X0131551Y0191551D01*
X0132681Y0192681D01*
X0138366Y0198366D01*
X0138366Y0198634D02*
X0143500Y0193500D01*
X0154051Y0204586D02*
X0161551Y0221551D01*
X0162681Y0222681D01*
X0162681Y0222949D02*
X0168366Y0228634D01*
X0173500Y0223500D01*
X0181000Y0228500D02*
X0184051Y0231551D01*
X0184051Y0234586D01*
X0173500Y0253500D02*
X0168366Y0258634D01*
X0162681Y0252949D01*
X0162681Y0252681D02*
X0160301Y0250301D01*
X0154051Y0234586D01*
X0143500Y0223500D02*
X0138366Y0228634D01*
X0138366Y0228366D02*
X0132681Y0222681D01*
X0130301Y0220301D01*
X0124051Y0204586D01*
X0113500Y0193500D02*
X0108366Y0198634D01*
X0102681Y0192949D01*
X0102681Y0192681D02*
X0100301Y0190301D01*
X0094051Y0174586D01*
X0083500Y0163500D02*
X0083500Y0163500D01*
X0078366Y0168634D01*
X0078366Y0168366D02*
X0072681Y0162681D01*
X0071551Y0161551D01*
X0064051Y0144586D01*
X0053500Y0133500D02*
X0048366Y0138634D01*
X0042681Y0132949D01*
X0042681Y0132681D02*
X0041551Y0131551D01*
X0034051Y0114586D01*
X0034051Y0144586D02*
X0041551Y0161551D01*
X0042681Y0162681D01*
X0048366Y0168366D01*
X0048366Y0168634D02*
X0053500Y0163500D01*
X0066000Y0176535D02*
X0071000Y0191000D01*
X0072681Y0192681D01*
X0078366Y0198366D01*
X0078366Y0198634D02*
X0083500Y0193500D01*
X0094051Y0204586D02*
X0101551Y0221551D01*
X0102681Y0222681D01*
X0102681Y0222949D02*
X0108366Y0228634D01*
X0113500Y0223500D01*
X0124051Y0234586D02*
X0131551Y0251551D01*
X0132681Y0252681D01*
X0132681Y0252949D02*
X0138366Y0258634D01*
X0138634Y0258366D02*
X0143500Y0253500D01*
X0113500Y0253500D02*
X0108366Y0258634D01*
X0102681Y0252949D01*
X0102681Y0252681D02*
X0101000Y0251000D01*
X0094586Y0234586D01*
X0083500Y0223500D02*
X0078366Y0228634D01*
X0078366Y0228366D02*
X0072681Y0222681D01*
X0070301Y0220301D01*
X0064051Y0204586D01*
X0053500Y0193500D02*
X0048366Y0198634D01*
X0042681Y0192949D01*
X0042681Y0192681D02*
X0040301Y0190301D01*
X0034051Y0174586D01*
X0161551Y0101551D02*
X0154051Y0084586D01*
X0161551Y0101551D02*
X0162681Y0102681D01*
X0168366Y0108366D01*
X0168366Y0108634D02*
X0173500Y0103500D01*
X0184051Y0114586D02*
X0191551Y0131551D01*
X0192681Y0132681D01*
X0198366Y0138634D01*
X0203500Y0133500D01*
X0222681Y0132681D02*
X0228366Y0138366D01*
X0228366Y0138634D02*
X0233500Y0133500D01*
X0252681Y0132681D02*
X0258366Y0138366D01*
X0258366Y0138634D02*
X0263500Y0133500D01*
X0263500Y0123500D02*
X0263500Y0113500D01*
X0258500Y0108500D01*
X0258366Y0108366D02*
X0252681Y0102681D01*
X0233500Y0103500D02*
X0228366Y0108634D01*
X0228366Y0108366D02*
X0222681Y0102681D01*
X0221551Y0101551D01*
X0214051Y0084586D01*
D19*
X0203500Y0073500D03*
X0196000Y0058500D03*
X0203500Y0043500D03*
X0173500Y0043500D03*
X0168500Y0058500D03*
X0173500Y0073500D03*
X0168500Y0088500D03*
X0173500Y0103500D03*
X0168500Y0118500D03*
X0173500Y0133500D03*
X0168500Y0148500D03*
X0173500Y0163500D03*
X0168500Y0178500D03*
X0173500Y0193500D03*
X0168500Y0208500D03*
X0173500Y0223500D03*
X0181000Y0228500D03*
X0168500Y0238500D03*
X0173500Y0253500D03*
X0177086Y0257414D03*
X0183500Y0246000D03*
X0196000Y0238500D03*
X0202250Y0237250D03*
X0211000Y0231000D03*
X0203500Y0223500D03*
X0196000Y0208500D03*
X0209750Y0199750D03*
X0203500Y0193500D03*
X0196000Y0178500D03*
X0203500Y0163500D03*
X0196000Y0148500D03*
X0203500Y0133500D03*
X0196000Y0118500D03*
X0203500Y0103500D03*
X0196000Y0088500D03*
X0228500Y0088500D03*
X0233500Y0073500D03*
X0233500Y0103500D03*
X0228500Y0118500D03*
X0233500Y0133500D03*
X0228500Y0148500D03*
X0233500Y0163500D03*
X0228500Y0178500D03*
X0233500Y0193500D03*
X0241000Y0193500D03*
X0231000Y0203500D03*
X0227250Y0207250D03*
X0251000Y0181000D03*
X0263500Y0173500D03*
X0263500Y0163500D03*
X0258500Y0148500D03*
X0263500Y0133500D03*
X0263500Y0123500D03*
X0258500Y0118500D03*
X0329750Y0192250D03*
X0341000Y0203500D03*
X0346000Y0208500D03*
X0333500Y0214750D03*
X0321000Y0214750D03*
X0312250Y0213500D03*
X0313500Y0231000D03*
X0326000Y0231000D03*
X0358500Y0212250D03*
X0353500Y0169750D03*
X0356000Y0143500D03*
X0218500Y0238500D03*
X0146000Y0261000D03*
X0143500Y0253500D03*
X0133500Y0268500D03*
X0121000Y0251000D03*
X0113500Y0253500D03*
X0111000Y0266000D03*
X0093500Y0248500D03*
X0108500Y0238500D03*
X0113500Y0223500D03*
X0108500Y0208500D03*
X0113500Y0193500D03*
X0108500Y0178500D03*
X0113500Y0163500D03*
X0108500Y0148500D03*
X0113500Y0133500D03*
X0108500Y0118500D03*
X0113500Y0103500D03*
X0108500Y0088500D03*
X0113500Y0073500D03*
X0108500Y0058500D03*
X0113500Y0043500D03*
X0108500Y0021000D03*
X0143500Y0043500D03*
X0136000Y0058500D03*
X0143500Y0073500D03*
X0136000Y0088500D03*
X0143500Y0103500D03*
X0136000Y0118500D03*
X0143500Y0133500D03*
X0136000Y0148500D03*
X0143500Y0163500D03*
X0136000Y0178500D03*
X0143500Y0193500D03*
X0136000Y0208500D03*
X0143500Y0223500D03*
X0136000Y0238500D03*
X0083500Y0223500D03*
X0076000Y0208500D03*
X0083500Y0193500D03*
X0076000Y0178500D03*
X0083500Y0163500D03*
X0076000Y0148500D03*
X0083500Y0133500D03*
X0076000Y0118500D03*
X0083500Y0103500D03*
X0076000Y0088500D03*
X0083500Y0073500D03*
X0063500Y0071000D03*
X0053500Y0103500D03*
X0048500Y0118500D03*
X0053500Y0133500D03*
X0048500Y0148500D03*
X0053500Y0163500D03*
X0048500Y0178500D03*
X0053500Y0193500D03*
X0048500Y0208500D03*
X0061000Y0221000D03*
X0073500Y0238500D03*
X0023500Y0102250D03*
D20*
X0291000Y0141000D02*
X0299750Y0149750D01*
X0299750Y0236000D01*
X0303500Y0239750D01*
X0351000Y0239750D01*
X0358500Y0232250D01*
X0358500Y0223300D01*
X0353500Y0223300D02*
X0353500Y0231000D01*
X0349750Y0234750D01*
X0306000Y0234750D01*
X0313500Y0231000D02*
X0313500Y0223300D01*
X0313500Y0217250D01*
X0316000Y0214750D01*
X0316000Y0208500D01*
X0327250Y0197250D01*
X0349750Y0197250D01*
X0353500Y0193500D01*
X0353500Y0183700D01*
X0353500Y0188500D01*
X0364750Y0199750D01*
X0368500Y0199750D01*
X0373500Y0204750D01*
X0381000Y0204750D01*
X0366000Y0204750D02*
X0358500Y0199750D01*
X0337250Y0199750D01*
X0328500Y0208500D01*
X0328500Y0223300D01*
X0323500Y0223300D02*
X0323500Y0228500D01*
X0326000Y0231000D01*
X0333500Y0223500D02*
X0333500Y0223300D01*
X0333500Y0214750D01*
X0338500Y0207250D02*
X0341000Y0203500D01*
X0338500Y0207250D02*
X0338500Y0223300D01*
X0343500Y0223300D02*
X0343500Y0212250D01*
X0346000Y0208500D01*
X0352250Y0212250D02*
X0348500Y0216000D01*
X0348500Y0223300D01*
X0352250Y0212250D02*
X0358500Y0212250D01*
X0358500Y0232250D02*
X0358500Y0257250D01*
X0366000Y0264750D01*
X0318500Y0223300D02*
X0318500Y0216000D01*
X0319750Y0214750D01*
X0321000Y0214750D01*
X0312250Y0213500D02*
X0312250Y0206000D01*
X0326000Y0192250D01*
X0329750Y0192250D01*
X0328500Y0183700D02*
X0328500Y0142250D01*
X0331000Y0139750D01*
X0331000Y0129750D01*
X0334750Y0126000D01*
X0334750Y0081000D01*
X0328500Y0074750D01*
X0313500Y0074750D01*
X0306000Y0067250D01*
X0306000Y0066000D01*
X0306000Y0083500D02*
X0306000Y0084750D01*
X0313500Y0092250D01*
X0328500Y0092250D01*
X0332250Y0096000D01*
X0332250Y0124750D01*
X0328500Y0128500D01*
X0323500Y0128500D01*
X0321000Y0131000D01*
X0321000Y0138500D01*
X0323500Y0141000D01*
X0323500Y0183700D01*
X0318500Y0183700D02*
X0318500Y0144750D01*
X0311000Y0137250D01*
X0311000Y0104750D01*
X0306000Y0101000D01*
X0306000Y0118500D02*
X0299750Y0124750D01*
X0299750Y0137250D01*
X0302250Y0139750D01*
X0307250Y0139750D01*
X0313500Y0146000D01*
X0313500Y0183700D01*
X0333500Y0183700D02*
X0333500Y0148500D01*
X0342250Y0139750D01*
X0342250Y0131000D01*
X0337250Y0126000D01*
X0337250Y0081000D01*
X0346000Y0072250D01*
X0346000Y0066000D01*
X0346000Y0083500D02*
X0346000Y0089750D01*
X0341000Y0094750D01*
X0341000Y0123500D01*
X0347250Y0129750D01*
X0347250Y0142250D01*
X0338500Y0151000D01*
X0338500Y0183700D01*
X0343500Y0183700D02*
X0343500Y0151000D01*
X0351000Y0143500D01*
X0351000Y0104750D01*
X0346000Y0101000D01*
X0356000Y0143500D02*
X0356000Y0147250D01*
X0348500Y0154750D01*
X0348500Y0183700D01*
X0353500Y0183700D02*
X0353500Y0169750D01*
X0296000Y0244750D02*
X0291000Y0244750D01*
X0296000Y0244750D02*
X0306000Y0254750D01*
M02*
