G75*
%MOIN*%
%OFA0B0*%
%FSLAX25Y25*%
%IPPOS*%
%LPD*%
%AMOC8*
5,1,8,0,0,1.08239X$1,22.5*
%
%ADD10C,0.00000*%
%ADD11C,0.01200*%
%ADD12C,0.16542*%
%ADD13R,0.04731X0.04337*%
%ADD14C,0.04731*%
%ADD15C,0.07800*%
%ADD16C,0.06200*%
%ADD17R,0.03000X0.08400*%
%ADD18C,0.06400*%
D10*
X0001000Y0001000D02*
X0001000Y0394701D01*
X0394701Y0394701D01*
X0394701Y0001000D01*
X0001000Y0001000D01*
X0295429Y0036000D02*
X0295431Y0036198D01*
X0295439Y0036396D01*
X0295451Y0036594D01*
X0295468Y0036791D01*
X0295490Y0036988D01*
X0295516Y0037184D01*
X0295548Y0037380D01*
X0295584Y0037575D01*
X0295625Y0037768D01*
X0295671Y0037961D01*
X0295721Y0038153D01*
X0295777Y0038343D01*
X0295836Y0038532D01*
X0295901Y0038719D01*
X0295970Y0038905D01*
X0296043Y0039089D01*
X0296121Y0039271D01*
X0296204Y0039451D01*
X0296291Y0039629D01*
X0296382Y0039805D01*
X0296478Y0039978D01*
X0296577Y0040149D01*
X0296681Y0040318D01*
X0296789Y0040484D01*
X0296901Y0040647D01*
X0297017Y0040808D01*
X0297137Y0040966D01*
X0297261Y0041120D01*
X0297389Y0041272D01*
X0297520Y0041420D01*
X0297655Y0041565D01*
X0297793Y0041707D01*
X0297935Y0041845D01*
X0298080Y0041980D01*
X0298228Y0042111D01*
X0298380Y0042239D01*
X0298534Y0042363D01*
X0298692Y0042483D01*
X0298853Y0042599D01*
X0299016Y0042711D01*
X0299182Y0042819D01*
X0299351Y0042923D01*
X0299522Y0043022D01*
X0299695Y0043118D01*
X0299871Y0043209D01*
X0300049Y0043296D01*
X0300229Y0043379D01*
X0300411Y0043457D01*
X0300595Y0043530D01*
X0300781Y0043599D01*
X0300968Y0043664D01*
X0301157Y0043723D01*
X0301347Y0043779D01*
X0301539Y0043829D01*
X0301732Y0043875D01*
X0301925Y0043916D01*
X0302120Y0043952D01*
X0302316Y0043984D01*
X0302512Y0044010D01*
X0302709Y0044032D01*
X0302906Y0044049D01*
X0303104Y0044061D01*
X0303302Y0044069D01*
X0303500Y0044071D01*
X0303698Y0044069D01*
X0303896Y0044061D01*
X0304094Y0044049D01*
X0304291Y0044032D01*
X0304488Y0044010D01*
X0304684Y0043984D01*
X0304880Y0043952D01*
X0305075Y0043916D01*
X0305268Y0043875D01*
X0305461Y0043829D01*
X0305653Y0043779D01*
X0305843Y0043723D01*
X0306032Y0043664D01*
X0306219Y0043599D01*
X0306405Y0043530D01*
X0306589Y0043457D01*
X0306771Y0043379D01*
X0306951Y0043296D01*
X0307129Y0043209D01*
X0307305Y0043118D01*
X0307478Y0043022D01*
X0307649Y0042923D01*
X0307818Y0042819D01*
X0307984Y0042711D01*
X0308147Y0042599D01*
X0308308Y0042483D01*
X0308466Y0042363D01*
X0308620Y0042239D01*
X0308772Y0042111D01*
X0308920Y0041980D01*
X0309065Y0041845D01*
X0309207Y0041707D01*
X0309345Y0041565D01*
X0309480Y0041420D01*
X0309611Y0041272D01*
X0309739Y0041120D01*
X0309863Y0040966D01*
X0309983Y0040808D01*
X0310099Y0040647D01*
X0310211Y0040484D01*
X0310319Y0040318D01*
X0310423Y0040149D01*
X0310522Y0039978D01*
X0310618Y0039805D01*
X0310709Y0039629D01*
X0310796Y0039451D01*
X0310879Y0039271D01*
X0310957Y0039089D01*
X0311030Y0038905D01*
X0311099Y0038719D01*
X0311164Y0038532D01*
X0311223Y0038343D01*
X0311279Y0038153D01*
X0311329Y0037961D01*
X0311375Y0037768D01*
X0311416Y0037575D01*
X0311452Y0037380D01*
X0311484Y0037184D01*
X0311510Y0036988D01*
X0311532Y0036791D01*
X0311549Y0036594D01*
X0311561Y0036396D01*
X0311569Y0036198D01*
X0311571Y0036000D01*
X0311569Y0035802D01*
X0311561Y0035604D01*
X0311549Y0035406D01*
X0311532Y0035209D01*
X0311510Y0035012D01*
X0311484Y0034816D01*
X0311452Y0034620D01*
X0311416Y0034425D01*
X0311375Y0034232D01*
X0311329Y0034039D01*
X0311279Y0033847D01*
X0311223Y0033657D01*
X0311164Y0033468D01*
X0311099Y0033281D01*
X0311030Y0033095D01*
X0310957Y0032911D01*
X0310879Y0032729D01*
X0310796Y0032549D01*
X0310709Y0032371D01*
X0310618Y0032195D01*
X0310522Y0032022D01*
X0310423Y0031851D01*
X0310319Y0031682D01*
X0310211Y0031516D01*
X0310099Y0031353D01*
X0309983Y0031192D01*
X0309863Y0031034D01*
X0309739Y0030880D01*
X0309611Y0030728D01*
X0309480Y0030580D01*
X0309345Y0030435D01*
X0309207Y0030293D01*
X0309065Y0030155D01*
X0308920Y0030020D01*
X0308772Y0029889D01*
X0308620Y0029761D01*
X0308466Y0029637D01*
X0308308Y0029517D01*
X0308147Y0029401D01*
X0307984Y0029289D01*
X0307818Y0029181D01*
X0307649Y0029077D01*
X0307478Y0028978D01*
X0307305Y0028882D01*
X0307129Y0028791D01*
X0306951Y0028704D01*
X0306771Y0028621D01*
X0306589Y0028543D01*
X0306405Y0028470D01*
X0306219Y0028401D01*
X0306032Y0028336D01*
X0305843Y0028277D01*
X0305653Y0028221D01*
X0305461Y0028171D01*
X0305268Y0028125D01*
X0305075Y0028084D01*
X0304880Y0028048D01*
X0304684Y0028016D01*
X0304488Y0027990D01*
X0304291Y0027968D01*
X0304094Y0027951D01*
X0303896Y0027939D01*
X0303698Y0027931D01*
X0303500Y0027929D01*
X0303302Y0027931D01*
X0303104Y0027939D01*
X0302906Y0027951D01*
X0302709Y0027968D01*
X0302512Y0027990D01*
X0302316Y0028016D01*
X0302120Y0028048D01*
X0301925Y0028084D01*
X0301732Y0028125D01*
X0301539Y0028171D01*
X0301347Y0028221D01*
X0301157Y0028277D01*
X0300968Y0028336D01*
X0300781Y0028401D01*
X0300595Y0028470D01*
X0300411Y0028543D01*
X0300229Y0028621D01*
X0300049Y0028704D01*
X0299871Y0028791D01*
X0299695Y0028882D01*
X0299522Y0028978D01*
X0299351Y0029077D01*
X0299182Y0029181D01*
X0299016Y0029289D01*
X0298853Y0029401D01*
X0298692Y0029517D01*
X0298534Y0029637D01*
X0298380Y0029761D01*
X0298228Y0029889D01*
X0298080Y0030020D01*
X0297935Y0030155D01*
X0297793Y0030293D01*
X0297655Y0030435D01*
X0297520Y0030580D01*
X0297389Y0030728D01*
X0297261Y0030880D01*
X0297137Y0031034D01*
X0297017Y0031192D01*
X0296901Y0031353D01*
X0296789Y0031516D01*
X0296681Y0031682D01*
X0296577Y0031851D01*
X0296478Y0032022D01*
X0296382Y0032195D01*
X0296291Y0032371D01*
X0296204Y0032549D01*
X0296121Y0032729D01*
X0296043Y0032911D01*
X0295970Y0033095D01*
X0295901Y0033281D01*
X0295836Y0033468D01*
X0295777Y0033657D01*
X0295721Y0033847D01*
X0295671Y0034039D01*
X0295625Y0034232D01*
X0295584Y0034425D01*
X0295548Y0034620D01*
X0295516Y0034816D01*
X0295490Y0035012D01*
X0295468Y0035209D01*
X0295451Y0035406D01*
X0295439Y0035604D01*
X0295431Y0035802D01*
X0295429Y0036000D01*
X0362929Y0036000D02*
X0362931Y0036198D01*
X0362939Y0036396D01*
X0362951Y0036594D01*
X0362968Y0036791D01*
X0362990Y0036988D01*
X0363016Y0037184D01*
X0363048Y0037380D01*
X0363084Y0037575D01*
X0363125Y0037768D01*
X0363171Y0037961D01*
X0363221Y0038153D01*
X0363277Y0038343D01*
X0363336Y0038532D01*
X0363401Y0038719D01*
X0363470Y0038905D01*
X0363543Y0039089D01*
X0363621Y0039271D01*
X0363704Y0039451D01*
X0363791Y0039629D01*
X0363882Y0039805D01*
X0363978Y0039978D01*
X0364077Y0040149D01*
X0364181Y0040318D01*
X0364289Y0040484D01*
X0364401Y0040647D01*
X0364517Y0040808D01*
X0364637Y0040966D01*
X0364761Y0041120D01*
X0364889Y0041272D01*
X0365020Y0041420D01*
X0365155Y0041565D01*
X0365293Y0041707D01*
X0365435Y0041845D01*
X0365580Y0041980D01*
X0365728Y0042111D01*
X0365880Y0042239D01*
X0366034Y0042363D01*
X0366192Y0042483D01*
X0366353Y0042599D01*
X0366516Y0042711D01*
X0366682Y0042819D01*
X0366851Y0042923D01*
X0367022Y0043022D01*
X0367195Y0043118D01*
X0367371Y0043209D01*
X0367549Y0043296D01*
X0367729Y0043379D01*
X0367911Y0043457D01*
X0368095Y0043530D01*
X0368281Y0043599D01*
X0368468Y0043664D01*
X0368657Y0043723D01*
X0368847Y0043779D01*
X0369039Y0043829D01*
X0369232Y0043875D01*
X0369425Y0043916D01*
X0369620Y0043952D01*
X0369816Y0043984D01*
X0370012Y0044010D01*
X0370209Y0044032D01*
X0370406Y0044049D01*
X0370604Y0044061D01*
X0370802Y0044069D01*
X0371000Y0044071D01*
X0371198Y0044069D01*
X0371396Y0044061D01*
X0371594Y0044049D01*
X0371791Y0044032D01*
X0371988Y0044010D01*
X0372184Y0043984D01*
X0372380Y0043952D01*
X0372575Y0043916D01*
X0372768Y0043875D01*
X0372961Y0043829D01*
X0373153Y0043779D01*
X0373343Y0043723D01*
X0373532Y0043664D01*
X0373719Y0043599D01*
X0373905Y0043530D01*
X0374089Y0043457D01*
X0374271Y0043379D01*
X0374451Y0043296D01*
X0374629Y0043209D01*
X0374805Y0043118D01*
X0374978Y0043022D01*
X0375149Y0042923D01*
X0375318Y0042819D01*
X0375484Y0042711D01*
X0375647Y0042599D01*
X0375808Y0042483D01*
X0375966Y0042363D01*
X0376120Y0042239D01*
X0376272Y0042111D01*
X0376420Y0041980D01*
X0376565Y0041845D01*
X0376707Y0041707D01*
X0376845Y0041565D01*
X0376980Y0041420D01*
X0377111Y0041272D01*
X0377239Y0041120D01*
X0377363Y0040966D01*
X0377483Y0040808D01*
X0377599Y0040647D01*
X0377711Y0040484D01*
X0377819Y0040318D01*
X0377923Y0040149D01*
X0378022Y0039978D01*
X0378118Y0039805D01*
X0378209Y0039629D01*
X0378296Y0039451D01*
X0378379Y0039271D01*
X0378457Y0039089D01*
X0378530Y0038905D01*
X0378599Y0038719D01*
X0378664Y0038532D01*
X0378723Y0038343D01*
X0378779Y0038153D01*
X0378829Y0037961D01*
X0378875Y0037768D01*
X0378916Y0037575D01*
X0378952Y0037380D01*
X0378984Y0037184D01*
X0379010Y0036988D01*
X0379032Y0036791D01*
X0379049Y0036594D01*
X0379061Y0036396D01*
X0379069Y0036198D01*
X0379071Y0036000D01*
X0379069Y0035802D01*
X0379061Y0035604D01*
X0379049Y0035406D01*
X0379032Y0035209D01*
X0379010Y0035012D01*
X0378984Y0034816D01*
X0378952Y0034620D01*
X0378916Y0034425D01*
X0378875Y0034232D01*
X0378829Y0034039D01*
X0378779Y0033847D01*
X0378723Y0033657D01*
X0378664Y0033468D01*
X0378599Y0033281D01*
X0378530Y0033095D01*
X0378457Y0032911D01*
X0378379Y0032729D01*
X0378296Y0032549D01*
X0378209Y0032371D01*
X0378118Y0032195D01*
X0378022Y0032022D01*
X0377923Y0031851D01*
X0377819Y0031682D01*
X0377711Y0031516D01*
X0377599Y0031353D01*
X0377483Y0031192D01*
X0377363Y0031034D01*
X0377239Y0030880D01*
X0377111Y0030728D01*
X0376980Y0030580D01*
X0376845Y0030435D01*
X0376707Y0030293D01*
X0376565Y0030155D01*
X0376420Y0030020D01*
X0376272Y0029889D01*
X0376120Y0029761D01*
X0375966Y0029637D01*
X0375808Y0029517D01*
X0375647Y0029401D01*
X0375484Y0029289D01*
X0375318Y0029181D01*
X0375149Y0029077D01*
X0374978Y0028978D01*
X0374805Y0028882D01*
X0374629Y0028791D01*
X0374451Y0028704D01*
X0374271Y0028621D01*
X0374089Y0028543D01*
X0373905Y0028470D01*
X0373719Y0028401D01*
X0373532Y0028336D01*
X0373343Y0028277D01*
X0373153Y0028221D01*
X0372961Y0028171D01*
X0372768Y0028125D01*
X0372575Y0028084D01*
X0372380Y0028048D01*
X0372184Y0028016D01*
X0371988Y0027990D01*
X0371791Y0027968D01*
X0371594Y0027951D01*
X0371396Y0027939D01*
X0371198Y0027931D01*
X0371000Y0027929D01*
X0370802Y0027931D01*
X0370604Y0027939D01*
X0370406Y0027951D01*
X0370209Y0027968D01*
X0370012Y0027990D01*
X0369816Y0028016D01*
X0369620Y0028048D01*
X0369425Y0028084D01*
X0369232Y0028125D01*
X0369039Y0028171D01*
X0368847Y0028221D01*
X0368657Y0028277D01*
X0368468Y0028336D01*
X0368281Y0028401D01*
X0368095Y0028470D01*
X0367911Y0028543D01*
X0367729Y0028621D01*
X0367549Y0028704D01*
X0367371Y0028791D01*
X0367195Y0028882D01*
X0367022Y0028978D01*
X0366851Y0029077D01*
X0366682Y0029181D01*
X0366516Y0029289D01*
X0366353Y0029401D01*
X0366192Y0029517D01*
X0366034Y0029637D01*
X0365880Y0029761D01*
X0365728Y0029889D01*
X0365580Y0030020D01*
X0365435Y0030155D01*
X0365293Y0030293D01*
X0365155Y0030435D01*
X0365020Y0030580D01*
X0364889Y0030728D01*
X0364761Y0030880D01*
X0364637Y0031034D01*
X0364517Y0031192D01*
X0364401Y0031353D01*
X0364289Y0031516D01*
X0364181Y0031682D01*
X0364077Y0031851D01*
X0363978Y0032022D01*
X0363882Y0032195D01*
X0363791Y0032371D01*
X0363704Y0032549D01*
X0363621Y0032729D01*
X0363543Y0032911D01*
X0363470Y0033095D01*
X0363401Y0033281D01*
X0363336Y0033468D01*
X0363277Y0033657D01*
X0363221Y0033847D01*
X0363171Y0034039D01*
X0363125Y0034232D01*
X0363084Y0034425D01*
X0363048Y0034620D01*
X0363016Y0034816D01*
X0362990Y0035012D01*
X0362968Y0035209D01*
X0362951Y0035406D01*
X0362939Y0035604D01*
X0362931Y0035802D01*
X0362929Y0036000D01*
D11*
X0391000Y0006000D02*
X0281000Y0006000D01*
X0281000Y0276000D01*
X0391000Y0276000D01*
X0391000Y0006000D01*
X0007142Y0141000D02*
X0007182Y0144285D01*
X0007303Y0147568D01*
X0007505Y0150847D01*
X0007787Y0154120D01*
X0008149Y0157386D01*
X0008591Y0160641D01*
X0009113Y0163885D01*
X0009714Y0167114D01*
X0010394Y0170328D01*
X0011154Y0173525D01*
X0011991Y0176702D01*
X0012906Y0179857D01*
X0013898Y0182989D01*
X0014967Y0186095D01*
X0016111Y0189175D01*
X0017331Y0192225D01*
X0018626Y0195245D01*
X0019994Y0198232D01*
X0021435Y0201184D01*
X0022948Y0204100D01*
X0024532Y0206978D01*
X0026186Y0209817D01*
X0027910Y0212614D01*
X0029701Y0215368D01*
X0031560Y0218077D01*
X0033484Y0220739D01*
X0035474Y0223354D01*
X0037526Y0225919D01*
X0039642Y0228432D01*
X0041818Y0230894D01*
X0044054Y0233301D01*
X0046348Y0235652D01*
X0048699Y0237946D01*
X0051106Y0240182D01*
X0053568Y0242358D01*
X0056081Y0244474D01*
X0058646Y0246526D01*
X0061261Y0248516D01*
X0063923Y0250440D01*
X0066632Y0252299D01*
X0069386Y0254090D01*
X0072183Y0255814D01*
X0075022Y0257468D01*
X0077900Y0259052D01*
X0080816Y0260565D01*
X0083768Y0262006D01*
X0086755Y0263374D01*
X0089775Y0264669D01*
X0092825Y0265889D01*
X0095905Y0267033D01*
X0099011Y0268102D01*
X0102143Y0269094D01*
X0105298Y0270009D01*
X0108475Y0270846D01*
X0111672Y0271606D01*
X0114886Y0272286D01*
X0118115Y0272887D01*
X0121359Y0273409D01*
X0124614Y0273851D01*
X0127880Y0274213D01*
X0131153Y0274495D01*
X0134432Y0274697D01*
X0137715Y0274818D01*
X0141000Y0274858D01*
X0144285Y0274818D01*
X0147568Y0274697D01*
X0150847Y0274495D01*
X0154120Y0274213D01*
X0157386Y0273851D01*
X0160641Y0273409D01*
X0163885Y0272887D01*
X0167114Y0272286D01*
X0170328Y0271606D01*
X0173525Y0270846D01*
X0176702Y0270009D01*
X0179857Y0269094D01*
X0182989Y0268102D01*
X0186095Y0267033D01*
X0189175Y0265889D01*
X0192225Y0264669D01*
X0195245Y0263374D01*
X0198232Y0262006D01*
X0201184Y0260565D01*
X0204100Y0259052D01*
X0206978Y0257468D01*
X0209817Y0255814D01*
X0212614Y0254090D01*
X0215368Y0252299D01*
X0218077Y0250440D01*
X0220739Y0248516D01*
X0223354Y0246526D01*
X0225919Y0244474D01*
X0228432Y0242358D01*
X0230894Y0240182D01*
X0233301Y0237946D01*
X0235652Y0235652D01*
X0237946Y0233301D01*
X0240182Y0230894D01*
X0242358Y0228432D01*
X0244474Y0225919D01*
X0246526Y0223354D01*
X0248516Y0220739D01*
X0250440Y0218077D01*
X0252299Y0215368D01*
X0254090Y0212614D01*
X0255814Y0209817D01*
X0257468Y0206978D01*
X0259052Y0204100D01*
X0260565Y0201184D01*
X0262006Y0198232D01*
X0263374Y0195245D01*
X0264669Y0192225D01*
X0265889Y0189175D01*
X0267033Y0186095D01*
X0268102Y0182989D01*
X0269094Y0179857D01*
X0270009Y0176702D01*
X0270846Y0173525D01*
X0271606Y0170328D01*
X0272286Y0167114D01*
X0272887Y0163885D01*
X0273409Y0160641D01*
X0273851Y0157386D01*
X0274213Y0154120D01*
X0274495Y0150847D01*
X0274697Y0147568D01*
X0274818Y0144285D01*
X0274858Y0141000D01*
X0274818Y0137715D01*
X0274697Y0134432D01*
X0274495Y0131153D01*
X0274213Y0127880D01*
X0273851Y0124614D01*
X0273409Y0121359D01*
X0272887Y0118115D01*
X0272286Y0114886D01*
X0271606Y0111672D01*
X0270846Y0108475D01*
X0270009Y0105298D01*
X0269094Y0102143D01*
X0268102Y0099011D01*
X0267033Y0095905D01*
X0265889Y0092825D01*
X0264669Y0089775D01*
X0263374Y0086755D01*
X0262006Y0083768D01*
X0260565Y0080816D01*
X0259052Y0077900D01*
X0257468Y0075022D01*
X0255814Y0072183D01*
X0254090Y0069386D01*
X0252299Y0066632D01*
X0250440Y0063923D01*
X0248516Y0061261D01*
X0246526Y0058646D01*
X0244474Y0056081D01*
X0242358Y0053568D01*
X0240182Y0051106D01*
X0237946Y0048699D01*
X0235652Y0046348D01*
X0233301Y0044054D01*
X0230894Y0041818D01*
X0228432Y0039642D01*
X0225919Y0037526D01*
X0223354Y0035474D01*
X0220739Y0033484D01*
X0218077Y0031560D01*
X0215368Y0029701D01*
X0212614Y0027910D01*
X0209817Y0026186D01*
X0206978Y0024532D01*
X0204100Y0022948D01*
X0201184Y0021435D01*
X0198232Y0019994D01*
X0195245Y0018626D01*
X0192225Y0017331D01*
X0189175Y0016111D01*
X0186095Y0014967D01*
X0182989Y0013898D01*
X0179857Y0012906D01*
X0176702Y0011991D01*
X0173525Y0011154D01*
X0170328Y0010394D01*
X0167114Y0009714D01*
X0163885Y0009113D01*
X0160641Y0008591D01*
X0157386Y0008149D01*
X0154120Y0007787D01*
X0150847Y0007505D01*
X0147568Y0007303D01*
X0144285Y0007182D01*
X0141000Y0007142D01*
X0137715Y0007182D01*
X0134432Y0007303D01*
X0131153Y0007505D01*
X0127880Y0007787D01*
X0124614Y0008149D01*
X0121359Y0008591D01*
X0118115Y0009113D01*
X0114886Y0009714D01*
X0111672Y0010394D01*
X0108475Y0011154D01*
X0105298Y0011991D01*
X0102143Y0012906D01*
X0099011Y0013898D01*
X0095905Y0014967D01*
X0092825Y0016111D01*
X0089775Y0017331D01*
X0086755Y0018626D01*
X0083768Y0019994D01*
X0080816Y0021435D01*
X0077900Y0022948D01*
X0075022Y0024532D01*
X0072183Y0026186D01*
X0069386Y0027910D01*
X0066632Y0029701D01*
X0063923Y0031560D01*
X0061261Y0033484D01*
X0058646Y0035474D01*
X0056081Y0037526D01*
X0053568Y0039642D01*
X0051106Y0041818D01*
X0048699Y0044054D01*
X0046348Y0046348D01*
X0044054Y0048699D01*
X0041818Y0051106D01*
X0039642Y0053568D01*
X0037526Y0056081D01*
X0035474Y0058646D01*
X0033484Y0061261D01*
X0031560Y0063923D01*
X0029701Y0066632D01*
X0027910Y0069386D01*
X0026186Y0072183D01*
X0024532Y0075022D01*
X0022948Y0077900D01*
X0021435Y0080816D01*
X0019994Y0083768D01*
X0018626Y0086755D01*
X0017331Y0089775D01*
X0016111Y0092825D01*
X0014967Y0095905D01*
X0013898Y0099011D01*
X0012906Y0102143D01*
X0011991Y0105298D01*
X0011154Y0108475D01*
X0010394Y0111672D01*
X0009714Y0114886D01*
X0009113Y0118115D01*
X0008591Y0121359D01*
X0008149Y0124614D01*
X0007787Y0127880D01*
X0007505Y0131153D01*
X0007303Y0134432D01*
X0007182Y0137715D01*
X0007142Y0141000D01*
D12*
X0303500Y0036000D03*
X0371000Y0036000D03*
D13*
G36*
X0258505Y0105429D02*
X0255161Y0108773D01*
X0258227Y0111839D01*
X0261571Y0108495D01*
X0258505Y0105429D01*
G37*
G36*
X0253773Y0110161D02*
X0250429Y0113505D01*
X0253495Y0116571D01*
X0256839Y0113227D01*
X0253773Y0110161D01*
G37*
G36*
X0228505Y0105429D02*
X0225161Y0108773D01*
X0228227Y0111839D01*
X0231571Y0108495D01*
X0228505Y0105429D01*
G37*
G36*
X0223773Y0110161D02*
X0220429Y0113505D01*
X0223495Y0116571D01*
X0226839Y0113227D01*
X0223773Y0110161D01*
G37*
G36*
X0198505Y0105429D02*
X0195161Y0108773D01*
X0198227Y0111839D01*
X0201571Y0108495D01*
X0198505Y0105429D01*
G37*
G36*
X0193773Y0110161D02*
X0190429Y0113505D01*
X0193495Y0116571D01*
X0196839Y0113227D01*
X0193773Y0110161D01*
G37*
G36*
X0193773Y0080161D02*
X0190429Y0083505D01*
X0193495Y0086571D01*
X0196839Y0083227D01*
X0193773Y0080161D01*
G37*
G36*
X0198505Y0075429D02*
X0195161Y0078773D01*
X0198227Y0081839D01*
X0201571Y0078495D01*
X0198505Y0075429D01*
G37*
G36*
X0193773Y0050161D02*
X0190429Y0053505D01*
X0193495Y0056571D01*
X0196839Y0053227D01*
X0193773Y0050161D01*
G37*
G36*
X0198505Y0045429D02*
X0195161Y0048773D01*
X0198227Y0051839D01*
X0201571Y0048495D01*
X0198505Y0045429D01*
G37*
G36*
X0168505Y0045429D02*
X0165161Y0048773D01*
X0168227Y0051839D01*
X0171571Y0048495D01*
X0168505Y0045429D01*
G37*
G36*
X0163773Y0050161D02*
X0160429Y0053505D01*
X0163495Y0056571D01*
X0166839Y0053227D01*
X0163773Y0050161D01*
G37*
G36*
X0138505Y0045429D02*
X0135161Y0048773D01*
X0138227Y0051839D01*
X0141571Y0048495D01*
X0138505Y0045429D01*
G37*
G36*
X0133773Y0050161D02*
X0130429Y0053505D01*
X0133495Y0056571D01*
X0136839Y0053227D01*
X0133773Y0050161D01*
G37*
G36*
X0108505Y0045429D02*
X0105161Y0048773D01*
X0108227Y0051839D01*
X0111571Y0048495D01*
X0108505Y0045429D01*
G37*
G36*
X0103773Y0050161D02*
X0100429Y0053505D01*
X0103495Y0056571D01*
X0106839Y0053227D01*
X0103773Y0050161D01*
G37*
G36*
X0108505Y0075429D02*
X0105161Y0078773D01*
X0108227Y0081839D01*
X0111571Y0078495D01*
X0108505Y0075429D01*
G37*
G36*
X0103773Y0080161D02*
X0100429Y0083505D01*
X0103495Y0086571D01*
X0106839Y0083227D01*
X0103773Y0080161D01*
G37*
G36*
X0078505Y0075429D02*
X0075161Y0078773D01*
X0078227Y0081839D01*
X0081571Y0078495D01*
X0078505Y0075429D01*
G37*
G36*
X0073773Y0080161D02*
X0070429Y0083505D01*
X0073495Y0086571D01*
X0076839Y0083227D01*
X0073773Y0080161D01*
G37*
G36*
X0078505Y0105429D02*
X0075161Y0108773D01*
X0078227Y0111839D01*
X0081571Y0108495D01*
X0078505Y0105429D01*
G37*
G36*
X0073773Y0110161D02*
X0070429Y0113505D01*
X0073495Y0116571D01*
X0076839Y0113227D01*
X0073773Y0110161D01*
G37*
G36*
X0048505Y0105429D02*
X0045161Y0108773D01*
X0048227Y0111839D01*
X0051571Y0108495D01*
X0048505Y0105429D01*
G37*
G36*
X0043773Y0110161D02*
X0040429Y0113505D01*
X0043495Y0116571D01*
X0046839Y0113227D01*
X0043773Y0110161D01*
G37*
G36*
X0048505Y0135429D02*
X0045161Y0138773D01*
X0048227Y0141839D01*
X0051571Y0138495D01*
X0048505Y0135429D01*
G37*
G36*
X0043773Y0140161D02*
X0040429Y0143505D01*
X0043495Y0146571D01*
X0046839Y0143227D01*
X0043773Y0140161D01*
G37*
G36*
X0048505Y0165429D02*
X0045161Y0168773D01*
X0048227Y0171839D01*
X0051571Y0168495D01*
X0048505Y0165429D01*
G37*
G36*
X0043773Y0170161D02*
X0040429Y0173505D01*
X0043495Y0176571D01*
X0046839Y0173227D01*
X0043773Y0170161D01*
G37*
G36*
X0048505Y0195429D02*
X0045161Y0198773D01*
X0048227Y0201839D01*
X0051571Y0198495D01*
X0048505Y0195429D01*
G37*
G36*
X0043773Y0200161D02*
X0040429Y0203505D01*
X0043495Y0206571D01*
X0046839Y0203227D01*
X0043773Y0200161D01*
G37*
G36*
X0073773Y0200161D02*
X0070429Y0203505D01*
X0073495Y0206571D01*
X0076839Y0203227D01*
X0073773Y0200161D01*
G37*
G36*
X0078505Y0195429D02*
X0075161Y0198773D01*
X0078227Y0201839D01*
X0081571Y0198495D01*
X0078505Y0195429D01*
G37*
G36*
X0073773Y0170161D02*
X0070429Y0173505D01*
X0073495Y0176571D01*
X0076839Y0173227D01*
X0073773Y0170161D01*
G37*
G36*
X0078505Y0165429D02*
X0075161Y0168773D01*
X0078227Y0171839D01*
X0081571Y0168495D01*
X0078505Y0165429D01*
G37*
G36*
X0073773Y0140161D02*
X0070429Y0143505D01*
X0073495Y0146571D01*
X0076839Y0143227D01*
X0073773Y0140161D01*
G37*
G36*
X0078505Y0135429D02*
X0075161Y0138773D01*
X0078227Y0141839D01*
X0081571Y0138495D01*
X0078505Y0135429D01*
G37*
G36*
X0103773Y0140161D02*
X0100429Y0143505D01*
X0103495Y0146571D01*
X0106839Y0143227D01*
X0103773Y0140161D01*
G37*
G36*
X0108505Y0135429D02*
X0105161Y0138773D01*
X0108227Y0141839D01*
X0111571Y0138495D01*
X0108505Y0135429D01*
G37*
G36*
X0103773Y0110161D02*
X0100429Y0113505D01*
X0103495Y0116571D01*
X0106839Y0113227D01*
X0103773Y0110161D01*
G37*
G36*
X0108505Y0105429D02*
X0105161Y0108773D01*
X0108227Y0111839D01*
X0111571Y0108495D01*
X0108505Y0105429D01*
G37*
G36*
X0133773Y0110161D02*
X0130429Y0113505D01*
X0133495Y0116571D01*
X0136839Y0113227D01*
X0133773Y0110161D01*
G37*
G36*
X0138505Y0105429D02*
X0135161Y0108773D01*
X0138227Y0111839D01*
X0141571Y0108495D01*
X0138505Y0105429D01*
G37*
G36*
X0133773Y0080161D02*
X0130429Y0083505D01*
X0133495Y0086571D01*
X0136839Y0083227D01*
X0133773Y0080161D01*
G37*
G36*
X0138505Y0075429D02*
X0135161Y0078773D01*
X0138227Y0081839D01*
X0141571Y0078495D01*
X0138505Y0075429D01*
G37*
G36*
X0163773Y0080161D02*
X0160429Y0083505D01*
X0163495Y0086571D01*
X0166839Y0083227D01*
X0163773Y0080161D01*
G37*
G36*
X0168505Y0075429D02*
X0165161Y0078773D01*
X0168227Y0081839D01*
X0171571Y0078495D01*
X0168505Y0075429D01*
G37*
G36*
X0168505Y0105429D02*
X0165161Y0108773D01*
X0168227Y0111839D01*
X0171571Y0108495D01*
X0168505Y0105429D01*
G37*
G36*
X0163773Y0110161D02*
X0160429Y0113505D01*
X0163495Y0116571D01*
X0166839Y0113227D01*
X0163773Y0110161D01*
G37*
G36*
X0168505Y0135429D02*
X0165161Y0138773D01*
X0168227Y0141839D01*
X0171571Y0138495D01*
X0168505Y0135429D01*
G37*
G36*
X0163773Y0140161D02*
X0160429Y0143505D01*
X0163495Y0146571D01*
X0166839Y0143227D01*
X0163773Y0140161D01*
G37*
G36*
X0138505Y0135429D02*
X0135161Y0138773D01*
X0138227Y0141839D01*
X0141571Y0138495D01*
X0138505Y0135429D01*
G37*
G36*
X0133773Y0140161D02*
X0130429Y0143505D01*
X0133495Y0146571D01*
X0136839Y0143227D01*
X0133773Y0140161D01*
G37*
G36*
X0138505Y0165429D02*
X0135161Y0168773D01*
X0138227Y0171839D01*
X0141571Y0168495D01*
X0138505Y0165429D01*
G37*
G36*
X0133773Y0170161D02*
X0130429Y0173505D01*
X0133495Y0176571D01*
X0136839Y0173227D01*
X0133773Y0170161D01*
G37*
G36*
X0108505Y0165429D02*
X0105161Y0168773D01*
X0108227Y0171839D01*
X0111571Y0168495D01*
X0108505Y0165429D01*
G37*
G36*
X0103773Y0170161D02*
X0100429Y0173505D01*
X0103495Y0176571D01*
X0106839Y0173227D01*
X0103773Y0170161D01*
G37*
G36*
X0108505Y0195429D02*
X0105161Y0198773D01*
X0108227Y0201839D01*
X0111571Y0198495D01*
X0108505Y0195429D01*
G37*
G36*
X0103773Y0200161D02*
X0100429Y0203505D01*
X0103495Y0206571D01*
X0106839Y0203227D01*
X0103773Y0200161D01*
G37*
G36*
X0108505Y0225429D02*
X0105161Y0228773D01*
X0108227Y0231839D01*
X0111571Y0228495D01*
X0108505Y0225429D01*
G37*
G36*
X0103773Y0230161D02*
X0100429Y0233505D01*
X0103495Y0236571D01*
X0106839Y0233227D01*
X0103773Y0230161D01*
G37*
G36*
X0078505Y0225429D02*
X0075161Y0228773D01*
X0078227Y0231839D01*
X0081571Y0228495D01*
X0078505Y0225429D01*
G37*
G36*
X0073773Y0230161D02*
X0070429Y0233505D01*
X0073495Y0236571D01*
X0076839Y0233227D01*
X0073773Y0230161D01*
G37*
G36*
X0103773Y0260161D02*
X0100429Y0263505D01*
X0103495Y0266571D01*
X0106839Y0263227D01*
X0103773Y0260161D01*
G37*
G36*
X0108505Y0255429D02*
X0105161Y0258773D01*
X0108227Y0261839D01*
X0111571Y0258495D01*
X0108505Y0255429D01*
G37*
G36*
X0133773Y0260161D02*
X0130429Y0263505D01*
X0133495Y0266571D01*
X0136839Y0263227D01*
X0133773Y0260161D01*
G37*
G36*
X0138505Y0255429D02*
X0135161Y0258773D01*
X0138227Y0261839D01*
X0141571Y0258495D01*
X0138505Y0255429D01*
G37*
G36*
X0133773Y0230161D02*
X0130429Y0233505D01*
X0133495Y0236571D01*
X0136839Y0233227D01*
X0133773Y0230161D01*
G37*
G36*
X0138505Y0225429D02*
X0135161Y0228773D01*
X0138227Y0231839D01*
X0141571Y0228495D01*
X0138505Y0225429D01*
G37*
G36*
X0133773Y0200161D02*
X0130429Y0203505D01*
X0133495Y0206571D01*
X0136839Y0203227D01*
X0133773Y0200161D01*
G37*
G36*
X0138505Y0195429D02*
X0135161Y0198773D01*
X0138227Y0201839D01*
X0141571Y0198495D01*
X0138505Y0195429D01*
G37*
G36*
X0163773Y0200161D02*
X0160429Y0203505D01*
X0163495Y0206571D01*
X0166839Y0203227D01*
X0163773Y0200161D01*
G37*
G36*
X0168505Y0195429D02*
X0165161Y0198773D01*
X0168227Y0201839D01*
X0171571Y0198495D01*
X0168505Y0195429D01*
G37*
G36*
X0163773Y0170161D02*
X0160429Y0173505D01*
X0163495Y0176571D01*
X0166839Y0173227D01*
X0163773Y0170161D01*
G37*
G36*
X0168505Y0165429D02*
X0165161Y0168773D01*
X0168227Y0171839D01*
X0171571Y0168495D01*
X0168505Y0165429D01*
G37*
G36*
X0193773Y0170161D02*
X0190429Y0173505D01*
X0193495Y0176571D01*
X0196839Y0173227D01*
X0193773Y0170161D01*
G37*
G36*
X0198505Y0165429D02*
X0195161Y0168773D01*
X0198227Y0171839D01*
X0201571Y0168495D01*
X0198505Y0165429D01*
G37*
G36*
X0193773Y0140161D02*
X0190429Y0143505D01*
X0193495Y0146571D01*
X0196839Y0143227D01*
X0193773Y0140161D01*
G37*
G36*
X0198505Y0135429D02*
X0195161Y0138773D01*
X0198227Y0141839D01*
X0201571Y0138495D01*
X0198505Y0135429D01*
G37*
G36*
X0223773Y0140161D02*
X0220429Y0143505D01*
X0223495Y0146571D01*
X0226839Y0143227D01*
X0223773Y0140161D01*
G37*
G36*
X0228505Y0135429D02*
X0225161Y0138773D01*
X0228227Y0141839D01*
X0231571Y0138495D01*
X0228505Y0135429D01*
G37*
G36*
X0253773Y0140161D02*
X0250429Y0143505D01*
X0253495Y0146571D01*
X0256839Y0143227D01*
X0253773Y0140161D01*
G37*
G36*
X0258505Y0135429D02*
X0255161Y0138773D01*
X0258227Y0141839D01*
X0261571Y0138495D01*
X0258505Y0135429D01*
G37*
G36*
X0258505Y0165429D02*
X0255161Y0168773D01*
X0258227Y0171839D01*
X0261571Y0168495D01*
X0258505Y0165429D01*
G37*
G36*
X0253773Y0170161D02*
X0250429Y0173505D01*
X0253495Y0176571D01*
X0256839Y0173227D01*
X0253773Y0170161D01*
G37*
G36*
X0228505Y0165429D02*
X0225161Y0168773D01*
X0228227Y0171839D01*
X0231571Y0168495D01*
X0228505Y0165429D01*
G37*
G36*
X0223773Y0170161D02*
X0220429Y0173505D01*
X0223495Y0176571D01*
X0226839Y0173227D01*
X0223773Y0170161D01*
G37*
G36*
X0228505Y0195429D02*
X0225161Y0198773D01*
X0228227Y0201839D01*
X0231571Y0198495D01*
X0228505Y0195429D01*
G37*
G36*
X0223773Y0200161D02*
X0220429Y0203505D01*
X0223495Y0206571D01*
X0226839Y0203227D01*
X0223773Y0200161D01*
G37*
G36*
X0198505Y0195429D02*
X0195161Y0198773D01*
X0198227Y0201839D01*
X0201571Y0198495D01*
X0198505Y0195429D01*
G37*
G36*
X0193773Y0200161D02*
X0190429Y0203505D01*
X0193495Y0206571D01*
X0196839Y0203227D01*
X0193773Y0200161D01*
G37*
G36*
X0198505Y0225429D02*
X0195161Y0228773D01*
X0198227Y0231839D01*
X0201571Y0228495D01*
X0198505Y0225429D01*
G37*
G36*
X0193773Y0230161D02*
X0190429Y0233505D01*
X0193495Y0236571D01*
X0196839Y0233227D01*
X0193773Y0230161D01*
G37*
G36*
X0208495Y0246571D02*
X0211839Y0243227D01*
X0208773Y0240161D01*
X0205429Y0243505D01*
X0208495Y0246571D01*
G37*
G36*
X0213227Y0241839D02*
X0216571Y0238495D01*
X0213505Y0235429D01*
X0210161Y0238773D01*
X0213227Y0241839D01*
G37*
G36*
X0223773Y0230161D02*
X0220429Y0233505D01*
X0223495Y0236571D01*
X0226839Y0233227D01*
X0223773Y0230161D01*
G37*
G36*
X0228505Y0225429D02*
X0225161Y0228773D01*
X0228227Y0231839D01*
X0231571Y0228495D01*
X0228505Y0225429D01*
G37*
G36*
X0252523Y0198911D02*
X0249179Y0202255D01*
X0252245Y0205321D01*
X0255589Y0201977D01*
X0252523Y0198911D01*
G37*
G36*
X0257255Y0194179D02*
X0253911Y0197523D01*
X0256977Y0200589D01*
X0260321Y0197245D01*
X0257255Y0194179D01*
G37*
G36*
X0168505Y0225429D02*
X0165161Y0228773D01*
X0168227Y0231839D01*
X0171571Y0228495D01*
X0168505Y0225429D01*
G37*
G36*
X0163773Y0230161D02*
X0160429Y0233505D01*
X0163495Y0236571D01*
X0166839Y0233227D01*
X0163773Y0230161D01*
G37*
G36*
X0168505Y0255429D02*
X0165161Y0258773D01*
X0168227Y0261839D01*
X0171571Y0258495D01*
X0168505Y0255429D01*
G37*
G36*
X0163773Y0260161D02*
X0160429Y0263505D01*
X0163495Y0266571D01*
X0166839Y0263227D01*
X0163773Y0260161D01*
G37*
G36*
X0223773Y0080161D02*
X0220429Y0083505D01*
X0223495Y0086571D01*
X0226839Y0083227D01*
X0223773Y0080161D01*
G37*
G36*
X0228505Y0075429D02*
X0225161Y0078773D01*
X0228227Y0081839D01*
X0231571Y0078495D01*
X0228505Y0075429D01*
G37*
D14*
X0223933Y0073933D02*
X0221429Y0071429D01*
X0221429Y0071429D01*
X0223933Y0073933D01*
X0223933Y0073933D01*
X0228666Y0069201D02*
X0226162Y0066697D01*
X0226162Y0066697D01*
X0228666Y0069201D01*
X0228666Y0069201D01*
X0219201Y0078666D02*
X0216697Y0076162D01*
X0216697Y0076162D01*
X0219201Y0078666D01*
X0219201Y0078666D01*
X0212799Y0083334D02*
X0215303Y0085838D01*
X0212799Y0083334D02*
X0212799Y0083334D01*
X0215303Y0085838D01*
X0215303Y0085838D01*
X0210571Y0090571D02*
X0208067Y0088067D01*
X0208067Y0088067D01*
X0210571Y0090571D01*
X0210571Y0090571D01*
X0205838Y0095303D02*
X0203334Y0092799D01*
X0203334Y0092799D01*
X0205838Y0095303D01*
X0205838Y0095303D01*
X0198666Y0099201D02*
X0196162Y0096697D01*
X0196162Y0096697D01*
X0198666Y0099201D01*
X0198666Y0099201D01*
X0193933Y0103933D02*
X0191429Y0101429D01*
X0191429Y0101429D01*
X0193933Y0103933D01*
X0193933Y0103933D01*
X0189201Y0108666D02*
X0186697Y0106162D01*
X0186697Y0106162D01*
X0189201Y0108666D01*
X0189201Y0108666D01*
X0182799Y0113334D02*
X0185303Y0115838D01*
X0182799Y0113334D02*
X0182799Y0113334D01*
X0185303Y0115838D01*
X0185303Y0115838D01*
X0180571Y0120571D02*
X0178067Y0118067D01*
X0178067Y0118067D01*
X0180571Y0120571D01*
X0180571Y0120571D01*
X0175838Y0125303D02*
X0173334Y0122799D01*
X0173334Y0122799D01*
X0175838Y0125303D01*
X0175838Y0125303D01*
X0168666Y0129201D02*
X0166162Y0126697D01*
X0166162Y0126697D01*
X0168666Y0129201D01*
X0168666Y0129201D01*
X0163933Y0133933D02*
X0161429Y0131429D01*
X0161429Y0131429D01*
X0163933Y0133933D01*
X0163933Y0133933D01*
X0159201Y0138666D02*
X0156697Y0136162D01*
X0156697Y0136162D01*
X0159201Y0138666D01*
X0159201Y0138666D01*
X0152799Y0143334D02*
X0155303Y0145838D01*
X0152799Y0143334D02*
X0152799Y0143334D01*
X0155303Y0145838D01*
X0155303Y0145838D01*
X0150571Y0150571D02*
X0148067Y0148067D01*
X0148067Y0148067D01*
X0150571Y0150571D01*
X0150571Y0150571D01*
X0145838Y0155303D02*
X0143334Y0152799D01*
X0143334Y0152799D01*
X0145838Y0155303D01*
X0145838Y0155303D01*
X0138666Y0159201D02*
X0136162Y0156697D01*
X0136162Y0156697D01*
X0138666Y0159201D01*
X0138666Y0159201D01*
X0133933Y0163933D02*
X0131429Y0161429D01*
X0131429Y0161429D01*
X0133933Y0163933D01*
X0133933Y0163933D01*
X0129201Y0168666D02*
X0126697Y0166162D01*
X0126697Y0166162D01*
X0129201Y0168666D01*
X0129201Y0168666D01*
X0122799Y0173334D02*
X0125303Y0175838D01*
X0122799Y0173334D02*
X0122799Y0173334D01*
X0125303Y0175838D01*
X0125303Y0175838D01*
X0120571Y0180571D02*
X0118067Y0178067D01*
X0118067Y0178067D01*
X0120571Y0180571D01*
X0120571Y0180571D01*
X0115838Y0185303D02*
X0113334Y0182799D01*
X0113334Y0182799D01*
X0115838Y0185303D01*
X0115838Y0185303D01*
X0108666Y0189201D02*
X0106162Y0186697D01*
X0106162Y0186697D01*
X0108666Y0189201D01*
X0108666Y0189201D01*
X0103933Y0193933D02*
X0101429Y0191429D01*
X0101429Y0191429D01*
X0103933Y0193933D01*
X0103933Y0193933D01*
X0099201Y0198666D02*
X0096697Y0196162D01*
X0096697Y0196162D01*
X0099201Y0198666D01*
X0099201Y0198666D01*
X0092799Y0203334D02*
X0095303Y0205838D01*
X0092799Y0203334D02*
X0092799Y0203334D01*
X0095303Y0205838D01*
X0095303Y0205838D01*
X0090571Y0210571D02*
X0088067Y0208067D01*
X0088067Y0208067D01*
X0090571Y0210571D01*
X0090571Y0210571D01*
X0085838Y0215303D02*
X0083334Y0212799D01*
X0083334Y0212799D01*
X0085838Y0215303D01*
X0085838Y0215303D01*
X0078666Y0219201D02*
X0076162Y0216697D01*
X0076162Y0216697D01*
X0078666Y0219201D01*
X0078666Y0219201D01*
X0073933Y0223933D02*
X0071429Y0221429D01*
X0071429Y0221429D01*
X0073933Y0223933D01*
X0073933Y0223933D01*
X0069201Y0228666D02*
X0066697Y0226162D01*
X0066697Y0226162D01*
X0069201Y0228666D01*
X0069201Y0228666D01*
X0055838Y0215303D02*
X0053334Y0212799D01*
X0053334Y0212799D01*
X0055838Y0215303D01*
X0055838Y0215303D01*
X0060571Y0210571D02*
X0058067Y0208067D01*
X0058067Y0208067D01*
X0060571Y0210571D01*
X0060571Y0210571D01*
X0065303Y0205838D02*
X0062799Y0203334D01*
X0062799Y0203334D01*
X0065303Y0205838D01*
X0065303Y0205838D01*
X0069201Y0198666D02*
X0066697Y0196162D01*
X0066697Y0196162D01*
X0069201Y0198666D01*
X0069201Y0198666D01*
X0073933Y0193933D02*
X0071429Y0191429D01*
X0071429Y0191429D01*
X0073933Y0193933D01*
X0073933Y0193933D01*
X0078666Y0189201D02*
X0076162Y0186697D01*
X0076162Y0186697D01*
X0078666Y0189201D01*
X0078666Y0189201D01*
X0083334Y0182799D02*
X0085838Y0185303D01*
X0083334Y0182799D02*
X0083334Y0182799D01*
X0085838Y0185303D01*
X0085838Y0185303D01*
X0090571Y0180571D02*
X0088067Y0178067D01*
X0088067Y0178067D01*
X0090571Y0180571D01*
X0090571Y0180571D01*
X0095303Y0175838D02*
X0092799Y0173334D01*
X0092799Y0173334D01*
X0095303Y0175838D01*
X0095303Y0175838D01*
X0099201Y0168666D02*
X0096697Y0166162D01*
X0096697Y0166162D01*
X0099201Y0168666D01*
X0099201Y0168666D01*
X0103933Y0163933D02*
X0101429Y0161429D01*
X0101429Y0161429D01*
X0103933Y0163933D01*
X0103933Y0163933D01*
X0108666Y0159201D02*
X0106162Y0156697D01*
X0106162Y0156697D01*
X0108666Y0159201D01*
X0108666Y0159201D01*
X0113334Y0152799D02*
X0115838Y0155303D01*
X0113334Y0152799D02*
X0113334Y0152799D01*
X0115838Y0155303D01*
X0115838Y0155303D01*
X0120571Y0150571D02*
X0118067Y0148067D01*
X0118067Y0148067D01*
X0120571Y0150571D01*
X0120571Y0150571D01*
X0125303Y0145838D02*
X0122799Y0143334D01*
X0122799Y0143334D01*
X0125303Y0145838D01*
X0125303Y0145838D01*
X0129201Y0138666D02*
X0126697Y0136162D01*
X0126697Y0136162D01*
X0129201Y0138666D01*
X0129201Y0138666D01*
X0133933Y0133933D02*
X0131429Y0131429D01*
X0131429Y0131429D01*
X0133933Y0133933D01*
X0133933Y0133933D01*
X0138666Y0129201D02*
X0136162Y0126697D01*
X0136162Y0126697D01*
X0138666Y0129201D01*
X0138666Y0129201D01*
X0143334Y0122799D02*
X0145838Y0125303D01*
X0143334Y0122799D02*
X0143334Y0122799D01*
X0145838Y0125303D01*
X0145838Y0125303D01*
X0150571Y0120571D02*
X0148067Y0118067D01*
X0148067Y0118067D01*
X0150571Y0120571D01*
X0150571Y0120571D01*
X0155303Y0115838D02*
X0152799Y0113334D01*
X0152799Y0113334D01*
X0155303Y0115838D01*
X0155303Y0115838D01*
X0159201Y0108666D02*
X0156697Y0106162D01*
X0156697Y0106162D01*
X0159201Y0108666D01*
X0159201Y0108666D01*
X0163933Y0103933D02*
X0161429Y0101429D01*
X0161429Y0101429D01*
X0163933Y0103933D01*
X0163933Y0103933D01*
X0168666Y0099201D02*
X0166162Y0096697D01*
X0166162Y0096697D01*
X0168666Y0099201D01*
X0168666Y0099201D01*
X0173334Y0092799D02*
X0175838Y0095303D01*
X0173334Y0092799D02*
X0173334Y0092799D01*
X0175838Y0095303D01*
X0175838Y0095303D01*
X0180571Y0090571D02*
X0178067Y0088067D01*
X0178067Y0088067D01*
X0180571Y0090571D01*
X0180571Y0090571D01*
X0185303Y0085838D02*
X0182799Y0083334D01*
X0182799Y0083334D01*
X0185303Y0085838D01*
X0185303Y0085838D01*
X0189201Y0078666D02*
X0186697Y0076162D01*
X0186697Y0076162D01*
X0189201Y0078666D01*
X0189201Y0078666D01*
X0193933Y0073933D02*
X0191429Y0071429D01*
X0191429Y0071429D01*
X0193933Y0073933D01*
X0193933Y0073933D01*
X0198666Y0069201D02*
X0196162Y0066697D01*
X0196162Y0066697D01*
X0198666Y0069201D01*
X0198666Y0069201D01*
X0203334Y0062799D02*
X0205838Y0065303D01*
X0203334Y0062799D02*
X0203334Y0062799D01*
X0205838Y0065303D01*
X0205838Y0065303D01*
X0210571Y0060571D02*
X0208067Y0058067D01*
X0208067Y0058067D01*
X0210571Y0060571D01*
X0210571Y0060571D01*
X0215303Y0055838D02*
X0212799Y0053334D01*
X0212799Y0053334D01*
X0215303Y0055838D01*
X0215303Y0055838D01*
X0198666Y0039201D02*
X0196162Y0036697D01*
X0196162Y0036697D01*
X0198666Y0039201D01*
X0198666Y0039201D01*
X0193933Y0043933D02*
X0191429Y0041429D01*
X0191429Y0041429D01*
X0193933Y0043933D01*
X0193933Y0043933D01*
X0189201Y0048666D02*
X0186697Y0046162D01*
X0186697Y0046162D01*
X0189201Y0048666D01*
X0189201Y0048666D01*
X0182799Y0053334D02*
X0185303Y0055838D01*
X0182799Y0053334D02*
X0182799Y0053334D01*
X0185303Y0055838D01*
X0185303Y0055838D01*
X0180571Y0060571D02*
X0178067Y0058067D01*
X0178067Y0058067D01*
X0180571Y0060571D01*
X0180571Y0060571D01*
X0175838Y0065303D02*
X0173334Y0062799D01*
X0173334Y0062799D01*
X0175838Y0065303D01*
X0175838Y0065303D01*
X0168666Y0069201D02*
X0166162Y0066697D01*
X0166162Y0066697D01*
X0168666Y0069201D01*
X0168666Y0069201D01*
X0163933Y0073933D02*
X0161429Y0071429D01*
X0161429Y0071429D01*
X0163933Y0073933D01*
X0163933Y0073933D01*
X0159201Y0078666D02*
X0156697Y0076162D01*
X0156697Y0076162D01*
X0159201Y0078666D01*
X0159201Y0078666D01*
X0152799Y0083334D02*
X0155303Y0085838D01*
X0152799Y0083334D02*
X0152799Y0083334D01*
X0155303Y0085838D01*
X0155303Y0085838D01*
X0150571Y0090571D02*
X0148067Y0088067D01*
X0148067Y0088067D01*
X0150571Y0090571D01*
X0150571Y0090571D01*
X0145838Y0095303D02*
X0143334Y0092799D01*
X0143334Y0092799D01*
X0145838Y0095303D01*
X0145838Y0095303D01*
X0138666Y0099201D02*
X0136162Y0096697D01*
X0136162Y0096697D01*
X0138666Y0099201D01*
X0138666Y0099201D01*
X0133933Y0103933D02*
X0131429Y0101429D01*
X0131429Y0101429D01*
X0133933Y0103933D01*
X0133933Y0103933D01*
X0129201Y0108666D02*
X0126697Y0106162D01*
X0126697Y0106162D01*
X0129201Y0108666D01*
X0129201Y0108666D01*
X0122799Y0113334D02*
X0125303Y0115838D01*
X0122799Y0113334D02*
X0122799Y0113334D01*
X0125303Y0115838D01*
X0125303Y0115838D01*
X0120571Y0120571D02*
X0118067Y0118067D01*
X0118067Y0118067D01*
X0120571Y0120571D01*
X0120571Y0120571D01*
X0115838Y0125303D02*
X0113334Y0122799D01*
X0113334Y0122799D01*
X0115838Y0125303D01*
X0115838Y0125303D01*
X0108666Y0129201D02*
X0106162Y0126697D01*
X0106162Y0126697D01*
X0108666Y0129201D01*
X0108666Y0129201D01*
X0103933Y0133933D02*
X0101429Y0131429D01*
X0101429Y0131429D01*
X0103933Y0133933D01*
X0103933Y0133933D01*
X0099201Y0138666D02*
X0096697Y0136162D01*
X0096697Y0136162D01*
X0099201Y0138666D01*
X0099201Y0138666D01*
X0092799Y0143334D02*
X0095303Y0145838D01*
X0092799Y0143334D02*
X0092799Y0143334D01*
X0095303Y0145838D01*
X0095303Y0145838D01*
X0090571Y0150571D02*
X0088067Y0148067D01*
X0088067Y0148067D01*
X0090571Y0150571D01*
X0090571Y0150571D01*
X0085838Y0155303D02*
X0083334Y0152799D01*
X0083334Y0152799D01*
X0085838Y0155303D01*
X0085838Y0155303D01*
X0078666Y0159201D02*
X0076162Y0156697D01*
X0076162Y0156697D01*
X0078666Y0159201D01*
X0078666Y0159201D01*
X0073933Y0163933D02*
X0071429Y0161429D01*
X0071429Y0161429D01*
X0073933Y0163933D01*
X0073933Y0163933D01*
X0069201Y0168666D02*
X0066697Y0166162D01*
X0066697Y0166162D01*
X0069201Y0168666D01*
X0069201Y0168666D01*
X0062799Y0173334D02*
X0065303Y0175838D01*
X0062799Y0173334D02*
X0062799Y0173334D01*
X0065303Y0175838D01*
X0065303Y0175838D01*
X0060571Y0180571D02*
X0058067Y0178067D01*
X0058067Y0178067D01*
X0060571Y0180571D01*
X0060571Y0180571D01*
X0055838Y0185303D02*
X0053334Y0182799D01*
X0053334Y0182799D01*
X0055838Y0185303D01*
X0055838Y0185303D01*
X0048666Y0189201D02*
X0046162Y0186697D01*
X0046162Y0186697D01*
X0048666Y0189201D01*
X0048666Y0189201D01*
X0043933Y0193933D02*
X0041429Y0191429D01*
X0041429Y0191429D01*
X0043933Y0193933D01*
X0043933Y0193933D01*
X0039201Y0198666D02*
X0036697Y0196162D01*
X0036697Y0196162D01*
X0039201Y0198666D01*
X0039201Y0198666D01*
X0025838Y0185303D02*
X0023334Y0182799D01*
X0023334Y0182799D01*
X0025838Y0185303D01*
X0025838Y0185303D01*
X0030571Y0180571D02*
X0028067Y0178067D01*
X0028067Y0178067D01*
X0030571Y0180571D01*
X0030571Y0180571D01*
X0035303Y0175838D02*
X0032799Y0173334D01*
X0032799Y0173334D01*
X0035303Y0175838D01*
X0035303Y0175838D01*
X0039201Y0168666D02*
X0036697Y0166162D01*
X0036697Y0166162D01*
X0039201Y0168666D01*
X0039201Y0168666D01*
X0043933Y0163933D02*
X0041429Y0161429D01*
X0041429Y0161429D01*
X0043933Y0163933D01*
X0043933Y0163933D01*
X0048666Y0159201D02*
X0046162Y0156697D01*
X0046162Y0156697D01*
X0048666Y0159201D01*
X0048666Y0159201D01*
X0053334Y0152799D02*
X0055838Y0155303D01*
X0053334Y0152799D02*
X0053334Y0152799D01*
X0055838Y0155303D01*
X0055838Y0155303D01*
X0060571Y0150571D02*
X0058067Y0148067D01*
X0058067Y0148067D01*
X0060571Y0150571D01*
X0060571Y0150571D01*
X0065303Y0145838D02*
X0062799Y0143334D01*
X0062799Y0143334D01*
X0065303Y0145838D01*
X0065303Y0145838D01*
X0069201Y0138666D02*
X0066697Y0136162D01*
X0066697Y0136162D01*
X0069201Y0138666D01*
X0069201Y0138666D01*
X0073933Y0133933D02*
X0071429Y0131429D01*
X0071429Y0131429D01*
X0073933Y0133933D01*
X0073933Y0133933D01*
X0078666Y0129201D02*
X0076162Y0126697D01*
X0076162Y0126697D01*
X0078666Y0129201D01*
X0078666Y0129201D01*
X0083334Y0122799D02*
X0085838Y0125303D01*
X0083334Y0122799D02*
X0083334Y0122799D01*
X0085838Y0125303D01*
X0085838Y0125303D01*
X0090571Y0120571D02*
X0088067Y0118067D01*
X0088067Y0118067D01*
X0090571Y0120571D01*
X0090571Y0120571D01*
X0095303Y0115838D02*
X0092799Y0113334D01*
X0092799Y0113334D01*
X0095303Y0115838D01*
X0095303Y0115838D01*
X0099201Y0108666D02*
X0096697Y0106162D01*
X0096697Y0106162D01*
X0099201Y0108666D01*
X0099201Y0108666D01*
X0103933Y0103933D02*
X0101429Y0101429D01*
X0101429Y0101429D01*
X0103933Y0103933D01*
X0103933Y0103933D01*
X0108666Y0099201D02*
X0106162Y0096697D01*
X0106162Y0096697D01*
X0108666Y0099201D01*
X0108666Y0099201D01*
X0113334Y0092799D02*
X0115838Y0095303D01*
X0113334Y0092799D02*
X0113334Y0092799D01*
X0115838Y0095303D01*
X0115838Y0095303D01*
X0120571Y0090571D02*
X0118067Y0088067D01*
X0118067Y0088067D01*
X0120571Y0090571D01*
X0120571Y0090571D01*
X0125303Y0085838D02*
X0122799Y0083334D01*
X0122799Y0083334D01*
X0125303Y0085838D01*
X0125303Y0085838D01*
X0129201Y0078666D02*
X0126697Y0076162D01*
X0126697Y0076162D01*
X0129201Y0078666D01*
X0129201Y0078666D01*
X0133933Y0073933D02*
X0131429Y0071429D01*
X0131429Y0071429D01*
X0133933Y0073933D01*
X0133933Y0073933D01*
X0138666Y0069201D02*
X0136162Y0066697D01*
X0136162Y0066697D01*
X0138666Y0069201D01*
X0138666Y0069201D01*
X0143334Y0062799D02*
X0145838Y0065303D01*
X0143334Y0062799D02*
X0143334Y0062799D01*
X0145838Y0065303D01*
X0145838Y0065303D01*
X0150571Y0060571D02*
X0148067Y0058067D01*
X0148067Y0058067D01*
X0150571Y0060571D01*
X0150571Y0060571D01*
X0155303Y0055838D02*
X0152799Y0053334D01*
X0152799Y0053334D01*
X0155303Y0055838D01*
X0155303Y0055838D01*
X0159201Y0048666D02*
X0156697Y0046162D01*
X0156697Y0046162D01*
X0159201Y0048666D01*
X0159201Y0048666D01*
X0163933Y0043933D02*
X0161429Y0041429D01*
X0161429Y0041429D01*
X0163933Y0043933D01*
X0163933Y0043933D01*
X0168666Y0039201D02*
X0166162Y0036697D01*
X0166162Y0036697D01*
X0168666Y0039201D01*
X0168666Y0039201D01*
X0173334Y0032799D02*
X0175838Y0035303D01*
X0173334Y0032799D02*
X0173334Y0032799D01*
X0175838Y0035303D01*
X0175838Y0035303D01*
X0180571Y0030571D02*
X0178067Y0028067D01*
X0178067Y0028067D01*
X0180571Y0030571D01*
X0180571Y0030571D01*
X0185303Y0025838D02*
X0182799Y0023334D01*
X0182799Y0023334D01*
X0185303Y0025838D01*
X0185303Y0025838D01*
X0155303Y0025838D02*
X0152799Y0023334D01*
X0152799Y0023334D01*
X0155303Y0025838D01*
X0155303Y0025838D01*
X0150571Y0030571D02*
X0148067Y0028067D01*
X0148067Y0028067D01*
X0150571Y0030571D01*
X0150571Y0030571D01*
X0145838Y0035303D02*
X0143334Y0032799D01*
X0143334Y0032799D01*
X0145838Y0035303D01*
X0145838Y0035303D01*
X0138666Y0039201D02*
X0136162Y0036697D01*
X0136162Y0036697D01*
X0138666Y0039201D01*
X0138666Y0039201D01*
X0133933Y0043933D02*
X0131429Y0041429D01*
X0131429Y0041429D01*
X0133933Y0043933D01*
X0133933Y0043933D01*
X0129201Y0048666D02*
X0126697Y0046162D01*
X0126697Y0046162D01*
X0129201Y0048666D01*
X0129201Y0048666D01*
X0122799Y0053334D02*
X0125303Y0055838D01*
X0122799Y0053334D02*
X0122799Y0053334D01*
X0125303Y0055838D01*
X0125303Y0055838D01*
X0120571Y0060571D02*
X0118067Y0058067D01*
X0118067Y0058067D01*
X0120571Y0060571D01*
X0120571Y0060571D01*
X0115838Y0065303D02*
X0113334Y0062799D01*
X0113334Y0062799D01*
X0115838Y0065303D01*
X0115838Y0065303D01*
X0108666Y0069201D02*
X0106162Y0066697D01*
X0106162Y0066697D01*
X0108666Y0069201D01*
X0108666Y0069201D01*
X0103933Y0073933D02*
X0101429Y0071429D01*
X0101429Y0071429D01*
X0103933Y0073933D01*
X0103933Y0073933D01*
X0099201Y0078666D02*
X0096697Y0076162D01*
X0096697Y0076162D01*
X0099201Y0078666D01*
X0099201Y0078666D01*
X0092799Y0083334D02*
X0095303Y0085838D01*
X0092799Y0083334D02*
X0092799Y0083334D01*
X0095303Y0085838D01*
X0095303Y0085838D01*
X0090571Y0090571D02*
X0088067Y0088067D01*
X0088067Y0088067D01*
X0090571Y0090571D01*
X0090571Y0090571D01*
X0085838Y0095303D02*
X0083334Y0092799D01*
X0083334Y0092799D01*
X0085838Y0095303D01*
X0085838Y0095303D01*
X0078666Y0099201D02*
X0076162Y0096697D01*
X0076162Y0096697D01*
X0078666Y0099201D01*
X0078666Y0099201D01*
X0073933Y0103933D02*
X0071429Y0101429D01*
X0071429Y0101429D01*
X0073933Y0103933D01*
X0073933Y0103933D01*
X0069201Y0108666D02*
X0066697Y0106162D01*
X0066697Y0106162D01*
X0069201Y0108666D01*
X0069201Y0108666D01*
X0062799Y0113334D02*
X0065303Y0115838D01*
X0062799Y0113334D02*
X0062799Y0113334D01*
X0065303Y0115838D01*
X0065303Y0115838D01*
X0060571Y0120571D02*
X0058067Y0118067D01*
X0058067Y0118067D01*
X0060571Y0120571D01*
X0060571Y0120571D01*
X0055838Y0125303D02*
X0053334Y0122799D01*
X0053334Y0122799D01*
X0055838Y0125303D01*
X0055838Y0125303D01*
X0048666Y0129201D02*
X0046162Y0126697D01*
X0046162Y0126697D01*
X0048666Y0129201D01*
X0048666Y0129201D01*
X0043933Y0133933D02*
X0041429Y0131429D01*
X0041429Y0131429D01*
X0043933Y0133933D01*
X0043933Y0133933D01*
X0039201Y0138666D02*
X0036697Y0136162D01*
X0036697Y0136162D01*
X0039201Y0138666D01*
X0039201Y0138666D01*
X0032799Y0143334D02*
X0035303Y0145838D01*
X0032799Y0143334D02*
X0032799Y0143334D01*
X0035303Y0145838D01*
X0035303Y0145838D01*
X0030571Y0150571D02*
X0028067Y0148067D01*
X0028067Y0148067D01*
X0030571Y0150571D01*
X0030571Y0150571D01*
X0025838Y0155303D02*
X0023334Y0152799D01*
X0023334Y0152799D01*
X0025838Y0155303D01*
X0025838Y0155303D01*
X0025838Y0125303D02*
X0023334Y0122799D01*
X0023334Y0122799D01*
X0025838Y0125303D01*
X0025838Y0125303D01*
X0030571Y0120571D02*
X0028067Y0118067D01*
X0028067Y0118067D01*
X0030571Y0120571D01*
X0030571Y0120571D01*
X0035303Y0115838D02*
X0032799Y0113334D01*
X0032799Y0113334D01*
X0035303Y0115838D01*
X0035303Y0115838D01*
X0039201Y0108666D02*
X0036697Y0106162D01*
X0036697Y0106162D01*
X0039201Y0108666D01*
X0039201Y0108666D01*
X0043933Y0103933D02*
X0041429Y0101429D01*
X0041429Y0101429D01*
X0043933Y0103933D01*
X0043933Y0103933D01*
X0048666Y0099201D02*
X0046162Y0096697D01*
X0046162Y0096697D01*
X0048666Y0099201D01*
X0048666Y0099201D01*
X0053334Y0092799D02*
X0055838Y0095303D01*
X0053334Y0092799D02*
X0053334Y0092799D01*
X0055838Y0095303D01*
X0055838Y0095303D01*
X0060571Y0090571D02*
X0058067Y0088067D01*
X0058067Y0088067D01*
X0060571Y0090571D01*
X0060571Y0090571D01*
X0065303Y0085838D02*
X0062799Y0083334D01*
X0062799Y0083334D01*
X0065303Y0085838D01*
X0065303Y0085838D01*
X0069201Y0078666D02*
X0066697Y0076162D01*
X0066697Y0076162D01*
X0069201Y0078666D01*
X0069201Y0078666D01*
X0073933Y0073933D02*
X0071429Y0071429D01*
X0071429Y0071429D01*
X0073933Y0073933D01*
X0073933Y0073933D01*
X0078666Y0069201D02*
X0076162Y0066697D01*
X0076162Y0066697D01*
X0078666Y0069201D01*
X0078666Y0069201D01*
X0083334Y0062799D02*
X0085838Y0065303D01*
X0083334Y0062799D02*
X0083334Y0062799D01*
X0085838Y0065303D01*
X0085838Y0065303D01*
X0090571Y0060571D02*
X0088067Y0058067D01*
X0088067Y0058067D01*
X0090571Y0060571D01*
X0090571Y0060571D01*
X0095303Y0055838D02*
X0092799Y0053334D01*
X0092799Y0053334D01*
X0095303Y0055838D01*
X0095303Y0055838D01*
X0099201Y0048666D02*
X0096697Y0046162D01*
X0096697Y0046162D01*
X0099201Y0048666D01*
X0099201Y0048666D01*
X0103933Y0043933D02*
X0101429Y0041429D01*
X0101429Y0041429D01*
X0103933Y0043933D01*
X0103933Y0043933D01*
X0108666Y0039201D02*
X0106162Y0036697D01*
X0106162Y0036697D01*
X0108666Y0039201D01*
X0108666Y0039201D01*
X0113334Y0032799D02*
X0115838Y0035303D01*
X0113334Y0032799D02*
X0113334Y0032799D01*
X0115838Y0035303D01*
X0115838Y0035303D01*
X0120571Y0030571D02*
X0118067Y0028067D01*
X0118067Y0028067D01*
X0120571Y0030571D01*
X0120571Y0030571D01*
X0125303Y0025838D02*
X0122799Y0023334D01*
X0122799Y0023334D01*
X0125303Y0025838D01*
X0125303Y0025838D01*
X0095303Y0025838D02*
X0092799Y0023334D01*
X0092799Y0023334D01*
X0095303Y0025838D01*
X0095303Y0025838D01*
X0090571Y0030571D02*
X0088067Y0028067D01*
X0088067Y0028067D01*
X0090571Y0030571D01*
X0090571Y0030571D01*
X0085838Y0035303D02*
X0083334Y0032799D01*
X0083334Y0032799D01*
X0085838Y0035303D01*
X0085838Y0035303D01*
X0065303Y0055838D02*
X0062799Y0053334D01*
X0062799Y0053334D01*
X0065303Y0055838D01*
X0065303Y0055838D01*
X0060571Y0060571D02*
X0058067Y0058067D01*
X0058067Y0058067D01*
X0060571Y0060571D01*
X0060571Y0060571D01*
X0055838Y0065303D02*
X0053334Y0062799D01*
X0053334Y0062799D01*
X0055838Y0065303D01*
X0055838Y0065303D01*
X0035303Y0085838D02*
X0032799Y0083334D01*
X0032799Y0083334D01*
X0035303Y0085838D01*
X0035303Y0085838D01*
X0030571Y0090571D02*
X0028067Y0088067D01*
X0028067Y0088067D01*
X0030571Y0090571D01*
X0030571Y0090571D01*
X0025838Y0095303D02*
X0023334Y0092799D01*
X0023334Y0092799D01*
X0025838Y0095303D01*
X0025838Y0095303D01*
X0126697Y0196162D02*
X0129201Y0198666D01*
X0126697Y0196162D02*
X0126697Y0196162D01*
X0129201Y0198666D01*
X0129201Y0198666D01*
X0122799Y0203334D02*
X0125303Y0205838D01*
X0122799Y0203334D02*
X0122799Y0203334D01*
X0125303Y0205838D01*
X0125303Y0205838D01*
X0120571Y0210571D02*
X0118067Y0208067D01*
X0118067Y0208067D01*
X0120571Y0210571D01*
X0120571Y0210571D01*
X0115838Y0215303D02*
X0113334Y0212799D01*
X0113334Y0212799D01*
X0115838Y0215303D01*
X0115838Y0215303D01*
X0108666Y0219201D02*
X0106162Y0216697D01*
X0106162Y0216697D01*
X0108666Y0219201D01*
X0108666Y0219201D01*
X0103933Y0223933D02*
X0101429Y0221429D01*
X0101429Y0221429D01*
X0103933Y0223933D01*
X0103933Y0223933D01*
X0099201Y0228666D02*
X0096697Y0226162D01*
X0096697Y0226162D01*
X0099201Y0228666D01*
X0099201Y0228666D01*
X0092799Y0233334D02*
X0095303Y0235838D01*
X0092799Y0233334D02*
X0092799Y0233334D01*
X0095303Y0235838D01*
X0095303Y0235838D01*
X0090571Y0240571D02*
X0088067Y0238067D01*
X0088067Y0238067D01*
X0090571Y0240571D01*
X0090571Y0240571D01*
X0085838Y0245303D02*
X0083334Y0242799D01*
X0083334Y0242799D01*
X0085838Y0245303D01*
X0085838Y0245303D01*
X0096697Y0256162D02*
X0099201Y0258666D01*
X0096697Y0256162D02*
X0096697Y0256162D01*
X0099201Y0258666D01*
X0099201Y0258666D01*
X0103933Y0253933D02*
X0101429Y0251429D01*
X0101429Y0251429D01*
X0103933Y0253933D01*
X0103933Y0253933D01*
X0108666Y0249201D02*
X0106162Y0246697D01*
X0106162Y0246697D01*
X0108666Y0249201D01*
X0108666Y0249201D01*
X0113334Y0242799D02*
X0115838Y0245303D01*
X0113334Y0242799D02*
X0113334Y0242799D01*
X0115838Y0245303D01*
X0115838Y0245303D01*
X0120571Y0240571D02*
X0118067Y0238067D01*
X0118067Y0238067D01*
X0120571Y0240571D01*
X0120571Y0240571D01*
X0125303Y0235838D02*
X0122799Y0233334D01*
X0122799Y0233334D01*
X0125303Y0235838D01*
X0125303Y0235838D01*
X0129201Y0228666D02*
X0126697Y0226162D01*
X0126697Y0226162D01*
X0129201Y0228666D01*
X0129201Y0228666D01*
X0133933Y0223933D02*
X0131429Y0221429D01*
X0131429Y0221429D01*
X0133933Y0223933D01*
X0133933Y0223933D01*
X0138666Y0219201D02*
X0136162Y0216697D01*
X0136162Y0216697D01*
X0138666Y0219201D01*
X0138666Y0219201D01*
X0143334Y0212799D02*
X0145838Y0215303D01*
X0143334Y0212799D02*
X0143334Y0212799D01*
X0145838Y0215303D01*
X0145838Y0215303D01*
X0150571Y0210571D02*
X0148067Y0208067D01*
X0148067Y0208067D01*
X0150571Y0210571D01*
X0150571Y0210571D01*
X0155303Y0205838D02*
X0152799Y0203334D01*
X0152799Y0203334D01*
X0155303Y0205838D01*
X0155303Y0205838D01*
X0159201Y0198666D02*
X0156697Y0196162D01*
X0156697Y0196162D01*
X0159201Y0198666D01*
X0159201Y0198666D01*
X0163933Y0193933D02*
X0161429Y0191429D01*
X0161429Y0191429D01*
X0163933Y0193933D01*
X0163933Y0193933D01*
X0168666Y0189201D02*
X0166162Y0186697D01*
X0166162Y0186697D01*
X0168666Y0189201D01*
X0168666Y0189201D01*
X0173334Y0182799D02*
X0175838Y0185303D01*
X0173334Y0182799D02*
X0173334Y0182799D01*
X0175838Y0185303D01*
X0175838Y0185303D01*
X0180571Y0180571D02*
X0178067Y0178067D01*
X0178067Y0178067D01*
X0180571Y0180571D01*
X0180571Y0180571D01*
X0185303Y0175838D02*
X0182799Y0173334D01*
X0182799Y0173334D01*
X0185303Y0175838D01*
X0185303Y0175838D01*
X0189201Y0168666D02*
X0186697Y0166162D01*
X0186697Y0166162D01*
X0189201Y0168666D01*
X0189201Y0168666D01*
X0193933Y0163933D02*
X0191429Y0161429D01*
X0191429Y0161429D01*
X0193933Y0163933D01*
X0193933Y0163933D01*
X0198666Y0159201D02*
X0196162Y0156697D01*
X0196162Y0156697D01*
X0198666Y0159201D01*
X0198666Y0159201D01*
X0203334Y0152799D02*
X0205838Y0155303D01*
X0203334Y0152799D02*
X0203334Y0152799D01*
X0205838Y0155303D01*
X0205838Y0155303D01*
X0210571Y0150571D02*
X0208067Y0148067D01*
X0208067Y0148067D01*
X0210571Y0150571D01*
X0210571Y0150571D01*
X0215303Y0145838D02*
X0212799Y0143334D01*
X0212799Y0143334D01*
X0215303Y0145838D01*
X0215303Y0145838D01*
X0219201Y0138666D02*
X0216697Y0136162D01*
X0216697Y0136162D01*
X0219201Y0138666D01*
X0219201Y0138666D01*
X0223933Y0133933D02*
X0221429Y0131429D01*
X0221429Y0131429D01*
X0223933Y0133933D01*
X0223933Y0133933D01*
X0228666Y0129201D02*
X0226162Y0126697D01*
X0226162Y0126697D01*
X0228666Y0129201D01*
X0228666Y0129201D01*
X0233334Y0122799D02*
X0235838Y0125303D01*
X0233334Y0122799D02*
X0233334Y0122799D01*
X0235838Y0125303D01*
X0235838Y0125303D01*
X0240571Y0120571D02*
X0238067Y0118067D01*
X0238067Y0118067D01*
X0240571Y0120571D01*
X0240571Y0120571D01*
X0245303Y0115838D02*
X0242799Y0113334D01*
X0242799Y0113334D01*
X0245303Y0115838D01*
X0245303Y0115838D01*
X0249201Y0108666D02*
X0246697Y0106162D01*
X0246697Y0106162D01*
X0249201Y0108666D01*
X0249201Y0108666D01*
X0253933Y0103933D02*
X0251429Y0101429D01*
X0251429Y0101429D01*
X0253933Y0103933D01*
X0253933Y0103933D01*
X0258666Y0099201D02*
X0256162Y0096697D01*
X0256162Y0096697D01*
X0258666Y0099201D01*
X0258666Y0099201D01*
X0245303Y0085838D02*
X0242799Y0083334D01*
X0242799Y0083334D01*
X0245303Y0085838D01*
X0245303Y0085838D01*
X0240571Y0090571D02*
X0238067Y0088067D01*
X0238067Y0088067D01*
X0240571Y0090571D01*
X0240571Y0090571D01*
X0235838Y0095303D02*
X0233334Y0092799D01*
X0233334Y0092799D01*
X0235838Y0095303D01*
X0235838Y0095303D01*
X0228666Y0099201D02*
X0226162Y0096697D01*
X0226162Y0096697D01*
X0228666Y0099201D01*
X0228666Y0099201D01*
X0223933Y0103933D02*
X0221429Y0101429D01*
X0221429Y0101429D01*
X0223933Y0103933D01*
X0223933Y0103933D01*
X0219201Y0108666D02*
X0216697Y0106162D01*
X0216697Y0106162D01*
X0219201Y0108666D01*
X0219201Y0108666D01*
X0212799Y0113334D02*
X0215303Y0115838D01*
X0212799Y0113334D02*
X0212799Y0113334D01*
X0215303Y0115838D01*
X0215303Y0115838D01*
X0210571Y0120571D02*
X0208067Y0118067D01*
X0208067Y0118067D01*
X0210571Y0120571D01*
X0210571Y0120571D01*
X0205838Y0125303D02*
X0203334Y0122799D01*
X0203334Y0122799D01*
X0205838Y0125303D01*
X0205838Y0125303D01*
X0198666Y0129201D02*
X0196162Y0126697D01*
X0196162Y0126697D01*
X0198666Y0129201D01*
X0198666Y0129201D01*
X0193933Y0133933D02*
X0191429Y0131429D01*
X0191429Y0131429D01*
X0193933Y0133933D01*
X0193933Y0133933D01*
X0189201Y0138666D02*
X0186697Y0136162D01*
X0186697Y0136162D01*
X0189201Y0138666D01*
X0189201Y0138666D01*
X0182799Y0143334D02*
X0185303Y0145838D01*
X0182799Y0143334D02*
X0182799Y0143334D01*
X0185303Y0145838D01*
X0185303Y0145838D01*
X0180571Y0150571D02*
X0178067Y0148067D01*
X0178067Y0148067D01*
X0180571Y0150571D01*
X0180571Y0150571D01*
X0175838Y0155303D02*
X0173334Y0152799D01*
X0173334Y0152799D01*
X0175838Y0155303D01*
X0175838Y0155303D01*
X0168666Y0159201D02*
X0166162Y0156697D01*
X0166162Y0156697D01*
X0168666Y0159201D01*
X0168666Y0159201D01*
X0163933Y0163933D02*
X0161429Y0161429D01*
X0161429Y0161429D01*
X0163933Y0163933D01*
X0163933Y0163933D01*
X0159201Y0168666D02*
X0156697Y0166162D01*
X0156697Y0166162D01*
X0159201Y0168666D01*
X0159201Y0168666D01*
X0152799Y0173334D02*
X0155303Y0175838D01*
X0152799Y0173334D02*
X0152799Y0173334D01*
X0155303Y0175838D01*
X0155303Y0175838D01*
X0150571Y0180571D02*
X0148067Y0178067D01*
X0148067Y0178067D01*
X0150571Y0180571D01*
X0150571Y0180571D01*
X0145838Y0185303D02*
X0143334Y0182799D01*
X0143334Y0182799D01*
X0145838Y0185303D01*
X0145838Y0185303D01*
X0138666Y0189201D02*
X0136162Y0186697D01*
X0136162Y0186697D01*
X0138666Y0189201D01*
X0138666Y0189201D01*
X0133933Y0193933D02*
X0131429Y0191429D01*
X0131429Y0191429D01*
X0133933Y0193933D01*
X0133933Y0193933D01*
X0161429Y0221429D02*
X0163933Y0223933D01*
X0161429Y0221429D02*
X0161429Y0221429D01*
X0163933Y0223933D01*
X0163933Y0223933D01*
X0159201Y0228666D02*
X0156697Y0226162D01*
X0156697Y0226162D01*
X0159201Y0228666D01*
X0159201Y0228666D01*
X0152799Y0233334D02*
X0155303Y0235838D01*
X0152799Y0233334D02*
X0152799Y0233334D01*
X0155303Y0235838D01*
X0155303Y0235838D01*
X0150571Y0240571D02*
X0148067Y0238067D01*
X0148067Y0238067D01*
X0150571Y0240571D01*
X0150571Y0240571D01*
X0145838Y0245303D02*
X0143334Y0242799D01*
X0143334Y0242799D01*
X0145838Y0245303D01*
X0145838Y0245303D01*
X0138666Y0249201D02*
X0136162Y0246697D01*
X0136162Y0246697D01*
X0138666Y0249201D01*
X0138666Y0249201D01*
X0133933Y0253933D02*
X0131429Y0251429D01*
X0131429Y0251429D01*
X0133933Y0253933D01*
X0133933Y0253933D01*
X0129201Y0258666D02*
X0126697Y0256162D01*
X0126697Y0256162D01*
X0129201Y0258666D01*
X0129201Y0258666D01*
X0156697Y0256162D02*
X0159201Y0258666D01*
X0156697Y0256162D02*
X0156697Y0256162D01*
X0159201Y0258666D01*
X0159201Y0258666D01*
X0163933Y0253933D02*
X0161429Y0251429D01*
X0161429Y0251429D01*
X0163933Y0253933D01*
X0163933Y0253933D01*
X0168666Y0249201D02*
X0166162Y0246697D01*
X0166162Y0246697D01*
X0168666Y0249201D01*
X0168666Y0249201D01*
X0173334Y0242799D02*
X0175838Y0245303D01*
X0173334Y0242799D02*
X0173334Y0242799D01*
X0175838Y0245303D01*
X0175838Y0245303D01*
X0180571Y0240571D02*
X0178067Y0238067D01*
X0178067Y0238067D01*
X0180571Y0240571D01*
X0180571Y0240571D01*
X0185303Y0235838D02*
X0182799Y0233334D01*
X0182799Y0233334D01*
X0185303Y0235838D01*
X0185303Y0235838D01*
X0189201Y0228666D02*
X0186697Y0226162D01*
X0186697Y0226162D01*
X0189201Y0228666D01*
X0189201Y0228666D01*
X0193933Y0223933D02*
X0191429Y0221429D01*
X0191429Y0221429D01*
X0193933Y0223933D01*
X0193933Y0223933D01*
X0198666Y0219201D02*
X0196162Y0216697D01*
X0196162Y0216697D01*
X0198666Y0219201D01*
X0198666Y0219201D01*
X0203334Y0212799D02*
X0205838Y0215303D01*
X0203334Y0212799D02*
X0203334Y0212799D01*
X0205838Y0215303D01*
X0205838Y0215303D01*
X0210571Y0210571D02*
X0208067Y0208067D01*
X0208067Y0208067D01*
X0210571Y0210571D01*
X0210571Y0210571D01*
X0215303Y0205838D02*
X0212799Y0203334D01*
X0212799Y0203334D01*
X0215303Y0205838D01*
X0215303Y0205838D01*
X0219201Y0198666D02*
X0216697Y0196162D01*
X0216697Y0196162D01*
X0219201Y0198666D01*
X0219201Y0198666D01*
X0223933Y0193933D02*
X0221429Y0191429D01*
X0221429Y0191429D01*
X0223933Y0193933D01*
X0223933Y0193933D01*
X0228666Y0189201D02*
X0226162Y0186697D01*
X0226162Y0186697D01*
X0228666Y0189201D01*
X0228666Y0189201D01*
X0233334Y0182799D02*
X0235838Y0185303D01*
X0233334Y0182799D02*
X0233334Y0182799D01*
X0235838Y0185303D01*
X0235838Y0185303D01*
X0240571Y0180571D02*
X0238067Y0178067D01*
X0238067Y0178067D01*
X0240571Y0180571D01*
X0240571Y0180571D01*
X0245303Y0175838D02*
X0242799Y0173334D01*
X0242799Y0173334D01*
X0245303Y0175838D01*
X0245303Y0175838D01*
X0249201Y0168666D02*
X0246697Y0166162D01*
X0246697Y0166162D01*
X0249201Y0168666D01*
X0249201Y0168666D01*
X0253933Y0163933D02*
X0251429Y0161429D01*
X0251429Y0161429D01*
X0253933Y0163933D01*
X0253933Y0163933D01*
X0258666Y0159201D02*
X0256162Y0156697D01*
X0256162Y0156697D01*
X0258666Y0159201D01*
X0258666Y0159201D01*
X0245303Y0145838D02*
X0242799Y0143334D01*
X0242799Y0143334D01*
X0245303Y0145838D01*
X0245303Y0145838D01*
X0240571Y0150571D02*
X0238067Y0148067D01*
X0238067Y0148067D01*
X0240571Y0150571D01*
X0240571Y0150571D01*
X0235838Y0155303D02*
X0233334Y0152799D01*
X0233334Y0152799D01*
X0235838Y0155303D01*
X0235838Y0155303D01*
X0228666Y0159201D02*
X0226162Y0156697D01*
X0226162Y0156697D01*
X0228666Y0159201D01*
X0228666Y0159201D01*
X0223933Y0163933D02*
X0221429Y0161429D01*
X0221429Y0161429D01*
X0223933Y0163933D01*
X0223933Y0163933D01*
X0219201Y0168666D02*
X0216697Y0166162D01*
X0216697Y0166162D01*
X0219201Y0168666D01*
X0219201Y0168666D01*
X0212799Y0173334D02*
X0215303Y0175838D01*
X0212799Y0173334D02*
X0212799Y0173334D01*
X0215303Y0175838D01*
X0215303Y0175838D01*
X0210571Y0180571D02*
X0208067Y0178067D01*
X0208067Y0178067D01*
X0210571Y0180571D01*
X0210571Y0180571D01*
X0205838Y0185303D02*
X0203334Y0182799D01*
X0203334Y0182799D01*
X0205838Y0185303D01*
X0205838Y0185303D01*
X0198666Y0189201D02*
X0196162Y0186697D01*
X0196162Y0186697D01*
X0198666Y0189201D01*
X0198666Y0189201D01*
X0193933Y0193933D02*
X0191429Y0191429D01*
X0191429Y0191429D01*
X0193933Y0193933D01*
X0193933Y0193933D01*
X0189201Y0198666D02*
X0186697Y0196162D01*
X0186697Y0196162D01*
X0189201Y0198666D01*
X0189201Y0198666D01*
X0182799Y0203334D02*
X0185303Y0205838D01*
X0182799Y0203334D02*
X0182799Y0203334D01*
X0185303Y0205838D01*
X0185303Y0205838D01*
X0180571Y0210571D02*
X0178067Y0208067D01*
X0178067Y0208067D01*
X0180571Y0210571D01*
X0180571Y0210571D01*
X0175838Y0215303D02*
X0173334Y0212799D01*
X0173334Y0212799D01*
X0175838Y0215303D01*
X0175838Y0215303D01*
X0168666Y0219201D02*
X0166162Y0216697D01*
X0166162Y0216697D01*
X0168666Y0219201D01*
X0168666Y0219201D01*
X0196162Y0246697D02*
X0198666Y0249201D01*
X0196162Y0246697D02*
X0196162Y0246697D01*
X0198666Y0249201D01*
X0198666Y0249201D01*
X0193933Y0253933D02*
X0191429Y0251429D01*
X0191429Y0251429D01*
X0193933Y0253933D01*
X0193933Y0253933D01*
X0189201Y0258666D02*
X0186697Y0256162D01*
X0186697Y0256162D01*
X0189201Y0258666D01*
X0189201Y0258666D01*
X0219201Y0228666D02*
X0216697Y0226162D01*
X0216697Y0226162D01*
X0219201Y0228666D01*
X0219201Y0228666D01*
X0223933Y0223933D02*
X0221429Y0221429D01*
X0221429Y0221429D01*
X0223933Y0223933D01*
X0223933Y0223933D01*
X0228666Y0219201D02*
X0226162Y0216697D01*
X0226162Y0216697D01*
X0228666Y0219201D01*
X0228666Y0219201D01*
X0249201Y0198666D02*
X0246697Y0196162D01*
X0246697Y0196162D01*
X0249201Y0198666D01*
X0249201Y0198666D01*
X0253933Y0193933D02*
X0251429Y0191429D01*
X0251429Y0191429D01*
X0253933Y0193933D01*
X0253933Y0193933D01*
X0258666Y0189201D02*
X0256162Y0186697D01*
X0256162Y0186697D01*
X0258666Y0189201D01*
X0258666Y0189201D01*
X0249201Y0138666D02*
X0246697Y0136162D01*
X0246697Y0136162D01*
X0249201Y0138666D01*
X0249201Y0138666D01*
X0253933Y0133933D02*
X0251429Y0131429D01*
X0251429Y0131429D01*
X0253933Y0133933D01*
X0253933Y0133933D01*
X0258666Y0129201D02*
X0256162Y0126697D01*
X0256162Y0126697D01*
X0258666Y0129201D01*
X0258666Y0129201D01*
D15*
X0248500Y0208500D03*
X0241429Y0215571D03*
X0234358Y0222642D03*
X0062250Y0234750D03*
X0055179Y0227679D03*
X0048108Y0220608D03*
D16*
X0306000Y0224750D03*
X0306000Y0214750D03*
X0306000Y0204750D03*
X0306000Y0194750D03*
X0306000Y0184750D03*
X0306000Y0174750D03*
X0306000Y0164750D03*
X0306000Y0154750D03*
X0306000Y0144750D03*
X0306000Y0134750D03*
X0316000Y0134750D03*
X0326000Y0134750D03*
X0336000Y0134750D03*
X0356000Y0134750D03*
X0366000Y0134750D03*
X0366000Y0144750D03*
X0366000Y0154750D03*
X0366000Y0164750D03*
X0366000Y0174750D03*
X0366000Y0184750D03*
X0366000Y0194750D03*
X0366000Y0204750D03*
X0366000Y0214750D03*
X0366000Y0224750D03*
X0366000Y0234750D03*
X0366000Y0244750D03*
X0366000Y0254750D03*
X0366000Y0264750D03*
X0306000Y0264750D03*
X0306000Y0254750D03*
X0306000Y0244750D03*
X0306000Y0234750D03*
D17*
X0313500Y0223300D03*
X0318500Y0223300D03*
X0323500Y0223300D03*
X0328500Y0223300D03*
X0333500Y0223300D03*
X0338500Y0223300D03*
X0343500Y0223300D03*
X0348500Y0223300D03*
X0353500Y0223300D03*
X0358500Y0223300D03*
X0358500Y0183700D03*
X0353500Y0183700D03*
X0348500Y0183700D03*
X0343500Y0183700D03*
X0338500Y0183700D03*
X0333500Y0183700D03*
X0328500Y0183700D03*
X0323500Y0183700D03*
X0318500Y0183700D03*
X0313500Y0183700D03*
D18*
X0294000Y0151000D02*
X0288000Y0151000D01*
X0288000Y0141000D02*
X0294000Y0141000D01*
X0306000Y0121500D02*
X0306000Y0115500D01*
X0316000Y0115500D02*
X0316000Y0121500D01*
X0326000Y0121500D02*
X0326000Y0115500D01*
X0326000Y0104000D02*
X0326000Y0098000D01*
X0316000Y0098000D02*
X0316000Y0104000D01*
X0306000Y0104000D02*
X0306000Y0098000D01*
X0306000Y0086500D02*
X0306000Y0080500D01*
X0316000Y0080500D02*
X0316000Y0086500D01*
X0326000Y0086500D02*
X0326000Y0080500D01*
X0326000Y0069000D02*
X0326000Y0063000D01*
X0316000Y0063000D02*
X0316000Y0069000D01*
X0306000Y0069000D02*
X0306000Y0063000D01*
X0346000Y0063000D02*
X0346000Y0069000D01*
X0356000Y0069000D02*
X0356000Y0063000D01*
X0366000Y0063000D02*
X0366000Y0069000D01*
X0366000Y0080500D02*
X0366000Y0086500D01*
X0356000Y0086500D02*
X0356000Y0080500D01*
X0346000Y0080500D02*
X0346000Y0086500D01*
X0346000Y0098000D02*
X0346000Y0104000D01*
X0356000Y0104000D02*
X0356000Y0098000D01*
X0366000Y0098000D02*
X0366000Y0104000D01*
X0366000Y0115500D02*
X0366000Y0121500D01*
X0356000Y0121500D02*
X0356000Y0115500D01*
X0346000Y0115500D02*
X0346000Y0121500D01*
X0378000Y0139750D02*
X0384000Y0139750D01*
X0384000Y0149750D02*
X0378000Y0149750D01*
X0378000Y0184750D02*
X0384000Y0184750D01*
X0384000Y0194750D02*
X0378000Y0194750D01*
X0378000Y0204750D02*
X0384000Y0204750D01*
X0294000Y0244750D02*
X0288000Y0244750D01*
X0288000Y0254750D02*
X0294000Y0254750D01*
X0294000Y0264750D02*
X0288000Y0264750D01*
M02*
