G75*
%MOIN*%
%OFA0B0*%
%FSLAX25Y25*%
%IPPOS*%
%LPD*%
%AMOC8*
5,1,8,0,0,1.08239X$1,22.5*
%
%ADD10C,0.00000*%
%ADD11C,0.01200*%
D10*
X0001000Y0001000D02*
X0001000Y0394701D01*
X0394701Y0394701D01*
X0394701Y0001000D01*
X0001000Y0001000D01*
X0295429Y0036000D02*
X0295431Y0036198D01*
X0295439Y0036396D01*
X0295451Y0036594D01*
X0295468Y0036791D01*
X0295490Y0036988D01*
X0295516Y0037184D01*
X0295548Y0037380D01*
X0295584Y0037575D01*
X0295625Y0037768D01*
X0295671Y0037961D01*
X0295721Y0038153D01*
X0295777Y0038343D01*
X0295836Y0038532D01*
X0295901Y0038719D01*
X0295970Y0038905D01*
X0296043Y0039089D01*
X0296121Y0039271D01*
X0296204Y0039451D01*
X0296291Y0039629D01*
X0296382Y0039805D01*
X0296478Y0039978D01*
X0296577Y0040149D01*
X0296681Y0040318D01*
X0296789Y0040484D01*
X0296901Y0040647D01*
X0297017Y0040808D01*
X0297137Y0040966D01*
X0297261Y0041120D01*
X0297389Y0041272D01*
X0297520Y0041420D01*
X0297655Y0041565D01*
X0297793Y0041707D01*
X0297935Y0041845D01*
X0298080Y0041980D01*
X0298228Y0042111D01*
X0298380Y0042239D01*
X0298534Y0042363D01*
X0298692Y0042483D01*
X0298853Y0042599D01*
X0299016Y0042711D01*
X0299182Y0042819D01*
X0299351Y0042923D01*
X0299522Y0043022D01*
X0299695Y0043118D01*
X0299871Y0043209D01*
X0300049Y0043296D01*
X0300229Y0043379D01*
X0300411Y0043457D01*
X0300595Y0043530D01*
X0300781Y0043599D01*
X0300968Y0043664D01*
X0301157Y0043723D01*
X0301347Y0043779D01*
X0301539Y0043829D01*
X0301732Y0043875D01*
X0301925Y0043916D01*
X0302120Y0043952D01*
X0302316Y0043984D01*
X0302512Y0044010D01*
X0302709Y0044032D01*
X0302906Y0044049D01*
X0303104Y0044061D01*
X0303302Y0044069D01*
X0303500Y0044071D01*
X0303698Y0044069D01*
X0303896Y0044061D01*
X0304094Y0044049D01*
X0304291Y0044032D01*
X0304488Y0044010D01*
X0304684Y0043984D01*
X0304880Y0043952D01*
X0305075Y0043916D01*
X0305268Y0043875D01*
X0305461Y0043829D01*
X0305653Y0043779D01*
X0305843Y0043723D01*
X0306032Y0043664D01*
X0306219Y0043599D01*
X0306405Y0043530D01*
X0306589Y0043457D01*
X0306771Y0043379D01*
X0306951Y0043296D01*
X0307129Y0043209D01*
X0307305Y0043118D01*
X0307478Y0043022D01*
X0307649Y0042923D01*
X0307818Y0042819D01*
X0307984Y0042711D01*
X0308147Y0042599D01*
X0308308Y0042483D01*
X0308466Y0042363D01*
X0308620Y0042239D01*
X0308772Y0042111D01*
X0308920Y0041980D01*
X0309065Y0041845D01*
X0309207Y0041707D01*
X0309345Y0041565D01*
X0309480Y0041420D01*
X0309611Y0041272D01*
X0309739Y0041120D01*
X0309863Y0040966D01*
X0309983Y0040808D01*
X0310099Y0040647D01*
X0310211Y0040484D01*
X0310319Y0040318D01*
X0310423Y0040149D01*
X0310522Y0039978D01*
X0310618Y0039805D01*
X0310709Y0039629D01*
X0310796Y0039451D01*
X0310879Y0039271D01*
X0310957Y0039089D01*
X0311030Y0038905D01*
X0311099Y0038719D01*
X0311164Y0038532D01*
X0311223Y0038343D01*
X0311279Y0038153D01*
X0311329Y0037961D01*
X0311375Y0037768D01*
X0311416Y0037575D01*
X0311452Y0037380D01*
X0311484Y0037184D01*
X0311510Y0036988D01*
X0311532Y0036791D01*
X0311549Y0036594D01*
X0311561Y0036396D01*
X0311569Y0036198D01*
X0311571Y0036000D01*
X0311569Y0035802D01*
X0311561Y0035604D01*
X0311549Y0035406D01*
X0311532Y0035209D01*
X0311510Y0035012D01*
X0311484Y0034816D01*
X0311452Y0034620D01*
X0311416Y0034425D01*
X0311375Y0034232D01*
X0311329Y0034039D01*
X0311279Y0033847D01*
X0311223Y0033657D01*
X0311164Y0033468D01*
X0311099Y0033281D01*
X0311030Y0033095D01*
X0310957Y0032911D01*
X0310879Y0032729D01*
X0310796Y0032549D01*
X0310709Y0032371D01*
X0310618Y0032195D01*
X0310522Y0032022D01*
X0310423Y0031851D01*
X0310319Y0031682D01*
X0310211Y0031516D01*
X0310099Y0031353D01*
X0309983Y0031192D01*
X0309863Y0031034D01*
X0309739Y0030880D01*
X0309611Y0030728D01*
X0309480Y0030580D01*
X0309345Y0030435D01*
X0309207Y0030293D01*
X0309065Y0030155D01*
X0308920Y0030020D01*
X0308772Y0029889D01*
X0308620Y0029761D01*
X0308466Y0029637D01*
X0308308Y0029517D01*
X0308147Y0029401D01*
X0307984Y0029289D01*
X0307818Y0029181D01*
X0307649Y0029077D01*
X0307478Y0028978D01*
X0307305Y0028882D01*
X0307129Y0028791D01*
X0306951Y0028704D01*
X0306771Y0028621D01*
X0306589Y0028543D01*
X0306405Y0028470D01*
X0306219Y0028401D01*
X0306032Y0028336D01*
X0305843Y0028277D01*
X0305653Y0028221D01*
X0305461Y0028171D01*
X0305268Y0028125D01*
X0305075Y0028084D01*
X0304880Y0028048D01*
X0304684Y0028016D01*
X0304488Y0027990D01*
X0304291Y0027968D01*
X0304094Y0027951D01*
X0303896Y0027939D01*
X0303698Y0027931D01*
X0303500Y0027929D01*
X0303302Y0027931D01*
X0303104Y0027939D01*
X0302906Y0027951D01*
X0302709Y0027968D01*
X0302512Y0027990D01*
X0302316Y0028016D01*
X0302120Y0028048D01*
X0301925Y0028084D01*
X0301732Y0028125D01*
X0301539Y0028171D01*
X0301347Y0028221D01*
X0301157Y0028277D01*
X0300968Y0028336D01*
X0300781Y0028401D01*
X0300595Y0028470D01*
X0300411Y0028543D01*
X0300229Y0028621D01*
X0300049Y0028704D01*
X0299871Y0028791D01*
X0299695Y0028882D01*
X0299522Y0028978D01*
X0299351Y0029077D01*
X0299182Y0029181D01*
X0299016Y0029289D01*
X0298853Y0029401D01*
X0298692Y0029517D01*
X0298534Y0029637D01*
X0298380Y0029761D01*
X0298228Y0029889D01*
X0298080Y0030020D01*
X0297935Y0030155D01*
X0297793Y0030293D01*
X0297655Y0030435D01*
X0297520Y0030580D01*
X0297389Y0030728D01*
X0297261Y0030880D01*
X0297137Y0031034D01*
X0297017Y0031192D01*
X0296901Y0031353D01*
X0296789Y0031516D01*
X0296681Y0031682D01*
X0296577Y0031851D01*
X0296478Y0032022D01*
X0296382Y0032195D01*
X0296291Y0032371D01*
X0296204Y0032549D01*
X0296121Y0032729D01*
X0296043Y0032911D01*
X0295970Y0033095D01*
X0295901Y0033281D01*
X0295836Y0033468D01*
X0295777Y0033657D01*
X0295721Y0033847D01*
X0295671Y0034039D01*
X0295625Y0034232D01*
X0295584Y0034425D01*
X0295548Y0034620D01*
X0295516Y0034816D01*
X0295490Y0035012D01*
X0295468Y0035209D01*
X0295451Y0035406D01*
X0295439Y0035604D01*
X0295431Y0035802D01*
X0295429Y0036000D01*
X0362929Y0036000D02*
X0362931Y0036198D01*
X0362939Y0036396D01*
X0362951Y0036594D01*
X0362968Y0036791D01*
X0362990Y0036988D01*
X0363016Y0037184D01*
X0363048Y0037380D01*
X0363084Y0037575D01*
X0363125Y0037768D01*
X0363171Y0037961D01*
X0363221Y0038153D01*
X0363277Y0038343D01*
X0363336Y0038532D01*
X0363401Y0038719D01*
X0363470Y0038905D01*
X0363543Y0039089D01*
X0363621Y0039271D01*
X0363704Y0039451D01*
X0363791Y0039629D01*
X0363882Y0039805D01*
X0363978Y0039978D01*
X0364077Y0040149D01*
X0364181Y0040318D01*
X0364289Y0040484D01*
X0364401Y0040647D01*
X0364517Y0040808D01*
X0364637Y0040966D01*
X0364761Y0041120D01*
X0364889Y0041272D01*
X0365020Y0041420D01*
X0365155Y0041565D01*
X0365293Y0041707D01*
X0365435Y0041845D01*
X0365580Y0041980D01*
X0365728Y0042111D01*
X0365880Y0042239D01*
X0366034Y0042363D01*
X0366192Y0042483D01*
X0366353Y0042599D01*
X0366516Y0042711D01*
X0366682Y0042819D01*
X0366851Y0042923D01*
X0367022Y0043022D01*
X0367195Y0043118D01*
X0367371Y0043209D01*
X0367549Y0043296D01*
X0367729Y0043379D01*
X0367911Y0043457D01*
X0368095Y0043530D01*
X0368281Y0043599D01*
X0368468Y0043664D01*
X0368657Y0043723D01*
X0368847Y0043779D01*
X0369039Y0043829D01*
X0369232Y0043875D01*
X0369425Y0043916D01*
X0369620Y0043952D01*
X0369816Y0043984D01*
X0370012Y0044010D01*
X0370209Y0044032D01*
X0370406Y0044049D01*
X0370604Y0044061D01*
X0370802Y0044069D01*
X0371000Y0044071D01*
X0371198Y0044069D01*
X0371396Y0044061D01*
X0371594Y0044049D01*
X0371791Y0044032D01*
X0371988Y0044010D01*
X0372184Y0043984D01*
X0372380Y0043952D01*
X0372575Y0043916D01*
X0372768Y0043875D01*
X0372961Y0043829D01*
X0373153Y0043779D01*
X0373343Y0043723D01*
X0373532Y0043664D01*
X0373719Y0043599D01*
X0373905Y0043530D01*
X0374089Y0043457D01*
X0374271Y0043379D01*
X0374451Y0043296D01*
X0374629Y0043209D01*
X0374805Y0043118D01*
X0374978Y0043022D01*
X0375149Y0042923D01*
X0375318Y0042819D01*
X0375484Y0042711D01*
X0375647Y0042599D01*
X0375808Y0042483D01*
X0375966Y0042363D01*
X0376120Y0042239D01*
X0376272Y0042111D01*
X0376420Y0041980D01*
X0376565Y0041845D01*
X0376707Y0041707D01*
X0376845Y0041565D01*
X0376980Y0041420D01*
X0377111Y0041272D01*
X0377239Y0041120D01*
X0377363Y0040966D01*
X0377483Y0040808D01*
X0377599Y0040647D01*
X0377711Y0040484D01*
X0377819Y0040318D01*
X0377923Y0040149D01*
X0378022Y0039978D01*
X0378118Y0039805D01*
X0378209Y0039629D01*
X0378296Y0039451D01*
X0378379Y0039271D01*
X0378457Y0039089D01*
X0378530Y0038905D01*
X0378599Y0038719D01*
X0378664Y0038532D01*
X0378723Y0038343D01*
X0378779Y0038153D01*
X0378829Y0037961D01*
X0378875Y0037768D01*
X0378916Y0037575D01*
X0378952Y0037380D01*
X0378984Y0037184D01*
X0379010Y0036988D01*
X0379032Y0036791D01*
X0379049Y0036594D01*
X0379061Y0036396D01*
X0379069Y0036198D01*
X0379071Y0036000D01*
X0379069Y0035802D01*
X0379061Y0035604D01*
X0379049Y0035406D01*
X0379032Y0035209D01*
X0379010Y0035012D01*
X0378984Y0034816D01*
X0378952Y0034620D01*
X0378916Y0034425D01*
X0378875Y0034232D01*
X0378829Y0034039D01*
X0378779Y0033847D01*
X0378723Y0033657D01*
X0378664Y0033468D01*
X0378599Y0033281D01*
X0378530Y0033095D01*
X0378457Y0032911D01*
X0378379Y0032729D01*
X0378296Y0032549D01*
X0378209Y0032371D01*
X0378118Y0032195D01*
X0378022Y0032022D01*
X0377923Y0031851D01*
X0377819Y0031682D01*
X0377711Y0031516D01*
X0377599Y0031353D01*
X0377483Y0031192D01*
X0377363Y0031034D01*
X0377239Y0030880D01*
X0377111Y0030728D01*
X0376980Y0030580D01*
X0376845Y0030435D01*
X0376707Y0030293D01*
X0376565Y0030155D01*
X0376420Y0030020D01*
X0376272Y0029889D01*
X0376120Y0029761D01*
X0375966Y0029637D01*
X0375808Y0029517D01*
X0375647Y0029401D01*
X0375484Y0029289D01*
X0375318Y0029181D01*
X0375149Y0029077D01*
X0374978Y0028978D01*
X0374805Y0028882D01*
X0374629Y0028791D01*
X0374451Y0028704D01*
X0374271Y0028621D01*
X0374089Y0028543D01*
X0373905Y0028470D01*
X0373719Y0028401D01*
X0373532Y0028336D01*
X0373343Y0028277D01*
X0373153Y0028221D01*
X0372961Y0028171D01*
X0372768Y0028125D01*
X0372575Y0028084D01*
X0372380Y0028048D01*
X0372184Y0028016D01*
X0371988Y0027990D01*
X0371791Y0027968D01*
X0371594Y0027951D01*
X0371396Y0027939D01*
X0371198Y0027931D01*
X0371000Y0027929D01*
X0370802Y0027931D01*
X0370604Y0027939D01*
X0370406Y0027951D01*
X0370209Y0027968D01*
X0370012Y0027990D01*
X0369816Y0028016D01*
X0369620Y0028048D01*
X0369425Y0028084D01*
X0369232Y0028125D01*
X0369039Y0028171D01*
X0368847Y0028221D01*
X0368657Y0028277D01*
X0368468Y0028336D01*
X0368281Y0028401D01*
X0368095Y0028470D01*
X0367911Y0028543D01*
X0367729Y0028621D01*
X0367549Y0028704D01*
X0367371Y0028791D01*
X0367195Y0028882D01*
X0367022Y0028978D01*
X0366851Y0029077D01*
X0366682Y0029181D01*
X0366516Y0029289D01*
X0366353Y0029401D01*
X0366192Y0029517D01*
X0366034Y0029637D01*
X0365880Y0029761D01*
X0365728Y0029889D01*
X0365580Y0030020D01*
X0365435Y0030155D01*
X0365293Y0030293D01*
X0365155Y0030435D01*
X0365020Y0030580D01*
X0364889Y0030728D01*
X0364761Y0030880D01*
X0364637Y0031034D01*
X0364517Y0031192D01*
X0364401Y0031353D01*
X0364289Y0031516D01*
X0364181Y0031682D01*
X0364077Y0031851D01*
X0363978Y0032022D01*
X0363882Y0032195D01*
X0363791Y0032371D01*
X0363704Y0032549D01*
X0363621Y0032729D01*
X0363543Y0032911D01*
X0363470Y0033095D01*
X0363401Y0033281D01*
X0363336Y0033468D01*
X0363277Y0033657D01*
X0363221Y0033847D01*
X0363171Y0034039D01*
X0363125Y0034232D01*
X0363084Y0034425D01*
X0363048Y0034620D01*
X0363016Y0034816D01*
X0362990Y0035012D01*
X0362968Y0035209D01*
X0362951Y0035406D01*
X0362939Y0035604D01*
X0362931Y0035802D01*
X0362929Y0036000D01*
D11*
X0391000Y0006000D02*
X0281000Y0006000D01*
X0281000Y0276000D01*
X0391000Y0276000D01*
X0391000Y0006000D01*
X0007142Y0141000D02*
X0007182Y0144285D01*
X0007303Y0147568D01*
X0007505Y0150847D01*
X0007787Y0154120D01*
X0008149Y0157386D01*
X0008591Y0160641D01*
X0009113Y0163885D01*
X0009714Y0167114D01*
X0010394Y0170328D01*
X0011154Y0173525D01*
X0011991Y0176702D01*
X0012906Y0179857D01*
X0013898Y0182989D01*
X0014967Y0186095D01*
X0016111Y0189175D01*
X0017331Y0192225D01*
X0018626Y0195245D01*
X0019994Y0198232D01*
X0021435Y0201184D01*
X0022948Y0204100D01*
X0024532Y0206978D01*
X0026186Y0209817D01*
X0027910Y0212614D01*
X0029701Y0215368D01*
X0031560Y0218077D01*
X0033484Y0220739D01*
X0035474Y0223354D01*
X0037526Y0225919D01*
X0039642Y0228432D01*
X0041818Y0230894D01*
X0044054Y0233301D01*
X0046348Y0235652D01*
X0048699Y0237946D01*
X0051106Y0240182D01*
X0053568Y0242358D01*
X0056081Y0244474D01*
X0058646Y0246526D01*
X0061261Y0248516D01*
X0063923Y0250440D01*
X0066632Y0252299D01*
X0069386Y0254090D01*
X0072183Y0255814D01*
X0075022Y0257468D01*
X0077900Y0259052D01*
X0080816Y0260565D01*
X0083768Y0262006D01*
X0086755Y0263374D01*
X0089775Y0264669D01*
X0092825Y0265889D01*
X0095905Y0267033D01*
X0099011Y0268102D01*
X0102143Y0269094D01*
X0105298Y0270009D01*
X0108475Y0270846D01*
X0111672Y0271606D01*
X0114886Y0272286D01*
X0118115Y0272887D01*
X0121359Y0273409D01*
X0124614Y0273851D01*
X0127880Y0274213D01*
X0131153Y0274495D01*
X0134432Y0274697D01*
X0137715Y0274818D01*
X0141000Y0274858D01*
X0144285Y0274818D01*
X0147568Y0274697D01*
X0150847Y0274495D01*
X0154120Y0274213D01*
X0157386Y0273851D01*
X0160641Y0273409D01*
X0163885Y0272887D01*
X0167114Y0272286D01*
X0170328Y0271606D01*
X0173525Y0270846D01*
X0176702Y0270009D01*
X0179857Y0269094D01*
X0182989Y0268102D01*
X0186095Y0267033D01*
X0189175Y0265889D01*
X0192225Y0264669D01*
X0195245Y0263374D01*
X0198232Y0262006D01*
X0201184Y0260565D01*
X0204100Y0259052D01*
X0206978Y0257468D01*
X0209817Y0255814D01*
X0212614Y0254090D01*
X0215368Y0252299D01*
X0218077Y0250440D01*
X0220739Y0248516D01*
X0223354Y0246526D01*
X0225919Y0244474D01*
X0228432Y0242358D01*
X0230894Y0240182D01*
X0233301Y0237946D01*
X0235652Y0235652D01*
X0237946Y0233301D01*
X0240182Y0230894D01*
X0242358Y0228432D01*
X0244474Y0225919D01*
X0246526Y0223354D01*
X0248516Y0220739D01*
X0250440Y0218077D01*
X0252299Y0215368D01*
X0254090Y0212614D01*
X0255814Y0209817D01*
X0257468Y0206978D01*
X0259052Y0204100D01*
X0260565Y0201184D01*
X0262006Y0198232D01*
X0263374Y0195245D01*
X0264669Y0192225D01*
X0265889Y0189175D01*
X0267033Y0186095D01*
X0268102Y0182989D01*
X0269094Y0179857D01*
X0270009Y0176702D01*
X0270846Y0173525D01*
X0271606Y0170328D01*
X0272286Y0167114D01*
X0272887Y0163885D01*
X0273409Y0160641D01*
X0273851Y0157386D01*
X0274213Y0154120D01*
X0274495Y0150847D01*
X0274697Y0147568D01*
X0274818Y0144285D01*
X0274858Y0141000D01*
X0274818Y0137715D01*
X0274697Y0134432D01*
X0274495Y0131153D01*
X0274213Y0127880D01*
X0273851Y0124614D01*
X0273409Y0121359D01*
X0272887Y0118115D01*
X0272286Y0114886D01*
X0271606Y0111672D01*
X0270846Y0108475D01*
X0270009Y0105298D01*
X0269094Y0102143D01*
X0268102Y0099011D01*
X0267033Y0095905D01*
X0265889Y0092825D01*
X0264669Y0089775D01*
X0263374Y0086755D01*
X0262006Y0083768D01*
X0260565Y0080816D01*
X0259052Y0077900D01*
X0257468Y0075022D01*
X0255814Y0072183D01*
X0254090Y0069386D01*
X0252299Y0066632D01*
X0250440Y0063923D01*
X0248516Y0061261D01*
X0246526Y0058646D01*
X0244474Y0056081D01*
X0242358Y0053568D01*
X0240182Y0051106D01*
X0237946Y0048699D01*
X0235652Y0046348D01*
X0233301Y0044054D01*
X0230894Y0041818D01*
X0228432Y0039642D01*
X0225919Y0037526D01*
X0223354Y0035474D01*
X0220739Y0033484D01*
X0218077Y0031560D01*
X0215368Y0029701D01*
X0212614Y0027910D01*
X0209817Y0026186D01*
X0206978Y0024532D01*
X0204100Y0022948D01*
X0201184Y0021435D01*
X0198232Y0019994D01*
X0195245Y0018626D01*
X0192225Y0017331D01*
X0189175Y0016111D01*
X0186095Y0014967D01*
X0182989Y0013898D01*
X0179857Y0012906D01*
X0176702Y0011991D01*
X0173525Y0011154D01*
X0170328Y0010394D01*
X0167114Y0009714D01*
X0163885Y0009113D01*
X0160641Y0008591D01*
X0157386Y0008149D01*
X0154120Y0007787D01*
X0150847Y0007505D01*
X0147568Y0007303D01*
X0144285Y0007182D01*
X0141000Y0007142D01*
X0137715Y0007182D01*
X0134432Y0007303D01*
X0131153Y0007505D01*
X0127880Y0007787D01*
X0124614Y0008149D01*
X0121359Y0008591D01*
X0118115Y0009113D01*
X0114886Y0009714D01*
X0111672Y0010394D01*
X0108475Y0011154D01*
X0105298Y0011991D01*
X0102143Y0012906D01*
X0099011Y0013898D01*
X0095905Y0014967D01*
X0092825Y0016111D01*
X0089775Y0017331D01*
X0086755Y0018626D01*
X0083768Y0019994D01*
X0080816Y0021435D01*
X0077900Y0022948D01*
X0075022Y0024532D01*
X0072183Y0026186D01*
X0069386Y0027910D01*
X0066632Y0029701D01*
X0063923Y0031560D01*
X0061261Y0033484D01*
X0058646Y0035474D01*
X0056081Y0037526D01*
X0053568Y0039642D01*
X0051106Y0041818D01*
X0048699Y0044054D01*
X0046348Y0046348D01*
X0044054Y0048699D01*
X0041818Y0051106D01*
X0039642Y0053568D01*
X0037526Y0056081D01*
X0035474Y0058646D01*
X0033484Y0061261D01*
X0031560Y0063923D01*
X0029701Y0066632D01*
X0027910Y0069386D01*
X0026186Y0072183D01*
X0024532Y0075022D01*
X0022948Y0077900D01*
X0021435Y0080816D01*
X0019994Y0083768D01*
X0018626Y0086755D01*
X0017331Y0089775D01*
X0016111Y0092825D01*
X0014967Y0095905D01*
X0013898Y0099011D01*
X0012906Y0102143D01*
X0011991Y0105298D01*
X0011154Y0108475D01*
X0010394Y0111672D01*
X0009714Y0114886D01*
X0009113Y0118115D01*
X0008591Y0121359D01*
X0008149Y0124614D01*
X0007787Y0127880D01*
X0007505Y0131153D01*
X0007303Y0134432D01*
X0007182Y0137715D01*
X0007142Y0141000D01*
M02*
