G75*
%MOIN*%
%OFA0B0*%
%FSLAX25Y25*%
%IPPOS*%
%LPD*%
%AMOC8*
5,1,8,0,0,1.08239X$1,22.5*
%
%ADD10C,0.00000*%
%ADD11C,0.01200*%
%ADD12C,0.07400*%
%ADD13C,0.05800*%
%ADD14C,0.06000*%
%ADD15R,0.04331X0.03937*%
%ADD16C,0.03562*%
%ADD17C,0.03200*%
%ADD18C,0.01600*%
%ADD19C,0.05000*%
D10*
X0001000Y0001000D02*
X0001000Y0394701D01*
X0394701Y0394701D01*
X0394701Y0001000D01*
X0001000Y0001000D01*
X0295429Y0036000D02*
X0295431Y0036198D01*
X0295439Y0036396D01*
X0295451Y0036594D01*
X0295468Y0036791D01*
X0295490Y0036988D01*
X0295516Y0037184D01*
X0295548Y0037380D01*
X0295584Y0037575D01*
X0295625Y0037768D01*
X0295671Y0037961D01*
X0295721Y0038153D01*
X0295777Y0038343D01*
X0295836Y0038532D01*
X0295901Y0038719D01*
X0295970Y0038905D01*
X0296043Y0039089D01*
X0296121Y0039271D01*
X0296204Y0039451D01*
X0296291Y0039629D01*
X0296382Y0039805D01*
X0296478Y0039978D01*
X0296577Y0040149D01*
X0296681Y0040318D01*
X0296789Y0040484D01*
X0296901Y0040647D01*
X0297017Y0040808D01*
X0297137Y0040966D01*
X0297261Y0041120D01*
X0297389Y0041272D01*
X0297520Y0041420D01*
X0297655Y0041565D01*
X0297793Y0041707D01*
X0297935Y0041845D01*
X0298080Y0041980D01*
X0298228Y0042111D01*
X0298380Y0042239D01*
X0298534Y0042363D01*
X0298692Y0042483D01*
X0298853Y0042599D01*
X0299016Y0042711D01*
X0299182Y0042819D01*
X0299351Y0042923D01*
X0299522Y0043022D01*
X0299695Y0043118D01*
X0299871Y0043209D01*
X0300049Y0043296D01*
X0300229Y0043379D01*
X0300411Y0043457D01*
X0300595Y0043530D01*
X0300781Y0043599D01*
X0300968Y0043664D01*
X0301157Y0043723D01*
X0301347Y0043779D01*
X0301539Y0043829D01*
X0301732Y0043875D01*
X0301925Y0043916D01*
X0302120Y0043952D01*
X0302316Y0043984D01*
X0302512Y0044010D01*
X0302709Y0044032D01*
X0302906Y0044049D01*
X0303104Y0044061D01*
X0303302Y0044069D01*
X0303500Y0044071D01*
X0303698Y0044069D01*
X0303896Y0044061D01*
X0304094Y0044049D01*
X0304291Y0044032D01*
X0304488Y0044010D01*
X0304684Y0043984D01*
X0304880Y0043952D01*
X0305075Y0043916D01*
X0305268Y0043875D01*
X0305461Y0043829D01*
X0305653Y0043779D01*
X0305843Y0043723D01*
X0306032Y0043664D01*
X0306219Y0043599D01*
X0306405Y0043530D01*
X0306589Y0043457D01*
X0306771Y0043379D01*
X0306951Y0043296D01*
X0307129Y0043209D01*
X0307305Y0043118D01*
X0307478Y0043022D01*
X0307649Y0042923D01*
X0307818Y0042819D01*
X0307984Y0042711D01*
X0308147Y0042599D01*
X0308308Y0042483D01*
X0308466Y0042363D01*
X0308620Y0042239D01*
X0308772Y0042111D01*
X0308920Y0041980D01*
X0309065Y0041845D01*
X0309207Y0041707D01*
X0309345Y0041565D01*
X0309480Y0041420D01*
X0309611Y0041272D01*
X0309739Y0041120D01*
X0309863Y0040966D01*
X0309983Y0040808D01*
X0310099Y0040647D01*
X0310211Y0040484D01*
X0310319Y0040318D01*
X0310423Y0040149D01*
X0310522Y0039978D01*
X0310618Y0039805D01*
X0310709Y0039629D01*
X0310796Y0039451D01*
X0310879Y0039271D01*
X0310957Y0039089D01*
X0311030Y0038905D01*
X0311099Y0038719D01*
X0311164Y0038532D01*
X0311223Y0038343D01*
X0311279Y0038153D01*
X0311329Y0037961D01*
X0311375Y0037768D01*
X0311416Y0037575D01*
X0311452Y0037380D01*
X0311484Y0037184D01*
X0311510Y0036988D01*
X0311532Y0036791D01*
X0311549Y0036594D01*
X0311561Y0036396D01*
X0311569Y0036198D01*
X0311571Y0036000D01*
X0311569Y0035802D01*
X0311561Y0035604D01*
X0311549Y0035406D01*
X0311532Y0035209D01*
X0311510Y0035012D01*
X0311484Y0034816D01*
X0311452Y0034620D01*
X0311416Y0034425D01*
X0311375Y0034232D01*
X0311329Y0034039D01*
X0311279Y0033847D01*
X0311223Y0033657D01*
X0311164Y0033468D01*
X0311099Y0033281D01*
X0311030Y0033095D01*
X0310957Y0032911D01*
X0310879Y0032729D01*
X0310796Y0032549D01*
X0310709Y0032371D01*
X0310618Y0032195D01*
X0310522Y0032022D01*
X0310423Y0031851D01*
X0310319Y0031682D01*
X0310211Y0031516D01*
X0310099Y0031353D01*
X0309983Y0031192D01*
X0309863Y0031034D01*
X0309739Y0030880D01*
X0309611Y0030728D01*
X0309480Y0030580D01*
X0309345Y0030435D01*
X0309207Y0030293D01*
X0309065Y0030155D01*
X0308920Y0030020D01*
X0308772Y0029889D01*
X0308620Y0029761D01*
X0308466Y0029637D01*
X0308308Y0029517D01*
X0308147Y0029401D01*
X0307984Y0029289D01*
X0307818Y0029181D01*
X0307649Y0029077D01*
X0307478Y0028978D01*
X0307305Y0028882D01*
X0307129Y0028791D01*
X0306951Y0028704D01*
X0306771Y0028621D01*
X0306589Y0028543D01*
X0306405Y0028470D01*
X0306219Y0028401D01*
X0306032Y0028336D01*
X0305843Y0028277D01*
X0305653Y0028221D01*
X0305461Y0028171D01*
X0305268Y0028125D01*
X0305075Y0028084D01*
X0304880Y0028048D01*
X0304684Y0028016D01*
X0304488Y0027990D01*
X0304291Y0027968D01*
X0304094Y0027951D01*
X0303896Y0027939D01*
X0303698Y0027931D01*
X0303500Y0027929D01*
X0303302Y0027931D01*
X0303104Y0027939D01*
X0302906Y0027951D01*
X0302709Y0027968D01*
X0302512Y0027990D01*
X0302316Y0028016D01*
X0302120Y0028048D01*
X0301925Y0028084D01*
X0301732Y0028125D01*
X0301539Y0028171D01*
X0301347Y0028221D01*
X0301157Y0028277D01*
X0300968Y0028336D01*
X0300781Y0028401D01*
X0300595Y0028470D01*
X0300411Y0028543D01*
X0300229Y0028621D01*
X0300049Y0028704D01*
X0299871Y0028791D01*
X0299695Y0028882D01*
X0299522Y0028978D01*
X0299351Y0029077D01*
X0299182Y0029181D01*
X0299016Y0029289D01*
X0298853Y0029401D01*
X0298692Y0029517D01*
X0298534Y0029637D01*
X0298380Y0029761D01*
X0298228Y0029889D01*
X0298080Y0030020D01*
X0297935Y0030155D01*
X0297793Y0030293D01*
X0297655Y0030435D01*
X0297520Y0030580D01*
X0297389Y0030728D01*
X0297261Y0030880D01*
X0297137Y0031034D01*
X0297017Y0031192D01*
X0296901Y0031353D01*
X0296789Y0031516D01*
X0296681Y0031682D01*
X0296577Y0031851D01*
X0296478Y0032022D01*
X0296382Y0032195D01*
X0296291Y0032371D01*
X0296204Y0032549D01*
X0296121Y0032729D01*
X0296043Y0032911D01*
X0295970Y0033095D01*
X0295901Y0033281D01*
X0295836Y0033468D01*
X0295777Y0033657D01*
X0295721Y0033847D01*
X0295671Y0034039D01*
X0295625Y0034232D01*
X0295584Y0034425D01*
X0295548Y0034620D01*
X0295516Y0034816D01*
X0295490Y0035012D01*
X0295468Y0035209D01*
X0295451Y0035406D01*
X0295439Y0035604D01*
X0295431Y0035802D01*
X0295429Y0036000D01*
X0362929Y0036000D02*
X0362931Y0036198D01*
X0362939Y0036396D01*
X0362951Y0036594D01*
X0362968Y0036791D01*
X0362990Y0036988D01*
X0363016Y0037184D01*
X0363048Y0037380D01*
X0363084Y0037575D01*
X0363125Y0037768D01*
X0363171Y0037961D01*
X0363221Y0038153D01*
X0363277Y0038343D01*
X0363336Y0038532D01*
X0363401Y0038719D01*
X0363470Y0038905D01*
X0363543Y0039089D01*
X0363621Y0039271D01*
X0363704Y0039451D01*
X0363791Y0039629D01*
X0363882Y0039805D01*
X0363978Y0039978D01*
X0364077Y0040149D01*
X0364181Y0040318D01*
X0364289Y0040484D01*
X0364401Y0040647D01*
X0364517Y0040808D01*
X0364637Y0040966D01*
X0364761Y0041120D01*
X0364889Y0041272D01*
X0365020Y0041420D01*
X0365155Y0041565D01*
X0365293Y0041707D01*
X0365435Y0041845D01*
X0365580Y0041980D01*
X0365728Y0042111D01*
X0365880Y0042239D01*
X0366034Y0042363D01*
X0366192Y0042483D01*
X0366353Y0042599D01*
X0366516Y0042711D01*
X0366682Y0042819D01*
X0366851Y0042923D01*
X0367022Y0043022D01*
X0367195Y0043118D01*
X0367371Y0043209D01*
X0367549Y0043296D01*
X0367729Y0043379D01*
X0367911Y0043457D01*
X0368095Y0043530D01*
X0368281Y0043599D01*
X0368468Y0043664D01*
X0368657Y0043723D01*
X0368847Y0043779D01*
X0369039Y0043829D01*
X0369232Y0043875D01*
X0369425Y0043916D01*
X0369620Y0043952D01*
X0369816Y0043984D01*
X0370012Y0044010D01*
X0370209Y0044032D01*
X0370406Y0044049D01*
X0370604Y0044061D01*
X0370802Y0044069D01*
X0371000Y0044071D01*
X0371198Y0044069D01*
X0371396Y0044061D01*
X0371594Y0044049D01*
X0371791Y0044032D01*
X0371988Y0044010D01*
X0372184Y0043984D01*
X0372380Y0043952D01*
X0372575Y0043916D01*
X0372768Y0043875D01*
X0372961Y0043829D01*
X0373153Y0043779D01*
X0373343Y0043723D01*
X0373532Y0043664D01*
X0373719Y0043599D01*
X0373905Y0043530D01*
X0374089Y0043457D01*
X0374271Y0043379D01*
X0374451Y0043296D01*
X0374629Y0043209D01*
X0374805Y0043118D01*
X0374978Y0043022D01*
X0375149Y0042923D01*
X0375318Y0042819D01*
X0375484Y0042711D01*
X0375647Y0042599D01*
X0375808Y0042483D01*
X0375966Y0042363D01*
X0376120Y0042239D01*
X0376272Y0042111D01*
X0376420Y0041980D01*
X0376565Y0041845D01*
X0376707Y0041707D01*
X0376845Y0041565D01*
X0376980Y0041420D01*
X0377111Y0041272D01*
X0377239Y0041120D01*
X0377363Y0040966D01*
X0377483Y0040808D01*
X0377599Y0040647D01*
X0377711Y0040484D01*
X0377819Y0040318D01*
X0377923Y0040149D01*
X0378022Y0039978D01*
X0378118Y0039805D01*
X0378209Y0039629D01*
X0378296Y0039451D01*
X0378379Y0039271D01*
X0378457Y0039089D01*
X0378530Y0038905D01*
X0378599Y0038719D01*
X0378664Y0038532D01*
X0378723Y0038343D01*
X0378779Y0038153D01*
X0378829Y0037961D01*
X0378875Y0037768D01*
X0378916Y0037575D01*
X0378952Y0037380D01*
X0378984Y0037184D01*
X0379010Y0036988D01*
X0379032Y0036791D01*
X0379049Y0036594D01*
X0379061Y0036396D01*
X0379069Y0036198D01*
X0379071Y0036000D01*
X0379069Y0035802D01*
X0379061Y0035604D01*
X0379049Y0035406D01*
X0379032Y0035209D01*
X0379010Y0035012D01*
X0378984Y0034816D01*
X0378952Y0034620D01*
X0378916Y0034425D01*
X0378875Y0034232D01*
X0378829Y0034039D01*
X0378779Y0033847D01*
X0378723Y0033657D01*
X0378664Y0033468D01*
X0378599Y0033281D01*
X0378530Y0033095D01*
X0378457Y0032911D01*
X0378379Y0032729D01*
X0378296Y0032549D01*
X0378209Y0032371D01*
X0378118Y0032195D01*
X0378022Y0032022D01*
X0377923Y0031851D01*
X0377819Y0031682D01*
X0377711Y0031516D01*
X0377599Y0031353D01*
X0377483Y0031192D01*
X0377363Y0031034D01*
X0377239Y0030880D01*
X0377111Y0030728D01*
X0376980Y0030580D01*
X0376845Y0030435D01*
X0376707Y0030293D01*
X0376565Y0030155D01*
X0376420Y0030020D01*
X0376272Y0029889D01*
X0376120Y0029761D01*
X0375966Y0029637D01*
X0375808Y0029517D01*
X0375647Y0029401D01*
X0375484Y0029289D01*
X0375318Y0029181D01*
X0375149Y0029077D01*
X0374978Y0028978D01*
X0374805Y0028882D01*
X0374629Y0028791D01*
X0374451Y0028704D01*
X0374271Y0028621D01*
X0374089Y0028543D01*
X0373905Y0028470D01*
X0373719Y0028401D01*
X0373532Y0028336D01*
X0373343Y0028277D01*
X0373153Y0028221D01*
X0372961Y0028171D01*
X0372768Y0028125D01*
X0372575Y0028084D01*
X0372380Y0028048D01*
X0372184Y0028016D01*
X0371988Y0027990D01*
X0371791Y0027968D01*
X0371594Y0027951D01*
X0371396Y0027939D01*
X0371198Y0027931D01*
X0371000Y0027929D01*
X0370802Y0027931D01*
X0370604Y0027939D01*
X0370406Y0027951D01*
X0370209Y0027968D01*
X0370012Y0027990D01*
X0369816Y0028016D01*
X0369620Y0028048D01*
X0369425Y0028084D01*
X0369232Y0028125D01*
X0369039Y0028171D01*
X0368847Y0028221D01*
X0368657Y0028277D01*
X0368468Y0028336D01*
X0368281Y0028401D01*
X0368095Y0028470D01*
X0367911Y0028543D01*
X0367729Y0028621D01*
X0367549Y0028704D01*
X0367371Y0028791D01*
X0367195Y0028882D01*
X0367022Y0028978D01*
X0366851Y0029077D01*
X0366682Y0029181D01*
X0366516Y0029289D01*
X0366353Y0029401D01*
X0366192Y0029517D01*
X0366034Y0029637D01*
X0365880Y0029761D01*
X0365728Y0029889D01*
X0365580Y0030020D01*
X0365435Y0030155D01*
X0365293Y0030293D01*
X0365155Y0030435D01*
X0365020Y0030580D01*
X0364889Y0030728D01*
X0364761Y0030880D01*
X0364637Y0031034D01*
X0364517Y0031192D01*
X0364401Y0031353D01*
X0364289Y0031516D01*
X0364181Y0031682D01*
X0364077Y0031851D01*
X0363978Y0032022D01*
X0363882Y0032195D01*
X0363791Y0032371D01*
X0363704Y0032549D01*
X0363621Y0032729D01*
X0363543Y0032911D01*
X0363470Y0033095D01*
X0363401Y0033281D01*
X0363336Y0033468D01*
X0363277Y0033657D01*
X0363221Y0033847D01*
X0363171Y0034039D01*
X0363125Y0034232D01*
X0363084Y0034425D01*
X0363048Y0034620D01*
X0363016Y0034816D01*
X0362990Y0035012D01*
X0362968Y0035209D01*
X0362951Y0035406D01*
X0362939Y0035604D01*
X0362931Y0035802D01*
X0362929Y0036000D01*
D11*
X0361329Y0035757D02*
X0313171Y0035757D01*
X0313171Y0036955D02*
X0361329Y0036955D01*
X0361329Y0037924D02*
X0361329Y0034076D01*
X0362801Y0030522D01*
X0365522Y0027801D01*
X0369076Y0026329D01*
X0372924Y0026329D01*
X0376478Y0027801D01*
X0379199Y0030522D01*
X0380671Y0034076D01*
X0380671Y0037924D01*
X0379199Y0041478D01*
X0376478Y0044199D01*
X0372924Y0045671D01*
X0369076Y0045671D01*
X0365522Y0044199D01*
X0362801Y0041478D01*
X0361329Y0037924D01*
X0361424Y0038154D02*
X0313076Y0038154D01*
X0313171Y0037924D02*
X0311699Y0041478D01*
X0308978Y0044199D01*
X0305424Y0045671D01*
X0301576Y0045671D01*
X0298022Y0044199D01*
X0295301Y0041478D01*
X0293829Y0037924D01*
X0293829Y0034076D01*
X0295301Y0030522D01*
X0298022Y0027801D01*
X0301576Y0026329D01*
X0305424Y0026329D01*
X0308978Y0027801D01*
X0311699Y0030522D01*
X0313171Y0034076D01*
X0313171Y0037924D01*
X0312579Y0039352D02*
X0361921Y0039352D01*
X0362417Y0040551D02*
X0312083Y0040551D01*
X0311427Y0041749D02*
X0363073Y0041749D01*
X0364271Y0042948D02*
X0310229Y0042948D01*
X0309030Y0044146D02*
X0365470Y0044146D01*
X0368289Y0045345D02*
X0306211Y0045345D01*
X0300789Y0045345D02*
X0283200Y0045345D01*
X0283200Y0046543D02*
X0388800Y0046543D01*
X0388800Y0045345D02*
X0373711Y0045345D01*
X0376530Y0044146D02*
X0388800Y0044146D01*
X0388800Y0042948D02*
X0377729Y0042948D01*
X0378927Y0041749D02*
X0388800Y0041749D01*
X0388800Y0040551D02*
X0379583Y0040551D01*
X0380079Y0039352D02*
X0388800Y0039352D01*
X0388800Y0038154D02*
X0380576Y0038154D01*
X0380671Y0036955D02*
X0388800Y0036955D01*
X0388800Y0035757D02*
X0380671Y0035757D01*
X0380671Y0034558D02*
X0388800Y0034558D01*
X0388800Y0033360D02*
X0380374Y0033360D01*
X0379878Y0032161D02*
X0388800Y0032161D01*
X0388800Y0030963D02*
X0379381Y0030963D01*
X0378441Y0029764D02*
X0388800Y0029764D01*
X0388800Y0028566D02*
X0377242Y0028566D01*
X0375430Y0027367D02*
X0388800Y0027367D01*
X0388800Y0026169D02*
X0283200Y0026169D01*
X0283200Y0027367D02*
X0299070Y0027367D01*
X0297258Y0028566D02*
X0283200Y0028566D01*
X0283200Y0029764D02*
X0296059Y0029764D01*
X0295119Y0030963D02*
X0283200Y0030963D01*
X0283200Y0032161D02*
X0294622Y0032161D01*
X0294126Y0033360D02*
X0283200Y0033360D01*
X0283200Y0034558D02*
X0293829Y0034558D01*
X0293829Y0035757D02*
X0283200Y0035757D01*
X0283200Y0036955D02*
X0293829Y0036955D01*
X0293924Y0038154D02*
X0283200Y0038154D01*
X0283200Y0039352D02*
X0294421Y0039352D01*
X0294917Y0040551D02*
X0283200Y0040551D01*
X0283200Y0041749D02*
X0295573Y0041749D01*
X0296771Y0042948D02*
X0283200Y0042948D01*
X0283200Y0044146D02*
X0297970Y0044146D01*
X0303621Y0059439D02*
X0305165Y0058800D01*
X0306835Y0058800D01*
X0308379Y0059439D01*
X0309561Y0060621D01*
X0310200Y0062165D01*
X0310200Y0069835D01*
X0309561Y0071379D01*
X0308379Y0072561D01*
X0306835Y0073200D01*
X0305165Y0073200D01*
X0303621Y0072561D01*
X0302439Y0071379D01*
X0301800Y0069835D01*
X0301800Y0062165D01*
X0302439Y0060621D01*
X0303621Y0059439D01*
X0303333Y0059727D02*
X0283200Y0059727D01*
X0283200Y0058529D02*
X0312300Y0058529D01*
X0312300Y0059727D02*
X0308667Y0059727D01*
X0309687Y0060926D02*
X0312300Y0060926D01*
X0312300Y0060957D02*
X0312300Y0052764D01*
X0312863Y0051404D01*
X0313904Y0050363D01*
X0316404Y0047863D01*
X0317764Y0047300D01*
X0331650Y0047300D01*
X0331650Y0047001D01*
X0332001Y0046650D01*
X0339999Y0046650D01*
X0340350Y0047001D01*
X0340350Y0047300D01*
X0352986Y0047300D01*
X0354346Y0047863D01*
X0355387Y0048904D01*
X0359137Y0052654D01*
X0359700Y0054014D01*
X0359700Y0054081D01*
X0362816Y0054081D01*
X0363266Y0054532D01*
X0363401Y0054299D01*
X0363699Y0054001D01*
X0364064Y0053791D01*
X0364470Y0053681D01*
X0366462Y0053681D01*
X0366462Y0056866D01*
X0367231Y0056866D01*
X0367231Y0057634D01*
X0370612Y0057634D01*
X0370612Y0059429D01*
X0370503Y0059836D01*
X0370292Y0060201D01*
X0369994Y0060499D01*
X0369906Y0060550D01*
X0369934Y0060589D01*
X0370263Y0061234D01*
X0370487Y0061923D01*
X0370600Y0062638D01*
X0370600Y0065600D01*
X0366400Y0065600D01*
X0366400Y0066400D01*
X0370600Y0066400D01*
X0370600Y0069362D01*
X0370487Y0070077D01*
X0370263Y0070766D01*
X0369934Y0071411D01*
X0369906Y0071450D01*
X0369994Y0071501D01*
X0370292Y0071799D01*
X0370503Y0072164D01*
X0370612Y0072571D01*
X0370612Y0074366D01*
X0367231Y0074366D01*
X0367231Y0075134D01*
X0370612Y0075134D01*
X0370612Y0076929D01*
X0370503Y0077336D01*
X0370292Y0077701D01*
X0369994Y0077999D01*
X0369906Y0078050D01*
X0369934Y0078089D01*
X0370263Y0078734D01*
X0370487Y0079423D01*
X0370600Y0080138D01*
X0370600Y0083100D01*
X0366400Y0083100D01*
X0366400Y0083900D01*
X0370600Y0083900D01*
X0370600Y0086862D01*
X0370487Y0087577D01*
X0370263Y0088266D01*
X0369934Y0088911D01*
X0369906Y0088950D01*
X0369994Y0089001D01*
X0370292Y0089299D01*
X0370503Y0089664D01*
X0370612Y0090071D01*
X0370612Y0091866D01*
X0367231Y0091866D01*
X0367231Y0092634D01*
X0370612Y0092634D01*
X0370612Y0094429D01*
X0370503Y0094836D01*
X0370292Y0095201D01*
X0369994Y0095499D01*
X0369906Y0095550D01*
X0369934Y0095589D01*
X0370263Y0096234D01*
X0370487Y0096923D01*
X0370600Y0097638D01*
X0370600Y0100600D01*
X0366400Y0100600D01*
X0366400Y0101400D01*
X0370600Y0101400D01*
X0370600Y0104362D01*
X0370487Y0105077D01*
X0370263Y0105766D01*
X0369934Y0106411D01*
X0369906Y0106450D01*
X0369994Y0106501D01*
X0370292Y0106799D01*
X0370503Y0107164D01*
X0370612Y0107571D01*
X0370612Y0109366D01*
X0367231Y0109366D01*
X0367231Y0110134D01*
X0370612Y0110134D01*
X0370612Y0111929D01*
X0370503Y0112336D01*
X0370292Y0112701D01*
X0369994Y0112999D01*
X0369906Y0113050D01*
X0369934Y0113089D01*
X0370263Y0113734D01*
X0370487Y0114423D01*
X0370600Y0115138D01*
X0370600Y0118100D01*
X0366400Y0118100D01*
X0366400Y0118900D01*
X0370600Y0118900D01*
X0370600Y0121862D01*
X0370487Y0122577D01*
X0370263Y0123266D01*
X0369934Y0123911D01*
X0369509Y0124497D01*
X0369205Y0124800D01*
X0377986Y0124800D01*
X0379346Y0125363D01*
X0380387Y0126404D01*
X0384137Y0130154D01*
X0384700Y0131514D01*
X0384700Y0135550D01*
X0384835Y0135550D01*
X0386379Y0136189D01*
X0387561Y0137371D01*
X0388200Y0138915D01*
X0388200Y0140585D01*
X0387561Y0142129D01*
X0386379Y0143311D01*
X0384835Y0143950D01*
X0377165Y0143950D01*
X0375621Y0143311D01*
X0374439Y0142129D01*
X0373800Y0140585D01*
X0373800Y0138915D01*
X0374439Y0137371D01*
X0375621Y0136189D01*
X0377165Y0135550D01*
X0377300Y0135550D01*
X0377300Y0133783D01*
X0375717Y0132200D01*
X0369248Y0132200D01*
X0369476Y0132428D01*
X0370100Y0133934D01*
X0370100Y0135566D01*
X0369476Y0137072D01*
X0368322Y0138226D01*
X0366816Y0138850D01*
X0365184Y0138850D01*
X0363678Y0138226D01*
X0362524Y0137072D01*
X0361900Y0135566D01*
X0361900Y0133934D01*
X0362524Y0132428D01*
X0362755Y0132196D01*
X0361404Y0131637D01*
X0355467Y0125700D01*
X0355165Y0125700D01*
X0353621Y0125061D01*
X0352439Y0123879D01*
X0351800Y0122335D01*
X0351800Y0114665D01*
X0352300Y0113457D01*
X0352300Y0106043D01*
X0351800Y0104835D01*
X0351800Y0097165D01*
X0352300Y0095957D01*
X0352300Y0088543D01*
X0351800Y0087335D01*
X0351800Y0079665D01*
X0352300Y0078457D01*
X0352300Y0071043D01*
X0351800Y0069835D01*
X0351800Y0062165D01*
X0352300Y0060957D01*
X0352300Y0056283D01*
X0350717Y0054700D01*
X0340350Y0054700D01*
X0340350Y0056249D01*
X0339999Y0056600D01*
X0332001Y0056600D01*
X0331650Y0056249D01*
X0331650Y0054700D01*
X0329262Y0054700D01*
X0329362Y0055071D01*
X0329362Y0056866D01*
X0325981Y0056866D01*
X0325981Y0057634D01*
X0329362Y0057634D01*
X0329362Y0059429D01*
X0329272Y0059766D01*
X0329509Y0060003D01*
X0329934Y0060589D01*
X0330263Y0061234D01*
X0330487Y0061923D01*
X0330600Y0062638D01*
X0330600Y0065600D01*
X0326400Y0065600D01*
X0326400Y0066400D01*
X0330600Y0066400D01*
X0330600Y0069362D01*
X0330487Y0070077D01*
X0330263Y0070766D01*
X0329934Y0071411D01*
X0329509Y0071997D01*
X0329272Y0072234D01*
X0329362Y0072571D01*
X0329362Y0074366D01*
X0325981Y0074366D01*
X0325981Y0075134D01*
X0329362Y0075134D01*
X0329362Y0076929D01*
X0329272Y0077266D01*
X0329509Y0077503D01*
X0329934Y0078089D01*
X0330263Y0078734D01*
X0330487Y0079423D01*
X0330600Y0080138D01*
X0330600Y0083100D01*
X0326400Y0083100D01*
X0326400Y0083900D01*
X0330600Y0083900D01*
X0330600Y0086862D01*
X0330487Y0087577D01*
X0330263Y0088266D01*
X0329934Y0088911D01*
X0329509Y0089497D01*
X0329272Y0089734D01*
X0329362Y0090071D01*
X0329362Y0091866D01*
X0325981Y0091866D01*
X0325981Y0092634D01*
X0329362Y0092634D01*
X0329362Y0094429D01*
X0329272Y0094766D01*
X0329509Y0095003D01*
X0329934Y0095589D01*
X0330263Y0096234D01*
X0330487Y0096923D01*
X0330600Y0097638D01*
X0330600Y0100600D01*
X0326400Y0100600D01*
X0326400Y0101400D01*
X0330600Y0101400D01*
X0330600Y0104362D01*
X0330487Y0105077D01*
X0330263Y0105766D01*
X0329934Y0106411D01*
X0329509Y0106997D01*
X0329272Y0107234D01*
X0329362Y0107571D01*
X0329362Y0109366D01*
X0325981Y0109366D01*
X0325981Y0110134D01*
X0329362Y0110134D01*
X0329362Y0111929D01*
X0329272Y0112266D01*
X0329509Y0112503D01*
X0329934Y0113089D01*
X0330263Y0113734D01*
X0330487Y0114423D01*
X0330600Y0115138D01*
X0330600Y0118100D01*
X0326400Y0118100D01*
X0326400Y0118900D01*
X0325600Y0118900D01*
X0325600Y0126094D01*
X0324923Y0125987D01*
X0324234Y0125763D01*
X0323589Y0125434D01*
X0323003Y0125009D01*
X0322491Y0124497D01*
X0322066Y0123911D01*
X0321737Y0123266D01*
X0321513Y0122577D01*
X0321400Y0121862D01*
X0321400Y0118900D01*
X0325600Y0118900D01*
X0325600Y0118100D01*
X0321400Y0118100D01*
X0321400Y0115138D01*
X0321513Y0114423D01*
X0321737Y0113734D01*
X0322066Y0113089D01*
X0322265Y0112815D01*
X0322151Y0112701D01*
X0322016Y0112468D01*
X0321566Y0112918D01*
X0319700Y0112918D01*
X0319700Y0113457D01*
X0320200Y0114665D01*
X0320200Y0122335D01*
X0319700Y0123543D01*
X0319700Y0124236D01*
X0319137Y0125596D01*
X0313096Y0131637D01*
X0311736Y0132200D01*
X0309248Y0132200D01*
X0309476Y0132428D01*
X0310100Y0133934D01*
X0310100Y0135566D01*
X0309476Y0137072D01*
X0308322Y0138226D01*
X0306816Y0138850D01*
X0305184Y0138850D01*
X0303678Y0138226D01*
X0302524Y0137072D01*
X0301900Y0135566D01*
X0301900Y0133934D01*
X0302524Y0132428D01*
X0302752Y0132200D01*
X0297533Y0132200D01*
X0294700Y0135033D01*
X0294700Y0136800D01*
X0294835Y0136800D01*
X0296379Y0137439D01*
X0297561Y0138621D01*
X0298200Y0140165D01*
X0298200Y0141835D01*
X0297561Y0143379D01*
X0296379Y0144561D01*
X0294835Y0145200D01*
X0287165Y0145200D01*
X0285621Y0144561D01*
X0284439Y0143379D01*
X0283800Y0141835D01*
X0283800Y0140165D01*
X0284439Y0138621D01*
X0285621Y0137439D01*
X0287165Y0136800D01*
X0287300Y0136800D01*
X0287300Y0132764D01*
X0287863Y0131404D01*
X0292863Y0126404D01*
X0293904Y0125363D01*
X0295264Y0124800D01*
X0303360Y0124800D01*
X0302439Y0123879D01*
X0301800Y0122335D01*
X0301800Y0114665D01*
X0302439Y0113121D01*
X0303621Y0111939D01*
X0305165Y0111300D01*
X0306835Y0111300D01*
X0308379Y0111939D01*
X0309561Y0113121D01*
X0310200Y0114665D01*
X0310200Y0122335D01*
X0309561Y0123879D01*
X0308640Y0124800D01*
X0309467Y0124800D01*
X0311839Y0122429D01*
X0311800Y0122335D01*
X0311800Y0114665D01*
X0312300Y0113457D01*
X0312300Y0106043D01*
X0311800Y0104835D01*
X0311800Y0097165D01*
X0312300Y0095957D01*
X0312300Y0088543D01*
X0311800Y0087335D01*
X0311800Y0079665D01*
X0312300Y0078457D01*
X0312300Y0071043D01*
X0311800Y0069835D01*
X0311800Y0062165D01*
X0312300Y0060957D01*
X0311817Y0062124D02*
X0310183Y0062124D01*
X0310200Y0063323D02*
X0311800Y0063323D01*
X0311800Y0064521D02*
X0310200Y0064521D01*
X0310200Y0065720D02*
X0311800Y0065720D01*
X0311800Y0066918D02*
X0310200Y0066918D01*
X0310200Y0068117D02*
X0311800Y0068117D01*
X0311800Y0069315D02*
X0310200Y0069315D01*
X0309919Y0070514D02*
X0312081Y0070514D01*
X0312300Y0071712D02*
X0309228Y0071712D01*
X0307534Y0072911D02*
X0312300Y0072911D01*
X0312300Y0074109D02*
X0283200Y0074109D01*
X0283200Y0072911D02*
X0304466Y0072911D01*
X0302772Y0071712D02*
X0283200Y0071712D01*
X0283200Y0070514D02*
X0302081Y0070514D01*
X0301800Y0069315D02*
X0283200Y0069315D01*
X0283200Y0068117D02*
X0301800Y0068117D01*
X0301800Y0066918D02*
X0283200Y0066918D01*
X0283200Y0065720D02*
X0301800Y0065720D01*
X0301800Y0064521D02*
X0283200Y0064521D01*
X0283200Y0063323D02*
X0301800Y0063323D01*
X0301817Y0062124D02*
X0283200Y0062124D01*
X0283200Y0060926D02*
X0302313Y0060926D01*
X0312300Y0057330D02*
X0283200Y0057330D01*
X0283200Y0056132D02*
X0312300Y0056132D01*
X0312300Y0054933D02*
X0283200Y0054933D01*
X0283200Y0053734D02*
X0312300Y0053734D01*
X0312394Y0052536D02*
X0283200Y0052536D01*
X0283200Y0051337D02*
X0312930Y0051337D01*
X0314128Y0050139D02*
X0283200Y0050139D01*
X0283200Y0048940D02*
X0315327Y0048940D01*
X0316697Y0047742D02*
X0283200Y0047742D01*
X0283200Y0024970D02*
X0388800Y0024970D01*
X0388800Y0023772D02*
X0283200Y0023772D01*
X0283200Y0022573D02*
X0388800Y0022573D01*
X0388800Y0021375D02*
X0283200Y0021375D01*
X0283200Y0020176D02*
X0388800Y0020176D01*
X0388800Y0018978D02*
X0283200Y0018978D01*
X0283200Y0017779D02*
X0388800Y0017779D01*
X0388800Y0016581D02*
X0283200Y0016581D01*
X0283200Y0015382D02*
X0388800Y0015382D01*
X0388800Y0014184D02*
X0283200Y0014184D01*
X0283200Y0012985D02*
X0388800Y0012985D01*
X0388800Y0011787D02*
X0283200Y0011787D01*
X0283200Y0010588D02*
X0388800Y0010588D01*
X0388800Y0009390D02*
X0283200Y0009390D01*
X0283200Y0008200D02*
X0283200Y0273800D01*
X0388800Y0273800D01*
X0388800Y0008200D01*
X0283200Y0008200D01*
X0281000Y0006000D02*
X0391000Y0006000D01*
X0391000Y0276000D01*
X0281000Y0276000D01*
X0281000Y0006000D01*
X0307930Y0027367D02*
X0366570Y0027367D01*
X0364758Y0028566D02*
X0309742Y0028566D01*
X0310941Y0029764D02*
X0363559Y0029764D01*
X0362619Y0030963D02*
X0311881Y0030963D01*
X0312378Y0032161D02*
X0362122Y0032161D01*
X0361626Y0033360D02*
X0312874Y0033360D01*
X0313171Y0034558D02*
X0361329Y0034558D01*
X0354053Y0047742D02*
X0388800Y0047742D01*
X0388800Y0048940D02*
X0355423Y0048940D01*
X0356622Y0050139D02*
X0388800Y0050139D01*
X0388800Y0051337D02*
X0357820Y0051337D01*
X0359019Y0052536D02*
X0388800Y0052536D01*
X0388800Y0053734D02*
X0369420Y0053734D01*
X0369222Y0053681D02*
X0369629Y0053791D01*
X0369994Y0054001D01*
X0370292Y0054299D01*
X0370503Y0054664D01*
X0370612Y0055071D01*
X0370612Y0056866D01*
X0367231Y0056866D01*
X0367231Y0053681D01*
X0369222Y0053681D01*
X0370575Y0054933D02*
X0388800Y0054933D01*
X0388800Y0056132D02*
X0370612Y0056132D01*
X0370612Y0058529D02*
X0388800Y0058529D01*
X0388800Y0059727D02*
X0370532Y0059727D01*
X0370106Y0060926D02*
X0388800Y0060926D01*
X0388800Y0062124D02*
X0370519Y0062124D01*
X0370600Y0063323D02*
X0388800Y0063323D01*
X0388800Y0064521D02*
X0370600Y0064521D01*
X0370600Y0066918D02*
X0388800Y0066918D01*
X0388800Y0065720D02*
X0366400Y0065720D01*
X0366400Y0065600D02*
X0366400Y0060818D01*
X0365600Y0060818D01*
X0365600Y0065600D01*
X0361400Y0065600D01*
X0361400Y0062638D01*
X0361513Y0061923D01*
X0361737Y0061234D01*
X0362066Y0060589D01*
X0362190Y0060418D01*
X0359700Y0060418D01*
X0359700Y0060957D01*
X0360200Y0062165D01*
X0360200Y0069835D01*
X0359700Y0071043D01*
X0359700Y0071581D01*
X0362190Y0071581D01*
X0362066Y0071411D01*
X0361737Y0070766D01*
X0361513Y0070077D01*
X0361400Y0069362D01*
X0361400Y0066400D01*
X0365600Y0066400D01*
X0365600Y0065600D01*
X0366400Y0065600D01*
X0365600Y0065720D02*
X0360200Y0065720D01*
X0360200Y0066918D02*
X0361400Y0066918D01*
X0361400Y0068117D02*
X0360200Y0068117D01*
X0360200Y0069315D02*
X0361400Y0069315D01*
X0361655Y0070514D02*
X0359919Y0070514D01*
X0360200Y0064521D02*
X0361400Y0064521D01*
X0361400Y0063323D02*
X0360200Y0063323D01*
X0360183Y0062124D02*
X0361481Y0062124D01*
X0361894Y0060926D02*
X0359700Y0060926D01*
X0365600Y0060926D02*
X0366400Y0060926D01*
X0366400Y0062124D02*
X0365600Y0062124D01*
X0365600Y0063323D02*
X0366400Y0063323D01*
X0366400Y0064521D02*
X0365600Y0064521D01*
X0370600Y0068117D02*
X0388800Y0068117D01*
X0388800Y0069315D02*
X0370600Y0069315D01*
X0370345Y0070514D02*
X0388800Y0070514D01*
X0388800Y0071712D02*
X0370205Y0071712D01*
X0370612Y0072911D02*
X0388800Y0072911D01*
X0388800Y0074109D02*
X0370612Y0074109D01*
X0370612Y0075308D02*
X0388800Y0075308D01*
X0388800Y0076506D02*
X0370612Y0076506D01*
X0370288Y0077705D02*
X0388800Y0077705D01*
X0388800Y0078903D02*
X0370318Y0078903D01*
X0370594Y0080102D02*
X0388800Y0080102D01*
X0388800Y0081300D02*
X0370600Y0081300D01*
X0370600Y0082499D02*
X0388800Y0082499D01*
X0388800Y0083697D02*
X0366400Y0083697D01*
X0365600Y0083697D02*
X0360200Y0083697D01*
X0360200Y0082499D02*
X0361400Y0082499D01*
X0361400Y0083100D02*
X0361400Y0080138D01*
X0361513Y0079423D01*
X0361737Y0078734D01*
X0362066Y0078089D01*
X0362190Y0077918D01*
X0359700Y0077918D01*
X0359700Y0078457D01*
X0360200Y0079665D01*
X0360200Y0087335D01*
X0359700Y0088543D01*
X0359700Y0089081D01*
X0362190Y0089081D01*
X0362066Y0088911D01*
X0361737Y0088266D01*
X0361513Y0087577D01*
X0361400Y0086862D01*
X0361400Y0083900D01*
X0365600Y0083900D01*
X0365600Y0083100D01*
X0361400Y0083100D01*
X0361400Y0084896D02*
X0360200Y0084896D01*
X0360200Y0086094D02*
X0361400Y0086094D01*
X0361468Y0087293D02*
X0360200Y0087293D01*
X0359721Y0088491D02*
X0361852Y0088491D01*
X0367231Y0092087D02*
X0388800Y0092087D01*
X0388800Y0093285D02*
X0370612Y0093285D01*
X0370597Y0094484D02*
X0388800Y0094484D01*
X0388800Y0095682D02*
X0369982Y0095682D01*
X0370473Y0096881D02*
X0388800Y0096881D01*
X0388800Y0098079D02*
X0370600Y0098079D01*
X0370600Y0099278D02*
X0388800Y0099278D01*
X0388800Y0100476D02*
X0370600Y0100476D01*
X0370600Y0101675D02*
X0388800Y0101675D01*
X0388800Y0102873D02*
X0370600Y0102873D01*
X0370600Y0104072D02*
X0388800Y0104072D01*
X0388800Y0105270D02*
X0370424Y0105270D01*
X0369938Y0106469D02*
X0388800Y0106469D01*
X0388800Y0107668D02*
X0370612Y0107668D01*
X0370612Y0108866D02*
X0388800Y0108866D01*
X0388800Y0110065D02*
X0367231Y0110065D01*
X0370612Y0111263D02*
X0388800Y0111263D01*
X0388800Y0112462D02*
X0370430Y0112462D01*
X0370225Y0113660D02*
X0388800Y0113660D01*
X0388800Y0114859D02*
X0370556Y0114859D01*
X0370600Y0116057D02*
X0388800Y0116057D01*
X0388800Y0117256D02*
X0370600Y0117256D01*
X0370600Y0119653D02*
X0388800Y0119653D01*
X0388800Y0120851D02*
X0370600Y0120851D01*
X0370570Y0122050D02*
X0388800Y0122050D01*
X0388800Y0123248D02*
X0370269Y0123248D01*
X0369545Y0124447D02*
X0388800Y0124447D01*
X0388800Y0125645D02*
X0379628Y0125645D01*
X0380826Y0126844D02*
X0388800Y0126844D01*
X0388800Y0128042D02*
X0382025Y0128042D01*
X0383223Y0129241D02*
X0388800Y0129241D01*
X0388800Y0130439D02*
X0384255Y0130439D01*
X0384700Y0131638D02*
X0388800Y0131638D01*
X0388800Y0132836D02*
X0384700Y0132836D01*
X0384700Y0134035D02*
X0388800Y0134035D01*
X0388800Y0135233D02*
X0384700Y0135233D01*
X0386621Y0136432D02*
X0388800Y0136432D01*
X0388800Y0137630D02*
X0387668Y0137630D01*
X0388164Y0138829D02*
X0388800Y0138829D01*
X0388800Y0140027D02*
X0388200Y0140027D01*
X0387935Y0141226D02*
X0388800Y0141226D01*
X0388800Y0142424D02*
X0387265Y0142424D01*
X0388800Y0143623D02*
X0385625Y0143623D01*
X0385077Y0145263D02*
X0385766Y0145487D01*
X0386411Y0145816D01*
X0386997Y0146241D01*
X0387509Y0146753D01*
X0387934Y0147339D01*
X0388263Y0147984D01*
X0388487Y0148673D01*
X0388594Y0149350D01*
X0381400Y0149350D01*
X0381400Y0150150D01*
X0380600Y0150150D01*
X0380600Y0154350D01*
X0377638Y0154350D01*
X0376923Y0154237D01*
X0376234Y0154013D01*
X0375589Y0153684D01*
X0375003Y0153259D01*
X0374491Y0152747D01*
X0374066Y0152161D01*
X0373737Y0151516D01*
X0373513Y0150827D01*
X0373406Y0150150D01*
X0380600Y0150150D01*
X0380600Y0149350D01*
X0381400Y0149350D01*
X0381400Y0145150D01*
X0384362Y0145150D01*
X0385077Y0145263D01*
X0386692Y0146020D02*
X0388800Y0146020D01*
X0388800Y0147218D02*
X0387847Y0147218D01*
X0388404Y0148417D02*
X0388800Y0148417D01*
X0388800Y0149615D02*
X0381400Y0149615D01*
X0381400Y0150150D02*
X0388594Y0150150D01*
X0388487Y0150827D01*
X0388263Y0151516D01*
X0387934Y0152161D01*
X0387509Y0152747D01*
X0386997Y0153259D01*
X0386411Y0153684D01*
X0385766Y0154013D01*
X0385077Y0154237D01*
X0384362Y0154350D01*
X0381400Y0154350D01*
X0381400Y0150150D01*
X0381400Y0150814D02*
X0380600Y0150814D01*
X0380600Y0152012D02*
X0381400Y0152012D01*
X0381400Y0153211D02*
X0380600Y0153211D01*
X0380600Y0149615D02*
X0363963Y0149615D01*
X0364862Y0148716D02*
X0360500Y0153078D01*
X0360500Y0210034D01*
X0361027Y0210561D01*
X0361481Y0211657D01*
X0361481Y0212843D01*
X0361027Y0213939D01*
X0360189Y0214777D01*
X0359093Y0215231D01*
X0357907Y0215231D01*
X0356811Y0214777D01*
X0355973Y0213939D01*
X0355519Y0212843D01*
X0355519Y0211657D01*
X0355973Y0210561D01*
X0356500Y0210034D01*
X0356500Y0151422D01*
X0357672Y0150250D01*
X0362034Y0145888D01*
X0361900Y0145566D01*
X0361900Y0143934D01*
X0362524Y0142428D01*
X0363678Y0141274D01*
X0365184Y0140650D01*
X0366816Y0140650D01*
X0368322Y0141274D01*
X0369476Y0142428D01*
X0370100Y0143934D01*
X0370100Y0145566D01*
X0369476Y0147072D01*
X0368322Y0148226D01*
X0366816Y0148850D01*
X0365184Y0148850D01*
X0364862Y0148716D01*
X0365184Y0150650D02*
X0366816Y0150650D01*
X0368322Y0151274D01*
X0369476Y0152428D01*
X0370100Y0153934D01*
X0370100Y0155566D01*
X0369476Y0157072D01*
X0368322Y0158226D01*
X0368000Y0158359D01*
X0368000Y0161141D01*
X0368322Y0161274D01*
X0369476Y0162428D01*
X0370100Y0163934D01*
X0370100Y0165566D01*
X0369476Y0167072D01*
X0368322Y0168226D01*
X0366816Y0168850D01*
X0365184Y0168850D01*
X0363678Y0168226D01*
X0362524Y0167072D01*
X0361900Y0165566D01*
X0361900Y0163934D01*
X0362524Y0162428D01*
X0363678Y0161274D01*
X0364000Y0161141D01*
X0364000Y0158359D01*
X0363678Y0158226D01*
X0362524Y0157072D01*
X0361900Y0155566D01*
X0361900Y0153934D01*
X0362524Y0152428D01*
X0363678Y0151274D01*
X0365184Y0150650D01*
X0364789Y0150814D02*
X0362764Y0150814D01*
X0362939Y0152012D02*
X0361566Y0152012D01*
X0362200Y0153211D02*
X0360500Y0153211D01*
X0360500Y0154409D02*
X0361900Y0154409D01*
X0361918Y0155608D02*
X0360500Y0155608D01*
X0360500Y0156806D02*
X0362414Y0156806D01*
X0363457Y0158005D02*
X0360500Y0158005D01*
X0360500Y0159203D02*
X0364000Y0159203D01*
X0364000Y0160402D02*
X0360500Y0160402D01*
X0360500Y0161601D02*
X0363351Y0161601D01*
X0362370Y0162799D02*
X0360500Y0162799D01*
X0360500Y0163998D02*
X0361900Y0163998D01*
X0361900Y0165196D02*
X0360500Y0165196D01*
X0360500Y0166395D02*
X0362243Y0166395D01*
X0363045Y0167593D02*
X0360500Y0167593D01*
X0360500Y0168792D02*
X0365043Y0168792D01*
X0365184Y0170650D02*
X0366816Y0170650D01*
X0368322Y0171274D01*
X0369476Y0172428D01*
X0370100Y0173934D01*
X0370100Y0175566D01*
X0369476Y0177072D01*
X0368322Y0178226D01*
X0366816Y0178850D01*
X0365184Y0178850D01*
X0363678Y0178226D01*
X0362524Y0177072D01*
X0361900Y0175566D01*
X0361900Y0173934D01*
X0362524Y0172428D01*
X0363678Y0171274D01*
X0365184Y0170650D01*
X0363884Y0171189D02*
X0360500Y0171189D01*
X0360500Y0172387D02*
X0362565Y0172387D01*
X0362044Y0173586D02*
X0360500Y0173586D01*
X0360500Y0174784D02*
X0361900Y0174784D01*
X0362073Y0175983D02*
X0360500Y0175983D01*
X0360500Y0177181D02*
X0362633Y0177181D01*
X0364049Y0178380D02*
X0360500Y0178380D01*
X0360500Y0179578D02*
X0388800Y0179578D01*
X0388800Y0178380D02*
X0367951Y0178380D01*
X0369367Y0177181D02*
X0388800Y0177181D01*
X0388800Y0175983D02*
X0369927Y0175983D01*
X0370100Y0174784D02*
X0388800Y0174784D01*
X0388800Y0173586D02*
X0369955Y0173586D01*
X0369435Y0172387D02*
X0388800Y0172387D01*
X0388800Y0171189D02*
X0368116Y0171189D01*
X0366957Y0168792D02*
X0388800Y0168792D01*
X0388800Y0169990D02*
X0360500Y0169990D01*
X0356500Y0169990D02*
X0331750Y0169990D01*
X0331750Y0168792D02*
X0356500Y0168792D01*
X0356500Y0167593D02*
X0331750Y0167593D01*
X0331750Y0166395D02*
X0356500Y0166395D01*
X0356500Y0165196D02*
X0331750Y0165196D01*
X0331750Y0163998D02*
X0356500Y0163998D01*
X0356500Y0162799D02*
X0331750Y0162799D01*
X0331750Y0161601D02*
X0356500Y0161601D01*
X0356500Y0160402D02*
X0331750Y0160402D01*
X0331750Y0159203D02*
X0356500Y0159203D01*
X0356500Y0158005D02*
X0331750Y0158005D01*
X0331750Y0156806D02*
X0356500Y0156806D01*
X0356500Y0155608D02*
X0331750Y0155608D01*
X0331750Y0154409D02*
X0356500Y0154409D01*
X0356500Y0153211D02*
X0331750Y0153211D01*
X0331750Y0152012D02*
X0356500Y0152012D01*
X0357108Y0150814D02*
X0331750Y0150814D01*
X0331750Y0149615D02*
X0358306Y0149615D01*
X0357672Y0150250D02*
X0357672Y0150250D01*
X0359505Y0148417D02*
X0331750Y0148417D01*
X0331750Y0147218D02*
X0360703Y0147218D01*
X0361902Y0146020D02*
X0357696Y0146020D01*
X0357689Y0146027D02*
X0356593Y0146481D01*
X0355407Y0146481D01*
X0354311Y0146027D01*
X0353473Y0145189D01*
X0353019Y0144093D01*
X0353019Y0143347D01*
X0345172Y0135500D01*
X0344000Y0134328D01*
X0344000Y0125218D01*
X0343621Y0125061D01*
X0342439Y0123879D01*
X0341800Y0122335D01*
X0341800Y0114665D01*
X0342439Y0113121D01*
X0343621Y0111939D01*
X0345165Y0111300D01*
X0346835Y0111300D01*
X0348379Y0111939D01*
X0349561Y0113121D01*
X0350200Y0114665D01*
X0350200Y0122335D01*
X0349561Y0123879D01*
X0348379Y0125061D01*
X0348000Y0125218D01*
X0348000Y0132672D01*
X0355847Y0140519D01*
X0356593Y0140519D01*
X0357689Y0140973D01*
X0358527Y0141811D01*
X0358981Y0142907D01*
X0358981Y0144093D01*
X0358527Y0145189D01*
X0357689Y0146027D01*
X0358679Y0144821D02*
X0361900Y0144821D01*
X0362029Y0143623D02*
X0358981Y0143623D01*
X0358781Y0142424D02*
X0362527Y0142424D01*
X0363794Y0141226D02*
X0357942Y0141226D01*
X0356867Y0138829D02*
X0365133Y0138829D01*
X0366867Y0138829D02*
X0373836Y0138829D01*
X0373800Y0140027D02*
X0355356Y0140027D01*
X0355184Y0138850D02*
X0353678Y0138226D01*
X0352524Y0137072D01*
X0351900Y0135566D01*
X0351900Y0133934D01*
X0352524Y0132428D01*
X0353678Y0131274D01*
X0355184Y0130650D01*
X0356816Y0130650D01*
X0358322Y0131274D01*
X0359476Y0132428D01*
X0360100Y0133934D01*
X0360100Y0135566D01*
X0359476Y0137072D01*
X0358322Y0138226D01*
X0356816Y0138850D01*
X0355184Y0138850D01*
X0355133Y0138829D02*
X0354157Y0138829D01*
X0353082Y0137630D02*
X0352959Y0137630D01*
X0352259Y0136432D02*
X0351760Y0136432D01*
X0351900Y0135233D02*
X0350562Y0135233D01*
X0349363Y0134035D02*
X0351900Y0134035D01*
X0352355Y0132836D02*
X0348165Y0132836D01*
X0348000Y0131638D02*
X0353314Y0131638D01*
X0348000Y0130439D02*
X0360207Y0130439D01*
X0359008Y0129241D02*
X0348000Y0129241D01*
X0348000Y0128042D02*
X0357810Y0128042D01*
X0356611Y0126844D02*
X0348000Y0126844D01*
X0348000Y0125645D02*
X0355032Y0125645D01*
X0353007Y0124447D02*
X0348993Y0124447D01*
X0349822Y0123248D02*
X0352178Y0123248D01*
X0351800Y0122050D02*
X0350200Y0122050D01*
X0350200Y0120851D02*
X0351800Y0120851D01*
X0351800Y0119653D02*
X0350200Y0119653D01*
X0350200Y0118454D02*
X0351800Y0118454D01*
X0351800Y0117256D02*
X0350200Y0117256D01*
X0350200Y0116057D02*
X0351800Y0116057D01*
X0351800Y0114859D02*
X0350200Y0114859D01*
X0349784Y0113660D02*
X0352216Y0113660D01*
X0352300Y0112462D02*
X0348901Y0112462D01*
X0352300Y0111263D02*
X0329362Y0111263D01*
X0329467Y0112462D02*
X0343099Y0112462D01*
X0342216Y0113660D02*
X0330225Y0113660D01*
X0330556Y0114859D02*
X0341800Y0114859D01*
X0341800Y0116057D02*
X0330600Y0116057D01*
X0330600Y0117256D02*
X0341800Y0117256D01*
X0341800Y0118454D02*
X0326400Y0118454D01*
X0326400Y0118100D02*
X0326400Y0113318D01*
X0325981Y0113318D01*
X0325981Y0110134D01*
X0325212Y0110134D01*
X0325212Y0110967D01*
X0325600Y0110906D01*
X0325600Y0118100D01*
X0326400Y0118100D01*
X0326400Y0118900D02*
X0330600Y0118900D01*
X0330600Y0121862D01*
X0330487Y0122577D01*
X0330263Y0123266D01*
X0329934Y0123911D01*
X0329509Y0124497D01*
X0328997Y0125009D01*
X0328411Y0125434D01*
X0327766Y0125763D01*
X0327077Y0125987D01*
X0326400Y0126094D01*
X0326400Y0118900D01*
X0326400Y0119653D02*
X0325600Y0119653D01*
X0325600Y0120851D02*
X0326400Y0120851D01*
X0326400Y0122050D02*
X0325600Y0122050D01*
X0325600Y0123248D02*
X0326400Y0123248D01*
X0326400Y0124447D02*
X0325600Y0124447D01*
X0325600Y0125645D02*
X0326400Y0125645D01*
X0327997Y0125645D02*
X0344000Y0125645D01*
X0344000Y0126844D02*
X0317889Y0126844D01*
X0316690Y0128042D02*
X0344000Y0128042D01*
X0344000Y0129241D02*
X0315492Y0129241D01*
X0315184Y0130650D02*
X0316816Y0130650D01*
X0318322Y0131274D01*
X0319476Y0132428D01*
X0320100Y0133934D01*
X0320100Y0135566D01*
X0319476Y0137072D01*
X0318322Y0138226D01*
X0316816Y0138850D01*
X0315184Y0138850D01*
X0313678Y0138226D01*
X0312524Y0137072D01*
X0311900Y0135566D01*
X0311900Y0133934D01*
X0312524Y0132428D01*
X0313678Y0131274D01*
X0315184Y0130650D01*
X0314293Y0130439D02*
X0334705Y0130439D01*
X0334946Y0130361D02*
X0335646Y0130250D01*
X0335650Y0130250D01*
X0335650Y0134400D01*
X0336350Y0134400D01*
X0336350Y0135100D01*
X0340500Y0135100D01*
X0340500Y0135104D01*
X0340389Y0135804D01*
X0340170Y0136477D01*
X0339849Y0137109D01*
X0339432Y0137682D01*
X0338932Y0138182D01*
X0338359Y0138599D01*
X0337727Y0138920D01*
X0337054Y0139139D01*
X0336354Y0139250D01*
X0336350Y0139250D01*
X0336350Y0135100D01*
X0335650Y0135100D01*
X0335650Y0139250D01*
X0335646Y0139250D01*
X0334946Y0139139D01*
X0334273Y0138920D01*
X0333641Y0138599D01*
X0333068Y0138182D01*
X0332568Y0137682D01*
X0332151Y0137109D01*
X0331830Y0136477D01*
X0331611Y0135804D01*
X0331500Y0135104D01*
X0331500Y0135100D01*
X0335650Y0135100D01*
X0335650Y0134400D01*
X0331500Y0134400D01*
X0331500Y0134396D01*
X0331611Y0133696D01*
X0331830Y0133023D01*
X0332151Y0132391D01*
X0332568Y0131818D01*
X0333068Y0131318D01*
X0333641Y0130901D01*
X0334273Y0130580D01*
X0334946Y0130361D01*
X0335650Y0130439D02*
X0336350Y0130439D01*
X0336350Y0130250D02*
X0336354Y0130250D01*
X0337054Y0130361D01*
X0337727Y0130580D01*
X0338359Y0130901D01*
X0338932Y0131318D01*
X0339432Y0131818D01*
X0339849Y0132391D01*
X0340170Y0133023D01*
X0340389Y0133696D01*
X0340500Y0134396D01*
X0340500Y0134400D01*
X0336350Y0134400D01*
X0336350Y0130250D01*
X0337295Y0130439D02*
X0344000Y0130439D01*
X0344000Y0131638D02*
X0339252Y0131638D01*
X0340075Y0132836D02*
X0344000Y0132836D01*
X0344000Y0134035D02*
X0340443Y0134035D01*
X0340480Y0135233D02*
X0344905Y0135233D01*
X0346103Y0136432D02*
X0340185Y0136432D01*
X0339470Y0137630D02*
X0347302Y0137630D01*
X0348500Y0138829D02*
X0337907Y0138829D01*
X0336350Y0138829D02*
X0335650Y0138829D01*
X0335650Y0137630D02*
X0336350Y0137630D01*
X0336350Y0136432D02*
X0335650Y0136432D01*
X0335650Y0135233D02*
X0336350Y0135233D01*
X0336350Y0134035D02*
X0335650Y0134035D01*
X0335650Y0132836D02*
X0336350Y0132836D01*
X0336350Y0131638D02*
X0335650Y0131638D01*
X0332748Y0131638D02*
X0328686Y0131638D01*
X0328322Y0131274D02*
X0329476Y0132428D01*
X0330100Y0133934D01*
X0330100Y0135566D01*
X0329966Y0135888D01*
X0331750Y0137672D01*
X0331750Y0190034D01*
X0332277Y0190561D01*
X0332731Y0191657D01*
X0332731Y0192843D01*
X0332277Y0193939D01*
X0331439Y0194777D01*
X0330343Y0195231D01*
X0329157Y0195231D01*
X0328061Y0194777D01*
X0327223Y0193939D01*
X0326769Y0192843D01*
X0326769Y0191657D01*
X0327223Y0190561D01*
X0327750Y0190034D01*
X0327750Y0139328D01*
X0327138Y0138716D01*
X0326816Y0138850D01*
X0325184Y0138850D01*
X0323678Y0138226D01*
X0322524Y0137072D01*
X0321900Y0135566D01*
X0321900Y0133934D01*
X0322524Y0132428D01*
X0323678Y0131274D01*
X0325184Y0130650D01*
X0326816Y0130650D01*
X0328322Y0131274D01*
X0329645Y0132836D02*
X0331925Y0132836D01*
X0331557Y0134035D02*
X0330100Y0134035D01*
X0330100Y0135233D02*
X0331520Y0135233D01*
X0331815Y0136432D02*
X0330510Y0136432D01*
X0331709Y0137630D02*
X0332530Y0137630D01*
X0331750Y0138829D02*
X0334093Y0138829D01*
X0331750Y0140027D02*
X0349699Y0140027D01*
X0350897Y0141226D02*
X0331750Y0141226D01*
X0331750Y0142424D02*
X0352096Y0142424D01*
X0353019Y0143623D02*
X0331750Y0143623D01*
X0331750Y0144821D02*
X0353321Y0144821D01*
X0354304Y0146020D02*
X0331750Y0146020D01*
X0327750Y0146020D02*
X0309912Y0146020D01*
X0310100Y0145566D02*
X0309476Y0147072D01*
X0308322Y0148226D01*
X0306816Y0148850D01*
X0305184Y0148850D01*
X0303678Y0148226D01*
X0302524Y0147072D01*
X0301900Y0145566D01*
X0301900Y0143934D01*
X0302524Y0142428D01*
X0303678Y0141274D01*
X0305184Y0140650D01*
X0306816Y0140650D01*
X0308322Y0141274D01*
X0309476Y0142428D01*
X0310100Y0143934D01*
X0310100Y0145566D01*
X0310100Y0144821D02*
X0327750Y0144821D01*
X0327750Y0143623D02*
X0309971Y0143623D01*
X0309473Y0142424D02*
X0327750Y0142424D01*
X0327750Y0141226D02*
X0308206Y0141226D01*
X0306867Y0138829D02*
X0315133Y0138829D01*
X0316867Y0138829D02*
X0325133Y0138829D01*
X0326867Y0138829D02*
X0327250Y0138829D01*
X0327750Y0140027D02*
X0298143Y0140027D01*
X0298200Y0141226D02*
X0303794Y0141226D01*
X0302527Y0142424D02*
X0297956Y0142424D01*
X0297317Y0143623D02*
X0302029Y0143623D01*
X0301900Y0144821D02*
X0295750Y0144821D01*
X0295077Y0146513D02*
X0294362Y0146400D01*
X0291400Y0146400D01*
X0291400Y0150600D01*
X0291400Y0151400D01*
X0290600Y0151400D01*
X0290600Y0155600D01*
X0287638Y0155600D01*
X0286923Y0155487D01*
X0286234Y0155263D01*
X0285589Y0154934D01*
X0285003Y0154509D01*
X0284491Y0153997D01*
X0284066Y0153411D01*
X0283737Y0152766D01*
X0283513Y0152077D01*
X0283406Y0151400D01*
X0290600Y0151400D01*
X0290600Y0150600D01*
X0291400Y0150600D01*
X0298594Y0150600D01*
X0298487Y0149923D01*
X0298263Y0149234D01*
X0297934Y0148589D01*
X0297509Y0148003D01*
X0296997Y0147491D01*
X0296411Y0147066D01*
X0295766Y0146737D01*
X0295077Y0146513D01*
X0296621Y0147218D02*
X0302670Y0147218D01*
X0302088Y0146020D02*
X0283200Y0146020D01*
X0283200Y0147218D02*
X0285379Y0147218D01*
X0285589Y0147066D02*
X0286234Y0146737D01*
X0286923Y0146513D01*
X0287638Y0146400D01*
X0290600Y0146400D01*
X0290600Y0150600D01*
X0283406Y0150600D01*
X0283513Y0149923D01*
X0283737Y0149234D01*
X0284066Y0148589D01*
X0284491Y0148003D01*
X0285003Y0147491D01*
X0285589Y0147066D01*
X0284191Y0148417D02*
X0283200Y0148417D01*
X0283200Y0149615D02*
X0283613Y0149615D01*
X0283200Y0150814D02*
X0290600Y0150814D01*
X0291400Y0150814D02*
X0304789Y0150814D01*
X0305184Y0150650D02*
X0303678Y0151274D01*
X0302524Y0152428D01*
X0301900Y0153934D01*
X0301900Y0155566D01*
X0302524Y0157072D01*
X0303678Y0158226D01*
X0305184Y0158850D01*
X0306816Y0158850D01*
X0308322Y0158226D01*
X0309476Y0157072D01*
X0310100Y0155566D01*
X0310100Y0153934D01*
X0309476Y0152428D01*
X0308322Y0151274D01*
X0306816Y0150650D01*
X0305184Y0150650D01*
X0307211Y0150814D02*
X0327750Y0150814D01*
X0327750Y0152012D02*
X0309061Y0152012D01*
X0309800Y0153211D02*
X0327750Y0153211D01*
X0327750Y0154409D02*
X0310100Y0154409D01*
X0310082Y0155608D02*
X0327750Y0155608D01*
X0327750Y0156806D02*
X0309586Y0156806D01*
X0308543Y0158005D02*
X0327750Y0158005D01*
X0327750Y0159203D02*
X0283200Y0159203D01*
X0283200Y0158005D02*
X0303457Y0158005D01*
X0302414Y0156806D02*
X0283200Y0156806D01*
X0283200Y0155608D02*
X0301918Y0155608D01*
X0301900Y0154409D02*
X0297096Y0154409D01*
X0296997Y0154509D02*
X0296411Y0154934D01*
X0295766Y0155263D01*
X0295077Y0155487D01*
X0294362Y0155600D01*
X0291400Y0155600D01*
X0291400Y0151400D01*
X0298594Y0151400D01*
X0298487Y0152077D01*
X0298263Y0152766D01*
X0297934Y0153411D01*
X0297509Y0153997D01*
X0296997Y0154509D01*
X0298036Y0153211D02*
X0302200Y0153211D01*
X0302939Y0152012D02*
X0298497Y0152012D01*
X0298387Y0149615D02*
X0327750Y0149615D01*
X0327750Y0148417D02*
X0307861Y0148417D01*
X0309330Y0147218D02*
X0327750Y0147218D01*
X0323082Y0137630D02*
X0318918Y0137630D01*
X0319741Y0136432D02*
X0322259Y0136432D01*
X0321900Y0135233D02*
X0320100Y0135233D01*
X0320100Y0134035D02*
X0321900Y0134035D01*
X0322355Y0132836D02*
X0319645Y0132836D01*
X0318686Y0131638D02*
X0323314Y0131638D01*
X0324003Y0125645D02*
X0319087Y0125645D01*
X0319613Y0124447D02*
X0322455Y0124447D01*
X0321731Y0123248D02*
X0319822Y0123248D01*
X0320200Y0122050D02*
X0321430Y0122050D01*
X0321400Y0120851D02*
X0320200Y0120851D01*
X0320200Y0119653D02*
X0321400Y0119653D01*
X0320200Y0118454D02*
X0325600Y0118454D01*
X0325600Y0117256D02*
X0326400Y0117256D01*
X0326400Y0116057D02*
X0325600Y0116057D01*
X0325600Y0114859D02*
X0326400Y0114859D01*
X0326400Y0113660D02*
X0325600Y0113660D01*
X0325600Y0112462D02*
X0325981Y0112462D01*
X0325981Y0111263D02*
X0325600Y0111263D01*
X0325981Y0110065D02*
X0352300Y0110065D01*
X0352300Y0108866D02*
X0329362Y0108866D01*
X0329362Y0107668D02*
X0343879Y0107668D01*
X0343621Y0107561D02*
X0342439Y0106379D01*
X0341800Y0104835D01*
X0341800Y0097165D01*
X0342439Y0095621D01*
X0343621Y0094439D01*
X0345165Y0093800D01*
X0346835Y0093800D01*
X0348379Y0094439D01*
X0349561Y0095621D01*
X0350200Y0097165D01*
X0350200Y0104835D01*
X0349561Y0106379D01*
X0348379Y0107561D01*
X0346835Y0108200D01*
X0345165Y0108200D01*
X0343621Y0107561D01*
X0342529Y0106469D02*
X0329892Y0106469D01*
X0330424Y0105270D02*
X0341980Y0105270D01*
X0341800Y0104072D02*
X0330600Y0104072D01*
X0330600Y0102873D02*
X0341800Y0102873D01*
X0341800Y0101675D02*
X0330600Y0101675D01*
X0330600Y0100476D02*
X0341800Y0100476D01*
X0341800Y0099278D02*
X0330600Y0099278D01*
X0330600Y0098079D02*
X0341800Y0098079D01*
X0341917Y0096881D02*
X0330473Y0096881D01*
X0329982Y0095682D02*
X0342414Y0095682D01*
X0343576Y0094484D02*
X0329347Y0094484D01*
X0329362Y0093285D02*
X0352300Y0093285D01*
X0352300Y0092087D02*
X0325981Y0092087D01*
X0325981Y0091866D02*
X0325981Y0088681D01*
X0326400Y0088681D01*
X0326400Y0083900D01*
X0325600Y0083900D01*
X0325600Y0091094D01*
X0325212Y0091033D01*
X0325212Y0091866D01*
X0325981Y0091866D01*
X0325981Y0092634D02*
X0325212Y0092634D01*
X0325212Y0093467D01*
X0325600Y0093406D01*
X0325600Y0100600D01*
X0321400Y0100600D01*
X0321400Y0097638D01*
X0321513Y0096923D01*
X0321737Y0096234D01*
X0322066Y0095589D01*
X0322265Y0095315D01*
X0322151Y0095201D01*
X0322016Y0094968D01*
X0321566Y0095418D01*
X0319700Y0095418D01*
X0319700Y0095957D01*
X0320200Y0097165D01*
X0320200Y0104835D01*
X0319700Y0106043D01*
X0319700Y0106581D01*
X0321566Y0106581D01*
X0322016Y0107032D01*
X0322151Y0106799D01*
X0322265Y0106685D01*
X0322066Y0106411D01*
X0321737Y0105766D01*
X0321513Y0105077D01*
X0321400Y0104362D01*
X0321400Y0101400D01*
X0325600Y0101400D01*
X0325600Y0108594D01*
X0325212Y0108533D01*
X0325212Y0109366D01*
X0325981Y0109366D01*
X0325981Y0106181D01*
X0326400Y0106181D01*
X0326400Y0101400D01*
X0325600Y0101400D01*
X0325600Y0100600D01*
X0326400Y0100600D01*
X0326400Y0095818D01*
X0325981Y0095818D01*
X0325981Y0092634D01*
X0325981Y0093285D02*
X0325212Y0093285D01*
X0325600Y0094484D02*
X0325981Y0094484D01*
X0325981Y0095682D02*
X0325600Y0095682D01*
X0325600Y0096881D02*
X0326400Y0096881D01*
X0326400Y0098079D02*
X0325600Y0098079D01*
X0325600Y0099278D02*
X0326400Y0099278D01*
X0326400Y0100476D02*
X0325600Y0100476D01*
X0325600Y0101675D02*
X0326400Y0101675D01*
X0326400Y0102873D02*
X0325600Y0102873D01*
X0325600Y0104072D02*
X0326400Y0104072D01*
X0326400Y0105270D02*
X0325600Y0105270D01*
X0325600Y0106469D02*
X0325981Y0106469D01*
X0325981Y0107668D02*
X0325600Y0107668D01*
X0325981Y0108866D02*
X0325212Y0108866D01*
X0322108Y0106469D02*
X0319700Y0106469D01*
X0320020Y0105270D02*
X0321576Y0105270D01*
X0321400Y0104072D02*
X0320200Y0104072D01*
X0320200Y0102873D02*
X0321400Y0102873D01*
X0321400Y0101675D02*
X0320200Y0101675D01*
X0320200Y0100476D02*
X0321400Y0100476D01*
X0321400Y0099278D02*
X0320200Y0099278D01*
X0320200Y0098079D02*
X0321400Y0098079D01*
X0321527Y0096881D02*
X0320082Y0096881D01*
X0319700Y0095682D02*
X0322018Y0095682D01*
X0325600Y0090888D02*
X0325981Y0090888D01*
X0325981Y0089690D02*
X0325600Y0089690D01*
X0325600Y0088491D02*
X0326400Y0088491D01*
X0326400Y0087293D02*
X0325600Y0087293D01*
X0325600Y0086094D02*
X0326400Y0086094D01*
X0326400Y0084896D02*
X0325600Y0084896D01*
X0325600Y0083900D02*
X0325600Y0083100D01*
X0321400Y0083100D01*
X0321400Y0080138D01*
X0321513Y0079423D01*
X0321737Y0078734D01*
X0322066Y0078089D01*
X0322265Y0077815D01*
X0322151Y0077701D01*
X0322016Y0077468D01*
X0321566Y0077918D01*
X0319700Y0077918D01*
X0319700Y0078457D01*
X0320200Y0079665D01*
X0320200Y0087335D01*
X0319700Y0088543D01*
X0319700Y0089081D01*
X0321566Y0089081D01*
X0322016Y0089532D01*
X0322151Y0089299D01*
X0322265Y0089185D01*
X0322066Y0088911D01*
X0321737Y0088266D01*
X0321513Y0087577D01*
X0321400Y0086862D01*
X0321400Y0083900D01*
X0325600Y0083900D01*
X0325600Y0083697D02*
X0320200Y0083697D01*
X0320200Y0082499D02*
X0321400Y0082499D01*
X0321400Y0081300D02*
X0320200Y0081300D01*
X0320200Y0080102D02*
X0321406Y0080102D01*
X0321682Y0078903D02*
X0319885Y0078903D01*
X0321780Y0077705D02*
X0322155Y0077705D01*
X0325600Y0077705D02*
X0325981Y0077705D01*
X0325981Y0078318D02*
X0325981Y0075134D01*
X0325212Y0075134D01*
X0325212Y0075967D01*
X0325600Y0075906D01*
X0325600Y0083100D01*
X0326400Y0083100D01*
X0326400Y0078318D01*
X0325981Y0078318D01*
X0325600Y0078903D02*
X0326400Y0078903D01*
X0326400Y0080102D02*
X0325600Y0080102D01*
X0325600Y0081300D02*
X0326400Y0081300D01*
X0326400Y0082499D02*
X0325600Y0082499D01*
X0326400Y0083697D02*
X0341800Y0083697D01*
X0341800Y0082499D02*
X0330600Y0082499D01*
X0330600Y0081300D02*
X0341800Y0081300D01*
X0341800Y0080102D02*
X0330594Y0080102D01*
X0330318Y0078903D02*
X0342115Y0078903D01*
X0341800Y0079665D02*
X0342439Y0078121D01*
X0343621Y0076939D01*
X0345165Y0076300D01*
X0346835Y0076300D01*
X0348379Y0076939D01*
X0349561Y0078121D01*
X0350200Y0079665D01*
X0350200Y0087335D01*
X0349561Y0088879D01*
X0348379Y0090061D01*
X0346835Y0090700D01*
X0345165Y0090700D01*
X0343621Y0090061D01*
X0342439Y0088879D01*
X0341800Y0087335D01*
X0341800Y0079665D01*
X0342856Y0077705D02*
X0329655Y0077705D01*
X0329362Y0076506D02*
X0344667Y0076506D01*
X0347333Y0076506D02*
X0352300Y0076506D01*
X0352300Y0075308D02*
X0329362Y0075308D01*
X0329362Y0074109D02*
X0352300Y0074109D01*
X0352300Y0072911D02*
X0347534Y0072911D01*
X0346835Y0073200D02*
X0345165Y0073200D01*
X0343621Y0072561D01*
X0342439Y0071379D01*
X0341800Y0069835D01*
X0341800Y0062165D01*
X0342439Y0060621D01*
X0343621Y0059439D01*
X0345165Y0058800D01*
X0346835Y0058800D01*
X0348379Y0059439D01*
X0349561Y0060621D01*
X0350200Y0062165D01*
X0350200Y0069835D01*
X0349561Y0071379D01*
X0348379Y0072561D01*
X0346835Y0073200D01*
X0344466Y0072911D02*
X0329362Y0072911D01*
X0329715Y0071712D02*
X0342772Y0071712D01*
X0342081Y0070514D02*
X0330345Y0070514D01*
X0330600Y0069315D02*
X0341800Y0069315D01*
X0341800Y0068117D02*
X0330600Y0068117D01*
X0330600Y0066918D02*
X0341800Y0066918D01*
X0341800Y0065720D02*
X0326400Y0065720D01*
X0326400Y0065600D02*
X0326400Y0060818D01*
X0325981Y0060818D01*
X0325981Y0057634D01*
X0325212Y0057634D01*
X0325212Y0058467D01*
X0325600Y0058406D01*
X0325600Y0065600D01*
X0321400Y0065600D01*
X0321400Y0062638D01*
X0321513Y0061923D01*
X0321737Y0061234D01*
X0322066Y0060589D01*
X0322265Y0060315D01*
X0322151Y0060201D01*
X0322016Y0059968D01*
X0321566Y0060418D01*
X0319700Y0060418D01*
X0319700Y0060957D01*
X0320200Y0062165D01*
X0320200Y0069835D01*
X0319700Y0071043D01*
X0319700Y0071581D01*
X0321566Y0071581D01*
X0322016Y0072032D01*
X0322151Y0071799D01*
X0322265Y0071685D01*
X0322066Y0071411D01*
X0321737Y0070766D01*
X0321513Y0070077D01*
X0321400Y0069362D01*
X0321400Y0066400D01*
X0325600Y0066400D01*
X0325600Y0073594D01*
X0325212Y0073533D01*
X0325212Y0074366D01*
X0325981Y0074366D01*
X0325981Y0071181D01*
X0326400Y0071181D01*
X0326400Y0066400D01*
X0325600Y0066400D01*
X0325600Y0065600D01*
X0326400Y0065600D01*
X0325600Y0065720D02*
X0320200Y0065720D01*
X0320200Y0066918D02*
X0321400Y0066918D01*
X0321400Y0068117D02*
X0320200Y0068117D01*
X0320200Y0069315D02*
X0321400Y0069315D01*
X0321655Y0070514D02*
X0319919Y0070514D01*
X0321697Y0071712D02*
X0322238Y0071712D01*
X0325600Y0071712D02*
X0325981Y0071712D01*
X0325981Y0072911D02*
X0325600Y0072911D01*
X0325981Y0074109D02*
X0325212Y0074109D01*
X0325212Y0075308D02*
X0325981Y0075308D01*
X0325981Y0076506D02*
X0325600Y0076506D01*
X0325600Y0070514D02*
X0326400Y0070514D01*
X0326400Y0069315D02*
X0325600Y0069315D01*
X0325600Y0068117D02*
X0326400Y0068117D01*
X0326400Y0066918D02*
X0325600Y0066918D01*
X0325600Y0064521D02*
X0326400Y0064521D01*
X0326400Y0063323D02*
X0325600Y0063323D01*
X0325600Y0062124D02*
X0326400Y0062124D01*
X0326400Y0060926D02*
X0325600Y0060926D01*
X0325600Y0059727D02*
X0325981Y0059727D01*
X0325981Y0058529D02*
X0325600Y0058529D01*
X0325981Y0057330D02*
X0352300Y0057330D01*
X0352300Y0058529D02*
X0329362Y0058529D01*
X0329282Y0059727D02*
X0343333Y0059727D01*
X0342313Y0060926D02*
X0330106Y0060926D01*
X0330519Y0062124D02*
X0341817Y0062124D01*
X0341800Y0063323D02*
X0330600Y0063323D01*
X0330600Y0064521D02*
X0341800Y0064521D01*
X0348667Y0059727D02*
X0352300Y0059727D01*
X0352300Y0060926D02*
X0349687Y0060926D01*
X0350183Y0062124D02*
X0351817Y0062124D01*
X0351800Y0063323D02*
X0350200Y0063323D01*
X0350200Y0064521D02*
X0351800Y0064521D01*
X0351800Y0065720D02*
X0350200Y0065720D01*
X0350200Y0066918D02*
X0351800Y0066918D01*
X0351800Y0068117D02*
X0350200Y0068117D01*
X0350200Y0069315D02*
X0351800Y0069315D01*
X0352081Y0070514D02*
X0349919Y0070514D01*
X0349228Y0071712D02*
X0352300Y0071712D01*
X0352300Y0077705D02*
X0349144Y0077705D01*
X0349885Y0078903D02*
X0352115Y0078903D01*
X0351800Y0080102D02*
X0350200Y0080102D01*
X0350200Y0081300D02*
X0351800Y0081300D01*
X0351800Y0082499D02*
X0350200Y0082499D01*
X0350200Y0083697D02*
X0351800Y0083697D01*
X0351800Y0084896D02*
X0350200Y0084896D01*
X0350200Y0086094D02*
X0351800Y0086094D01*
X0351800Y0087293D02*
X0350200Y0087293D01*
X0349721Y0088491D02*
X0352279Y0088491D01*
X0352300Y0089690D02*
X0348750Y0089690D01*
X0352300Y0090888D02*
X0329362Y0090888D01*
X0329316Y0089690D02*
X0343250Y0089690D01*
X0342279Y0088491D02*
X0330148Y0088491D01*
X0330532Y0087293D02*
X0341800Y0087293D01*
X0341800Y0086094D02*
X0330600Y0086094D01*
X0330600Y0084896D02*
X0341800Y0084896D01*
X0348424Y0094484D02*
X0352300Y0094484D01*
X0352300Y0095682D02*
X0349586Y0095682D01*
X0350082Y0096881D02*
X0351917Y0096881D01*
X0351800Y0098079D02*
X0350200Y0098079D01*
X0350200Y0099278D02*
X0351800Y0099278D01*
X0351800Y0100476D02*
X0350200Y0100476D01*
X0350200Y0101675D02*
X0351800Y0101675D01*
X0351800Y0102873D02*
X0350200Y0102873D01*
X0350200Y0104072D02*
X0351800Y0104072D01*
X0351980Y0105270D02*
X0350020Y0105270D01*
X0349471Y0106469D02*
X0352300Y0106469D01*
X0352300Y0107668D02*
X0348121Y0107668D01*
X0359700Y0106581D02*
X0362190Y0106581D01*
X0362066Y0106411D01*
X0361737Y0105766D01*
X0361513Y0105077D01*
X0361400Y0104362D01*
X0361400Y0101400D01*
X0365600Y0101400D01*
X0365600Y0100600D01*
X0361400Y0100600D01*
X0361400Y0097638D01*
X0361513Y0096923D01*
X0361737Y0096234D01*
X0362066Y0095589D01*
X0362190Y0095418D01*
X0359700Y0095418D01*
X0359700Y0095957D01*
X0360200Y0097165D01*
X0360200Y0104835D01*
X0359700Y0106043D01*
X0359700Y0106581D01*
X0359700Y0106469D02*
X0362108Y0106469D01*
X0361576Y0105270D02*
X0360020Y0105270D01*
X0360200Y0104072D02*
X0361400Y0104072D01*
X0361400Y0102873D02*
X0360200Y0102873D01*
X0360200Y0101675D02*
X0361400Y0101675D01*
X0361400Y0100476D02*
X0360200Y0100476D01*
X0360200Y0099278D02*
X0361400Y0099278D01*
X0361400Y0098079D02*
X0360200Y0098079D01*
X0360082Y0096881D02*
X0361527Y0096881D01*
X0362018Y0095682D02*
X0359700Y0095682D01*
X0370612Y0090888D02*
X0388800Y0090888D01*
X0388800Y0089690D02*
X0370510Y0089690D01*
X0370148Y0088491D02*
X0388800Y0088491D01*
X0388800Y0087293D02*
X0370532Y0087293D01*
X0370600Y0086094D02*
X0388800Y0086094D01*
X0388800Y0084896D02*
X0370600Y0084896D01*
X0361400Y0081300D02*
X0360200Y0081300D01*
X0360200Y0080102D02*
X0361406Y0080102D01*
X0361682Y0078903D02*
X0359885Y0078903D01*
X0367231Y0057330D02*
X0388800Y0057330D01*
X0367231Y0056132D02*
X0366462Y0056132D01*
X0366462Y0054933D02*
X0367231Y0054933D01*
X0367231Y0053734D02*
X0366462Y0053734D01*
X0364273Y0053734D02*
X0359584Y0053734D01*
X0352149Y0056132D02*
X0340350Y0056132D01*
X0340350Y0054933D02*
X0350950Y0054933D01*
X0331650Y0054933D02*
X0329325Y0054933D01*
X0329362Y0056132D02*
X0331650Y0056132D01*
X0321894Y0060926D02*
X0319700Y0060926D01*
X0320183Y0062124D02*
X0321481Y0062124D01*
X0321400Y0063323D02*
X0320200Y0063323D01*
X0320200Y0064521D02*
X0321400Y0064521D01*
X0312300Y0075308D02*
X0283200Y0075308D01*
X0283200Y0076506D02*
X0304667Y0076506D01*
X0305165Y0076300D02*
X0303621Y0076939D01*
X0302439Y0078121D01*
X0301800Y0079665D01*
X0301800Y0087335D01*
X0302439Y0088879D01*
X0303621Y0090061D01*
X0305165Y0090700D01*
X0306835Y0090700D01*
X0308379Y0090061D01*
X0309561Y0088879D01*
X0310200Y0087335D01*
X0310200Y0079665D01*
X0309561Y0078121D01*
X0308379Y0076939D01*
X0306835Y0076300D01*
X0305165Y0076300D01*
X0307333Y0076506D02*
X0312300Y0076506D01*
X0312300Y0077705D02*
X0309144Y0077705D01*
X0309885Y0078903D02*
X0312115Y0078903D01*
X0311800Y0080102D02*
X0310200Y0080102D01*
X0310200Y0081300D02*
X0311800Y0081300D01*
X0311800Y0082499D02*
X0310200Y0082499D01*
X0310200Y0083697D02*
X0311800Y0083697D01*
X0311800Y0084896D02*
X0310200Y0084896D01*
X0310200Y0086094D02*
X0311800Y0086094D01*
X0311800Y0087293D02*
X0310200Y0087293D01*
X0309721Y0088491D02*
X0312279Y0088491D01*
X0312300Y0089690D02*
X0308750Y0089690D01*
X0312300Y0090888D02*
X0283200Y0090888D01*
X0283200Y0089690D02*
X0303250Y0089690D01*
X0302279Y0088491D02*
X0283200Y0088491D01*
X0283200Y0087293D02*
X0301800Y0087293D01*
X0301800Y0086094D02*
X0283200Y0086094D01*
X0283200Y0084896D02*
X0301800Y0084896D01*
X0301800Y0083697D02*
X0283200Y0083697D01*
X0283200Y0082499D02*
X0301800Y0082499D01*
X0301800Y0081300D02*
X0283200Y0081300D01*
X0283200Y0080102D02*
X0301800Y0080102D01*
X0302115Y0078903D02*
X0283200Y0078903D01*
X0283200Y0077705D02*
X0302856Y0077705D01*
X0305165Y0093800D02*
X0303621Y0094439D01*
X0302439Y0095621D01*
X0301800Y0097165D01*
X0301800Y0104835D01*
X0302439Y0106379D01*
X0303621Y0107561D01*
X0305165Y0108200D01*
X0306835Y0108200D01*
X0308379Y0107561D01*
X0309561Y0106379D01*
X0310200Y0104835D01*
X0310200Y0097165D01*
X0309561Y0095621D01*
X0308379Y0094439D01*
X0306835Y0093800D01*
X0305165Y0093800D01*
X0303576Y0094484D02*
X0283200Y0094484D01*
X0283200Y0095682D02*
X0302414Y0095682D01*
X0301917Y0096881D02*
X0283200Y0096881D01*
X0283200Y0098079D02*
X0301800Y0098079D01*
X0301800Y0099278D02*
X0283200Y0099278D01*
X0283200Y0100476D02*
X0301800Y0100476D01*
X0301800Y0101675D02*
X0283200Y0101675D01*
X0283200Y0102873D02*
X0301800Y0102873D01*
X0301800Y0104072D02*
X0283200Y0104072D01*
X0283200Y0105270D02*
X0301980Y0105270D01*
X0302529Y0106469D02*
X0283200Y0106469D01*
X0283200Y0107668D02*
X0303879Y0107668D01*
X0308121Y0107668D02*
X0312300Y0107668D01*
X0312300Y0108866D02*
X0283200Y0108866D01*
X0283200Y0110065D02*
X0312300Y0110065D01*
X0312300Y0111263D02*
X0283200Y0111263D01*
X0283200Y0112462D02*
X0303099Y0112462D01*
X0302216Y0113660D02*
X0283200Y0113660D01*
X0283200Y0114859D02*
X0301800Y0114859D01*
X0301800Y0116057D02*
X0283200Y0116057D01*
X0283200Y0117256D02*
X0301800Y0117256D01*
X0301800Y0118454D02*
X0283200Y0118454D01*
X0283200Y0119653D02*
X0301800Y0119653D01*
X0301800Y0120851D02*
X0283200Y0120851D01*
X0283200Y0122050D02*
X0301800Y0122050D01*
X0302178Y0123248D02*
X0283200Y0123248D01*
X0283200Y0124447D02*
X0303007Y0124447D01*
X0308993Y0124447D02*
X0309821Y0124447D01*
X0309822Y0123248D02*
X0311019Y0123248D01*
X0311800Y0122050D02*
X0310200Y0122050D01*
X0310200Y0120851D02*
X0311800Y0120851D01*
X0311800Y0119653D02*
X0310200Y0119653D01*
X0310200Y0118454D02*
X0311800Y0118454D01*
X0311800Y0117256D02*
X0310200Y0117256D01*
X0310200Y0116057D02*
X0311800Y0116057D01*
X0311800Y0114859D02*
X0310200Y0114859D01*
X0309784Y0113660D02*
X0312216Y0113660D01*
X0312300Y0112462D02*
X0308901Y0112462D01*
X0309471Y0106469D02*
X0312300Y0106469D01*
X0311980Y0105270D02*
X0310020Y0105270D01*
X0310200Y0104072D02*
X0311800Y0104072D01*
X0311800Y0102873D02*
X0310200Y0102873D01*
X0310200Y0101675D02*
X0311800Y0101675D01*
X0311800Y0100476D02*
X0310200Y0100476D01*
X0310200Y0099278D02*
X0311800Y0099278D01*
X0311800Y0098079D02*
X0310200Y0098079D01*
X0310082Y0096881D02*
X0311917Y0096881D01*
X0312300Y0095682D02*
X0309586Y0095682D01*
X0308424Y0094484D02*
X0312300Y0094484D01*
X0312300Y0093285D02*
X0283200Y0093285D01*
X0283200Y0092087D02*
X0312300Y0092087D01*
X0319721Y0088491D02*
X0321852Y0088491D01*
X0321468Y0087293D02*
X0320200Y0087293D01*
X0320200Y0086094D02*
X0321400Y0086094D01*
X0321400Y0084896D02*
X0320200Y0084896D01*
X0319784Y0113660D02*
X0321775Y0113660D01*
X0321444Y0114859D02*
X0320200Y0114859D01*
X0320200Y0116057D02*
X0321400Y0116057D01*
X0321400Y0117256D02*
X0320200Y0117256D01*
X0330600Y0119653D02*
X0341800Y0119653D01*
X0341800Y0120851D02*
X0330600Y0120851D01*
X0330570Y0122050D02*
X0341800Y0122050D01*
X0342178Y0123248D02*
X0330269Y0123248D01*
X0329545Y0124447D02*
X0343007Y0124447D01*
X0358686Y0131638D02*
X0361407Y0131638D01*
X0362355Y0132836D02*
X0359645Y0132836D01*
X0360100Y0134035D02*
X0361900Y0134035D01*
X0361900Y0135233D02*
X0360100Y0135233D01*
X0359741Y0136432D02*
X0362259Y0136432D01*
X0363082Y0137630D02*
X0358918Y0137630D01*
X0368206Y0141226D02*
X0374065Y0141226D01*
X0374735Y0142424D02*
X0369473Y0142424D01*
X0369971Y0143623D02*
X0376375Y0143623D01*
X0376923Y0145263D02*
X0377638Y0145150D01*
X0380600Y0145150D01*
X0380600Y0149350D01*
X0373406Y0149350D01*
X0373513Y0148673D01*
X0373737Y0147984D01*
X0374066Y0147339D01*
X0374491Y0146753D01*
X0375003Y0146241D01*
X0375589Y0145816D01*
X0376234Y0145487D01*
X0376923Y0145263D01*
X0375308Y0146020D02*
X0369912Y0146020D01*
X0370100Y0144821D02*
X0388800Y0144821D01*
X0388800Y0150814D02*
X0388489Y0150814D01*
X0388800Y0152012D02*
X0388010Y0152012D01*
X0388800Y0153211D02*
X0387044Y0153211D01*
X0388800Y0154409D02*
X0370100Y0154409D01*
X0370082Y0155608D02*
X0388800Y0155608D01*
X0388800Y0156806D02*
X0369586Y0156806D01*
X0368543Y0158005D02*
X0388800Y0158005D01*
X0388800Y0159203D02*
X0368000Y0159203D01*
X0368000Y0160402D02*
X0388800Y0160402D01*
X0388800Y0161601D02*
X0368649Y0161601D01*
X0369630Y0162799D02*
X0388800Y0162799D01*
X0388800Y0163998D02*
X0370100Y0163998D01*
X0370100Y0165196D02*
X0388800Y0165196D01*
X0388800Y0166395D02*
X0369757Y0166395D01*
X0368955Y0167593D02*
X0388800Y0167593D01*
X0388800Y0180777D02*
X0385383Y0180777D01*
X0384835Y0180550D02*
X0386379Y0181189D01*
X0387561Y0182371D01*
X0388200Y0183915D01*
X0388200Y0185585D01*
X0387561Y0187129D01*
X0386379Y0188311D01*
X0384835Y0188950D01*
X0377165Y0188950D01*
X0375621Y0188311D01*
X0374439Y0187129D01*
X0374282Y0186750D01*
X0369609Y0186750D01*
X0369476Y0187072D01*
X0368322Y0188226D01*
X0366816Y0188850D01*
X0365184Y0188850D01*
X0363678Y0188226D01*
X0362524Y0187072D01*
X0361900Y0185566D01*
X0361900Y0183934D01*
X0362524Y0182428D01*
X0363678Y0181274D01*
X0365184Y0180650D01*
X0366816Y0180650D01*
X0368322Y0181274D01*
X0369476Y0182428D01*
X0369609Y0182750D01*
X0374282Y0182750D01*
X0374439Y0182371D01*
X0375621Y0181189D01*
X0377165Y0180550D01*
X0384835Y0180550D01*
X0387165Y0181975D02*
X0388800Y0181975D01*
X0388800Y0183174D02*
X0387893Y0183174D01*
X0388200Y0184372D02*
X0388800Y0184372D01*
X0388800Y0185571D02*
X0388200Y0185571D01*
X0387710Y0186769D02*
X0388800Y0186769D01*
X0388800Y0187968D02*
X0386722Y0187968D01*
X0388800Y0189166D02*
X0360500Y0189166D01*
X0360500Y0187968D02*
X0363420Y0187968D01*
X0362399Y0186769D02*
X0360500Y0186769D01*
X0360500Y0185571D02*
X0361902Y0185571D01*
X0361900Y0184372D02*
X0360500Y0184372D01*
X0360500Y0183174D02*
X0362215Y0183174D01*
X0362977Y0181975D02*
X0360500Y0181975D01*
X0360500Y0180777D02*
X0364879Y0180777D01*
X0367121Y0180777D02*
X0376617Y0180777D01*
X0374835Y0181975D02*
X0369023Y0181975D01*
X0369601Y0186769D02*
X0374290Y0186769D01*
X0375278Y0187968D02*
X0368580Y0187968D01*
X0366816Y0190650D02*
X0365184Y0190650D01*
X0363678Y0191274D01*
X0362524Y0192428D01*
X0361900Y0193934D01*
X0361900Y0195566D01*
X0362524Y0197072D01*
X0363678Y0198226D01*
X0365184Y0198850D01*
X0366816Y0198850D01*
X0368322Y0198226D01*
X0369476Y0197072D01*
X0369609Y0196750D01*
X0374282Y0196750D01*
X0374439Y0197129D01*
X0375621Y0198311D01*
X0377165Y0198950D01*
X0384835Y0198950D01*
X0386379Y0198311D01*
X0387561Y0197129D01*
X0388200Y0195585D01*
X0388200Y0193915D01*
X0387561Y0192371D01*
X0386379Y0191189D01*
X0384835Y0190550D01*
X0377165Y0190550D01*
X0375621Y0191189D01*
X0374439Y0192371D01*
X0374282Y0192750D01*
X0369609Y0192750D01*
X0369476Y0192428D01*
X0368322Y0191274D01*
X0366816Y0190650D01*
X0368612Y0191563D02*
X0375247Y0191563D01*
X0374866Y0197556D02*
X0368992Y0197556D01*
X0367046Y0198754D02*
X0376692Y0198754D01*
X0376923Y0200263D02*
X0377638Y0200150D01*
X0380600Y0200150D01*
X0380600Y0204350D01*
X0381400Y0204350D01*
X0381400Y0205150D01*
X0380600Y0205150D01*
X0380600Y0209350D01*
X0377638Y0209350D01*
X0376923Y0209237D01*
X0376234Y0209013D01*
X0375589Y0208684D01*
X0375003Y0208259D01*
X0374491Y0207747D01*
X0374066Y0207161D01*
X0373737Y0206516D01*
X0373513Y0205827D01*
X0373406Y0205150D01*
X0380600Y0205150D01*
X0380600Y0204350D01*
X0373406Y0204350D01*
X0373513Y0203673D01*
X0373737Y0202984D01*
X0374066Y0202339D01*
X0374491Y0201753D01*
X0375003Y0201241D01*
X0375589Y0200816D01*
X0376234Y0200487D01*
X0376923Y0200263D01*
X0375127Y0201151D02*
X0368026Y0201151D01*
X0368322Y0201274D02*
X0369476Y0202428D01*
X0370100Y0203934D01*
X0370100Y0205566D01*
X0369476Y0207072D01*
X0368322Y0208226D01*
X0366816Y0208850D01*
X0365184Y0208850D01*
X0363678Y0208226D01*
X0362524Y0207072D01*
X0361900Y0205566D01*
X0361900Y0203934D01*
X0362524Y0202428D01*
X0363678Y0201274D01*
X0365184Y0200650D01*
X0366816Y0200650D01*
X0368322Y0201274D01*
X0369398Y0202350D02*
X0374060Y0202350D01*
X0373554Y0203548D02*
X0369940Y0203548D01*
X0370100Y0204747D02*
X0380600Y0204747D01*
X0381400Y0204747D02*
X0388800Y0204747D01*
X0388594Y0204350D02*
X0381400Y0204350D01*
X0381400Y0200150D01*
X0384362Y0200150D01*
X0385077Y0200263D01*
X0385766Y0200487D01*
X0386411Y0200816D01*
X0386997Y0201241D01*
X0387509Y0201753D01*
X0387934Y0202339D01*
X0388263Y0202984D01*
X0388487Y0203673D01*
X0388594Y0204350D01*
X0388594Y0205150D02*
X0388487Y0205827D01*
X0388263Y0206516D01*
X0387934Y0207161D01*
X0387509Y0207747D01*
X0386997Y0208259D01*
X0386411Y0208684D01*
X0385766Y0209013D01*
X0385077Y0209237D01*
X0384362Y0209350D01*
X0381400Y0209350D01*
X0381400Y0205150D01*
X0388594Y0205150D01*
X0388448Y0205945D02*
X0388800Y0205945D01*
X0388800Y0207144D02*
X0387943Y0207144D01*
X0388800Y0208342D02*
X0386881Y0208342D01*
X0388800Y0209541D02*
X0360500Y0209541D01*
X0360500Y0208342D02*
X0363959Y0208342D01*
X0362596Y0207144D02*
X0360500Y0207144D01*
X0360500Y0205945D02*
X0362057Y0205945D01*
X0361900Y0204747D02*
X0360500Y0204747D01*
X0360500Y0203548D02*
X0362060Y0203548D01*
X0362602Y0202350D02*
X0360500Y0202350D01*
X0360500Y0201151D02*
X0363974Y0201151D01*
X0364954Y0198754D02*
X0360500Y0198754D01*
X0360500Y0197556D02*
X0363008Y0197556D01*
X0362228Y0196357D02*
X0360500Y0196357D01*
X0360500Y0195159D02*
X0361900Y0195159D01*
X0361900Y0193960D02*
X0360500Y0193960D01*
X0360500Y0192762D02*
X0362386Y0192762D01*
X0363388Y0191563D02*
X0360500Y0191563D01*
X0360500Y0190365D02*
X0388800Y0190365D01*
X0388800Y0191563D02*
X0386753Y0191563D01*
X0387723Y0192762D02*
X0388800Y0192762D01*
X0388800Y0193960D02*
X0388200Y0193960D01*
X0388200Y0195159D02*
X0388800Y0195159D01*
X0388800Y0196357D02*
X0387880Y0196357D01*
X0387134Y0197556D02*
X0388800Y0197556D01*
X0388800Y0198754D02*
X0385308Y0198754D01*
X0386873Y0201151D02*
X0388800Y0201151D01*
X0388800Y0199953D02*
X0360500Y0199953D01*
X0356500Y0199953D02*
X0331531Y0199953D01*
X0330333Y0198754D02*
X0356500Y0198754D01*
X0356500Y0197556D02*
X0329134Y0197556D01*
X0327936Y0196357D02*
X0356500Y0196357D01*
X0356500Y0195159D02*
X0330517Y0195159D01*
X0328983Y0195159D02*
X0326737Y0195159D01*
X0327244Y0193960D02*
X0325539Y0193960D01*
X0324340Y0192762D02*
X0326769Y0192762D01*
X0326808Y0191563D02*
X0323142Y0191563D01*
X0321943Y0190365D02*
X0327419Y0190365D01*
X0327750Y0189166D02*
X0320745Y0189166D01*
X0319546Y0187968D02*
X0327750Y0187968D01*
X0327750Y0186769D02*
X0318348Y0186769D01*
X0317149Y0185571D02*
X0327750Y0185571D01*
X0327750Y0184372D02*
X0316750Y0184372D01*
X0316750Y0185172D02*
X0333078Y0201500D01*
X0338784Y0201500D01*
X0339311Y0200973D01*
X0340407Y0200519D01*
X0341593Y0200519D01*
X0342689Y0200973D01*
X0343527Y0201811D01*
X0343981Y0202907D01*
X0343981Y0204093D01*
X0343527Y0205189D01*
X0342689Y0206027D01*
X0341593Y0206481D01*
X0340407Y0206481D01*
X0339311Y0206027D01*
X0338784Y0205500D01*
X0331422Y0205500D01*
X0313922Y0188000D01*
X0312750Y0186828D01*
X0312750Y0179328D01*
X0310172Y0176750D01*
X0309609Y0176750D01*
X0309476Y0177072D01*
X0308322Y0178226D01*
X0306816Y0178850D01*
X0305184Y0178850D01*
X0303678Y0178226D01*
X0302524Y0177072D01*
X0301900Y0175566D01*
X0301900Y0173934D01*
X0302524Y0172428D01*
X0303678Y0171274D01*
X0305184Y0170650D01*
X0306816Y0170650D01*
X0308322Y0171274D01*
X0309476Y0172428D01*
X0309609Y0172750D01*
X0311828Y0172750D01*
X0313000Y0173922D01*
X0316750Y0177672D01*
X0316750Y0185172D01*
X0316750Y0183174D02*
X0327750Y0183174D01*
X0327750Y0181975D02*
X0316750Y0181975D01*
X0316750Y0180777D02*
X0327750Y0180777D01*
X0327750Y0179578D02*
X0316750Y0179578D01*
X0316750Y0178380D02*
X0327750Y0178380D01*
X0327750Y0177181D02*
X0316260Y0177181D01*
X0315061Y0175983D02*
X0327750Y0175983D01*
X0327750Y0174784D02*
X0313863Y0174784D01*
X0312664Y0173586D02*
X0327750Y0173586D01*
X0327750Y0172387D02*
X0309435Y0172387D01*
X0308116Y0171189D02*
X0327750Y0171189D01*
X0327750Y0169990D02*
X0283200Y0169990D01*
X0283200Y0168792D02*
X0305043Y0168792D01*
X0305184Y0168850D02*
X0303678Y0168226D01*
X0302524Y0167072D01*
X0301900Y0165566D01*
X0301900Y0163934D01*
X0302524Y0162428D01*
X0303678Y0161274D01*
X0305184Y0160650D01*
X0306816Y0160650D01*
X0308322Y0161274D01*
X0309476Y0162428D01*
X0310100Y0163934D01*
X0310100Y0165566D01*
X0309476Y0167072D01*
X0308322Y0168226D01*
X0306816Y0168850D01*
X0305184Y0168850D01*
X0306957Y0168792D02*
X0327750Y0168792D01*
X0327750Y0167593D02*
X0308955Y0167593D01*
X0309757Y0166395D02*
X0327750Y0166395D01*
X0327750Y0165196D02*
X0310100Y0165196D01*
X0310100Y0163998D02*
X0327750Y0163998D01*
X0327750Y0162799D02*
X0309630Y0162799D01*
X0308649Y0161601D02*
X0327750Y0161601D01*
X0327750Y0160402D02*
X0283200Y0160402D01*
X0283200Y0161601D02*
X0303351Y0161601D01*
X0302370Y0162799D02*
X0283200Y0162799D01*
X0283200Y0163998D02*
X0301900Y0163998D01*
X0301900Y0165196D02*
X0283200Y0165196D01*
X0283200Y0166395D02*
X0302243Y0166395D01*
X0303045Y0167593D02*
X0283200Y0167593D01*
X0283200Y0171189D02*
X0303884Y0171189D01*
X0302565Y0172387D02*
X0283200Y0172387D01*
X0283200Y0173586D02*
X0302044Y0173586D01*
X0301900Y0174784D02*
X0283200Y0174784D01*
X0283200Y0175983D02*
X0302073Y0175983D01*
X0302633Y0177181D02*
X0283200Y0177181D01*
X0283200Y0178380D02*
X0304049Y0178380D01*
X0304879Y0180777D02*
X0283200Y0180777D01*
X0283200Y0181975D02*
X0302977Y0181975D01*
X0302524Y0182428D02*
X0303678Y0181274D01*
X0305184Y0180650D01*
X0306816Y0180650D01*
X0308322Y0181274D01*
X0309476Y0182428D01*
X0310100Y0183934D01*
X0310100Y0185566D01*
X0309926Y0185986D01*
X0329360Y0206500D01*
X0343784Y0206500D01*
X0344311Y0205973D01*
X0345407Y0205519D01*
X0346593Y0205519D01*
X0347689Y0205973D01*
X0348527Y0206811D01*
X0348981Y0207907D01*
X0348981Y0209093D01*
X0348527Y0210189D01*
X0347689Y0211027D01*
X0346593Y0211481D01*
X0345407Y0211481D01*
X0344311Y0211027D01*
X0343784Y0210500D01*
X0329297Y0210500D01*
X0329274Y0210522D01*
X0328473Y0210500D01*
X0327672Y0210500D01*
X0327649Y0210478D01*
X0327618Y0210477D01*
X0327067Y0209895D01*
X0326500Y0209328D01*
X0326500Y0209297D01*
X0307041Y0188757D01*
X0306816Y0188850D01*
X0305184Y0188850D01*
X0303678Y0188226D01*
X0302524Y0187072D01*
X0301900Y0185566D01*
X0301900Y0183934D01*
X0302524Y0182428D01*
X0302215Y0183174D02*
X0283200Y0183174D01*
X0283200Y0184372D02*
X0301900Y0184372D01*
X0301902Y0185571D02*
X0283200Y0185571D01*
X0283200Y0186769D02*
X0302399Y0186769D01*
X0303420Y0187968D02*
X0283200Y0187968D01*
X0283200Y0189166D02*
X0307429Y0189166D01*
X0306816Y0190650D02*
X0308322Y0191274D01*
X0309476Y0192428D01*
X0310100Y0193934D01*
X0310100Y0195566D01*
X0309966Y0195888D01*
X0326828Y0212750D01*
X0331284Y0212750D01*
X0331811Y0212223D01*
X0332907Y0211769D01*
X0334093Y0211769D01*
X0335189Y0212223D01*
X0336027Y0213061D01*
X0336481Y0214157D01*
X0336481Y0215343D01*
X0336027Y0216439D01*
X0335189Y0217277D01*
X0334093Y0217731D01*
X0332907Y0217731D01*
X0331811Y0217277D01*
X0331284Y0216750D01*
X0325172Y0216750D01*
X0323918Y0215496D01*
X0323527Y0216439D01*
X0322689Y0217277D01*
X0321593Y0217731D01*
X0320407Y0217731D01*
X0319311Y0217277D01*
X0318473Y0216439D01*
X0318019Y0215343D01*
X0318019Y0214597D01*
X0310172Y0206750D01*
X0309609Y0206750D01*
X0309476Y0207072D01*
X0308322Y0208226D01*
X0306816Y0208850D01*
X0305184Y0208850D01*
X0303678Y0208226D01*
X0302524Y0207072D01*
X0301900Y0205566D01*
X0301900Y0203934D01*
X0302524Y0202428D01*
X0303678Y0201274D01*
X0305184Y0200650D01*
X0306816Y0200650D01*
X0308322Y0201274D01*
X0309476Y0202428D01*
X0309609Y0202750D01*
X0311172Y0202750D01*
X0307138Y0198716D01*
X0306816Y0198850D01*
X0305184Y0198850D01*
X0303678Y0198226D01*
X0302524Y0197072D01*
X0301900Y0195566D01*
X0301900Y0193934D01*
X0302524Y0192428D01*
X0303678Y0191274D01*
X0305184Y0190650D01*
X0306816Y0190650D01*
X0308564Y0190365D02*
X0283200Y0190365D01*
X0283200Y0191563D02*
X0303388Y0191563D01*
X0302386Y0192762D02*
X0283200Y0192762D01*
X0283200Y0193960D02*
X0301900Y0193960D01*
X0301900Y0195159D02*
X0283200Y0195159D01*
X0283200Y0196357D02*
X0302228Y0196357D01*
X0303008Y0197556D02*
X0283200Y0197556D01*
X0283200Y0198754D02*
X0304954Y0198754D01*
X0307046Y0198754D02*
X0307176Y0198754D01*
X0308374Y0199953D02*
X0283200Y0199953D01*
X0283200Y0201151D02*
X0303974Y0201151D01*
X0302602Y0202350D02*
X0283200Y0202350D01*
X0283200Y0203548D02*
X0302060Y0203548D01*
X0301900Y0204747D02*
X0283200Y0204747D01*
X0283200Y0205945D02*
X0302057Y0205945D01*
X0302596Y0207144D02*
X0283200Y0207144D01*
X0283200Y0208342D02*
X0303959Y0208342D01*
X0304968Y0210739D02*
X0283200Y0210739D01*
X0283200Y0209541D02*
X0312963Y0209541D01*
X0312843Y0210519D02*
X0313939Y0210973D01*
X0314777Y0211811D01*
X0315231Y0212907D01*
X0315231Y0213653D01*
X0321750Y0220172D01*
X0321750Y0230172D01*
X0323019Y0231440D01*
X0323019Y0230407D01*
X0323473Y0229311D01*
X0324311Y0228473D01*
X0325407Y0228019D01*
X0326593Y0228019D01*
X0327689Y0228473D01*
X0328216Y0229000D01*
X0348922Y0229000D01*
X0362034Y0215888D01*
X0361900Y0215566D01*
X0361900Y0213934D01*
X0362524Y0212428D01*
X0363678Y0211274D01*
X0365184Y0210650D01*
X0366816Y0210650D01*
X0368322Y0211274D01*
X0369476Y0212428D01*
X0370100Y0213934D01*
X0370100Y0215566D01*
X0369476Y0217072D01*
X0368322Y0218226D01*
X0366816Y0218850D01*
X0365184Y0218850D01*
X0364862Y0218716D01*
X0350578Y0233000D01*
X0328216Y0233000D01*
X0327689Y0233527D01*
X0326593Y0233981D01*
X0325559Y0233981D01*
X0334328Y0242750D01*
X0362391Y0242750D01*
X0362524Y0242428D01*
X0363678Y0241274D01*
X0365184Y0240650D01*
X0366816Y0240650D01*
X0368322Y0241274D01*
X0369476Y0242428D01*
X0370100Y0243934D01*
X0370100Y0245566D01*
X0369476Y0247072D01*
X0368322Y0248226D01*
X0366816Y0248850D01*
X0365184Y0248850D01*
X0363678Y0248226D01*
X0362524Y0247072D01*
X0362391Y0246750D01*
X0332672Y0246750D01*
X0318922Y0233000D01*
X0317750Y0231828D01*
X0317750Y0221828D01*
X0312403Y0216481D01*
X0311657Y0216481D01*
X0310561Y0216027D01*
X0310100Y0215566D01*
X0309476Y0217072D01*
X0308322Y0218226D01*
X0306816Y0218850D01*
X0305184Y0218850D01*
X0303678Y0218226D01*
X0302524Y0217072D01*
X0301900Y0215566D01*
X0301900Y0213934D01*
X0302524Y0212428D01*
X0303678Y0211274D01*
X0305184Y0210650D01*
X0306816Y0210650D01*
X0308322Y0211274D01*
X0309470Y0212422D01*
X0309723Y0211811D01*
X0310561Y0210973D01*
X0311657Y0210519D01*
X0312843Y0210519D01*
X0313376Y0210739D02*
X0314161Y0210739D01*
X0314830Y0211938D02*
X0315360Y0211938D01*
X0315231Y0213137D02*
X0316558Y0213137D01*
X0315913Y0214335D02*
X0317757Y0214335D01*
X0318098Y0215534D02*
X0317112Y0215534D01*
X0318310Y0216732D02*
X0318766Y0216732D01*
X0319509Y0217931D02*
X0359991Y0217931D01*
X0358793Y0219129D02*
X0320707Y0219129D01*
X0321750Y0220328D02*
X0357594Y0220328D01*
X0356395Y0221526D02*
X0321750Y0221526D01*
X0321750Y0222725D02*
X0355197Y0222725D01*
X0353998Y0223923D02*
X0321750Y0223923D01*
X0321750Y0225122D02*
X0352800Y0225122D01*
X0351601Y0226320D02*
X0321750Y0226320D01*
X0321750Y0227519D02*
X0350403Y0227519D01*
X0349204Y0228717D02*
X0327933Y0228717D01*
X0324067Y0228717D02*
X0321750Y0228717D01*
X0321750Y0229916D02*
X0323222Y0229916D01*
X0323019Y0231114D02*
X0322693Y0231114D01*
X0319433Y0233511D02*
X0309925Y0233511D01*
X0310100Y0233934D02*
X0309476Y0232428D01*
X0308322Y0231274D01*
X0306816Y0230650D01*
X0305184Y0230650D01*
X0303678Y0231274D01*
X0302524Y0232428D01*
X0301900Y0233934D01*
X0301900Y0235566D01*
X0302524Y0237072D01*
X0303678Y0238226D01*
X0305184Y0238850D01*
X0306816Y0238850D01*
X0308322Y0238226D01*
X0309476Y0237072D01*
X0310100Y0235566D01*
X0310100Y0233934D01*
X0310100Y0234710D02*
X0320631Y0234710D01*
X0321830Y0235908D02*
X0309958Y0235908D01*
X0309442Y0237107D02*
X0323028Y0237107D01*
X0324227Y0238305D02*
X0308131Y0238305D01*
X0306942Y0240702D02*
X0326624Y0240702D01*
X0325425Y0239504D02*
X0283200Y0239504D01*
X0283200Y0240702D02*
X0286797Y0240702D01*
X0287165Y0240550D02*
X0285621Y0241189D01*
X0284439Y0242371D01*
X0283800Y0243915D01*
X0283800Y0245585D01*
X0284439Y0247129D01*
X0285621Y0248311D01*
X0287165Y0248950D01*
X0294835Y0248950D01*
X0296379Y0248311D01*
X0297561Y0247129D01*
X0298200Y0245585D01*
X0298200Y0243915D01*
X0297561Y0242371D01*
X0296379Y0241189D01*
X0294835Y0240550D01*
X0287165Y0240550D01*
X0284910Y0241901D02*
X0283200Y0241901D01*
X0283200Y0243099D02*
X0284138Y0243099D01*
X0283800Y0244298D02*
X0283200Y0244298D01*
X0283200Y0245496D02*
X0283800Y0245496D01*
X0284260Y0246695D02*
X0283200Y0246695D01*
X0283200Y0247893D02*
X0285204Y0247893D01*
X0283200Y0249092D02*
X0298830Y0249092D01*
X0300028Y0247893D02*
X0296796Y0247893D01*
X0297740Y0246695D02*
X0301227Y0246695D01*
X0302034Y0245888D02*
X0301900Y0245566D01*
X0301900Y0243934D01*
X0302524Y0242428D01*
X0303678Y0241274D01*
X0305184Y0240650D01*
X0306816Y0240650D01*
X0308322Y0241274D01*
X0309476Y0242428D01*
X0310100Y0243934D01*
X0310100Y0245566D01*
X0309476Y0247072D01*
X0308322Y0248226D01*
X0306816Y0248850D01*
X0305184Y0248850D01*
X0304862Y0248716D01*
X0298200Y0255378D01*
X0298200Y0255585D01*
X0297561Y0257129D01*
X0296379Y0258311D01*
X0294835Y0258950D01*
X0287165Y0258950D01*
X0285621Y0258311D01*
X0284439Y0257129D01*
X0283800Y0255585D01*
X0283800Y0253915D01*
X0284439Y0252371D01*
X0285621Y0251189D01*
X0287165Y0250550D01*
X0294835Y0250550D01*
X0296379Y0251189D01*
X0296556Y0251366D01*
X0302034Y0245888D01*
X0301900Y0245496D02*
X0298200Y0245496D01*
X0298200Y0244298D02*
X0301900Y0244298D01*
X0302246Y0243099D02*
X0297862Y0243099D01*
X0297090Y0241901D02*
X0303051Y0241901D01*
X0305058Y0240702D02*
X0295203Y0240702D01*
X0302558Y0237107D02*
X0283200Y0237107D01*
X0283200Y0238305D02*
X0303869Y0238305D01*
X0302042Y0235908D02*
X0283200Y0235908D01*
X0283200Y0234710D02*
X0301900Y0234710D01*
X0302075Y0233511D02*
X0283200Y0233511D01*
X0283200Y0232313D02*
X0302639Y0232313D01*
X0304064Y0231114D02*
X0283200Y0231114D01*
X0283200Y0229916D02*
X0317750Y0229916D01*
X0317750Y0231114D02*
X0307936Y0231114D01*
X0309361Y0232313D02*
X0318234Y0232313D01*
X0317750Y0228717D02*
X0307136Y0228717D01*
X0306816Y0228850D02*
X0305184Y0228850D01*
X0303678Y0228226D01*
X0302524Y0227072D01*
X0301900Y0225566D01*
X0301900Y0223934D01*
X0302524Y0222428D01*
X0303678Y0221274D01*
X0305184Y0220650D01*
X0306816Y0220650D01*
X0308322Y0221274D01*
X0309476Y0222428D01*
X0310100Y0223934D01*
X0310100Y0225566D01*
X0309476Y0227072D01*
X0308322Y0228226D01*
X0306816Y0228850D01*
X0304864Y0228717D02*
X0283200Y0228717D01*
X0283200Y0227519D02*
X0302970Y0227519D01*
X0302213Y0226320D02*
X0283200Y0226320D01*
X0283200Y0225122D02*
X0301900Y0225122D01*
X0301905Y0223923D02*
X0283200Y0223923D01*
X0283200Y0222725D02*
X0302401Y0222725D01*
X0303426Y0221526D02*
X0283200Y0221526D01*
X0283200Y0220328D02*
X0316249Y0220328D01*
X0317448Y0221526D02*
X0308574Y0221526D01*
X0309599Y0222725D02*
X0317750Y0222725D01*
X0317750Y0223923D02*
X0310095Y0223923D01*
X0310100Y0225122D02*
X0317750Y0225122D01*
X0317750Y0226320D02*
X0309787Y0226320D01*
X0309030Y0227519D02*
X0317750Y0227519D01*
X0315051Y0219129D02*
X0283200Y0219129D01*
X0283200Y0217931D02*
X0303382Y0217931D01*
X0302383Y0216732D02*
X0283200Y0216732D01*
X0283200Y0215534D02*
X0301900Y0215534D01*
X0301900Y0214335D02*
X0283200Y0214335D01*
X0283200Y0213137D02*
X0302231Y0213137D01*
X0303014Y0211938D02*
X0283200Y0211938D01*
X0259774Y0197556D02*
X0239490Y0197556D01*
X0240564Y0196481D02*
X0233981Y0203064D01*
X0233981Y0204093D01*
X0233527Y0205189D01*
X0232689Y0206027D01*
X0231593Y0206481D01*
X0230407Y0206481D01*
X0229311Y0206027D01*
X0228473Y0205189D01*
X0228019Y0204093D01*
X0228019Y0202907D01*
X0228473Y0201811D01*
X0229311Y0200973D01*
X0230407Y0200519D01*
X0231436Y0200519D01*
X0238019Y0193936D01*
X0238019Y0192907D01*
X0238473Y0191811D01*
X0239311Y0190973D01*
X0240407Y0190519D01*
X0241593Y0190519D01*
X0242689Y0190973D01*
X0243527Y0191811D01*
X0243981Y0192907D01*
X0243981Y0194093D01*
X0243527Y0195189D01*
X0242689Y0196027D01*
X0241593Y0196481D01*
X0240564Y0196481D01*
X0241892Y0196357D02*
X0260397Y0196357D01*
X0260893Y0195403D02*
X0265996Y0182351D01*
X0269683Y0168830D01*
X0271912Y0154994D01*
X0272658Y0141000D01*
X0271912Y0127006D01*
X0269683Y0113170D01*
X0265996Y0099649D01*
X0260893Y0086597D01*
X0254431Y0074162D01*
X0246684Y0062483D01*
X0237739Y0051695D01*
X0227698Y0041918D01*
X0216676Y0033264D01*
X0204795Y0025830D01*
X0192192Y0019702D01*
X0179009Y0014947D01*
X0165395Y0011621D01*
X0151505Y0009761D01*
X0137495Y0009388D01*
X0123526Y0010507D01*
X0109754Y0013103D01*
X0096336Y0017149D01*
X0083425Y0022598D01*
X0071166Y0029389D01*
X0059698Y0037444D01*
X0049151Y0046673D01*
X0039645Y0056970D01*
X0031287Y0068219D01*
X0024173Y0080293D01*
X0018382Y0093055D01*
X0013980Y0106360D01*
X0011018Y0120058D01*
X0009528Y0133993D01*
X0009528Y0148007D01*
X0011018Y0161942D01*
X0013980Y0175640D01*
X0018382Y0188945D01*
X0024173Y0201707D01*
X0031287Y0213781D01*
X0035700Y0219720D01*
X0035700Y0207943D01*
X0036126Y0206914D01*
X0036914Y0206126D01*
X0050792Y0192249D01*
X0050973Y0191811D01*
X0051811Y0190973D01*
X0052907Y0190519D01*
X0054093Y0190519D01*
X0055189Y0190973D01*
X0056027Y0191811D01*
X0056208Y0192249D01*
X0083500Y0219540D01*
X0094540Y0208500D01*
X0082249Y0196208D01*
X0081811Y0196027D01*
X0080973Y0195189D01*
X0080792Y0194751D01*
X0052249Y0166208D01*
X0051811Y0166027D01*
X0050973Y0165189D01*
X0050519Y0164093D01*
X0050519Y0162907D01*
X0050973Y0161811D01*
X0051811Y0160973D01*
X0052907Y0160519D01*
X0054093Y0160519D01*
X0055189Y0160973D01*
X0056027Y0161811D01*
X0056208Y0162249D01*
X0084751Y0190792D01*
X0085189Y0190973D01*
X0086027Y0191811D01*
X0086208Y0192249D01*
X0098500Y0204540D01*
X0109540Y0193500D01*
X0082249Y0166208D01*
X0081811Y0166027D01*
X0080973Y0165189D01*
X0080792Y0164751D01*
X0052249Y0136208D01*
X0051811Y0136027D01*
X0050973Y0135189D01*
X0050519Y0134093D01*
X0050519Y0132907D01*
X0050973Y0131811D01*
X0051811Y0130973D01*
X0052907Y0130519D01*
X0054093Y0130519D01*
X0055189Y0130973D01*
X0056027Y0131811D01*
X0056208Y0132249D01*
X0084751Y0160792D01*
X0085189Y0160973D01*
X0086027Y0161811D01*
X0086208Y0162249D01*
X0113500Y0189540D01*
X0124540Y0178500D01*
X0112249Y0166208D01*
X0111811Y0166027D01*
X0110973Y0165189D01*
X0110792Y0164751D01*
X0082249Y0136208D01*
X0081811Y0136027D01*
X0080973Y0135189D01*
X0080792Y0134751D01*
X0052249Y0106208D01*
X0051811Y0106027D01*
X0050973Y0105189D01*
X0050519Y0104093D01*
X0050519Y0102907D01*
X0050973Y0101811D01*
X0051811Y0100973D01*
X0052907Y0100519D01*
X0054093Y0100519D01*
X0055189Y0100973D01*
X0056027Y0101811D01*
X0056208Y0102249D01*
X0084751Y0130792D01*
X0085189Y0130973D01*
X0086027Y0131811D01*
X0086208Y0132249D01*
X0114751Y0160792D01*
X0115189Y0160973D01*
X0116027Y0161811D01*
X0116208Y0162249D01*
X0128500Y0174540D01*
X0139540Y0163500D01*
X0112249Y0136208D01*
X0111811Y0136027D01*
X0110973Y0135189D01*
X0110792Y0134751D01*
X0082249Y0106208D01*
X0081811Y0106027D01*
X0080973Y0105189D01*
X0080519Y0104093D01*
X0080519Y0102907D01*
X0080973Y0101811D01*
X0081811Y0100973D01*
X0082907Y0100519D01*
X0084093Y0100519D01*
X0085189Y0100973D01*
X0086027Y0101811D01*
X0086208Y0102249D01*
X0114751Y0130792D01*
X0115189Y0130973D01*
X0116027Y0131811D01*
X0116208Y0132249D01*
X0143500Y0159540D01*
X0154540Y0148500D01*
X0142249Y0136208D01*
X0141811Y0136027D01*
X0140973Y0135189D01*
X0140792Y0134751D01*
X0112249Y0106208D01*
X0111811Y0106027D01*
X0110973Y0105189D01*
X0110792Y0104751D01*
X0082249Y0076208D01*
X0081811Y0076027D01*
X0080973Y0075189D01*
X0080519Y0074093D01*
X0080519Y0072907D01*
X0080973Y0071811D01*
X0081811Y0070973D01*
X0082907Y0070519D01*
X0084093Y0070519D01*
X0085189Y0070973D01*
X0086027Y0071811D01*
X0086208Y0072249D01*
X0114751Y0100792D01*
X0115189Y0100973D01*
X0116027Y0101811D01*
X0116208Y0102249D01*
X0144751Y0130792D01*
X0145189Y0130973D01*
X0146027Y0131811D01*
X0146208Y0132249D01*
X0158500Y0144540D01*
X0169540Y0133500D01*
X0142249Y0106208D01*
X0141811Y0106027D01*
X0140973Y0105189D01*
X0140792Y0104751D01*
X0112249Y0076208D01*
X0111811Y0076027D01*
X0110973Y0075189D01*
X0110519Y0074093D01*
X0110519Y0072907D01*
X0110973Y0071811D01*
X0111811Y0070973D01*
X0112907Y0070519D01*
X0114093Y0070519D01*
X0115189Y0070973D01*
X0116027Y0071811D01*
X0116208Y0072249D01*
X0144751Y0100792D01*
X0145189Y0100973D01*
X0146027Y0101811D01*
X0146208Y0102249D01*
X0173500Y0129540D01*
X0184540Y0118500D01*
X0172249Y0106208D01*
X0171811Y0106027D01*
X0170973Y0105189D01*
X0170792Y0104751D01*
X0142249Y0076208D01*
X0141811Y0076027D01*
X0140973Y0075189D01*
X0140792Y0074751D01*
X0112249Y0046208D01*
X0111811Y0046027D01*
X0110973Y0045189D01*
X0110519Y0044093D01*
X0110519Y0042907D01*
X0110700Y0042470D01*
X0110700Y0027160D01*
X0107249Y0023708D01*
X0106811Y0023527D01*
X0105973Y0022689D01*
X0105519Y0021593D01*
X0105519Y0020407D01*
X0105973Y0019311D01*
X0106811Y0018473D01*
X0107907Y0018019D01*
X0109093Y0018019D01*
X0110189Y0018473D01*
X0111027Y0019311D01*
X0111208Y0019749D01*
X0115874Y0024414D01*
X0116300Y0025443D01*
X0116300Y0042340D01*
X0144751Y0070792D01*
X0145189Y0070973D01*
X0146027Y0071811D01*
X0146208Y0072249D01*
X0174751Y0100792D01*
X0175189Y0100973D01*
X0176027Y0101811D01*
X0176208Y0102249D01*
X0188500Y0114540D01*
X0199540Y0103500D01*
X0172249Y0076208D01*
X0171811Y0076027D01*
X0170973Y0075189D01*
X0170792Y0074751D01*
X0142249Y0046208D01*
X0141811Y0046027D01*
X0140973Y0045189D01*
X0140519Y0044093D01*
X0140519Y0042907D01*
X0140973Y0041811D01*
X0141811Y0040973D01*
X0142907Y0040519D01*
X0144093Y0040519D01*
X0145189Y0040973D01*
X0146027Y0041811D01*
X0146208Y0042249D01*
X0174751Y0070792D01*
X0175189Y0070973D01*
X0176027Y0071811D01*
X0176208Y0072249D01*
X0203500Y0099540D01*
X0214540Y0088500D01*
X0202249Y0076208D01*
X0201811Y0076027D01*
X0200973Y0075189D01*
X0200792Y0074751D01*
X0172249Y0046208D01*
X0171811Y0046027D01*
X0170973Y0045189D01*
X0170519Y0044093D01*
X0170519Y0042907D01*
X0170973Y0041811D01*
X0171811Y0040973D01*
X0172907Y0040519D01*
X0174093Y0040519D01*
X0175189Y0040973D01*
X0176027Y0041811D01*
X0176208Y0042249D01*
X0204751Y0070792D01*
X0205189Y0070973D01*
X0206027Y0071811D01*
X0206208Y0072249D01*
X0218500Y0084540D01*
X0229540Y0073500D01*
X0202249Y0046208D01*
X0201811Y0046027D01*
X0200973Y0045189D01*
X0200519Y0044093D01*
X0200519Y0042907D01*
X0200973Y0041811D01*
X0201811Y0040973D01*
X0202907Y0040519D01*
X0204093Y0040519D01*
X0205189Y0040973D01*
X0206027Y0041811D01*
X0206208Y0042249D01*
X0234751Y0070792D01*
X0235189Y0070973D01*
X0236027Y0071811D01*
X0236481Y0072907D01*
X0236481Y0074093D01*
X0236027Y0075189D01*
X0235189Y0076027D01*
X0234751Y0076208D01*
X0222460Y0088500D01*
X0234751Y0100792D01*
X0235189Y0100973D01*
X0236027Y0101811D01*
X0236208Y0102249D01*
X0258500Y0124540D01*
X0260792Y0122249D01*
X0260973Y0121811D01*
X0261811Y0120973D01*
X0262907Y0120519D01*
X0264093Y0120519D01*
X0265189Y0120973D01*
X0266027Y0121811D01*
X0266481Y0122907D01*
X0266481Y0124093D01*
X0266027Y0125189D01*
X0265189Y0126027D01*
X0264751Y0126208D01*
X0262460Y0128500D01*
X0264751Y0130792D01*
X0265189Y0130973D01*
X0266027Y0131811D01*
X0266481Y0132907D01*
X0266481Y0134093D01*
X0266027Y0135189D01*
X0265189Y0136027D01*
X0264093Y0136481D01*
X0262907Y0136481D01*
X0261811Y0136027D01*
X0260973Y0135189D01*
X0260792Y0134751D01*
X0256126Y0130086D01*
X0232249Y0106208D01*
X0231811Y0106027D01*
X0230973Y0105189D01*
X0230792Y0104751D01*
X0218500Y0092460D01*
X0207460Y0103500D01*
X0234751Y0130792D01*
X0235189Y0130973D01*
X0236027Y0131811D01*
X0236208Y0132249D01*
X0264751Y0160792D01*
X0265189Y0160973D01*
X0266027Y0161811D01*
X0266481Y0162907D01*
X0266481Y0164093D01*
X0266027Y0165189D01*
X0265189Y0166027D01*
X0264093Y0166481D01*
X0262907Y0166481D01*
X0261811Y0166027D01*
X0260973Y0165189D01*
X0260792Y0164751D01*
X0232249Y0136208D01*
X0231811Y0136027D01*
X0230973Y0135189D01*
X0230792Y0134751D01*
X0203500Y0107460D01*
X0192460Y0118500D01*
X0204751Y0130792D01*
X0205189Y0130973D01*
X0206027Y0131811D01*
X0206208Y0132249D01*
X0234751Y0160792D01*
X0235189Y0160973D01*
X0236027Y0161811D01*
X0236208Y0162249D01*
X0252251Y0178292D01*
X0252689Y0178473D01*
X0253527Y0179311D01*
X0253981Y0180407D01*
X0253981Y0181593D01*
X0253527Y0182689D01*
X0252689Y0183527D01*
X0251593Y0183981D01*
X0250407Y0183981D01*
X0249311Y0183527D01*
X0248473Y0182689D01*
X0248292Y0182251D01*
X0232249Y0166208D01*
X0231811Y0166027D01*
X0230973Y0165189D01*
X0230792Y0164751D01*
X0202249Y0136208D01*
X0201811Y0136027D01*
X0200973Y0135189D01*
X0200792Y0134751D01*
X0188500Y0122460D01*
X0177460Y0133500D01*
X0204751Y0160792D01*
X0205189Y0160973D01*
X0206027Y0161811D01*
X0206208Y0162249D01*
X0234751Y0190792D01*
X0235189Y0190973D01*
X0236027Y0191811D01*
X0236481Y0192907D01*
X0236481Y0194093D01*
X0236027Y0195189D01*
X0235189Y0196027D01*
X0234093Y0196481D01*
X0232907Y0196481D01*
X0231811Y0196027D01*
X0230973Y0195189D01*
X0230792Y0194751D01*
X0202249Y0166208D01*
X0201811Y0166027D01*
X0200973Y0165189D01*
X0200792Y0164751D01*
X0173500Y0137460D01*
X0162460Y0148500D01*
X0174751Y0160792D01*
X0175189Y0160973D01*
X0176027Y0161811D01*
X0176208Y0162249D01*
X0204751Y0190792D01*
X0205189Y0190973D01*
X0206027Y0191811D01*
X0206208Y0192249D01*
X0211001Y0197042D01*
X0211439Y0197223D01*
X0212277Y0198061D01*
X0212731Y0199157D01*
X0212731Y0200343D01*
X0212277Y0201439D01*
X0211439Y0202277D01*
X0210343Y0202731D01*
X0209157Y0202731D01*
X0208061Y0202277D01*
X0207223Y0201439D01*
X0207042Y0201001D01*
X0202249Y0196208D01*
X0201811Y0196027D01*
X0200973Y0195189D01*
X0200792Y0194751D01*
X0172249Y0166208D01*
X0171811Y0166027D01*
X0170973Y0165189D01*
X0170792Y0164751D01*
X0158500Y0152460D01*
X0147460Y0163500D01*
X0174751Y0190792D01*
X0175189Y0190973D01*
X0176027Y0191811D01*
X0176208Y0192249D01*
X0204751Y0220792D01*
X0205189Y0220973D01*
X0206027Y0221811D01*
X0206481Y0222907D01*
X0206481Y0224093D01*
X0206027Y0225189D01*
X0205189Y0226027D01*
X0204093Y0226481D01*
X0202907Y0226481D01*
X0201811Y0226027D01*
X0200973Y0225189D01*
X0200792Y0224751D01*
X0172249Y0196208D01*
X0171811Y0196027D01*
X0170973Y0195189D01*
X0170792Y0194751D01*
X0143500Y0167460D01*
X0132460Y0178500D01*
X0144751Y0190792D01*
X0145189Y0190973D01*
X0146027Y0191811D01*
X0146208Y0192249D01*
X0174660Y0220700D01*
X0189057Y0220700D01*
X0190086Y0221126D01*
X0203501Y0234542D01*
X0203939Y0234723D01*
X0204777Y0235561D01*
X0205231Y0236657D01*
X0205231Y0237843D01*
X0204777Y0238939D01*
X0203939Y0239777D01*
X0202843Y0240231D01*
X0201657Y0240231D01*
X0200561Y0239777D01*
X0199723Y0238939D01*
X0199542Y0238501D01*
X0187340Y0226300D01*
X0183800Y0226300D01*
X0183800Y0227470D01*
X0183981Y0227907D01*
X0183981Y0229093D01*
X0183527Y0230189D01*
X0182689Y0231027D01*
X0181593Y0231481D01*
X0180407Y0231481D01*
X0179311Y0231027D01*
X0178473Y0230189D01*
X0178019Y0229093D01*
X0178019Y0227907D01*
X0178200Y0227470D01*
X0178200Y0226300D01*
X0174530Y0226300D01*
X0174093Y0226481D01*
X0172907Y0226481D01*
X0171811Y0226027D01*
X0170973Y0225189D01*
X0170792Y0224751D01*
X0142249Y0196208D01*
X0141811Y0196027D01*
X0140973Y0195189D01*
X0140792Y0194751D01*
X0128500Y0182460D01*
X0117460Y0193500D01*
X0144751Y0220792D01*
X0145189Y0220973D01*
X0146027Y0221811D01*
X0146208Y0222249D01*
X0174751Y0250792D01*
X0175189Y0250973D01*
X0176027Y0251811D01*
X0176481Y0252907D01*
X0176481Y0254093D01*
X0176027Y0255189D01*
X0175189Y0256027D01*
X0174093Y0256481D01*
X0172907Y0256481D01*
X0171811Y0256027D01*
X0170973Y0255189D01*
X0170792Y0254751D01*
X0142249Y0226208D01*
X0141811Y0226027D01*
X0140973Y0225189D01*
X0140792Y0224751D01*
X0113500Y0197460D01*
X0102460Y0208500D01*
X0114751Y0220792D01*
X0115189Y0220973D01*
X0116027Y0221811D01*
X0116208Y0222249D01*
X0144751Y0250792D01*
X0145189Y0250973D01*
X0146027Y0251811D01*
X0146481Y0252907D01*
X0146481Y0254093D01*
X0146027Y0255189D01*
X0145189Y0256027D01*
X0144093Y0256481D01*
X0142907Y0256481D01*
X0141811Y0256027D01*
X0140973Y0255189D01*
X0140792Y0254751D01*
X0112249Y0226208D01*
X0111811Y0226027D01*
X0110973Y0225189D01*
X0110792Y0224751D01*
X0098500Y0212460D01*
X0087460Y0223500D01*
X0114751Y0250792D01*
X0115189Y0250973D01*
X0116027Y0251811D01*
X0116481Y0252907D01*
X0116481Y0254093D01*
X0116027Y0255189D01*
X0115189Y0256027D01*
X0114093Y0256481D01*
X0112907Y0256481D01*
X0111811Y0256027D01*
X0110973Y0255189D01*
X0110792Y0254751D01*
X0082249Y0226208D01*
X0081811Y0226027D01*
X0080973Y0225189D01*
X0080792Y0224751D01*
X0053500Y0197460D01*
X0041300Y0209660D01*
X0041300Y0218590D01*
X0043208Y0220498D01*
X0043208Y0219633D01*
X0043954Y0217832D01*
X0045332Y0216454D01*
X0047133Y0215708D01*
X0049083Y0215708D01*
X0050883Y0216454D01*
X0052262Y0217832D01*
X0053008Y0219633D01*
X0053008Y0221583D01*
X0052262Y0223383D01*
X0050883Y0224762D01*
X0049083Y0225508D01*
X0048218Y0225508D01*
X0048410Y0225700D01*
X0050695Y0225700D01*
X0051025Y0224903D01*
X0052403Y0223525D01*
X0054204Y0222779D01*
X0056154Y0222779D01*
X0057955Y0223525D01*
X0059333Y0224903D01*
X0060079Y0226704D01*
X0060079Y0228654D01*
X0059414Y0230260D01*
X0059472Y0230217D01*
X0060216Y0229838D01*
X0061009Y0229580D01*
X0061833Y0229450D01*
X0062667Y0229450D01*
X0063491Y0229580D01*
X0064284Y0229838D01*
X0065028Y0230217D01*
X0065703Y0230707D01*
X0065715Y0230719D01*
X0062250Y0234184D01*
X0062816Y0234750D01*
X0062250Y0235316D01*
X0061684Y0234750D01*
X0058219Y0238215D01*
X0058207Y0238203D01*
X0057717Y0237528D01*
X0057338Y0236784D01*
X0057080Y0235991D01*
X0056950Y0235167D01*
X0056950Y0234333D01*
X0057080Y0233509D01*
X0057338Y0232716D01*
X0057717Y0231972D01*
X0057760Y0231914D01*
X0056154Y0232579D01*
X0054204Y0232579D01*
X0052403Y0231833D01*
X0051870Y0231300D01*
X0046693Y0231300D01*
X0045664Y0230874D01*
X0039138Y0224348D01*
X0039645Y0225030D01*
X0049151Y0235327D01*
X0059698Y0244556D01*
X0071166Y0252611D01*
X0083425Y0259402D01*
X0096336Y0264851D01*
X0109754Y0268897D01*
X0123526Y0271493D01*
X0137495Y0272612D01*
X0151504Y0272239D01*
X0165395Y0270378D01*
X0179009Y0267053D01*
X0192192Y0262298D01*
X0204795Y0256170D01*
X0216676Y0248736D01*
X0227698Y0240082D01*
X0237739Y0230305D01*
X0246684Y0219517D01*
X0250835Y0213258D01*
X0250534Y0213412D01*
X0249741Y0213669D01*
X0248917Y0213800D01*
X0248083Y0213800D01*
X0247259Y0213669D01*
X0246466Y0213412D01*
X0245722Y0213033D01*
X0245664Y0212990D01*
X0246329Y0214596D01*
X0246329Y0216546D01*
X0245583Y0218347D01*
X0244205Y0219725D01*
X0242404Y0220471D01*
X0240454Y0220471D01*
X0238653Y0219725D01*
X0237275Y0218347D01*
X0236529Y0216546D01*
X0236529Y0214596D01*
X0237275Y0212795D01*
X0238653Y0211417D01*
X0240454Y0210671D01*
X0242404Y0210671D01*
X0244010Y0211336D01*
X0243967Y0211278D01*
X0243588Y0210534D01*
X0243330Y0209741D01*
X0243200Y0208917D01*
X0243200Y0208083D01*
X0243330Y0207259D01*
X0243588Y0206466D01*
X0243967Y0205722D01*
X0244457Y0205047D01*
X0244469Y0205035D01*
X0247934Y0208500D01*
X0248500Y0207934D01*
X0249066Y0208500D01*
X0252531Y0205035D01*
X0252543Y0205047D01*
X0253033Y0205722D01*
X0253412Y0206466D01*
X0253669Y0207259D01*
X0253800Y0208083D01*
X0253800Y0208789D01*
X0254431Y0207838D01*
X0260893Y0195403D01*
X0260988Y0195159D02*
X0243540Y0195159D01*
X0243981Y0193960D02*
X0261457Y0193960D01*
X0261925Y0192762D02*
X0243921Y0192762D01*
X0243279Y0191563D02*
X0262394Y0191563D01*
X0262863Y0190365D02*
X0234325Y0190365D01*
X0233126Y0189166D02*
X0263331Y0189166D01*
X0263800Y0187968D02*
X0231928Y0187968D01*
X0230729Y0186769D02*
X0264268Y0186769D01*
X0264737Y0185571D02*
X0229531Y0185571D01*
X0228332Y0184372D02*
X0265206Y0184372D01*
X0265674Y0183174D02*
X0253042Y0183174D01*
X0253823Y0181975D02*
X0266098Y0181975D01*
X0266425Y0180777D02*
X0253981Y0180777D01*
X0253638Y0179578D02*
X0266752Y0179578D01*
X0267079Y0178380D02*
X0252464Y0178380D01*
X0251141Y0177181D02*
X0267406Y0177181D01*
X0267733Y0175983D02*
X0249942Y0175983D01*
X0248744Y0174784D02*
X0268060Y0174784D01*
X0268386Y0173586D02*
X0247545Y0173586D01*
X0246347Y0172387D02*
X0268713Y0172387D01*
X0269040Y0171189D02*
X0245148Y0171189D01*
X0243950Y0169990D02*
X0269367Y0169990D01*
X0269689Y0168792D02*
X0242751Y0168792D01*
X0241553Y0167593D02*
X0269883Y0167593D01*
X0270076Y0166395D02*
X0264302Y0166395D01*
X0262698Y0166395D02*
X0240354Y0166395D01*
X0239156Y0165196D02*
X0260980Y0165196D01*
X0260038Y0163998D02*
X0237957Y0163998D01*
X0236759Y0162799D02*
X0258839Y0162799D01*
X0257641Y0161601D02*
X0235816Y0161601D01*
X0234362Y0160402D02*
X0256442Y0160402D01*
X0255244Y0159203D02*
X0233163Y0159203D01*
X0231965Y0158005D02*
X0254045Y0158005D01*
X0252847Y0156806D02*
X0230766Y0156806D01*
X0229568Y0155608D02*
X0251648Y0155608D01*
X0250450Y0154409D02*
X0228369Y0154409D01*
X0227171Y0153211D02*
X0249251Y0153211D01*
X0248053Y0152012D02*
X0225972Y0152012D01*
X0224774Y0150814D02*
X0246854Y0150814D01*
X0245656Y0149615D02*
X0223575Y0149615D01*
X0222377Y0148417D02*
X0244457Y0148417D01*
X0243259Y0147218D02*
X0221178Y0147218D01*
X0219980Y0146020D02*
X0242060Y0146020D01*
X0240862Y0144821D02*
X0218781Y0144821D01*
X0217583Y0143623D02*
X0239663Y0143623D01*
X0238465Y0142424D02*
X0216384Y0142424D01*
X0215186Y0141226D02*
X0237266Y0141226D01*
X0236068Y0140027D02*
X0213987Y0140027D01*
X0212789Y0138829D02*
X0234869Y0138829D01*
X0233671Y0137630D02*
X0211590Y0137630D01*
X0210392Y0136432D02*
X0232472Y0136432D01*
X0231017Y0135233D02*
X0209193Y0135233D01*
X0207995Y0134035D02*
X0230075Y0134035D01*
X0228876Y0132836D02*
X0206796Y0132836D01*
X0205854Y0131638D02*
X0227678Y0131638D01*
X0226479Y0130439D02*
X0204399Y0130439D01*
X0203201Y0129241D02*
X0225281Y0129241D01*
X0224082Y0128042D02*
X0202002Y0128042D01*
X0200803Y0126844D02*
X0222884Y0126844D01*
X0221685Y0125645D02*
X0199605Y0125645D01*
X0198406Y0124447D02*
X0220487Y0124447D01*
X0219288Y0123248D02*
X0197208Y0123248D01*
X0196009Y0122050D02*
X0218090Y0122050D01*
X0216891Y0120851D02*
X0194811Y0120851D01*
X0196000Y0121000D02*
X0196000Y0118500D01*
X0193704Y0117256D02*
X0213296Y0117256D01*
X0214494Y0118454D02*
X0192506Y0118454D01*
X0193612Y0119653D02*
X0215693Y0119653D01*
X0212097Y0116057D02*
X0194903Y0116057D01*
X0196101Y0114859D02*
X0210899Y0114859D01*
X0209700Y0113660D02*
X0197300Y0113660D01*
X0198498Y0112462D02*
X0208502Y0112462D01*
X0207303Y0111263D02*
X0199697Y0111263D01*
X0200895Y0110065D02*
X0206105Y0110065D01*
X0204906Y0108866D02*
X0202094Y0108866D01*
X0203292Y0107668D02*
X0203708Y0107668D01*
X0203500Y0103500D02*
X0203500Y0103500D01*
X0203238Y0099278D02*
X0203762Y0099278D01*
X0204961Y0098079D02*
X0202039Y0098079D01*
X0200841Y0096881D02*
X0206159Y0096881D01*
X0207358Y0095682D02*
X0199642Y0095682D01*
X0198444Y0094484D02*
X0208556Y0094484D01*
X0209755Y0093285D02*
X0197245Y0093285D01*
X0196047Y0092087D02*
X0210953Y0092087D01*
X0212152Y0090888D02*
X0194848Y0090888D01*
X0196000Y0091000D02*
X0196000Y0088500D01*
X0193650Y0089690D02*
X0213350Y0089690D01*
X0214532Y0088491D02*
X0192451Y0088491D01*
X0191253Y0087293D02*
X0213333Y0087293D01*
X0212135Y0086094D02*
X0190054Y0086094D01*
X0188856Y0084896D02*
X0210936Y0084896D01*
X0209737Y0083697D02*
X0187657Y0083697D01*
X0186459Y0082499D02*
X0208539Y0082499D01*
X0207340Y0081300D02*
X0185260Y0081300D01*
X0184062Y0080102D02*
X0206142Y0080102D01*
X0204943Y0078903D02*
X0182863Y0078903D01*
X0181665Y0077705D02*
X0203745Y0077705D01*
X0202546Y0076506D02*
X0180466Y0076506D01*
X0179267Y0075308D02*
X0201092Y0075308D01*
X0200149Y0074109D02*
X0178069Y0074109D01*
X0176870Y0072911D02*
X0198951Y0072911D01*
X0197752Y0071712D02*
X0175928Y0071712D01*
X0174473Y0070514D02*
X0196554Y0070514D01*
X0195355Y0069315D02*
X0173275Y0069315D01*
X0172076Y0068117D02*
X0194157Y0068117D01*
X0192958Y0066918D02*
X0170878Y0066918D01*
X0169679Y0065720D02*
X0191760Y0065720D01*
X0190561Y0064521D02*
X0168481Y0064521D01*
X0167282Y0063323D02*
X0189363Y0063323D01*
X0188164Y0062124D02*
X0166084Y0062124D01*
X0164885Y0060926D02*
X0186966Y0060926D01*
X0185767Y0059727D02*
X0163687Y0059727D01*
X0162488Y0058529D02*
X0184569Y0058529D01*
X0183370Y0057330D02*
X0161290Y0057330D01*
X0160091Y0056132D02*
X0182172Y0056132D01*
X0180973Y0054933D02*
X0158893Y0054933D01*
X0157694Y0053734D02*
X0179775Y0053734D01*
X0178576Y0052536D02*
X0156496Y0052536D01*
X0155297Y0051337D02*
X0177378Y0051337D01*
X0176179Y0050139D02*
X0154099Y0050139D01*
X0152900Y0048940D02*
X0174981Y0048940D01*
X0173782Y0047742D02*
X0151702Y0047742D01*
X0150503Y0046543D02*
X0172584Y0046543D01*
X0171129Y0045345D02*
X0149305Y0045345D01*
X0148106Y0044146D02*
X0170541Y0044146D01*
X0170519Y0042948D02*
X0146908Y0042948D01*
X0145965Y0041749D02*
X0171035Y0041749D01*
X0172830Y0040551D02*
X0144170Y0040551D01*
X0142830Y0040551D02*
X0116300Y0040551D01*
X0116300Y0041749D02*
X0141035Y0041749D01*
X0140519Y0042948D02*
X0116908Y0042948D01*
X0118106Y0044146D02*
X0140541Y0044146D01*
X0141129Y0045345D02*
X0119305Y0045345D01*
X0120503Y0046543D02*
X0142584Y0046543D01*
X0143782Y0047742D02*
X0121702Y0047742D01*
X0122900Y0048940D02*
X0144981Y0048940D01*
X0146179Y0050139D02*
X0124099Y0050139D01*
X0125297Y0051337D02*
X0147378Y0051337D01*
X0148576Y0052536D02*
X0126496Y0052536D01*
X0127694Y0053734D02*
X0149775Y0053734D01*
X0150973Y0054933D02*
X0128893Y0054933D01*
X0130091Y0056132D02*
X0152172Y0056132D01*
X0153370Y0057330D02*
X0131290Y0057330D01*
X0132488Y0058529D02*
X0154569Y0058529D01*
X0155767Y0059727D02*
X0133687Y0059727D01*
X0134885Y0060926D02*
X0156966Y0060926D01*
X0158164Y0062124D02*
X0136084Y0062124D01*
X0136000Y0061000D02*
X0136000Y0058500D01*
X0137282Y0063323D02*
X0159363Y0063323D01*
X0160561Y0064521D02*
X0138481Y0064521D01*
X0139679Y0065720D02*
X0161760Y0065720D01*
X0162958Y0066918D02*
X0140878Y0066918D01*
X0142076Y0068117D02*
X0164157Y0068117D01*
X0165355Y0069315D02*
X0143275Y0069315D01*
X0144473Y0070514D02*
X0166554Y0070514D01*
X0167752Y0071712D02*
X0145928Y0071712D01*
X0146870Y0072911D02*
X0168951Y0072911D01*
X0170149Y0074109D02*
X0148069Y0074109D01*
X0149267Y0075308D02*
X0171092Y0075308D01*
X0172546Y0076506D02*
X0150466Y0076506D01*
X0151665Y0077705D02*
X0173745Y0077705D01*
X0174943Y0078903D02*
X0152863Y0078903D01*
X0154062Y0080102D02*
X0176142Y0080102D01*
X0177340Y0081300D02*
X0155260Y0081300D01*
X0156459Y0082499D02*
X0178539Y0082499D01*
X0179737Y0083697D02*
X0157657Y0083697D01*
X0158856Y0084896D02*
X0180936Y0084896D01*
X0182135Y0086094D02*
X0160054Y0086094D01*
X0161253Y0087293D02*
X0183333Y0087293D01*
X0184532Y0088491D02*
X0162451Y0088491D01*
X0163650Y0089690D02*
X0185730Y0089690D01*
X0186929Y0090888D02*
X0164848Y0090888D01*
X0166047Y0092087D02*
X0188127Y0092087D01*
X0189326Y0093285D02*
X0167245Y0093285D01*
X0168444Y0094484D02*
X0190524Y0094484D01*
X0191723Y0095682D02*
X0169642Y0095682D01*
X0170841Y0096881D02*
X0192921Y0096881D01*
X0194120Y0098079D02*
X0172039Y0098079D01*
X0173238Y0099278D02*
X0195318Y0099278D01*
X0196517Y0100476D02*
X0174436Y0100476D01*
X0175891Y0101675D02*
X0197715Y0101675D01*
X0198914Y0102873D02*
X0176833Y0102873D01*
X0178032Y0104072D02*
X0198968Y0104072D01*
X0197770Y0105270D02*
X0179230Y0105270D01*
X0180429Y0106469D02*
X0196571Y0106469D01*
X0195373Y0107668D02*
X0181627Y0107668D01*
X0182826Y0108866D02*
X0194174Y0108866D01*
X0192976Y0110065D02*
X0184024Y0110065D01*
X0185223Y0111263D02*
X0191777Y0111263D01*
X0190579Y0112462D02*
X0186421Y0112462D01*
X0187620Y0113660D02*
X0189380Y0113660D01*
X0184494Y0118454D02*
X0162414Y0118454D01*
X0161215Y0117256D02*
X0183296Y0117256D01*
X0182097Y0116057D02*
X0160017Y0116057D01*
X0158818Y0114859D02*
X0180899Y0114859D01*
X0179700Y0113660D02*
X0157620Y0113660D01*
X0156421Y0112462D02*
X0178502Y0112462D01*
X0177303Y0111263D02*
X0155223Y0111263D01*
X0154024Y0110065D02*
X0176105Y0110065D01*
X0174906Y0108866D02*
X0152826Y0108866D01*
X0151627Y0107668D02*
X0173708Y0107668D01*
X0172509Y0106469D02*
X0150429Y0106469D01*
X0149230Y0105270D02*
X0171055Y0105270D01*
X0170112Y0104072D02*
X0148032Y0104072D01*
X0146833Y0102873D02*
X0168914Y0102873D01*
X0167715Y0101675D02*
X0145891Y0101675D01*
X0144436Y0100476D02*
X0166517Y0100476D01*
X0165318Y0099278D02*
X0143238Y0099278D01*
X0142039Y0098079D02*
X0164120Y0098079D01*
X0162921Y0096881D02*
X0140841Y0096881D01*
X0139642Y0095682D02*
X0161723Y0095682D01*
X0160524Y0094484D02*
X0138444Y0094484D01*
X0137245Y0093285D02*
X0159326Y0093285D01*
X0158127Y0092087D02*
X0136047Y0092087D01*
X0136000Y0091000D02*
X0136000Y0088500D01*
X0133650Y0089690D02*
X0155730Y0089690D01*
X0156929Y0090888D02*
X0134848Y0090888D01*
X0132451Y0088491D02*
X0154532Y0088491D01*
X0153333Y0087293D02*
X0131253Y0087293D01*
X0130054Y0086094D02*
X0152135Y0086094D01*
X0150936Y0084896D02*
X0128856Y0084896D01*
X0127657Y0083697D02*
X0149737Y0083697D01*
X0148539Y0082499D02*
X0126459Y0082499D01*
X0125260Y0081300D02*
X0147340Y0081300D01*
X0146142Y0080102D02*
X0124062Y0080102D01*
X0122863Y0078903D02*
X0144943Y0078903D01*
X0143745Y0077705D02*
X0121665Y0077705D01*
X0120466Y0076506D02*
X0142546Y0076506D01*
X0141092Y0075308D02*
X0119267Y0075308D01*
X0118069Y0074109D02*
X0140149Y0074109D01*
X0138951Y0072911D02*
X0116870Y0072911D01*
X0115928Y0071712D02*
X0137752Y0071712D01*
X0136554Y0070514D02*
X0066481Y0070514D01*
X0066481Y0070407D02*
X0066481Y0071593D01*
X0066027Y0072689D01*
X0065189Y0073527D01*
X0064751Y0073708D01*
X0033836Y0104624D01*
X0032807Y0105050D01*
X0024530Y0105050D01*
X0024093Y0105231D01*
X0022907Y0105231D01*
X0021811Y0104777D01*
X0020973Y0103939D01*
X0020519Y0102843D01*
X0020519Y0101657D01*
X0020973Y0100561D01*
X0021811Y0099723D01*
X0022907Y0099269D01*
X0024093Y0099269D01*
X0024530Y0099450D01*
X0031090Y0099450D01*
X0060792Y0069749D01*
X0060973Y0069311D01*
X0061811Y0068473D01*
X0062907Y0068019D01*
X0064093Y0068019D01*
X0065189Y0068473D01*
X0066027Y0069311D01*
X0066481Y0070407D01*
X0066029Y0069315D02*
X0135355Y0069315D01*
X0134157Y0068117D02*
X0064329Y0068117D01*
X0062671Y0068117D02*
X0031364Y0068117D01*
X0030642Y0069315D02*
X0060971Y0069315D01*
X0060027Y0070514D02*
X0029935Y0070514D01*
X0029229Y0071712D02*
X0058828Y0071712D01*
X0057630Y0072911D02*
X0028523Y0072911D01*
X0027817Y0074109D02*
X0056431Y0074109D01*
X0055232Y0075308D02*
X0027111Y0075308D01*
X0026404Y0076506D02*
X0054034Y0076506D01*
X0052835Y0077705D02*
X0025698Y0077705D01*
X0024992Y0078903D02*
X0051637Y0078903D01*
X0050438Y0080102D02*
X0024286Y0080102D01*
X0023716Y0081300D02*
X0049240Y0081300D01*
X0048041Y0082499D02*
X0023172Y0082499D01*
X0022628Y0083697D02*
X0046843Y0083697D01*
X0045644Y0084896D02*
X0022084Y0084896D01*
X0021541Y0086094D02*
X0044446Y0086094D01*
X0043247Y0087293D02*
X0020997Y0087293D01*
X0020453Y0088491D02*
X0042049Y0088491D01*
X0040850Y0089690D02*
X0019909Y0089690D01*
X0019365Y0090888D02*
X0039652Y0090888D01*
X0038453Y0092087D02*
X0018821Y0092087D01*
X0018306Y0093285D02*
X0037255Y0093285D01*
X0036056Y0094484D02*
X0017909Y0094484D01*
X0017513Y0095682D02*
X0034858Y0095682D01*
X0033659Y0096881D02*
X0017116Y0096881D01*
X0016720Y0098079D02*
X0032461Y0098079D01*
X0031262Y0099278D02*
X0024115Y0099278D01*
X0022885Y0099278D02*
X0016323Y0099278D01*
X0015927Y0100476D02*
X0021058Y0100476D01*
X0020519Y0101675D02*
X0015530Y0101675D01*
X0015134Y0102873D02*
X0020532Y0102873D01*
X0021106Y0104072D02*
X0014737Y0104072D01*
X0014341Y0105270D02*
X0051055Y0105270D01*
X0050519Y0104072D02*
X0034388Y0104072D01*
X0035586Y0102873D02*
X0050533Y0102873D01*
X0051109Y0101675D02*
X0036785Y0101675D01*
X0037983Y0100476D02*
X0106517Y0100476D01*
X0105318Y0099278D02*
X0039182Y0099278D01*
X0040380Y0098079D02*
X0104120Y0098079D01*
X0102921Y0096881D02*
X0041579Y0096881D01*
X0042777Y0095682D02*
X0101723Y0095682D01*
X0100524Y0094484D02*
X0043976Y0094484D01*
X0045174Y0093285D02*
X0099326Y0093285D01*
X0098127Y0092087D02*
X0046373Y0092087D01*
X0047571Y0090888D02*
X0096929Y0090888D01*
X0095730Y0089690D02*
X0048770Y0089690D01*
X0049968Y0088491D02*
X0094532Y0088491D01*
X0093333Y0087293D02*
X0051167Y0087293D01*
X0052365Y0086094D02*
X0092135Y0086094D01*
X0090936Y0084896D02*
X0053564Y0084896D01*
X0054762Y0083697D02*
X0089737Y0083697D01*
X0088539Y0082499D02*
X0055961Y0082499D01*
X0057160Y0081300D02*
X0087340Y0081300D01*
X0086142Y0080102D02*
X0058358Y0080102D01*
X0059557Y0078903D02*
X0084943Y0078903D01*
X0083745Y0077705D02*
X0060755Y0077705D01*
X0061954Y0076506D02*
X0082546Y0076506D01*
X0081092Y0075308D02*
X0063152Y0075308D01*
X0064351Y0074109D02*
X0080526Y0074109D01*
X0080519Y0072911D02*
X0065805Y0072911D01*
X0066432Y0071712D02*
X0081072Y0071712D01*
X0085928Y0071712D02*
X0111072Y0071712D01*
X0110519Y0072911D02*
X0086870Y0072911D01*
X0088069Y0074109D02*
X0110526Y0074109D01*
X0111092Y0075308D02*
X0089267Y0075308D01*
X0090466Y0076506D02*
X0112546Y0076506D01*
X0113745Y0077705D02*
X0091665Y0077705D01*
X0092863Y0078903D02*
X0114943Y0078903D01*
X0116142Y0080102D02*
X0094062Y0080102D01*
X0095260Y0081300D02*
X0117340Y0081300D01*
X0118539Y0082499D02*
X0096459Y0082499D01*
X0097657Y0083697D02*
X0119737Y0083697D01*
X0120936Y0084896D02*
X0098856Y0084896D01*
X0100054Y0086094D02*
X0122135Y0086094D01*
X0123333Y0087293D02*
X0101253Y0087293D01*
X0102451Y0088491D02*
X0124532Y0088491D01*
X0125730Y0089690D02*
X0103650Y0089690D01*
X0104848Y0090888D02*
X0126929Y0090888D01*
X0128127Y0092087D02*
X0106047Y0092087D01*
X0107245Y0093285D02*
X0129326Y0093285D01*
X0130524Y0094484D02*
X0108444Y0094484D01*
X0109642Y0095682D02*
X0131723Y0095682D01*
X0132921Y0096881D02*
X0110841Y0096881D01*
X0112039Y0098079D02*
X0134120Y0098079D01*
X0135318Y0099278D02*
X0113238Y0099278D01*
X0114436Y0100476D02*
X0136517Y0100476D01*
X0137715Y0101675D02*
X0115891Y0101675D01*
X0116833Y0102873D02*
X0138914Y0102873D01*
X0140112Y0104072D02*
X0118032Y0104072D01*
X0119230Y0105270D02*
X0141055Y0105270D01*
X0142509Y0106469D02*
X0120429Y0106469D01*
X0121627Y0107668D02*
X0143708Y0107668D01*
X0144906Y0108866D02*
X0122826Y0108866D01*
X0124024Y0110065D02*
X0146105Y0110065D01*
X0147303Y0111263D02*
X0125223Y0111263D01*
X0126421Y0112462D02*
X0148502Y0112462D01*
X0149700Y0113660D02*
X0127620Y0113660D01*
X0128818Y0114859D02*
X0150899Y0114859D01*
X0152097Y0116057D02*
X0130017Y0116057D01*
X0131215Y0117256D02*
X0153296Y0117256D01*
X0154494Y0118454D02*
X0132414Y0118454D01*
X0133612Y0119653D02*
X0155693Y0119653D01*
X0156891Y0120851D02*
X0134811Y0120851D01*
X0136000Y0121000D02*
X0136000Y0118500D01*
X0136009Y0122050D02*
X0158090Y0122050D01*
X0159288Y0123248D02*
X0137208Y0123248D01*
X0138406Y0124447D02*
X0160487Y0124447D01*
X0161685Y0125645D02*
X0139605Y0125645D01*
X0140803Y0126844D02*
X0162884Y0126844D01*
X0164082Y0128042D02*
X0142002Y0128042D01*
X0143200Y0129241D02*
X0165281Y0129241D01*
X0166479Y0130439D02*
X0144399Y0130439D01*
X0145854Y0131638D02*
X0167678Y0131638D01*
X0168876Y0132836D02*
X0146796Y0132836D01*
X0147995Y0134035D02*
X0169005Y0134035D01*
X0167807Y0135233D02*
X0149193Y0135233D01*
X0150392Y0136432D02*
X0166608Y0136432D01*
X0165410Y0137630D02*
X0151590Y0137630D01*
X0152789Y0138829D02*
X0164211Y0138829D01*
X0163013Y0140027D02*
X0153987Y0140027D01*
X0155186Y0141226D02*
X0161814Y0141226D01*
X0160616Y0142424D02*
X0156384Y0142424D01*
X0157583Y0143623D02*
X0159417Y0143623D01*
X0163741Y0147218D02*
X0183259Y0147218D01*
X0184457Y0148417D02*
X0162543Y0148417D01*
X0163575Y0149615D02*
X0185656Y0149615D01*
X0186854Y0150814D02*
X0164774Y0150814D01*
X0165972Y0152012D02*
X0188053Y0152012D01*
X0189251Y0153211D02*
X0167171Y0153211D01*
X0168369Y0154409D02*
X0190450Y0154409D01*
X0191648Y0155608D02*
X0169568Y0155608D01*
X0170766Y0156806D02*
X0192847Y0156806D01*
X0194045Y0158005D02*
X0171965Y0158005D01*
X0173163Y0159203D02*
X0195244Y0159203D01*
X0196442Y0160402D02*
X0174362Y0160402D01*
X0175816Y0161601D02*
X0197641Y0161601D01*
X0198839Y0162799D02*
X0176759Y0162799D01*
X0177957Y0163998D02*
X0200038Y0163998D01*
X0200980Y0165196D02*
X0179156Y0165196D01*
X0180354Y0166395D02*
X0202435Y0166395D01*
X0203633Y0167593D02*
X0181553Y0167593D01*
X0182751Y0168792D02*
X0204832Y0168792D01*
X0206030Y0169990D02*
X0183950Y0169990D01*
X0185148Y0171189D02*
X0207229Y0171189D01*
X0208427Y0172387D02*
X0186347Y0172387D01*
X0187545Y0173586D02*
X0209626Y0173586D01*
X0210824Y0174784D02*
X0188744Y0174784D01*
X0189942Y0175983D02*
X0212023Y0175983D01*
X0213221Y0177181D02*
X0191141Y0177181D01*
X0192339Y0178380D02*
X0214420Y0178380D01*
X0215618Y0179578D02*
X0193538Y0179578D01*
X0194736Y0180777D02*
X0216817Y0180777D01*
X0218015Y0181975D02*
X0195935Y0181975D01*
X0196000Y0181000D02*
X0196000Y0178500D01*
X0197134Y0183174D02*
X0219214Y0183174D01*
X0220412Y0184372D02*
X0198332Y0184372D01*
X0199531Y0185571D02*
X0221611Y0185571D01*
X0222809Y0186769D02*
X0200729Y0186769D01*
X0201928Y0187968D02*
X0224008Y0187968D01*
X0225206Y0189166D02*
X0203126Y0189166D01*
X0204325Y0190365D02*
X0226405Y0190365D01*
X0227604Y0191563D02*
X0205779Y0191563D01*
X0206722Y0192762D02*
X0228802Y0192762D01*
X0230001Y0193960D02*
X0207920Y0193960D01*
X0209119Y0195159D02*
X0230960Y0195159D01*
X0232608Y0196357D02*
X0210317Y0196357D01*
X0211772Y0197556D02*
X0234399Y0197556D01*
X0234392Y0196357D02*
X0235597Y0196357D01*
X0236040Y0195159D02*
X0236796Y0195159D01*
X0236481Y0193960D02*
X0237994Y0193960D01*
X0238079Y0192762D02*
X0236421Y0192762D01*
X0235779Y0191563D02*
X0238721Y0191563D01*
X0241000Y0193500D02*
X0231000Y0203500D01*
X0228250Y0202350D02*
X0211263Y0202350D01*
X0212396Y0201151D02*
X0229133Y0201151D01*
X0228019Y0203548D02*
X0187508Y0203548D01*
X0186310Y0202350D02*
X0208237Y0202350D01*
X0207104Y0201151D02*
X0185111Y0201151D01*
X0183913Y0199953D02*
X0205993Y0199953D01*
X0204795Y0198754D02*
X0182714Y0198754D01*
X0181516Y0197556D02*
X0203596Y0197556D01*
X0202398Y0196357D02*
X0180317Y0196357D01*
X0179119Y0195159D02*
X0200960Y0195159D01*
X0200001Y0193960D02*
X0177920Y0193960D01*
X0176722Y0192762D02*
X0198802Y0192762D01*
X0197604Y0191563D02*
X0175779Y0191563D01*
X0174325Y0190365D02*
X0196405Y0190365D01*
X0195206Y0189166D02*
X0173126Y0189166D01*
X0171928Y0187968D02*
X0194008Y0187968D01*
X0192809Y0186769D02*
X0170729Y0186769D01*
X0169531Y0185571D02*
X0191611Y0185571D01*
X0190412Y0184372D02*
X0168332Y0184372D01*
X0167134Y0183174D02*
X0189214Y0183174D01*
X0188015Y0181975D02*
X0165935Y0181975D01*
X0164736Y0180777D02*
X0186817Y0180777D01*
X0185618Y0179578D02*
X0163538Y0179578D01*
X0162339Y0178380D02*
X0184420Y0178380D01*
X0183221Y0177181D02*
X0161141Y0177181D01*
X0159942Y0175983D02*
X0182023Y0175983D01*
X0180824Y0174784D02*
X0158744Y0174784D01*
X0157545Y0173586D02*
X0179626Y0173586D01*
X0178427Y0172387D02*
X0156347Y0172387D01*
X0155148Y0171189D02*
X0177229Y0171189D01*
X0176030Y0169990D02*
X0153950Y0169990D01*
X0152751Y0168792D02*
X0174832Y0168792D01*
X0173633Y0167593D02*
X0151553Y0167593D01*
X0150354Y0166395D02*
X0172435Y0166395D01*
X0170980Y0165196D02*
X0149156Y0165196D01*
X0147957Y0163998D02*
X0170038Y0163998D01*
X0168839Y0162799D02*
X0148161Y0162799D01*
X0149359Y0161601D02*
X0167641Y0161601D01*
X0166442Y0160402D02*
X0150558Y0160402D01*
X0151756Y0159203D02*
X0165244Y0159203D01*
X0164045Y0158005D02*
X0152955Y0158005D01*
X0154153Y0156806D02*
X0162847Y0156806D01*
X0161648Y0155608D02*
X0155352Y0155608D01*
X0156550Y0154409D02*
X0160450Y0154409D01*
X0159251Y0153211D02*
X0157749Y0153211D01*
X0153425Y0149615D02*
X0133575Y0149615D01*
X0132377Y0148417D02*
X0154457Y0148417D01*
X0153259Y0147218D02*
X0131178Y0147218D01*
X0129980Y0146020D02*
X0152060Y0146020D01*
X0150862Y0144821D02*
X0128781Y0144821D01*
X0127583Y0143623D02*
X0149663Y0143623D01*
X0148465Y0142424D02*
X0126384Y0142424D01*
X0125186Y0141226D02*
X0147266Y0141226D01*
X0146068Y0140027D02*
X0123987Y0140027D01*
X0122789Y0138829D02*
X0144869Y0138829D01*
X0143671Y0137630D02*
X0121590Y0137630D01*
X0120392Y0136432D02*
X0142472Y0136432D01*
X0141017Y0135233D02*
X0119193Y0135233D01*
X0117995Y0134035D02*
X0140075Y0134035D01*
X0138876Y0132836D02*
X0116796Y0132836D01*
X0115854Y0131638D02*
X0137678Y0131638D01*
X0136479Y0130439D02*
X0114399Y0130439D01*
X0113200Y0129241D02*
X0135281Y0129241D01*
X0134082Y0128042D02*
X0112002Y0128042D01*
X0110803Y0126844D02*
X0132884Y0126844D01*
X0131685Y0125645D02*
X0109605Y0125645D01*
X0108406Y0124447D02*
X0130487Y0124447D01*
X0129288Y0123248D02*
X0107208Y0123248D01*
X0106009Y0122050D02*
X0128090Y0122050D01*
X0126891Y0120851D02*
X0104811Y0120851D01*
X0103612Y0119653D02*
X0125693Y0119653D01*
X0124494Y0118454D02*
X0102414Y0118454D01*
X0101215Y0117256D02*
X0123296Y0117256D01*
X0122097Y0116057D02*
X0100017Y0116057D01*
X0098818Y0114859D02*
X0120899Y0114859D01*
X0119700Y0113660D02*
X0097620Y0113660D01*
X0096421Y0112462D02*
X0118502Y0112462D01*
X0117303Y0111263D02*
X0095223Y0111263D01*
X0094024Y0110065D02*
X0116105Y0110065D01*
X0114906Y0108866D02*
X0092826Y0108866D01*
X0091627Y0107668D02*
X0113708Y0107668D01*
X0112509Y0106469D02*
X0090429Y0106469D01*
X0089230Y0105270D02*
X0111055Y0105270D01*
X0110112Y0104072D02*
X0088032Y0104072D01*
X0086833Y0102873D02*
X0108914Y0102873D01*
X0107715Y0101675D02*
X0085891Y0101675D01*
X0081109Y0101675D02*
X0055891Y0101675D01*
X0056833Y0102873D02*
X0080533Y0102873D01*
X0080519Y0104072D02*
X0058032Y0104072D01*
X0059230Y0105270D02*
X0081055Y0105270D01*
X0082509Y0106469D02*
X0060429Y0106469D01*
X0061627Y0107668D02*
X0083708Y0107668D01*
X0084906Y0108866D02*
X0062826Y0108866D01*
X0064024Y0110065D02*
X0086105Y0110065D01*
X0087303Y0111263D02*
X0065223Y0111263D01*
X0066421Y0112462D02*
X0088502Y0112462D01*
X0089700Y0113660D02*
X0067620Y0113660D01*
X0068818Y0114859D02*
X0090899Y0114859D01*
X0092097Y0116057D02*
X0070017Y0116057D01*
X0071215Y0117256D02*
X0093296Y0117256D01*
X0094494Y0118454D02*
X0072414Y0118454D01*
X0073612Y0119653D02*
X0095693Y0119653D01*
X0096891Y0120851D02*
X0074811Y0120851D01*
X0076000Y0121000D02*
X0076000Y0118500D01*
X0076009Y0122050D02*
X0098090Y0122050D01*
X0099288Y0123248D02*
X0077208Y0123248D01*
X0078406Y0124447D02*
X0100487Y0124447D01*
X0101685Y0125645D02*
X0079605Y0125645D01*
X0080803Y0126844D02*
X0102884Y0126844D01*
X0104082Y0128042D02*
X0082002Y0128042D01*
X0083200Y0129241D02*
X0105281Y0129241D01*
X0106479Y0130439D02*
X0084399Y0130439D01*
X0085854Y0131638D02*
X0107678Y0131638D01*
X0108876Y0132836D02*
X0086796Y0132836D01*
X0087995Y0134035D02*
X0110075Y0134035D01*
X0111017Y0135233D02*
X0089193Y0135233D01*
X0090392Y0136432D02*
X0112472Y0136432D01*
X0113670Y0137630D02*
X0091590Y0137630D01*
X0092789Y0138829D02*
X0114869Y0138829D01*
X0116068Y0140027D02*
X0093987Y0140027D01*
X0095186Y0141226D02*
X0117266Y0141226D01*
X0118465Y0142424D02*
X0096384Y0142424D01*
X0097583Y0143623D02*
X0119663Y0143623D01*
X0120862Y0144821D02*
X0098781Y0144821D01*
X0099980Y0146020D02*
X0122060Y0146020D01*
X0123259Y0147218D02*
X0101178Y0147218D01*
X0102377Y0148417D02*
X0124457Y0148417D01*
X0125656Y0149615D02*
X0103575Y0149615D01*
X0104774Y0150814D02*
X0126854Y0150814D01*
X0128053Y0152012D02*
X0105972Y0152012D01*
X0107171Y0153211D02*
X0129251Y0153211D01*
X0130450Y0154409D02*
X0108369Y0154409D01*
X0109568Y0155608D02*
X0131648Y0155608D01*
X0132847Y0156806D02*
X0110766Y0156806D01*
X0111965Y0158005D02*
X0134045Y0158005D01*
X0135244Y0159203D02*
X0113163Y0159203D01*
X0114362Y0160402D02*
X0136442Y0160402D01*
X0137641Y0161601D02*
X0115816Y0161601D01*
X0116759Y0162799D02*
X0138839Y0162799D01*
X0139043Y0163998D02*
X0117957Y0163998D01*
X0119156Y0165196D02*
X0137844Y0165196D01*
X0136646Y0166395D02*
X0120354Y0166395D01*
X0121553Y0167593D02*
X0135447Y0167593D01*
X0134249Y0168792D02*
X0122751Y0168792D01*
X0123950Y0169990D02*
X0133050Y0169990D01*
X0131852Y0171189D02*
X0125148Y0171189D01*
X0126347Y0172387D02*
X0130653Y0172387D01*
X0129455Y0173586D02*
X0127545Y0173586D01*
X0123221Y0177181D02*
X0101141Y0177181D01*
X0099942Y0175983D02*
X0122023Y0175983D01*
X0120824Y0174784D02*
X0098744Y0174784D01*
X0097545Y0173586D02*
X0119626Y0173586D01*
X0118427Y0172387D02*
X0096347Y0172387D01*
X0095148Y0171189D02*
X0117229Y0171189D01*
X0116030Y0169990D02*
X0093950Y0169990D01*
X0092751Y0168792D02*
X0114832Y0168792D01*
X0113633Y0167593D02*
X0091553Y0167593D01*
X0090354Y0166395D02*
X0112435Y0166395D01*
X0110980Y0165196D02*
X0089156Y0165196D01*
X0087957Y0163998D02*
X0110038Y0163998D01*
X0108839Y0162799D02*
X0086759Y0162799D01*
X0085816Y0161601D02*
X0107641Y0161601D01*
X0106442Y0160402D02*
X0084362Y0160402D01*
X0083163Y0159203D02*
X0105244Y0159203D01*
X0104045Y0158005D02*
X0081965Y0158005D01*
X0080766Y0156806D02*
X0102847Y0156806D01*
X0101648Y0155608D02*
X0079568Y0155608D01*
X0078369Y0154409D02*
X0100450Y0154409D01*
X0099251Y0153211D02*
X0077171Y0153211D01*
X0075972Y0152012D02*
X0098053Y0152012D01*
X0096854Y0150814D02*
X0074774Y0150814D01*
X0076000Y0151000D02*
X0076000Y0148500D01*
X0073575Y0149615D02*
X0095656Y0149615D01*
X0094457Y0148417D02*
X0072377Y0148417D01*
X0071178Y0147218D02*
X0093259Y0147218D01*
X0092060Y0146020D02*
X0069980Y0146020D01*
X0068781Y0144821D02*
X0090862Y0144821D01*
X0089663Y0143623D02*
X0067583Y0143623D01*
X0066384Y0142424D02*
X0088465Y0142424D01*
X0087266Y0141226D02*
X0065186Y0141226D01*
X0063987Y0140027D02*
X0086068Y0140027D01*
X0084869Y0138829D02*
X0062789Y0138829D01*
X0061590Y0137630D02*
X0083671Y0137630D01*
X0082472Y0136432D02*
X0060392Y0136432D01*
X0059193Y0135233D02*
X0081017Y0135233D01*
X0080075Y0134035D02*
X0057995Y0134035D01*
X0056796Y0132836D02*
X0078876Y0132836D01*
X0077678Y0131638D02*
X0055854Y0131638D01*
X0051146Y0131638D02*
X0009780Y0131638D01*
X0009652Y0132836D02*
X0050548Y0132836D01*
X0050519Y0134035D02*
X0009528Y0134035D01*
X0009528Y0135233D02*
X0051017Y0135233D01*
X0052472Y0136432D02*
X0009528Y0136432D01*
X0009528Y0137630D02*
X0053671Y0137630D01*
X0054869Y0138829D02*
X0009528Y0138829D01*
X0009528Y0140027D02*
X0056068Y0140027D01*
X0057266Y0141226D02*
X0009528Y0141226D01*
X0009528Y0142424D02*
X0058465Y0142424D01*
X0059663Y0143623D02*
X0009528Y0143623D01*
X0009528Y0144821D02*
X0060862Y0144821D01*
X0062060Y0146020D02*
X0009528Y0146020D01*
X0009528Y0147218D02*
X0063259Y0147218D01*
X0064457Y0148417D02*
X0009572Y0148417D01*
X0009700Y0149615D02*
X0065656Y0149615D01*
X0066854Y0150814D02*
X0009828Y0150814D01*
X0009956Y0152012D02*
X0068053Y0152012D01*
X0069251Y0153211D02*
X0010085Y0153211D01*
X0010213Y0154409D02*
X0070450Y0154409D01*
X0071648Y0155608D02*
X0010341Y0155608D01*
X0010469Y0156806D02*
X0072847Y0156806D01*
X0074045Y0158005D02*
X0010597Y0158005D01*
X0010725Y0159203D02*
X0075244Y0159203D01*
X0076442Y0160402D02*
X0010853Y0160402D01*
X0010981Y0161601D02*
X0051184Y0161601D01*
X0050564Y0162799D02*
X0011203Y0162799D01*
X0011462Y0163998D02*
X0050519Y0163998D01*
X0050980Y0165196D02*
X0011722Y0165196D01*
X0011981Y0166395D02*
X0052435Y0166395D01*
X0053633Y0167593D02*
X0012240Y0167593D01*
X0012499Y0168792D02*
X0054832Y0168792D01*
X0056030Y0169990D02*
X0012759Y0169990D01*
X0013018Y0171189D02*
X0057229Y0171189D01*
X0058427Y0172387D02*
X0013277Y0172387D01*
X0013536Y0173586D02*
X0059626Y0173586D01*
X0060824Y0174784D02*
X0013795Y0174784D01*
X0014094Y0175983D02*
X0062023Y0175983D01*
X0063221Y0177181D02*
X0014490Y0177181D01*
X0014887Y0178380D02*
X0064420Y0178380D01*
X0065618Y0179578D02*
X0015283Y0179578D01*
X0015680Y0180777D02*
X0066817Y0180777D01*
X0068015Y0181975D02*
X0016076Y0181975D01*
X0016473Y0183174D02*
X0069214Y0183174D01*
X0070412Y0184372D02*
X0016869Y0184372D01*
X0017266Y0185571D02*
X0071611Y0185571D01*
X0072809Y0186769D02*
X0017662Y0186769D01*
X0018059Y0187968D02*
X0074008Y0187968D01*
X0075206Y0189166D02*
X0018482Y0189166D01*
X0019026Y0190365D02*
X0076405Y0190365D01*
X0077604Y0191563D02*
X0055779Y0191563D01*
X0056722Y0192762D02*
X0078802Y0192762D01*
X0080001Y0193960D02*
X0057920Y0193960D01*
X0059119Y0195159D02*
X0080960Y0195159D01*
X0082398Y0196357D02*
X0060317Y0196357D01*
X0061516Y0197556D02*
X0083596Y0197556D01*
X0084795Y0198754D02*
X0062714Y0198754D01*
X0063913Y0199953D02*
X0085993Y0199953D01*
X0087192Y0201151D02*
X0065111Y0201151D01*
X0066310Y0202350D02*
X0088390Y0202350D01*
X0089589Y0203548D02*
X0067508Y0203548D01*
X0068707Y0204747D02*
X0090787Y0204747D01*
X0091986Y0205945D02*
X0069905Y0205945D01*
X0071104Y0207144D02*
X0093184Y0207144D01*
X0094383Y0208342D02*
X0072302Y0208342D01*
X0073501Y0209541D02*
X0093499Y0209541D01*
X0092301Y0210739D02*
X0074699Y0210739D01*
X0075898Y0211938D02*
X0091102Y0211938D01*
X0089904Y0213137D02*
X0077096Y0213137D01*
X0078295Y0214335D02*
X0088705Y0214335D01*
X0087507Y0215534D02*
X0079493Y0215534D01*
X0080692Y0216732D02*
X0086308Y0216732D01*
X0085110Y0217931D02*
X0081890Y0217931D01*
X0083089Y0219129D02*
X0083911Y0219129D01*
X0083500Y0223500D02*
X0083500Y0223500D01*
X0080945Y0225122D02*
X0074081Y0225122D01*
X0072883Y0223923D02*
X0079963Y0223923D01*
X0078765Y0222725D02*
X0071684Y0222725D01*
X0070486Y0221526D02*
X0077566Y0221526D01*
X0076368Y0220328D02*
X0069287Y0220328D01*
X0068089Y0219129D02*
X0075169Y0219129D01*
X0073971Y0217931D02*
X0052303Y0217931D01*
X0052799Y0219129D02*
X0058655Y0219129D01*
X0058473Y0219311D02*
X0059311Y0218473D01*
X0060407Y0218019D01*
X0061593Y0218019D01*
X0062030Y0218200D01*
X0066557Y0218200D01*
X0067586Y0218626D01*
X0094751Y0245792D01*
X0095189Y0245973D01*
X0096027Y0246811D01*
X0096481Y0247907D01*
X0096481Y0249093D01*
X0096027Y0250189D01*
X0095189Y0251027D01*
X0094093Y0251481D01*
X0092907Y0251481D01*
X0091811Y0251027D01*
X0090973Y0250189D01*
X0090792Y0249751D01*
X0064840Y0223800D01*
X0062030Y0223800D01*
X0061593Y0223981D01*
X0060407Y0223981D01*
X0059311Y0223527D01*
X0058473Y0222689D01*
X0058019Y0221593D01*
X0058019Y0220407D01*
X0058473Y0219311D01*
X0058052Y0220328D02*
X0053008Y0220328D01*
X0053008Y0221526D02*
X0058019Y0221526D01*
X0058509Y0222725D02*
X0052535Y0222725D01*
X0052005Y0223923D02*
X0051722Y0223923D01*
X0050934Y0225122D02*
X0050015Y0225122D01*
X0046244Y0231114D02*
X0045262Y0231114D01*
X0044706Y0229916D02*
X0044155Y0229916D01*
X0043507Y0228717D02*
X0043049Y0228717D01*
X0042309Y0227519D02*
X0041942Y0227519D01*
X0041110Y0226320D02*
X0040836Y0226320D01*
X0039912Y0225122D02*
X0039729Y0225122D01*
X0039645Y0225030D02*
X0039645Y0225030D01*
X0043037Y0220328D02*
X0043208Y0220328D01*
X0043417Y0219129D02*
X0041839Y0219129D01*
X0041300Y0217931D02*
X0043913Y0217931D01*
X0045054Y0216732D02*
X0041300Y0216732D01*
X0041300Y0215534D02*
X0071574Y0215534D01*
X0072772Y0216732D02*
X0051162Y0216732D01*
X0048500Y0208500D02*
X0049750Y0207250D01*
X0046213Y0204747D02*
X0060787Y0204747D01*
X0059589Y0203548D02*
X0047411Y0203548D01*
X0048610Y0202350D02*
X0058390Y0202350D01*
X0057192Y0201151D02*
X0049808Y0201151D01*
X0051007Y0199953D02*
X0055993Y0199953D01*
X0054795Y0198754D02*
X0052205Y0198754D01*
X0053404Y0197556D02*
X0053596Y0197556D01*
X0050278Y0192762D02*
X0020114Y0192762D01*
X0020658Y0193960D02*
X0049080Y0193960D01*
X0047881Y0195159D02*
X0021202Y0195159D01*
X0021745Y0196357D02*
X0046683Y0196357D01*
X0045484Y0197556D02*
X0022289Y0197556D01*
X0022833Y0198754D02*
X0044286Y0198754D01*
X0043087Y0199953D02*
X0023377Y0199953D01*
X0023921Y0201151D02*
X0041889Y0201151D01*
X0040690Y0202350D02*
X0024552Y0202350D01*
X0025258Y0203548D02*
X0039492Y0203548D01*
X0038293Y0204747D02*
X0025964Y0204747D01*
X0026670Y0205945D02*
X0037095Y0205945D01*
X0036031Y0207144D02*
X0027377Y0207144D01*
X0028083Y0208342D02*
X0035700Y0208342D01*
X0035700Y0209541D02*
X0028789Y0209541D01*
X0029495Y0210739D02*
X0035700Y0210739D01*
X0035700Y0211938D02*
X0030202Y0211938D01*
X0030908Y0213137D02*
X0035700Y0213137D01*
X0035700Y0214335D02*
X0031699Y0214335D01*
X0032590Y0215534D02*
X0035700Y0215534D01*
X0035700Y0216732D02*
X0033480Y0216732D01*
X0034370Y0217931D02*
X0035700Y0217931D01*
X0035700Y0219129D02*
X0035261Y0219129D01*
X0041300Y0214335D02*
X0070375Y0214335D01*
X0069177Y0213137D02*
X0041300Y0213137D01*
X0041300Y0211938D02*
X0067978Y0211938D01*
X0066780Y0210739D02*
X0041300Y0210739D01*
X0041419Y0209541D02*
X0065581Y0209541D01*
X0064383Y0208342D02*
X0042617Y0208342D01*
X0043816Y0207144D02*
X0063184Y0207144D01*
X0061986Y0205945D02*
X0045014Y0205945D01*
X0051221Y0191563D02*
X0019570Y0191563D01*
X0048500Y0178500D02*
X0051000Y0176000D01*
X0051000Y0173500D01*
X0059156Y0165196D02*
X0080980Y0165196D01*
X0080038Y0163998D02*
X0057957Y0163998D01*
X0056759Y0162799D02*
X0078839Y0162799D01*
X0077641Y0161601D02*
X0055816Y0161601D01*
X0060354Y0166395D02*
X0082435Y0166395D01*
X0083633Y0167593D02*
X0061553Y0167593D01*
X0062751Y0168792D02*
X0084832Y0168792D01*
X0086030Y0169990D02*
X0063950Y0169990D01*
X0065148Y0171189D02*
X0087229Y0171189D01*
X0088427Y0172387D02*
X0066347Y0172387D01*
X0067545Y0173586D02*
X0089626Y0173586D01*
X0090824Y0174784D02*
X0068744Y0174784D01*
X0069942Y0175983D02*
X0092023Y0175983D01*
X0093221Y0177181D02*
X0071141Y0177181D01*
X0072339Y0178380D02*
X0094420Y0178380D01*
X0095618Y0179578D02*
X0073538Y0179578D01*
X0074736Y0180777D02*
X0096817Y0180777D01*
X0098015Y0181975D02*
X0075935Y0181975D01*
X0077134Y0183174D02*
X0099214Y0183174D01*
X0100412Y0184372D02*
X0078332Y0184372D01*
X0079531Y0185571D02*
X0101611Y0185571D01*
X0102809Y0186769D02*
X0080729Y0186769D01*
X0081928Y0187968D02*
X0104008Y0187968D01*
X0105206Y0189166D02*
X0083126Y0189166D01*
X0084325Y0190365D02*
X0106405Y0190365D01*
X0107604Y0191563D02*
X0085779Y0191563D01*
X0086722Y0192762D02*
X0108802Y0192762D01*
X0109080Y0193960D02*
X0087920Y0193960D01*
X0089119Y0195159D02*
X0107881Y0195159D01*
X0106683Y0196357D02*
X0090317Y0196357D01*
X0091516Y0197556D02*
X0105484Y0197556D01*
X0104286Y0198754D02*
X0092714Y0198754D01*
X0093913Y0199953D02*
X0103087Y0199953D01*
X0101889Y0201151D02*
X0095111Y0201151D01*
X0096310Y0202350D02*
X0100690Y0202350D01*
X0099492Y0203548D02*
X0097508Y0203548D01*
X0102617Y0208342D02*
X0124383Y0208342D01*
X0123184Y0207144D02*
X0103816Y0207144D01*
X0105014Y0205945D02*
X0121986Y0205945D01*
X0120787Y0204747D02*
X0106213Y0204747D01*
X0107411Y0203548D02*
X0119589Y0203548D01*
X0118390Y0202350D02*
X0108610Y0202350D01*
X0109808Y0201151D02*
X0117192Y0201151D01*
X0115993Y0199953D02*
X0111007Y0199953D01*
X0112205Y0198754D02*
X0114795Y0198754D01*
X0113596Y0197556D02*
X0113404Y0197556D01*
X0113500Y0193500D02*
X0113500Y0193500D01*
X0113126Y0189166D02*
X0113874Y0189166D01*
X0115072Y0187968D02*
X0111928Y0187968D01*
X0110729Y0186769D02*
X0116271Y0186769D01*
X0117469Y0185571D02*
X0109531Y0185571D01*
X0108332Y0184372D02*
X0118668Y0184372D01*
X0119866Y0183174D02*
X0107134Y0183174D01*
X0105935Y0181975D02*
X0121065Y0181975D01*
X0122264Y0180777D02*
X0104736Y0180777D01*
X0103538Y0179578D02*
X0123462Y0179578D01*
X0124420Y0178380D02*
X0102339Y0178380D01*
X0108500Y0178500D02*
X0111000Y0176000D01*
X0122992Y0187968D02*
X0134008Y0187968D01*
X0135206Y0189166D02*
X0121793Y0189166D01*
X0120595Y0190365D02*
X0136405Y0190365D01*
X0137604Y0191563D02*
X0119396Y0191563D01*
X0118198Y0192762D02*
X0138802Y0192762D01*
X0140001Y0193960D02*
X0117920Y0193960D01*
X0119119Y0195159D02*
X0140960Y0195159D01*
X0142398Y0196357D02*
X0120317Y0196357D01*
X0121516Y0197556D02*
X0143596Y0197556D01*
X0144795Y0198754D02*
X0122714Y0198754D01*
X0123913Y0199953D02*
X0145993Y0199953D01*
X0147192Y0201151D02*
X0125111Y0201151D01*
X0126310Y0202350D02*
X0148390Y0202350D01*
X0149589Y0203548D02*
X0127508Y0203548D01*
X0128707Y0204747D02*
X0150787Y0204747D01*
X0151986Y0205945D02*
X0129905Y0205945D01*
X0131104Y0207144D02*
X0153184Y0207144D01*
X0154383Y0208342D02*
X0132302Y0208342D01*
X0133501Y0209541D02*
X0155581Y0209541D01*
X0156780Y0210739D02*
X0134699Y0210739D01*
X0136000Y0211000D02*
X0136000Y0208500D01*
X0135898Y0211938D02*
X0157978Y0211938D01*
X0159177Y0213137D02*
X0137096Y0213137D01*
X0138295Y0214335D02*
X0160375Y0214335D01*
X0161574Y0215534D02*
X0139493Y0215534D01*
X0140692Y0216732D02*
X0162772Y0216732D01*
X0163971Y0217931D02*
X0141890Y0217931D01*
X0143089Y0219129D02*
X0165169Y0219129D01*
X0166368Y0220328D02*
X0144287Y0220328D01*
X0145742Y0221526D02*
X0167566Y0221526D01*
X0168765Y0222725D02*
X0146684Y0222725D01*
X0147883Y0223923D02*
X0169963Y0223923D01*
X0170945Y0225122D02*
X0149081Y0225122D01*
X0150280Y0226320D02*
X0172518Y0226320D01*
X0174482Y0226320D02*
X0178200Y0226320D01*
X0178180Y0227519D02*
X0151478Y0227519D01*
X0152677Y0228717D02*
X0178019Y0228717D01*
X0178360Y0229916D02*
X0153875Y0229916D01*
X0155074Y0231114D02*
X0179521Y0231114D01*
X0182479Y0231114D02*
X0192154Y0231114D01*
X0190956Y0229916D02*
X0183640Y0229916D01*
X0183981Y0228717D02*
X0189757Y0228717D01*
X0188559Y0227519D02*
X0183820Y0227519D01*
X0183800Y0226320D02*
X0187360Y0226320D01*
X0191684Y0222725D02*
X0198765Y0222725D01*
X0199963Y0223923D02*
X0192883Y0223923D01*
X0194081Y0225122D02*
X0200945Y0225122D01*
X0202518Y0226320D02*
X0195280Y0226320D01*
X0196478Y0227519D02*
X0233327Y0227519D01*
X0233383Y0227542D02*
X0231582Y0226796D01*
X0230204Y0225418D01*
X0229458Y0223617D01*
X0229458Y0221667D01*
X0230204Y0219866D01*
X0231582Y0218488D01*
X0233383Y0217742D01*
X0235333Y0217742D01*
X0237133Y0218488D01*
X0238512Y0219866D01*
X0239258Y0221667D01*
X0239258Y0223617D01*
X0238512Y0225418D01*
X0237133Y0226796D01*
X0235333Y0227542D01*
X0233383Y0227542D01*
X0235389Y0227519D02*
X0240049Y0227519D01*
X0239056Y0228717D02*
X0212933Y0228717D01*
X0212689Y0228473D02*
X0213527Y0229311D01*
X0213981Y0230407D01*
X0213981Y0231593D01*
X0213800Y0232030D01*
X0213800Y0239057D01*
X0213374Y0240086D01*
X0212586Y0240874D01*
X0205086Y0248374D01*
X0204057Y0248800D01*
X0184530Y0248800D01*
X0184093Y0248981D01*
X0182907Y0248981D01*
X0181811Y0248527D01*
X0180973Y0247689D01*
X0180519Y0246593D01*
X0180519Y0245407D01*
X0180973Y0244311D01*
X0181811Y0243473D01*
X0182907Y0243019D01*
X0184093Y0243019D01*
X0184530Y0243200D01*
X0202340Y0243200D01*
X0208200Y0237340D01*
X0208200Y0232030D01*
X0208019Y0231593D01*
X0208019Y0230407D01*
X0208473Y0229311D01*
X0209311Y0228473D01*
X0210407Y0228019D01*
X0211593Y0228019D01*
X0212689Y0228473D01*
X0213778Y0229916D02*
X0238062Y0229916D01*
X0236908Y0231114D02*
X0213981Y0231114D01*
X0213800Y0232313D02*
X0235678Y0232313D01*
X0234447Y0233511D02*
X0213800Y0233511D01*
X0213800Y0234710D02*
X0233216Y0234710D01*
X0231985Y0235908D02*
X0213800Y0235908D01*
X0213800Y0237107D02*
X0230754Y0237107D01*
X0229523Y0238305D02*
X0213800Y0238305D01*
X0213615Y0239504D02*
X0228292Y0239504D01*
X0226909Y0240702D02*
X0212758Y0240702D01*
X0211559Y0241901D02*
X0225382Y0241901D01*
X0223855Y0243099D02*
X0210360Y0243099D01*
X0209162Y0244298D02*
X0222329Y0244298D01*
X0220802Y0245496D02*
X0207963Y0245496D01*
X0206765Y0246695D02*
X0219276Y0246695D01*
X0217749Y0247893D02*
X0205566Y0247893D01*
X0202441Y0243099D02*
X0184287Y0243099D01*
X0182713Y0243099D02*
X0167059Y0243099D01*
X0165861Y0241901D02*
X0203639Y0241901D01*
X0204838Y0240702D02*
X0164662Y0240702D01*
X0163464Y0239504D02*
X0200288Y0239504D01*
X0199345Y0238305D02*
X0162265Y0238305D01*
X0161067Y0237107D02*
X0198147Y0237107D01*
X0196948Y0235908D02*
X0159868Y0235908D01*
X0158669Y0234710D02*
X0195750Y0234710D01*
X0194551Y0233511D02*
X0157471Y0233511D01*
X0156272Y0232313D02*
X0193353Y0232313D01*
X0197677Y0228717D02*
X0209067Y0228717D01*
X0208222Y0229916D02*
X0198875Y0229916D01*
X0200074Y0231114D02*
X0208019Y0231114D01*
X0208200Y0232313D02*
X0201272Y0232313D01*
X0202471Y0233511D02*
X0208200Y0233511D01*
X0208200Y0234710D02*
X0203907Y0234710D01*
X0204921Y0235908D02*
X0208200Y0235908D01*
X0208200Y0237107D02*
X0205231Y0237107D01*
X0205040Y0238305D02*
X0207235Y0238305D01*
X0206036Y0239504D02*
X0204212Y0239504D01*
X0196000Y0238500D02*
X0193500Y0241000D01*
X0180986Y0244298D02*
X0168258Y0244298D01*
X0169456Y0245496D02*
X0180519Y0245496D01*
X0180561Y0246695D02*
X0170655Y0246695D01*
X0171853Y0247893D02*
X0181177Y0247893D01*
X0175705Y0251489D02*
X0212276Y0251489D01*
X0210361Y0252687D02*
X0176390Y0252687D01*
X0176481Y0253886D02*
X0208445Y0253886D01*
X0206530Y0255084D02*
X0176070Y0255084D01*
X0174571Y0256283D02*
X0204562Y0256283D01*
X0202098Y0257481D02*
X0131441Y0257481D01*
X0132160Y0258200D02*
X0144970Y0258200D01*
X0145407Y0258019D01*
X0146593Y0258019D01*
X0147689Y0258473D01*
X0148527Y0259311D01*
X0148981Y0260407D01*
X0148981Y0261593D01*
X0148527Y0262689D01*
X0147689Y0263527D01*
X0146593Y0263981D01*
X0145407Y0263981D01*
X0144970Y0263800D01*
X0130443Y0263800D01*
X0129414Y0263374D01*
X0128626Y0262586D01*
X0119749Y0253708D01*
X0119311Y0253527D01*
X0118473Y0252689D01*
X0118019Y0251593D01*
X0118019Y0250407D01*
X0118473Y0249311D01*
X0119311Y0248473D01*
X0120407Y0248019D01*
X0121593Y0248019D01*
X0122689Y0248473D01*
X0123527Y0249311D01*
X0123708Y0249749D01*
X0132160Y0258200D01*
X0130243Y0256283D02*
X0142429Y0256283D01*
X0140930Y0255084D02*
X0129044Y0255084D01*
X0127846Y0253886D02*
X0139926Y0253886D01*
X0138728Y0252687D02*
X0126647Y0252687D01*
X0125449Y0251489D02*
X0137529Y0251489D01*
X0136331Y0250290D02*
X0124250Y0250290D01*
X0123308Y0249092D02*
X0135132Y0249092D01*
X0133934Y0247893D02*
X0111853Y0247893D01*
X0110655Y0246695D02*
X0132735Y0246695D01*
X0131537Y0245496D02*
X0109456Y0245496D01*
X0108258Y0244298D02*
X0130338Y0244298D01*
X0129139Y0243099D02*
X0107059Y0243099D01*
X0105861Y0241901D02*
X0127941Y0241901D01*
X0126742Y0240702D02*
X0104662Y0240702D01*
X0103464Y0239504D02*
X0125544Y0239504D01*
X0124345Y0238305D02*
X0102265Y0238305D01*
X0101067Y0237107D02*
X0123147Y0237107D01*
X0121948Y0235908D02*
X0099868Y0235908D01*
X0098669Y0234710D02*
X0120750Y0234710D01*
X0119551Y0233511D02*
X0097471Y0233511D01*
X0096272Y0232313D02*
X0118353Y0232313D01*
X0117154Y0231114D02*
X0095074Y0231114D01*
X0093875Y0229916D02*
X0115956Y0229916D01*
X0114757Y0228717D02*
X0092677Y0228717D01*
X0091478Y0227519D02*
X0113559Y0227519D01*
X0112360Y0226320D02*
X0090280Y0226320D01*
X0089081Y0225122D02*
X0110945Y0225122D01*
X0109963Y0223923D02*
X0087883Y0223923D01*
X0088235Y0222725D02*
X0108765Y0222725D01*
X0107566Y0221526D02*
X0089434Y0221526D01*
X0090632Y0220328D02*
X0106368Y0220328D01*
X0105169Y0219129D02*
X0091831Y0219129D01*
X0093029Y0217931D02*
X0103971Y0217931D01*
X0102772Y0216732D02*
X0094228Y0216732D01*
X0095426Y0215534D02*
X0101574Y0215534D01*
X0100375Y0214335D02*
X0096625Y0214335D01*
X0097823Y0213137D02*
X0099177Y0213137D01*
X0103501Y0209541D02*
X0125581Y0209541D01*
X0126780Y0210739D02*
X0104699Y0210739D01*
X0105898Y0211938D02*
X0127978Y0211938D01*
X0129177Y0213137D02*
X0107096Y0213137D01*
X0108295Y0214335D02*
X0130375Y0214335D01*
X0131574Y0215534D02*
X0109493Y0215534D01*
X0110692Y0216732D02*
X0132772Y0216732D01*
X0133971Y0217931D02*
X0111890Y0217931D01*
X0113089Y0219129D02*
X0135169Y0219129D01*
X0136368Y0220328D02*
X0114287Y0220328D01*
X0115742Y0221526D02*
X0137566Y0221526D01*
X0138765Y0222725D02*
X0116684Y0222725D01*
X0117883Y0223923D02*
X0139963Y0223923D01*
X0140945Y0225122D02*
X0119081Y0225122D01*
X0120280Y0226320D02*
X0142360Y0226320D01*
X0143559Y0227519D02*
X0121478Y0227519D01*
X0122677Y0228717D02*
X0144757Y0228717D01*
X0145956Y0229916D02*
X0123875Y0229916D01*
X0125074Y0231114D02*
X0147154Y0231114D01*
X0148353Y0232313D02*
X0126272Y0232313D01*
X0127471Y0233511D02*
X0149551Y0233511D01*
X0150750Y0234710D02*
X0128670Y0234710D01*
X0129868Y0235908D02*
X0151948Y0235908D01*
X0153147Y0237107D02*
X0131067Y0237107D01*
X0132265Y0238305D02*
X0154345Y0238305D01*
X0155544Y0239504D02*
X0133464Y0239504D01*
X0134662Y0240702D02*
X0156742Y0240702D01*
X0157941Y0241901D02*
X0135861Y0241901D01*
X0136000Y0241000D02*
X0136000Y0238500D01*
X0137059Y0243099D02*
X0159140Y0243099D01*
X0160338Y0244298D02*
X0138258Y0244298D01*
X0139456Y0245496D02*
X0161537Y0245496D01*
X0162735Y0246695D02*
X0140655Y0246695D01*
X0141853Y0247893D02*
X0163934Y0247893D01*
X0165132Y0249092D02*
X0143052Y0249092D01*
X0144250Y0250290D02*
X0166331Y0250290D01*
X0167529Y0251489D02*
X0145705Y0251489D01*
X0146390Y0252687D02*
X0168728Y0252687D01*
X0169926Y0253886D02*
X0146481Y0253886D01*
X0146070Y0255084D02*
X0170930Y0255084D01*
X0172429Y0256283D02*
X0144571Y0256283D01*
X0147896Y0258680D02*
X0199633Y0258680D01*
X0197168Y0259878D02*
X0148762Y0259878D01*
X0148981Y0261077D02*
X0194704Y0261077D01*
X0192239Y0262275D02*
X0148698Y0262275D01*
X0147742Y0263474D02*
X0188932Y0263474D01*
X0185608Y0264672D02*
X0095913Y0264672D01*
X0093074Y0263474D02*
X0129656Y0263474D01*
X0128316Y0262275D02*
X0090234Y0262275D01*
X0087394Y0261077D02*
X0127117Y0261077D01*
X0125919Y0259878D02*
X0084554Y0259878D01*
X0082122Y0258680D02*
X0124720Y0258680D01*
X0123522Y0257481D02*
X0079958Y0257481D01*
X0077794Y0256283D02*
X0112429Y0256283D01*
X0110930Y0255084D02*
X0075630Y0255084D01*
X0073467Y0253886D02*
X0109926Y0253886D01*
X0108728Y0252687D02*
X0071303Y0252687D01*
X0069568Y0251489D02*
X0107529Y0251489D01*
X0106331Y0250290D02*
X0095926Y0250290D01*
X0096481Y0249092D02*
X0105132Y0249092D01*
X0103934Y0247893D02*
X0096475Y0247893D01*
X0095911Y0246695D02*
X0102735Y0246695D01*
X0101537Y0245496D02*
X0094456Y0245496D01*
X0093258Y0244298D02*
X0100338Y0244298D01*
X0099140Y0243099D02*
X0092059Y0243099D01*
X0090861Y0241901D02*
X0097941Y0241901D01*
X0096742Y0240702D02*
X0089662Y0240702D01*
X0088464Y0239504D02*
X0095544Y0239504D01*
X0094345Y0238305D02*
X0087265Y0238305D01*
X0086067Y0237107D02*
X0093147Y0237107D01*
X0091948Y0235908D02*
X0084868Y0235908D01*
X0083669Y0234710D02*
X0090750Y0234710D01*
X0089551Y0233511D02*
X0082471Y0233511D01*
X0081272Y0232313D02*
X0088353Y0232313D01*
X0087154Y0231114D02*
X0080074Y0231114D01*
X0078875Y0229916D02*
X0085956Y0229916D01*
X0084757Y0228717D02*
X0077677Y0228717D01*
X0076478Y0227519D02*
X0083559Y0227519D01*
X0082360Y0226320D02*
X0075280Y0226320D01*
X0070956Y0229916D02*
X0064436Y0229916D01*
X0065320Y0231114D02*
X0072154Y0231114D01*
X0073353Y0232313D02*
X0066956Y0232313D01*
X0066783Y0231972D02*
X0067162Y0232716D01*
X0067419Y0233509D01*
X0067550Y0234333D01*
X0067550Y0235167D01*
X0067419Y0235991D01*
X0067162Y0236784D01*
X0066783Y0237528D01*
X0066293Y0238203D01*
X0066280Y0238215D01*
X0062816Y0234750D01*
X0066281Y0231285D01*
X0066293Y0231297D01*
X0066783Y0231972D01*
X0065253Y0232313D02*
X0064122Y0232313D01*
X0064054Y0233511D02*
X0062923Y0233511D01*
X0062856Y0234710D02*
X0062775Y0234710D01*
X0062250Y0235316D02*
X0065715Y0238780D01*
X0065703Y0238793D01*
X0065028Y0239283D01*
X0064284Y0239662D01*
X0063491Y0239919D01*
X0062667Y0240050D01*
X0061833Y0240050D01*
X0061009Y0239919D01*
X0060216Y0239662D01*
X0059472Y0239283D01*
X0058797Y0238793D01*
X0058785Y0238781D01*
X0062250Y0235316D01*
X0062843Y0235908D02*
X0063974Y0235908D01*
X0064041Y0237107D02*
X0065172Y0237107D01*
X0065240Y0238305D02*
X0079345Y0238305D01*
X0078147Y0237107D02*
X0066998Y0237107D01*
X0067433Y0235908D02*
X0076948Y0235908D01*
X0075750Y0234710D02*
X0067550Y0234710D01*
X0067420Y0233511D02*
X0074551Y0233511D01*
X0080544Y0239504D02*
X0064594Y0239504D01*
X0061657Y0235908D02*
X0060526Y0235908D01*
X0060459Y0237107D02*
X0059328Y0237107D01*
X0059260Y0238305D02*
X0052554Y0238305D01*
X0051184Y0237107D02*
X0057502Y0237107D01*
X0057067Y0235908D02*
X0049815Y0235908D01*
X0048581Y0234710D02*
X0056950Y0234710D01*
X0057080Y0233511D02*
X0047474Y0233511D01*
X0046368Y0232313D02*
X0053562Y0232313D01*
X0056796Y0232313D02*
X0057544Y0232313D01*
X0059556Y0229916D02*
X0060064Y0229916D01*
X0060053Y0228717D02*
X0069757Y0228717D01*
X0068559Y0227519D02*
X0060079Y0227519D01*
X0059920Y0226320D02*
X0067360Y0226320D01*
X0066162Y0225122D02*
X0059423Y0225122D01*
X0060267Y0223923D02*
X0058353Y0223923D01*
X0061733Y0223923D02*
X0064963Y0223923D01*
X0059906Y0239504D02*
X0053924Y0239504D01*
X0055294Y0240702D02*
X0081742Y0240702D01*
X0082941Y0241901D02*
X0056663Y0241901D01*
X0058033Y0243099D02*
X0084140Y0243099D01*
X0085338Y0244298D02*
X0059403Y0244298D01*
X0061036Y0245496D02*
X0086537Y0245496D01*
X0087735Y0246695D02*
X0062743Y0246695D01*
X0064449Y0247893D02*
X0088934Y0247893D01*
X0090132Y0249092D02*
X0066155Y0249092D01*
X0067862Y0250290D02*
X0091074Y0250290D01*
X0099719Y0265871D02*
X0182285Y0265871D01*
X0178939Y0267070D02*
X0103694Y0267070D01*
X0107669Y0268268D02*
X0174033Y0268268D01*
X0169128Y0269467D02*
X0112776Y0269467D01*
X0111000Y0266000D02*
X0116000Y0266000D01*
X0119132Y0270665D02*
X0163255Y0270665D01*
X0154305Y0271864D02*
X0128149Y0271864D01*
X0122323Y0256283D02*
X0114571Y0256283D01*
X0116070Y0255084D02*
X0121125Y0255084D01*
X0119926Y0253886D02*
X0116481Y0253886D01*
X0116390Y0252687D02*
X0118472Y0252687D01*
X0118019Y0251489D02*
X0115705Y0251489D01*
X0114250Y0250290D02*
X0118067Y0250290D01*
X0118692Y0249092D02*
X0113052Y0249092D01*
X0108500Y0238500D02*
X0111000Y0236000D01*
X0108500Y0208500D02*
X0111000Y0206000D01*
X0124191Y0186769D02*
X0132809Y0186769D01*
X0131611Y0185571D02*
X0125389Y0185571D01*
X0126588Y0184372D02*
X0130412Y0184372D01*
X0129214Y0183174D02*
X0127786Y0183174D01*
X0132580Y0178380D02*
X0154420Y0178380D01*
X0155618Y0179578D02*
X0133538Y0179578D01*
X0134736Y0180777D02*
X0156817Y0180777D01*
X0158015Y0181975D02*
X0135935Y0181975D01*
X0136000Y0181000D02*
X0136000Y0178500D01*
X0133779Y0177181D02*
X0153221Y0177181D01*
X0152023Y0175983D02*
X0134977Y0175983D01*
X0136176Y0174784D02*
X0150824Y0174784D01*
X0149626Y0173586D02*
X0137374Y0173586D01*
X0138573Y0172387D02*
X0148427Y0172387D01*
X0147229Y0171189D02*
X0139771Y0171189D01*
X0140970Y0169990D02*
X0146030Y0169990D01*
X0144832Y0168792D02*
X0142168Y0168792D01*
X0143367Y0167593D02*
X0143633Y0167593D01*
X0143500Y0163500D02*
X0143500Y0163500D01*
X0143163Y0159203D02*
X0143837Y0159203D01*
X0145035Y0158005D02*
X0141965Y0158005D01*
X0140766Y0156806D02*
X0146234Y0156806D01*
X0147432Y0155608D02*
X0139568Y0155608D01*
X0138369Y0154409D02*
X0148631Y0154409D01*
X0149829Y0153211D02*
X0137171Y0153211D01*
X0135972Y0152012D02*
X0151028Y0152012D01*
X0152226Y0150814D02*
X0134774Y0150814D01*
X0136000Y0151000D02*
X0136000Y0148500D01*
X0007142Y0141000D02*
X0007182Y0144285D01*
X0007303Y0147568D01*
X0007505Y0150847D01*
X0007787Y0154120D01*
X0008149Y0157386D01*
X0008591Y0160641D01*
X0009113Y0163885D01*
X0009714Y0167114D01*
X0010394Y0170328D01*
X0011154Y0173525D01*
X0011991Y0176702D01*
X0012906Y0179857D01*
X0013898Y0182989D01*
X0014967Y0186095D01*
X0016111Y0189175D01*
X0017331Y0192225D01*
X0018626Y0195245D01*
X0019994Y0198232D01*
X0021435Y0201184D01*
X0022948Y0204100D01*
X0024532Y0206978D01*
X0026186Y0209817D01*
X0027910Y0212614D01*
X0029701Y0215368D01*
X0031560Y0218077D01*
X0033484Y0220739D01*
X0035474Y0223354D01*
X0037526Y0225919D01*
X0039642Y0228432D01*
X0041818Y0230894D01*
X0044054Y0233301D01*
X0046348Y0235652D01*
X0048699Y0237946D01*
X0051106Y0240182D01*
X0053568Y0242358D01*
X0056081Y0244474D01*
X0058646Y0246526D01*
X0061261Y0248516D01*
X0063923Y0250440D01*
X0066632Y0252299D01*
X0069386Y0254090D01*
X0072183Y0255814D01*
X0075022Y0257468D01*
X0077900Y0259052D01*
X0080816Y0260565D01*
X0083768Y0262006D01*
X0086755Y0263374D01*
X0089775Y0264669D01*
X0092825Y0265889D01*
X0095905Y0267033D01*
X0099011Y0268102D01*
X0102143Y0269094D01*
X0105298Y0270009D01*
X0108475Y0270846D01*
X0111672Y0271606D01*
X0114886Y0272286D01*
X0118115Y0272887D01*
X0121359Y0273409D01*
X0124614Y0273851D01*
X0127880Y0274213D01*
X0131153Y0274495D01*
X0134432Y0274697D01*
X0137715Y0274818D01*
X0141000Y0274858D01*
X0144285Y0274818D01*
X0147568Y0274697D01*
X0150847Y0274495D01*
X0154120Y0274213D01*
X0157386Y0273851D01*
X0160641Y0273409D01*
X0163885Y0272887D01*
X0167114Y0272286D01*
X0170328Y0271606D01*
X0173525Y0270846D01*
X0176702Y0270009D01*
X0179857Y0269094D01*
X0182989Y0268102D01*
X0186095Y0267033D01*
X0189175Y0265889D01*
X0192225Y0264669D01*
X0195245Y0263374D01*
X0198232Y0262006D01*
X0201184Y0260565D01*
X0204100Y0259052D01*
X0206978Y0257468D01*
X0209817Y0255814D01*
X0212614Y0254090D01*
X0215368Y0252299D01*
X0218077Y0250440D01*
X0220739Y0248516D01*
X0223354Y0246526D01*
X0225919Y0244474D01*
X0228432Y0242358D01*
X0230894Y0240182D01*
X0233301Y0237946D01*
X0235652Y0235652D01*
X0237946Y0233301D01*
X0240182Y0230894D01*
X0242358Y0228432D01*
X0244474Y0225919D01*
X0246526Y0223354D01*
X0248516Y0220739D01*
X0250440Y0218077D01*
X0252299Y0215368D01*
X0254090Y0212614D01*
X0255814Y0209817D01*
X0257468Y0206978D01*
X0259052Y0204100D01*
X0260565Y0201184D01*
X0262006Y0198232D01*
X0263374Y0195245D01*
X0264669Y0192225D01*
X0265889Y0189175D01*
X0267033Y0186095D01*
X0268102Y0182989D01*
X0269094Y0179857D01*
X0270009Y0176702D01*
X0270846Y0173525D01*
X0271606Y0170328D01*
X0272286Y0167114D01*
X0272887Y0163885D01*
X0273409Y0160641D01*
X0273851Y0157386D01*
X0274213Y0154120D01*
X0274495Y0150847D01*
X0274697Y0147568D01*
X0274818Y0144285D01*
X0274858Y0141000D01*
X0274818Y0137715D01*
X0274697Y0134432D01*
X0274495Y0131153D01*
X0274213Y0127880D01*
X0273851Y0124614D01*
X0273409Y0121359D01*
X0272887Y0118115D01*
X0272286Y0114886D01*
X0271606Y0111672D01*
X0270846Y0108475D01*
X0270009Y0105298D01*
X0269094Y0102143D01*
X0268102Y0099011D01*
X0267033Y0095905D01*
X0265889Y0092825D01*
X0264669Y0089775D01*
X0263374Y0086755D01*
X0262006Y0083768D01*
X0260565Y0080816D01*
X0259052Y0077900D01*
X0257468Y0075022D01*
X0255814Y0072183D01*
X0254090Y0069386D01*
X0252299Y0066632D01*
X0250440Y0063923D01*
X0248516Y0061261D01*
X0246526Y0058646D01*
X0244474Y0056081D01*
X0242358Y0053568D01*
X0240182Y0051106D01*
X0237946Y0048699D01*
X0235652Y0046348D01*
X0233301Y0044054D01*
X0230894Y0041818D01*
X0228432Y0039642D01*
X0225919Y0037526D01*
X0223354Y0035474D01*
X0220739Y0033484D01*
X0218077Y0031560D01*
X0215368Y0029701D01*
X0212614Y0027910D01*
X0209817Y0026186D01*
X0206978Y0024532D01*
X0204100Y0022948D01*
X0201184Y0021435D01*
X0198232Y0019994D01*
X0195245Y0018626D01*
X0192225Y0017331D01*
X0189175Y0016111D01*
X0186095Y0014967D01*
X0182989Y0013898D01*
X0179857Y0012906D01*
X0176702Y0011991D01*
X0173525Y0011154D01*
X0170328Y0010394D01*
X0167114Y0009714D01*
X0163885Y0009113D01*
X0160641Y0008591D01*
X0157386Y0008149D01*
X0154120Y0007787D01*
X0150847Y0007505D01*
X0147568Y0007303D01*
X0144285Y0007182D01*
X0141000Y0007142D01*
X0137715Y0007182D01*
X0134432Y0007303D01*
X0131153Y0007505D01*
X0127880Y0007787D01*
X0124614Y0008149D01*
X0121359Y0008591D01*
X0118115Y0009113D01*
X0114886Y0009714D01*
X0111672Y0010394D01*
X0108475Y0011154D01*
X0105298Y0011991D01*
X0102143Y0012906D01*
X0099011Y0013898D01*
X0095905Y0014967D01*
X0092825Y0016111D01*
X0089775Y0017331D01*
X0086755Y0018626D01*
X0083768Y0019994D01*
X0080816Y0021435D01*
X0077900Y0022948D01*
X0075022Y0024532D01*
X0072183Y0026186D01*
X0069386Y0027910D01*
X0066632Y0029701D01*
X0063923Y0031560D01*
X0061261Y0033484D01*
X0058646Y0035474D01*
X0056081Y0037526D01*
X0053568Y0039642D01*
X0051106Y0041818D01*
X0048699Y0044054D01*
X0046348Y0046348D01*
X0044054Y0048699D01*
X0041818Y0051106D01*
X0039642Y0053568D01*
X0037526Y0056081D01*
X0035474Y0058646D01*
X0033484Y0061261D01*
X0031560Y0063923D01*
X0029701Y0066632D01*
X0027910Y0069386D01*
X0026186Y0072183D01*
X0024532Y0075022D01*
X0022948Y0077900D01*
X0021435Y0080816D01*
X0019994Y0083768D01*
X0018626Y0086755D01*
X0017331Y0089775D01*
X0016111Y0092825D01*
X0014967Y0095905D01*
X0013898Y0099011D01*
X0012906Y0102143D01*
X0011991Y0105298D01*
X0011154Y0108475D01*
X0010394Y0111672D01*
X0009714Y0114886D01*
X0009113Y0118115D01*
X0008591Y0121359D01*
X0008149Y0124614D01*
X0007787Y0127880D01*
X0007505Y0131153D01*
X0007303Y0134432D01*
X0007182Y0137715D01*
X0007142Y0141000D01*
X0009908Y0130439D02*
X0076479Y0130439D01*
X0075281Y0129241D02*
X0010036Y0129241D01*
X0010164Y0128042D02*
X0074082Y0128042D01*
X0072884Y0126844D02*
X0010293Y0126844D01*
X0010421Y0125645D02*
X0071685Y0125645D01*
X0070487Y0124447D02*
X0010549Y0124447D01*
X0010677Y0123248D02*
X0069288Y0123248D01*
X0068090Y0122050D02*
X0010805Y0122050D01*
X0010933Y0120851D02*
X0066891Y0120851D01*
X0065693Y0119653D02*
X0011106Y0119653D01*
X0011365Y0118454D02*
X0064494Y0118454D01*
X0063296Y0117256D02*
X0011624Y0117256D01*
X0011883Y0116057D02*
X0062097Y0116057D01*
X0060899Y0114859D02*
X0012142Y0114859D01*
X0012402Y0113660D02*
X0059700Y0113660D01*
X0058502Y0112462D02*
X0012661Y0112462D01*
X0012920Y0111263D02*
X0057303Y0111263D01*
X0056105Y0110065D02*
X0013179Y0110065D01*
X0013438Y0108866D02*
X0054906Y0108866D01*
X0053708Y0107668D02*
X0013698Y0107668D01*
X0013957Y0106469D02*
X0052509Y0106469D01*
X0051000Y0116000D02*
X0048500Y0118500D01*
X0051000Y0146000D02*
X0048500Y0148500D01*
X0076000Y0178500D02*
X0078500Y0176000D01*
X0108500Y0148500D02*
X0111000Y0146000D01*
X0113500Y0133500D02*
X0113500Y0133500D01*
X0108500Y0118500D02*
X0111000Y0116000D01*
X0113500Y0103500D02*
X0113500Y0103500D01*
X0108500Y0088500D02*
X0111000Y0086000D01*
X0131760Y0065720D02*
X0033144Y0065720D01*
X0032254Y0066918D02*
X0132958Y0066918D01*
X0130561Y0064521D02*
X0034035Y0064521D01*
X0034925Y0063323D02*
X0129363Y0063323D01*
X0128164Y0062124D02*
X0035816Y0062124D01*
X0036706Y0060926D02*
X0126966Y0060926D01*
X0125767Y0059727D02*
X0037597Y0059727D01*
X0038487Y0058529D02*
X0124569Y0058529D01*
X0123370Y0057330D02*
X0039377Y0057330D01*
X0040419Y0056132D02*
X0122172Y0056132D01*
X0120973Y0054933D02*
X0041525Y0054933D01*
X0042632Y0053734D02*
X0119775Y0053734D01*
X0118576Y0052536D02*
X0043738Y0052536D01*
X0044845Y0051337D02*
X0117378Y0051337D01*
X0116179Y0050139D02*
X0045951Y0050139D01*
X0047057Y0048940D02*
X0114981Y0048940D01*
X0113782Y0047742D02*
X0048164Y0047742D01*
X0049299Y0046543D02*
X0112584Y0046543D01*
X0111129Y0045345D02*
X0050668Y0045345D01*
X0052038Y0044146D02*
X0110541Y0044146D01*
X0110519Y0042948D02*
X0053408Y0042948D01*
X0054777Y0041749D02*
X0110700Y0041749D01*
X0110700Y0040551D02*
X0056147Y0040551D01*
X0057517Y0039352D02*
X0110700Y0039352D01*
X0110700Y0038154D02*
X0058887Y0038154D01*
X0060393Y0036955D02*
X0110700Y0036955D01*
X0110700Y0035757D02*
X0062100Y0035757D01*
X0063806Y0034558D02*
X0110700Y0034558D01*
X0110700Y0033360D02*
X0065512Y0033360D01*
X0067219Y0032161D02*
X0110700Y0032161D01*
X0110700Y0030963D02*
X0068925Y0030963D01*
X0070631Y0029764D02*
X0110700Y0029764D01*
X0110700Y0028566D02*
X0072651Y0028566D01*
X0074815Y0027367D02*
X0110700Y0027367D01*
X0109709Y0026169D02*
X0076979Y0026169D01*
X0079142Y0024970D02*
X0108510Y0024970D01*
X0107312Y0023772D02*
X0081306Y0023772D01*
X0083484Y0022573D02*
X0105925Y0022573D01*
X0105519Y0021375D02*
X0086324Y0021375D01*
X0089164Y0020176D02*
X0105615Y0020176D01*
X0106306Y0018978D02*
X0092003Y0018978D01*
X0094843Y0017779D02*
X0186861Y0017779D01*
X0190184Y0018978D02*
X0110694Y0018978D01*
X0111636Y0020176D02*
X0193168Y0020176D01*
X0195633Y0021375D02*
X0112834Y0021375D01*
X0114033Y0022573D02*
X0198097Y0022573D01*
X0200562Y0023772D02*
X0115232Y0023772D01*
X0116104Y0024970D02*
X0203027Y0024970D01*
X0205336Y0026169D02*
X0116300Y0026169D01*
X0116300Y0027367D02*
X0207252Y0027367D01*
X0209167Y0028566D02*
X0116300Y0028566D01*
X0116300Y0029764D02*
X0211083Y0029764D01*
X0212998Y0030963D02*
X0116300Y0030963D01*
X0116300Y0032161D02*
X0214914Y0032161D01*
X0216798Y0033360D02*
X0116300Y0033360D01*
X0116300Y0034558D02*
X0218325Y0034558D01*
X0219851Y0035757D02*
X0116300Y0035757D01*
X0116300Y0036955D02*
X0221378Y0036955D01*
X0222904Y0038154D02*
X0116300Y0038154D01*
X0116300Y0039352D02*
X0224431Y0039352D01*
X0225957Y0040551D02*
X0204170Y0040551D01*
X0202830Y0040551D02*
X0174170Y0040551D01*
X0175965Y0041749D02*
X0201035Y0041749D01*
X0200519Y0042948D02*
X0176908Y0042948D01*
X0178106Y0044146D02*
X0200541Y0044146D01*
X0201129Y0045345D02*
X0179305Y0045345D01*
X0180503Y0046543D02*
X0202584Y0046543D01*
X0203782Y0047742D02*
X0181702Y0047742D01*
X0182900Y0048940D02*
X0204981Y0048940D01*
X0206179Y0050139D02*
X0184099Y0050139D01*
X0185297Y0051337D02*
X0207378Y0051337D01*
X0208576Y0052536D02*
X0186496Y0052536D01*
X0187694Y0053734D02*
X0209775Y0053734D01*
X0210973Y0054933D02*
X0188893Y0054933D01*
X0190091Y0056132D02*
X0212172Y0056132D01*
X0213370Y0057330D02*
X0191290Y0057330D01*
X0192488Y0058529D02*
X0214569Y0058529D01*
X0215767Y0059727D02*
X0193687Y0059727D01*
X0194885Y0060926D02*
X0216966Y0060926D01*
X0218164Y0062124D02*
X0196084Y0062124D01*
X0196000Y0061000D02*
X0196000Y0058500D01*
X0197282Y0063323D02*
X0219363Y0063323D01*
X0220561Y0064521D02*
X0198481Y0064521D01*
X0199679Y0065720D02*
X0221760Y0065720D01*
X0222958Y0066918D02*
X0200878Y0066918D01*
X0202076Y0068117D02*
X0224157Y0068117D01*
X0225355Y0069315D02*
X0203275Y0069315D01*
X0204473Y0070514D02*
X0226554Y0070514D01*
X0227752Y0071712D02*
X0205928Y0071712D01*
X0206870Y0072911D02*
X0228951Y0072911D01*
X0228931Y0074109D02*
X0208069Y0074109D01*
X0209267Y0075308D02*
X0227732Y0075308D01*
X0226534Y0076506D02*
X0210466Y0076506D01*
X0211665Y0077705D02*
X0225335Y0077705D01*
X0224137Y0078903D02*
X0212863Y0078903D01*
X0214062Y0080102D02*
X0222938Y0080102D01*
X0221740Y0081300D02*
X0215260Y0081300D01*
X0216459Y0082499D02*
X0220541Y0082499D01*
X0219343Y0083697D02*
X0217657Y0083697D01*
X0222468Y0088491D02*
X0261633Y0088491D01*
X0261165Y0087293D02*
X0223667Y0087293D01*
X0224865Y0086094D02*
X0260631Y0086094D01*
X0260009Y0084896D02*
X0226064Y0084896D01*
X0227262Y0083697D02*
X0259386Y0083697D01*
X0258763Y0082499D02*
X0228461Y0082499D01*
X0229660Y0081300D02*
X0258140Y0081300D01*
X0257517Y0080102D02*
X0230858Y0080102D01*
X0232057Y0078903D02*
X0256895Y0078903D01*
X0256272Y0077705D02*
X0233255Y0077705D01*
X0234454Y0076506D02*
X0255649Y0076506D01*
X0255026Y0075308D02*
X0235908Y0075308D01*
X0236474Y0074109D02*
X0254396Y0074109D01*
X0253601Y0072911D02*
X0236481Y0072911D01*
X0235928Y0071712D02*
X0252806Y0071712D01*
X0252011Y0070514D02*
X0234473Y0070514D01*
X0233275Y0069315D02*
X0251216Y0069315D01*
X0250421Y0068117D02*
X0232076Y0068117D01*
X0230878Y0066918D02*
X0249626Y0066918D01*
X0248831Y0065720D02*
X0229679Y0065720D01*
X0228481Y0064521D02*
X0248035Y0064521D01*
X0247240Y0063323D02*
X0227282Y0063323D01*
X0226084Y0062124D02*
X0246386Y0062124D01*
X0245392Y0060926D02*
X0224885Y0060926D01*
X0223687Y0059727D02*
X0244399Y0059727D01*
X0243405Y0058529D02*
X0222488Y0058529D01*
X0221290Y0057330D02*
X0242411Y0057330D01*
X0241418Y0056132D02*
X0220091Y0056132D01*
X0218893Y0054933D02*
X0240424Y0054933D01*
X0239430Y0053734D02*
X0217694Y0053734D01*
X0216496Y0052536D02*
X0238437Y0052536D01*
X0237372Y0051337D02*
X0215297Y0051337D01*
X0214099Y0050139D02*
X0236141Y0050139D01*
X0234911Y0048940D02*
X0212900Y0048940D01*
X0211702Y0047742D02*
X0233680Y0047742D01*
X0232449Y0046543D02*
X0210503Y0046543D01*
X0209305Y0045345D02*
X0231218Y0045345D01*
X0229987Y0044146D02*
X0208106Y0044146D01*
X0206908Y0042948D02*
X0228756Y0042948D01*
X0227484Y0041749D02*
X0205965Y0041749D01*
X0183537Y0016581D02*
X0098221Y0016581D01*
X0102196Y0015382D02*
X0180214Y0015382D01*
X0175882Y0014184D02*
X0106171Y0014184D01*
X0110380Y0012985D02*
X0170976Y0012985D01*
X0166071Y0011787D02*
X0116737Y0011787D01*
X0123093Y0010588D02*
X0157678Y0010588D01*
X0137540Y0009390D02*
X0137480Y0009390D01*
X0111000Y0056000D02*
X0108500Y0058500D01*
X0076000Y0088500D02*
X0073500Y0091000D01*
X0083500Y0133500D02*
X0083500Y0133500D01*
X0137134Y0183174D02*
X0159214Y0183174D01*
X0160412Y0184372D02*
X0138332Y0184372D01*
X0139531Y0185571D02*
X0161611Y0185571D01*
X0162809Y0186769D02*
X0140729Y0186769D01*
X0141928Y0187968D02*
X0164008Y0187968D01*
X0165206Y0189166D02*
X0143126Y0189166D01*
X0144325Y0190365D02*
X0166405Y0190365D01*
X0167604Y0191563D02*
X0145779Y0191563D01*
X0146722Y0192762D02*
X0168802Y0192762D01*
X0170001Y0193960D02*
X0147920Y0193960D01*
X0149119Y0195159D02*
X0170960Y0195159D01*
X0172398Y0196357D02*
X0150317Y0196357D01*
X0151516Y0197556D02*
X0173596Y0197556D01*
X0174795Y0198754D02*
X0152714Y0198754D01*
X0153913Y0199953D02*
X0175993Y0199953D01*
X0177192Y0201151D02*
X0155111Y0201151D01*
X0156310Y0202350D02*
X0178390Y0202350D01*
X0179589Y0203548D02*
X0157508Y0203548D01*
X0158707Y0204747D02*
X0180787Y0204747D01*
X0181986Y0205945D02*
X0159905Y0205945D01*
X0161104Y0207144D02*
X0183184Y0207144D01*
X0184383Y0208342D02*
X0162302Y0208342D01*
X0163501Y0209541D02*
X0185581Y0209541D01*
X0186780Y0210739D02*
X0164699Y0210739D01*
X0165898Y0211938D02*
X0187978Y0211938D01*
X0189177Y0213137D02*
X0167096Y0213137D01*
X0168295Y0214335D02*
X0190375Y0214335D01*
X0191574Y0215534D02*
X0169493Y0215534D01*
X0170692Y0216732D02*
X0192772Y0216732D01*
X0193971Y0217931D02*
X0171890Y0217931D01*
X0173089Y0219129D02*
X0195169Y0219129D01*
X0196368Y0220328D02*
X0174287Y0220328D01*
X0168500Y0208500D02*
X0171000Y0206000D01*
X0173500Y0193500D02*
X0173500Y0193500D01*
X0168500Y0178500D02*
X0171000Y0176000D01*
X0173500Y0163500D02*
X0173500Y0163500D01*
X0168500Y0148500D02*
X0171000Y0146000D01*
X0168535Y0142424D02*
X0178465Y0142424D01*
X0179663Y0143623D02*
X0167337Y0143623D01*
X0166138Y0144821D02*
X0180862Y0144821D01*
X0182060Y0146020D02*
X0164940Y0146020D01*
X0169734Y0141226D02*
X0177266Y0141226D01*
X0176068Y0140027D02*
X0170932Y0140027D01*
X0172131Y0138829D02*
X0174869Y0138829D01*
X0173671Y0137630D02*
X0173329Y0137630D01*
X0173500Y0133500D02*
X0173500Y0133500D01*
X0173200Y0129241D02*
X0173799Y0129241D01*
X0174998Y0128042D02*
X0172002Y0128042D01*
X0170803Y0126844D02*
X0176197Y0126844D01*
X0177395Y0125645D02*
X0169605Y0125645D01*
X0168406Y0124447D02*
X0178594Y0124447D01*
X0179792Y0123248D02*
X0167208Y0123248D01*
X0166009Y0122050D02*
X0180991Y0122050D01*
X0182189Y0120851D02*
X0164811Y0120851D01*
X0163612Y0119653D02*
X0183388Y0119653D01*
X0187712Y0123248D02*
X0189288Y0123248D01*
X0190487Y0124447D02*
X0186513Y0124447D01*
X0185315Y0125645D02*
X0191685Y0125645D01*
X0192884Y0126844D02*
X0184116Y0126844D01*
X0182918Y0128042D02*
X0194082Y0128042D01*
X0195281Y0129241D02*
X0181719Y0129241D01*
X0180521Y0130439D02*
X0196479Y0130439D01*
X0197678Y0131638D02*
X0179322Y0131638D01*
X0178124Y0132836D02*
X0198876Y0132836D01*
X0200075Y0134035D02*
X0177995Y0134035D01*
X0179193Y0135233D02*
X0201017Y0135233D01*
X0202472Y0136432D02*
X0180392Y0136432D01*
X0181590Y0137630D02*
X0203671Y0137630D01*
X0204869Y0138829D02*
X0182789Y0138829D01*
X0183987Y0140027D02*
X0206068Y0140027D01*
X0207266Y0141226D02*
X0185186Y0141226D01*
X0186384Y0142424D02*
X0208465Y0142424D01*
X0209663Y0143623D02*
X0187583Y0143623D01*
X0188781Y0144821D02*
X0210862Y0144821D01*
X0212060Y0146020D02*
X0189980Y0146020D01*
X0191178Y0147218D02*
X0213259Y0147218D01*
X0214457Y0148417D02*
X0192377Y0148417D01*
X0193575Y0149615D02*
X0215656Y0149615D01*
X0216854Y0150814D02*
X0194774Y0150814D01*
X0196000Y0151000D02*
X0196000Y0148500D01*
X0195972Y0152012D02*
X0218053Y0152012D01*
X0219251Y0153211D02*
X0197171Y0153211D01*
X0198369Y0154409D02*
X0220450Y0154409D01*
X0221648Y0155608D02*
X0199568Y0155608D01*
X0200766Y0156806D02*
X0222847Y0156806D01*
X0224045Y0158005D02*
X0201965Y0158005D01*
X0203163Y0159203D02*
X0225244Y0159203D01*
X0226442Y0160402D02*
X0204362Y0160402D01*
X0205816Y0161601D02*
X0227641Y0161601D01*
X0228839Y0162799D02*
X0206759Y0162799D01*
X0207957Y0163998D02*
X0230038Y0163998D01*
X0230980Y0165196D02*
X0209156Y0165196D01*
X0210354Y0166395D02*
X0232435Y0166395D01*
X0233633Y0167593D02*
X0211553Y0167593D01*
X0212751Y0168792D02*
X0234832Y0168792D01*
X0236030Y0169990D02*
X0213950Y0169990D01*
X0215148Y0171189D02*
X0237229Y0171189D01*
X0238427Y0172387D02*
X0216347Y0172387D01*
X0217545Y0173586D02*
X0239626Y0173586D01*
X0240824Y0174784D02*
X0218744Y0174784D01*
X0219942Y0175983D02*
X0242023Y0175983D01*
X0243221Y0177181D02*
X0221141Y0177181D01*
X0222339Y0178380D02*
X0244420Y0178380D01*
X0245618Y0179578D02*
X0223538Y0179578D01*
X0224736Y0180777D02*
X0246817Y0180777D01*
X0248015Y0181975D02*
X0225935Y0181975D01*
X0227134Y0183174D02*
X0248958Y0183174D01*
X0263500Y0173500D02*
X0266000Y0171000D01*
X0266020Y0165196D02*
X0270269Y0165196D01*
X0270462Y0163998D02*
X0266481Y0163998D01*
X0266436Y0162799D02*
X0270655Y0162799D01*
X0270848Y0161601D02*
X0265816Y0161601D01*
X0264362Y0160402D02*
X0271041Y0160402D01*
X0271234Y0159203D02*
X0263163Y0159203D01*
X0261965Y0158005D02*
X0271427Y0158005D01*
X0271620Y0156806D02*
X0260766Y0156806D01*
X0259568Y0155608D02*
X0271814Y0155608D01*
X0271944Y0154409D02*
X0258369Y0154409D01*
X0257171Y0153211D02*
X0272007Y0153211D01*
X0272071Y0152012D02*
X0255972Y0152012D01*
X0254774Y0150814D02*
X0272135Y0150814D01*
X0272199Y0149615D02*
X0253575Y0149615D01*
X0252377Y0148417D02*
X0272263Y0148417D01*
X0272327Y0147218D02*
X0251178Y0147218D01*
X0249980Y0146020D02*
X0272391Y0146020D01*
X0272455Y0144821D02*
X0248781Y0144821D01*
X0247583Y0143623D02*
X0272518Y0143623D01*
X0272582Y0142424D02*
X0246384Y0142424D01*
X0245186Y0141226D02*
X0272646Y0141226D01*
X0272606Y0140027D02*
X0243987Y0140027D01*
X0242789Y0138829D02*
X0272543Y0138829D01*
X0272479Y0137630D02*
X0241590Y0137630D01*
X0240392Y0136432D02*
X0262788Y0136432D01*
X0264212Y0136432D02*
X0272415Y0136432D01*
X0272351Y0135233D02*
X0265983Y0135233D01*
X0266481Y0134035D02*
X0272287Y0134035D01*
X0272223Y0132836D02*
X0266452Y0132836D01*
X0265854Y0131638D02*
X0272159Y0131638D01*
X0272095Y0130439D02*
X0264399Y0130439D01*
X0263201Y0129241D02*
X0272032Y0129241D01*
X0271968Y0128042D02*
X0262918Y0128042D01*
X0264116Y0126844D02*
X0271886Y0126844D01*
X0271693Y0125645D02*
X0265571Y0125645D01*
X0266335Y0124447D02*
X0271500Y0124447D01*
X0271307Y0123248D02*
X0266481Y0123248D01*
X0266126Y0122050D02*
X0271114Y0122050D01*
X0270921Y0120851D02*
X0264895Y0120851D01*
X0262105Y0120851D02*
X0254811Y0120851D01*
X0253612Y0119653D02*
X0270728Y0119653D01*
X0270535Y0118454D02*
X0252414Y0118454D01*
X0251215Y0117256D02*
X0270342Y0117256D01*
X0270148Y0116057D02*
X0250017Y0116057D01*
X0248818Y0114859D02*
X0269955Y0114859D01*
X0269762Y0113660D02*
X0247620Y0113660D01*
X0246421Y0112462D02*
X0269490Y0112462D01*
X0269163Y0111263D02*
X0245223Y0111263D01*
X0244024Y0110065D02*
X0268836Y0110065D01*
X0268510Y0108866D02*
X0242826Y0108866D01*
X0241627Y0107668D02*
X0268183Y0107668D01*
X0267856Y0106469D02*
X0240429Y0106469D01*
X0239230Y0105270D02*
X0267529Y0105270D01*
X0267202Y0104072D02*
X0238032Y0104072D01*
X0236833Y0102873D02*
X0266875Y0102873D01*
X0266548Y0101675D02*
X0235891Y0101675D01*
X0234436Y0100476D02*
X0266222Y0100476D01*
X0265851Y0099278D02*
X0233238Y0099278D01*
X0232039Y0098079D02*
X0265382Y0098079D01*
X0264914Y0096881D02*
X0230841Y0096881D01*
X0229642Y0095682D02*
X0264445Y0095682D01*
X0263976Y0094484D02*
X0228444Y0094484D01*
X0227245Y0093285D02*
X0263508Y0093285D01*
X0263039Y0092087D02*
X0226047Y0092087D01*
X0224848Y0090888D02*
X0262570Y0090888D01*
X0262102Y0089690D02*
X0223650Y0089690D01*
X0228500Y0088500D02*
X0231000Y0086000D01*
X0233500Y0073500D02*
X0233500Y0073500D01*
X0219326Y0093285D02*
X0217674Y0093285D01*
X0216476Y0094484D02*
X0220524Y0094484D01*
X0221723Y0095682D02*
X0215277Y0095682D01*
X0214079Y0096881D02*
X0222921Y0096881D01*
X0224120Y0098079D02*
X0212880Y0098079D01*
X0211682Y0099278D02*
X0225318Y0099278D01*
X0226517Y0100476D02*
X0210483Y0100476D01*
X0209285Y0101675D02*
X0227715Y0101675D01*
X0228914Y0102873D02*
X0208086Y0102873D01*
X0208032Y0104072D02*
X0230112Y0104072D01*
X0231055Y0105270D02*
X0209230Y0105270D01*
X0210429Y0106469D02*
X0232509Y0106469D01*
X0233708Y0107668D02*
X0211627Y0107668D01*
X0212826Y0108866D02*
X0234906Y0108866D01*
X0236105Y0110065D02*
X0214024Y0110065D01*
X0215223Y0111263D02*
X0237303Y0111263D01*
X0238502Y0112462D02*
X0216421Y0112462D01*
X0217620Y0113660D02*
X0239700Y0113660D01*
X0240899Y0114859D02*
X0218818Y0114859D01*
X0220017Y0116057D02*
X0242097Y0116057D01*
X0243296Y0117256D02*
X0221215Y0117256D01*
X0222414Y0118454D02*
X0244494Y0118454D01*
X0245693Y0119653D02*
X0223612Y0119653D01*
X0224811Y0120851D02*
X0246891Y0120851D01*
X0248090Y0122050D02*
X0226009Y0122050D01*
X0227208Y0123248D02*
X0249288Y0123248D01*
X0250487Y0124447D02*
X0228406Y0124447D01*
X0229605Y0125645D02*
X0251685Y0125645D01*
X0252884Y0126844D02*
X0230803Y0126844D01*
X0232002Y0128042D02*
X0254082Y0128042D01*
X0255281Y0129241D02*
X0233200Y0129241D01*
X0234399Y0130439D02*
X0256479Y0130439D01*
X0257678Y0131638D02*
X0235854Y0131638D01*
X0236796Y0132836D02*
X0258876Y0132836D01*
X0260075Y0134035D02*
X0237995Y0134035D01*
X0239193Y0135233D02*
X0261017Y0135233D01*
X0261000Y0146000D02*
X0258500Y0148500D01*
X0258406Y0124447D02*
X0258594Y0124447D01*
X0259792Y0123248D02*
X0257208Y0123248D01*
X0256009Y0122050D02*
X0260874Y0122050D01*
X0258500Y0118500D02*
X0261000Y0116000D01*
X0283200Y0125645D02*
X0293622Y0125645D01*
X0292424Y0126844D02*
X0283200Y0126844D01*
X0283200Y0128042D02*
X0291225Y0128042D01*
X0290027Y0129241D02*
X0283200Y0129241D01*
X0283200Y0130439D02*
X0288828Y0130439D01*
X0287767Y0131638D02*
X0283200Y0131638D01*
X0283200Y0132836D02*
X0287300Y0132836D01*
X0287300Y0134035D02*
X0283200Y0134035D01*
X0283200Y0135233D02*
X0287300Y0135233D01*
X0287300Y0136432D02*
X0283200Y0136432D01*
X0283200Y0137630D02*
X0285430Y0137630D01*
X0284353Y0138829D02*
X0283200Y0138829D01*
X0283200Y0140027D02*
X0283857Y0140027D01*
X0283800Y0141226D02*
X0283200Y0141226D01*
X0283200Y0142424D02*
X0284044Y0142424D01*
X0284683Y0143623D02*
X0283200Y0143623D01*
X0283200Y0144821D02*
X0286250Y0144821D01*
X0290600Y0147218D02*
X0291400Y0147218D01*
X0291400Y0148417D02*
X0290600Y0148417D01*
X0290600Y0149615D02*
X0291400Y0149615D01*
X0291400Y0152012D02*
X0290600Y0152012D01*
X0290600Y0153211D02*
X0291400Y0153211D01*
X0291400Y0154409D02*
X0290600Y0154409D01*
X0284904Y0154409D02*
X0283200Y0154409D01*
X0283200Y0153211D02*
X0283964Y0153211D01*
X0283503Y0152012D02*
X0283200Y0152012D01*
X0297809Y0148417D02*
X0304139Y0148417D01*
X0305133Y0138829D02*
X0297647Y0138829D01*
X0296570Y0137630D02*
X0303082Y0137630D01*
X0302259Y0136432D02*
X0294700Y0136432D01*
X0294700Y0135233D02*
X0301900Y0135233D01*
X0301900Y0134035D02*
X0295698Y0134035D01*
X0296896Y0132836D02*
X0302355Y0132836D01*
X0308918Y0137630D02*
X0313082Y0137630D01*
X0312259Y0136432D02*
X0309741Y0136432D01*
X0310100Y0135233D02*
X0311900Y0135233D01*
X0311900Y0134035D02*
X0310100Y0134035D01*
X0309645Y0132836D02*
X0312355Y0132836D01*
X0313093Y0131638D02*
X0313314Y0131638D01*
X0331750Y0171189D02*
X0356500Y0171189D01*
X0356500Y0172387D02*
X0331750Y0172387D01*
X0331750Y0173586D02*
X0356500Y0173586D01*
X0356500Y0174784D02*
X0331750Y0174784D01*
X0331750Y0175983D02*
X0356500Y0175983D01*
X0356500Y0177181D02*
X0331750Y0177181D01*
X0331750Y0178380D02*
X0356500Y0178380D01*
X0356500Y0179578D02*
X0331750Y0179578D01*
X0331750Y0180777D02*
X0356500Y0180777D01*
X0356500Y0181975D02*
X0331750Y0181975D01*
X0331750Y0183174D02*
X0356500Y0183174D01*
X0356500Y0184372D02*
X0331750Y0184372D01*
X0331750Y0185571D02*
X0356500Y0185571D01*
X0356500Y0186769D02*
X0331750Y0186769D01*
X0331750Y0187968D02*
X0356500Y0187968D01*
X0356500Y0189166D02*
X0331750Y0189166D01*
X0332081Y0190365D02*
X0356500Y0190365D01*
X0356500Y0191563D02*
X0332692Y0191563D01*
X0332731Y0192762D02*
X0356500Y0192762D01*
X0356500Y0193960D02*
X0332256Y0193960D01*
X0332730Y0201151D02*
X0339133Y0201151D01*
X0342867Y0201151D02*
X0356500Y0201151D01*
X0356500Y0202350D02*
X0343750Y0202350D01*
X0343981Y0203548D02*
X0356500Y0203548D01*
X0356500Y0204747D02*
X0343710Y0204747D01*
X0344377Y0205945D02*
X0342770Y0205945D01*
X0339230Y0205945D02*
X0328835Y0205945D01*
X0327699Y0204747D02*
X0330669Y0204747D01*
X0329470Y0203548D02*
X0326564Y0203548D01*
X0325429Y0202350D02*
X0328271Y0202350D01*
X0327073Y0201151D02*
X0324293Y0201151D01*
X0323158Y0199953D02*
X0325874Y0199953D01*
X0324676Y0198754D02*
X0322022Y0198754D01*
X0320887Y0197556D02*
X0323477Y0197556D01*
X0322279Y0196357D02*
X0319751Y0196357D01*
X0318616Y0195159D02*
X0321080Y0195159D01*
X0319882Y0193960D02*
X0317481Y0193960D01*
X0316345Y0192762D02*
X0318683Y0192762D01*
X0317485Y0191563D02*
X0315210Y0191563D01*
X0316286Y0190365D02*
X0314074Y0190365D01*
X0315088Y0189166D02*
X0312939Y0189166D01*
X0313889Y0187968D02*
X0311803Y0187968D01*
X0312750Y0186769D02*
X0310668Y0186769D01*
X0310098Y0185571D02*
X0312750Y0185571D01*
X0312750Y0184372D02*
X0310100Y0184372D01*
X0309785Y0183174D02*
X0312750Y0183174D01*
X0312750Y0181975D02*
X0309023Y0181975D01*
X0307121Y0180777D02*
X0312750Y0180777D01*
X0312750Y0179578D02*
X0283200Y0179578D01*
X0307951Y0178380D02*
X0311801Y0178380D01*
X0310603Y0177181D02*
X0309367Y0177181D01*
X0309700Y0191563D02*
X0308612Y0191563D01*
X0309614Y0192762D02*
X0310835Y0192762D01*
X0310100Y0193960D02*
X0311971Y0193960D01*
X0313106Y0195159D02*
X0310100Y0195159D01*
X0310436Y0196357D02*
X0314241Y0196357D01*
X0315377Y0197556D02*
X0311634Y0197556D01*
X0312833Y0198754D02*
X0316512Y0198754D01*
X0317648Y0199953D02*
X0314031Y0199953D01*
X0315230Y0201151D02*
X0318783Y0201151D01*
X0319919Y0202350D02*
X0316428Y0202350D01*
X0317627Y0203548D02*
X0321054Y0203548D01*
X0322189Y0204747D02*
X0318825Y0204747D01*
X0320024Y0205945D02*
X0323325Y0205945D01*
X0324460Y0207144D02*
X0321222Y0207144D01*
X0322421Y0208342D02*
X0325596Y0208342D01*
X0326713Y0209541D02*
X0323619Y0209541D01*
X0324818Y0210739D02*
X0344024Y0210739D01*
X0347976Y0210739D02*
X0355899Y0210739D01*
X0355519Y0211938D02*
X0334501Y0211938D01*
X0336058Y0213137D02*
X0355640Y0213137D01*
X0356369Y0214335D02*
X0336481Y0214335D01*
X0336402Y0215534D02*
X0361900Y0215534D01*
X0361900Y0214335D02*
X0360631Y0214335D01*
X0361360Y0213137D02*
X0362231Y0213137D01*
X0361481Y0211938D02*
X0363014Y0211938D01*
X0361101Y0210739D02*
X0364968Y0210739D01*
X0367032Y0210739D02*
X0388800Y0210739D01*
X0388800Y0211938D02*
X0368986Y0211938D01*
X0369769Y0213137D02*
X0388800Y0213137D01*
X0388800Y0214335D02*
X0370100Y0214335D01*
X0370100Y0215534D02*
X0388800Y0215534D01*
X0388800Y0216732D02*
X0369617Y0216732D01*
X0368618Y0217931D02*
X0388800Y0217931D01*
X0388800Y0219129D02*
X0364449Y0219129D01*
X0365184Y0220650D02*
X0366816Y0220650D01*
X0368322Y0221274D01*
X0369476Y0222428D01*
X0370100Y0223934D01*
X0370100Y0225566D01*
X0369476Y0227072D01*
X0368322Y0228226D01*
X0366816Y0228850D01*
X0365184Y0228850D01*
X0363678Y0228226D01*
X0362524Y0227072D01*
X0361900Y0225566D01*
X0361900Y0223934D01*
X0362524Y0222428D01*
X0363678Y0221274D01*
X0365184Y0220650D01*
X0363251Y0220328D02*
X0388800Y0220328D01*
X0388800Y0221526D02*
X0368574Y0221526D01*
X0369599Y0222725D02*
X0388800Y0222725D01*
X0388800Y0223923D02*
X0370095Y0223923D01*
X0370100Y0225122D02*
X0388800Y0225122D01*
X0388800Y0226320D02*
X0369787Y0226320D01*
X0369030Y0227519D02*
X0388800Y0227519D01*
X0388800Y0228717D02*
X0367136Y0228717D01*
X0366816Y0230650D02*
X0365184Y0230650D01*
X0363678Y0231274D01*
X0362524Y0232428D01*
X0361900Y0233934D01*
X0361900Y0235566D01*
X0362524Y0237072D01*
X0363678Y0238226D01*
X0365184Y0238850D01*
X0366816Y0238850D01*
X0368322Y0238226D01*
X0369476Y0237072D01*
X0370100Y0235566D01*
X0370100Y0233934D01*
X0369476Y0232428D01*
X0368322Y0231274D01*
X0366816Y0230650D01*
X0367936Y0231114D02*
X0388800Y0231114D01*
X0388800Y0229916D02*
X0353663Y0229916D01*
X0352464Y0231114D02*
X0364064Y0231114D01*
X0362639Y0232313D02*
X0351266Y0232313D01*
X0354861Y0228717D02*
X0364864Y0228717D01*
X0362970Y0227519D02*
X0356060Y0227519D01*
X0357258Y0226320D02*
X0362213Y0226320D01*
X0361900Y0225122D02*
X0358457Y0225122D01*
X0359655Y0223923D02*
X0361905Y0223923D01*
X0362401Y0222725D02*
X0360854Y0222725D01*
X0362052Y0221526D02*
X0363426Y0221526D01*
X0361190Y0216732D02*
X0335734Y0216732D01*
X0332499Y0211938D02*
X0326016Y0211938D01*
X0323955Y0215534D02*
X0323902Y0215534D01*
X0323234Y0216732D02*
X0325154Y0216732D01*
X0313852Y0217931D02*
X0308618Y0217931D01*
X0309617Y0216732D02*
X0312654Y0216732D01*
X0309670Y0211938D02*
X0308986Y0211938D01*
X0307032Y0210739D02*
X0311124Y0210739D01*
X0311764Y0208342D02*
X0308041Y0208342D01*
X0309404Y0207144D02*
X0310566Y0207144D01*
X0310771Y0202350D02*
X0309398Y0202350D01*
X0309573Y0201151D02*
X0308026Y0201151D01*
X0327705Y0233511D02*
X0362075Y0233511D01*
X0361900Y0234710D02*
X0326288Y0234710D01*
X0327487Y0235908D02*
X0362042Y0235908D01*
X0362558Y0237107D02*
X0328685Y0237107D01*
X0329884Y0238305D02*
X0363869Y0238305D01*
X0365058Y0240702D02*
X0332281Y0240702D01*
X0333479Y0241901D02*
X0363051Y0241901D01*
X0366942Y0240702D02*
X0388800Y0240702D01*
X0388800Y0239504D02*
X0331082Y0239504D01*
X0327822Y0241901D02*
X0308949Y0241901D01*
X0309754Y0243099D02*
X0329021Y0243099D01*
X0330219Y0244298D02*
X0310100Y0244298D01*
X0310100Y0245496D02*
X0331418Y0245496D01*
X0332616Y0246695D02*
X0309632Y0246695D01*
X0308655Y0247893D02*
X0363345Y0247893D01*
X0365184Y0250650D02*
X0366816Y0250650D01*
X0368322Y0251274D01*
X0369476Y0252428D01*
X0370100Y0253934D01*
X0370100Y0255566D01*
X0369476Y0257072D01*
X0368322Y0258226D01*
X0366816Y0258850D01*
X0365184Y0258850D01*
X0363678Y0258226D01*
X0362524Y0257072D01*
X0361900Y0255566D01*
X0361900Y0253934D01*
X0362524Y0252428D01*
X0363678Y0251274D01*
X0365184Y0250650D01*
X0363463Y0251489D02*
X0308537Y0251489D01*
X0308322Y0251274D02*
X0309476Y0252428D01*
X0310100Y0253934D01*
X0310100Y0255566D01*
X0309476Y0257072D01*
X0308322Y0258226D01*
X0306816Y0258850D01*
X0305184Y0258850D01*
X0303678Y0258226D01*
X0302524Y0257072D01*
X0301900Y0255566D01*
X0301900Y0253934D01*
X0302524Y0252428D01*
X0303678Y0251274D01*
X0305184Y0250650D01*
X0306816Y0250650D01*
X0308322Y0251274D01*
X0309583Y0252687D02*
X0362417Y0252687D01*
X0361920Y0253886D02*
X0310080Y0253886D01*
X0310100Y0255084D02*
X0361900Y0255084D01*
X0362197Y0256283D02*
X0309803Y0256283D01*
X0309067Y0257481D02*
X0362933Y0257481D01*
X0364774Y0258680D02*
X0307226Y0258680D01*
X0307054Y0260361D02*
X0307727Y0260580D01*
X0308359Y0260901D01*
X0308932Y0261318D01*
X0309432Y0261818D01*
X0309849Y0262391D01*
X0310170Y0263023D01*
X0310389Y0263696D01*
X0310500Y0264396D01*
X0310500Y0264400D01*
X0306350Y0264400D01*
X0306350Y0265100D01*
X0310500Y0265100D01*
X0310500Y0265104D01*
X0310389Y0265804D01*
X0310170Y0266477D01*
X0309849Y0267109D01*
X0309432Y0267682D01*
X0308932Y0268182D01*
X0308359Y0268599D01*
X0307727Y0268920D01*
X0307054Y0269139D01*
X0306354Y0269250D01*
X0306350Y0269250D01*
X0306350Y0265100D01*
X0305650Y0265100D01*
X0305650Y0269250D01*
X0305646Y0269250D01*
X0304946Y0269139D01*
X0304273Y0268920D01*
X0303641Y0268599D01*
X0303068Y0268182D01*
X0302568Y0267682D01*
X0302151Y0267109D01*
X0301830Y0266477D01*
X0301611Y0265804D01*
X0301500Y0265104D01*
X0301500Y0265100D01*
X0305650Y0265100D01*
X0305650Y0264400D01*
X0306350Y0264400D01*
X0306350Y0260250D01*
X0306354Y0260250D01*
X0307054Y0260361D01*
X0306350Y0261077D02*
X0305650Y0261077D01*
X0305650Y0260250D02*
X0305650Y0264400D01*
X0301500Y0264400D01*
X0301500Y0264396D01*
X0301611Y0263696D01*
X0301830Y0263023D01*
X0302151Y0262391D01*
X0302568Y0261818D01*
X0303068Y0261318D01*
X0303641Y0260901D01*
X0304273Y0260580D01*
X0304946Y0260361D01*
X0305646Y0260250D01*
X0305650Y0260250D01*
X0304774Y0258680D02*
X0295487Y0258680D01*
X0295077Y0260263D02*
X0295766Y0260487D01*
X0296411Y0260816D01*
X0296997Y0261241D01*
X0297509Y0261753D01*
X0297934Y0262339D01*
X0298263Y0262984D01*
X0298487Y0263673D01*
X0298594Y0264350D01*
X0291400Y0264350D01*
X0291400Y0265150D01*
X0290600Y0265150D01*
X0290600Y0269350D01*
X0287638Y0269350D01*
X0286923Y0269237D01*
X0286234Y0269013D01*
X0285589Y0268684D01*
X0285003Y0268259D01*
X0284491Y0267747D01*
X0284066Y0267161D01*
X0283737Y0266516D01*
X0283513Y0265827D01*
X0283406Y0265150D01*
X0290600Y0265150D01*
X0290600Y0264350D01*
X0291400Y0264350D01*
X0291400Y0260150D01*
X0294362Y0260150D01*
X0295077Y0260263D01*
X0296770Y0261077D02*
X0303400Y0261077D01*
X0302236Y0262275D02*
X0297888Y0262275D01*
X0298422Y0263474D02*
X0301683Y0263474D01*
X0301633Y0265871D02*
X0298472Y0265871D01*
X0298487Y0265827D02*
X0298263Y0266516D01*
X0297934Y0267161D01*
X0297509Y0267747D01*
X0296997Y0268259D01*
X0296411Y0268684D01*
X0295766Y0269013D01*
X0295077Y0269237D01*
X0294362Y0269350D01*
X0291400Y0269350D01*
X0291400Y0265150D01*
X0298594Y0265150D01*
X0298487Y0265827D01*
X0297981Y0267070D02*
X0302131Y0267070D01*
X0303186Y0268268D02*
X0296984Y0268268D01*
X0291400Y0268268D02*
X0290600Y0268268D01*
X0290600Y0267070D02*
X0291400Y0267070D01*
X0291400Y0265871D02*
X0290600Y0265871D01*
X0290600Y0264672D02*
X0283200Y0264672D01*
X0283406Y0264350D02*
X0283513Y0263673D01*
X0283737Y0262984D01*
X0284066Y0262339D01*
X0284491Y0261753D01*
X0285003Y0261241D01*
X0285589Y0260816D01*
X0286234Y0260487D01*
X0286923Y0260263D01*
X0287638Y0260150D01*
X0290600Y0260150D01*
X0290600Y0264350D01*
X0283406Y0264350D01*
X0283578Y0263474D02*
X0283200Y0263474D01*
X0283200Y0262275D02*
X0284112Y0262275D01*
X0283200Y0261077D02*
X0285230Y0261077D01*
X0283200Y0259878D02*
X0388800Y0259878D01*
X0388800Y0258680D02*
X0367226Y0258680D01*
X0366816Y0260650D02*
X0368322Y0261274D01*
X0369476Y0262428D01*
X0370100Y0263934D01*
X0370100Y0265566D01*
X0369476Y0267072D01*
X0368322Y0268226D01*
X0366816Y0268850D01*
X0365184Y0268850D01*
X0363678Y0268226D01*
X0362524Y0267072D01*
X0361900Y0265566D01*
X0361900Y0263934D01*
X0362524Y0262428D01*
X0363678Y0261274D01*
X0365184Y0260650D01*
X0366816Y0260650D01*
X0367846Y0261077D02*
X0388800Y0261077D01*
X0388800Y0262275D02*
X0369324Y0262275D01*
X0369909Y0263474D02*
X0388800Y0263474D01*
X0388800Y0264672D02*
X0370100Y0264672D01*
X0369973Y0265871D02*
X0388800Y0265871D01*
X0388800Y0267070D02*
X0369477Y0267070D01*
X0368221Y0268268D02*
X0388800Y0268268D01*
X0388800Y0269467D02*
X0283200Y0269467D01*
X0283200Y0270665D02*
X0388800Y0270665D01*
X0388800Y0271864D02*
X0283200Y0271864D01*
X0283200Y0273062D02*
X0388800Y0273062D01*
X0388800Y0257481D02*
X0369067Y0257481D01*
X0369803Y0256283D02*
X0388800Y0256283D01*
X0388800Y0255084D02*
X0370100Y0255084D01*
X0370080Y0253886D02*
X0388800Y0253886D01*
X0388800Y0252687D02*
X0369583Y0252687D01*
X0368537Y0251489D02*
X0388800Y0251489D01*
X0388800Y0250290D02*
X0303288Y0250290D01*
X0303463Y0251489D02*
X0302090Y0251489D01*
X0302417Y0252687D02*
X0300891Y0252687D01*
X0301920Y0253886D02*
X0299693Y0253886D01*
X0298494Y0255084D02*
X0301900Y0255084D01*
X0302197Y0256283D02*
X0297911Y0256283D01*
X0297208Y0257481D02*
X0302933Y0257481D01*
X0305650Y0262275D02*
X0306350Y0262275D01*
X0306350Y0263474D02*
X0305650Y0263474D01*
X0305650Y0264672D02*
X0291400Y0264672D01*
X0291400Y0263474D02*
X0290600Y0263474D01*
X0290600Y0262275D02*
X0291400Y0262275D01*
X0291400Y0261077D02*
X0290600Y0261077D01*
X0286513Y0258680D02*
X0283200Y0258680D01*
X0283200Y0257481D02*
X0284792Y0257481D01*
X0284089Y0256283D02*
X0283200Y0256283D01*
X0283200Y0255084D02*
X0283800Y0255084D01*
X0283812Y0253886D02*
X0283200Y0253886D01*
X0283200Y0252687D02*
X0284308Y0252687D01*
X0285321Y0251489D02*
X0283200Y0251489D01*
X0283200Y0250290D02*
X0297631Y0250290D01*
X0304487Y0249092D02*
X0388800Y0249092D01*
X0388800Y0247893D02*
X0368655Y0247893D01*
X0369632Y0246695D02*
X0388800Y0246695D01*
X0388800Y0245496D02*
X0370100Y0245496D01*
X0370100Y0244298D02*
X0388800Y0244298D01*
X0388800Y0243099D02*
X0369754Y0243099D01*
X0368949Y0241901D02*
X0388800Y0241901D01*
X0388800Y0238305D02*
X0368131Y0238305D01*
X0369442Y0237107D02*
X0388800Y0237107D01*
X0388800Y0235908D02*
X0369958Y0235908D01*
X0370100Y0234710D02*
X0388800Y0234710D01*
X0388800Y0233511D02*
X0369925Y0233511D01*
X0369361Y0232313D02*
X0388800Y0232313D01*
X0381400Y0208342D02*
X0380600Y0208342D01*
X0380600Y0207144D02*
X0381400Y0207144D01*
X0381400Y0205945D02*
X0380600Y0205945D01*
X0380600Y0203548D02*
X0381400Y0203548D01*
X0381400Y0202350D02*
X0380600Y0202350D01*
X0380600Y0201151D02*
X0381400Y0201151D01*
X0387940Y0202350D02*
X0388800Y0202350D01*
X0388800Y0203548D02*
X0388446Y0203548D01*
X0375119Y0208342D02*
X0368041Y0208342D01*
X0369404Y0207144D02*
X0374057Y0207144D01*
X0373552Y0205945D02*
X0369943Y0205945D01*
X0356500Y0205945D02*
X0347623Y0205945D01*
X0348665Y0207144D02*
X0356500Y0207144D01*
X0356500Y0208342D02*
X0348981Y0208342D01*
X0348796Y0209541D02*
X0356500Y0209541D01*
X0364154Y0261077D02*
X0308600Y0261077D01*
X0309764Y0262275D02*
X0362676Y0262275D01*
X0362091Y0263474D02*
X0310317Y0263474D01*
X0310367Y0265871D02*
X0362027Y0265871D01*
X0361900Y0264672D02*
X0306350Y0264672D01*
X0306350Y0265871D02*
X0305650Y0265871D01*
X0305650Y0267070D02*
X0306350Y0267070D01*
X0306350Y0268268D02*
X0305650Y0268268D01*
X0308814Y0268268D02*
X0363779Y0268268D01*
X0362523Y0267070D02*
X0309869Y0267070D01*
X0285016Y0268268D02*
X0283200Y0268268D01*
X0283200Y0267070D02*
X0284019Y0267070D01*
X0283528Y0265871D02*
X0283200Y0265871D01*
X0241043Y0226320D02*
X0237609Y0226320D01*
X0238635Y0225122D02*
X0242037Y0225122D01*
X0243030Y0223923D02*
X0239131Y0223923D01*
X0239258Y0222725D02*
X0244024Y0222725D01*
X0245018Y0221526D02*
X0239199Y0221526D01*
X0238703Y0220328D02*
X0240108Y0220328D01*
X0238057Y0219129D02*
X0237774Y0219129D01*
X0237103Y0217931D02*
X0235787Y0217931D01*
X0236606Y0216732D02*
X0200692Y0216732D01*
X0201890Y0217931D02*
X0232928Y0217931D01*
X0230941Y0219129D02*
X0203089Y0219129D01*
X0204287Y0220328D02*
X0230013Y0220328D01*
X0229516Y0221526D02*
X0205742Y0221526D01*
X0206406Y0222725D02*
X0229458Y0222725D01*
X0229585Y0223923D02*
X0206481Y0223923D01*
X0206055Y0225122D02*
X0230081Y0225122D01*
X0231106Y0226320D02*
X0204482Y0226320D01*
X0197566Y0221526D02*
X0190486Y0221526D01*
X0198295Y0214335D02*
X0236637Y0214335D01*
X0236529Y0215534D02*
X0199493Y0215534D01*
X0197096Y0213137D02*
X0237134Y0213137D01*
X0238132Y0211938D02*
X0195898Y0211938D01*
X0194699Y0210739D02*
X0240289Y0210739D01*
X0242569Y0210739D02*
X0243693Y0210739D01*
X0243299Y0209541D02*
X0193501Y0209541D01*
X0192302Y0208342D02*
X0243200Y0208342D01*
X0243368Y0207144D02*
X0191104Y0207144D01*
X0189905Y0205945D02*
X0229230Y0205945D01*
X0228290Y0204747D02*
X0188707Y0204747D01*
X0203500Y0193500D02*
X0203500Y0193500D01*
X0203500Y0193500D01*
X0212564Y0198754D02*
X0233200Y0198754D01*
X0232002Y0199953D02*
X0212731Y0199953D01*
X0232770Y0205945D02*
X0243853Y0205945D01*
X0245380Y0205945D02*
X0246511Y0205945D01*
X0246578Y0207144D02*
X0247710Y0207144D01*
X0248500Y0207934D02*
X0245035Y0204469D01*
X0245047Y0204457D01*
X0245722Y0203967D01*
X0246466Y0203588D01*
X0247259Y0203330D01*
X0248083Y0203200D01*
X0248917Y0203200D01*
X0249741Y0203330D01*
X0250534Y0203588D01*
X0251278Y0203967D01*
X0251953Y0204457D01*
X0251965Y0204469D01*
X0248500Y0207934D01*
X0248908Y0208342D02*
X0249223Y0208342D01*
X0248092Y0208342D02*
X0247777Y0208342D01*
X0249290Y0207144D02*
X0250422Y0207144D01*
X0250489Y0205945D02*
X0251620Y0205945D01*
X0251687Y0204747D02*
X0256037Y0204747D01*
X0255414Y0205945D02*
X0253147Y0205945D01*
X0253632Y0207144D02*
X0254792Y0207144D01*
X0254096Y0208342D02*
X0253800Y0208342D01*
X0256660Y0203548D02*
X0250412Y0203548D01*
X0246588Y0203548D02*
X0233981Y0203548D01*
X0233710Y0204747D02*
X0245313Y0204747D01*
X0245724Y0213137D02*
X0245925Y0213137D01*
X0246221Y0214335D02*
X0250121Y0214335D01*
X0249326Y0215534D02*
X0246329Y0215534D01*
X0246252Y0216732D02*
X0248531Y0216732D01*
X0247736Y0217931D02*
X0245755Y0217931D01*
X0244801Y0219129D02*
X0246941Y0219129D01*
X0246011Y0220328D02*
X0242750Y0220328D01*
X0234696Y0202350D02*
X0257283Y0202350D01*
X0257905Y0201151D02*
X0235894Y0201151D01*
X0237093Y0199953D02*
X0258528Y0199953D01*
X0259151Y0198754D02*
X0238291Y0198754D01*
X0228500Y0178500D02*
X0231000Y0176000D01*
X0228500Y0148500D02*
X0231000Y0146000D01*
X0233500Y0133500D02*
X0233500Y0133500D01*
X0233500Y0133500D01*
X0228500Y0118500D02*
X0231000Y0116000D01*
X0233500Y0103500D02*
X0233500Y0103500D01*
X0203500Y0073500D02*
X0203500Y0073500D01*
X0173500Y0073500D02*
X0173500Y0073500D01*
X0171000Y0086000D02*
X0168500Y0088500D01*
X0143500Y0103500D02*
X0143500Y0103500D01*
X0168500Y0118500D02*
X0171000Y0116000D01*
X0143500Y0133500D02*
X0143500Y0133500D01*
X0143500Y0193500D02*
X0143500Y0193500D01*
X0143500Y0223500D02*
X0143500Y0223500D01*
X0168500Y0238500D02*
X0171000Y0236000D01*
X0173052Y0249092D02*
X0216107Y0249092D01*
X0214192Y0250290D02*
X0174250Y0250290D01*
X0178500Y0256000D02*
X0177086Y0257414D01*
X0218500Y0238500D02*
X0219750Y0239750D01*
X0203500Y0163500D02*
X0203500Y0163500D01*
X0168500Y0058500D02*
X0171000Y0056000D01*
X0076000Y0208500D02*
X0078500Y0211000D01*
X0360200Y0119967D02*
X0360200Y0114665D01*
X0359700Y0113457D01*
X0359700Y0112918D01*
X0362190Y0112918D01*
X0362066Y0113089D01*
X0361737Y0113734D01*
X0361513Y0114423D01*
X0361400Y0115138D01*
X0361400Y0118100D01*
X0365600Y0118100D01*
X0365600Y0118900D01*
X0361400Y0118900D01*
X0361400Y0121167D01*
X0360200Y0119967D01*
X0360200Y0119653D02*
X0361400Y0119653D01*
X0361400Y0120851D02*
X0361084Y0120851D01*
X0360200Y0118454D02*
X0365600Y0118454D01*
X0366400Y0118454D02*
X0388800Y0118454D01*
X0376354Y0132836D02*
X0369645Y0132836D01*
X0370100Y0134035D02*
X0377300Y0134035D01*
X0377300Y0135233D02*
X0370100Y0135233D01*
X0369741Y0136432D02*
X0375379Y0136432D01*
X0374332Y0137630D02*
X0368918Y0137630D01*
X0369330Y0147218D02*
X0374153Y0147218D01*
X0373596Y0148417D02*
X0367861Y0148417D01*
X0367211Y0150814D02*
X0373511Y0150814D01*
X0373990Y0152012D02*
X0369061Y0152012D01*
X0369800Y0153211D02*
X0374956Y0153211D01*
X0380600Y0148417D02*
X0381400Y0148417D01*
X0381400Y0147218D02*
X0380600Y0147218D01*
X0380600Y0146020D02*
X0381400Y0146020D01*
X0361400Y0117256D02*
X0360200Y0117256D01*
X0360200Y0116057D02*
X0361400Y0116057D01*
X0361444Y0114859D02*
X0360200Y0114859D01*
X0359784Y0113660D02*
X0361775Y0113660D01*
D12*
X0248500Y0208500D03*
X0241429Y0215571D03*
X0234358Y0222642D03*
X0062250Y0234750D03*
X0055179Y0227679D03*
X0048108Y0220608D03*
D13*
X0306000Y0224750D03*
X0306000Y0214750D03*
X0306000Y0204750D03*
X0306000Y0194750D03*
X0306000Y0184750D03*
X0306000Y0174750D03*
X0306000Y0164750D03*
X0306000Y0154750D03*
X0306000Y0144750D03*
X0306000Y0134750D03*
X0316000Y0134750D03*
X0326000Y0134750D03*
X0336000Y0134750D03*
X0356000Y0134750D03*
X0366000Y0134750D03*
X0366000Y0144750D03*
X0366000Y0154750D03*
X0366000Y0164750D03*
X0366000Y0174750D03*
X0366000Y0184750D03*
X0366000Y0194750D03*
X0366000Y0204750D03*
X0366000Y0214750D03*
X0366000Y0224750D03*
X0366000Y0234750D03*
X0366000Y0244750D03*
X0366000Y0254750D03*
X0366000Y0264750D03*
X0306000Y0264750D03*
X0306000Y0254750D03*
X0306000Y0244750D03*
X0306000Y0234750D03*
D14*
X0294000Y0244750D02*
X0288000Y0244750D01*
X0288000Y0254750D02*
X0294000Y0254750D01*
X0294000Y0264750D02*
X0288000Y0264750D01*
X0378000Y0204750D02*
X0384000Y0204750D01*
X0384000Y0194750D02*
X0378000Y0194750D01*
X0378000Y0184750D02*
X0384000Y0184750D01*
X0384000Y0149750D02*
X0378000Y0149750D01*
X0378000Y0139750D02*
X0384000Y0139750D01*
X0366000Y0121500D02*
X0366000Y0115500D01*
X0356000Y0115500D02*
X0356000Y0121500D01*
X0346000Y0121500D02*
X0346000Y0115500D01*
X0346000Y0104000D02*
X0346000Y0098000D01*
X0356000Y0098000D02*
X0356000Y0104000D01*
X0366000Y0104000D02*
X0366000Y0098000D01*
X0366000Y0086500D02*
X0366000Y0080500D01*
X0356000Y0080500D02*
X0356000Y0086500D01*
X0346000Y0086500D02*
X0346000Y0080500D01*
X0346000Y0069000D02*
X0346000Y0063000D01*
X0356000Y0063000D02*
X0356000Y0069000D01*
X0366000Y0069000D02*
X0366000Y0063000D01*
X0326000Y0063000D02*
X0326000Y0069000D01*
X0316000Y0069000D02*
X0316000Y0063000D01*
X0306000Y0063000D02*
X0306000Y0069000D01*
X0306000Y0080500D02*
X0306000Y0086500D01*
X0316000Y0086500D02*
X0316000Y0080500D01*
X0326000Y0080500D02*
X0326000Y0086500D01*
X0326000Y0098000D02*
X0326000Y0104000D01*
X0316000Y0104000D02*
X0316000Y0098000D01*
X0306000Y0098000D02*
X0306000Y0104000D01*
X0306000Y0115500D02*
X0306000Y0121500D01*
X0316000Y0121500D02*
X0316000Y0115500D01*
X0326000Y0115500D02*
X0326000Y0121500D01*
X0294000Y0141000D02*
X0288000Y0141000D01*
X0288000Y0151000D02*
X0294000Y0151000D01*
D15*
X0318904Y0109750D03*
X0325596Y0109750D03*
X0325596Y0092250D03*
X0318904Y0092250D03*
X0318904Y0074750D03*
X0325596Y0074750D03*
X0325596Y0057250D03*
X0318904Y0057250D03*
X0360154Y0057250D03*
X0366846Y0057250D03*
X0366846Y0074750D03*
X0360154Y0074750D03*
X0360154Y0092250D03*
X0366846Y0092250D03*
X0366846Y0109750D03*
X0360154Y0109750D03*
D16*
X0356000Y0143500D03*
X0353500Y0169750D03*
X0329750Y0192250D03*
X0341000Y0203500D03*
X0346000Y0208500D03*
X0333500Y0214750D03*
X0321000Y0214750D03*
X0312250Y0213500D03*
X0313500Y0231000D03*
X0326000Y0231000D03*
X0358500Y0212250D03*
X0263500Y0173500D03*
X0263500Y0163500D03*
X0258500Y0148500D03*
X0263500Y0133500D03*
X0263500Y0123500D03*
X0258500Y0118500D03*
X0233500Y0133500D03*
X0228500Y0118500D03*
X0233500Y0103500D03*
X0228500Y0088500D03*
X0233500Y0073500D03*
X0203500Y0073500D03*
X0196000Y0058500D03*
X0203500Y0043500D03*
X0173500Y0043500D03*
X0168500Y0058500D03*
X0173500Y0073500D03*
X0168500Y0088500D03*
X0173500Y0103500D03*
X0168500Y0118500D03*
X0173500Y0133500D03*
X0168500Y0148500D03*
X0173500Y0163500D03*
X0168500Y0178500D03*
X0173500Y0193500D03*
X0168500Y0208500D03*
X0173500Y0223500D03*
X0181000Y0228500D03*
X0168500Y0238500D03*
X0173500Y0253500D03*
X0177086Y0257414D03*
X0183500Y0246000D03*
X0196000Y0238500D03*
X0202250Y0237250D03*
X0211000Y0231000D03*
X0203500Y0223500D03*
X0196000Y0208500D03*
X0209750Y0199750D03*
X0203500Y0193500D03*
X0196000Y0178500D03*
X0203500Y0163500D03*
X0196000Y0148500D03*
X0203500Y0133500D03*
X0196000Y0118500D03*
X0203500Y0103500D03*
X0196000Y0088500D03*
X0143500Y0073500D03*
X0136000Y0058500D03*
X0143500Y0043500D03*
X0113500Y0043500D03*
X0108500Y0058500D03*
X0113500Y0073500D03*
X0108500Y0088500D03*
X0113500Y0103500D03*
X0108500Y0118500D03*
X0113500Y0133500D03*
X0108500Y0148500D03*
X0113500Y0163500D03*
X0108500Y0178500D03*
X0113500Y0193500D03*
X0108500Y0208500D03*
X0113500Y0223500D03*
X0108500Y0238500D03*
X0121000Y0251000D03*
X0113500Y0253500D03*
X0111000Y0266000D03*
X0093500Y0248500D03*
X0073500Y0238500D03*
X0083500Y0223500D03*
X0076000Y0208500D03*
X0083500Y0193500D03*
X0076000Y0178500D03*
X0083500Y0163500D03*
X0076000Y0148500D03*
X0083500Y0133500D03*
X0076000Y0118500D03*
X0083500Y0103500D03*
X0076000Y0088500D03*
X0083500Y0073500D03*
X0063500Y0071000D03*
X0053500Y0103500D03*
X0048500Y0118500D03*
X0053500Y0133500D03*
X0048500Y0148500D03*
X0053500Y0163500D03*
X0048500Y0178500D03*
X0053500Y0193500D03*
X0048500Y0208500D03*
X0061000Y0221000D03*
X0133500Y0268500D03*
X0146000Y0261000D03*
X0143500Y0253500D03*
X0136000Y0238500D03*
X0143500Y0223500D03*
X0136000Y0208500D03*
X0143500Y0193500D03*
X0136000Y0178500D03*
X0143500Y0163500D03*
X0136000Y0148500D03*
X0143500Y0133500D03*
X0136000Y0118500D03*
X0143500Y0103500D03*
X0136000Y0088500D03*
X0108500Y0021000D03*
X0023500Y0102250D03*
X0218500Y0238500D03*
X0227250Y0207250D03*
X0231000Y0203500D03*
X0233500Y0193500D03*
X0241000Y0193500D03*
X0251000Y0181000D03*
X0233500Y0163500D03*
X0228500Y0148500D03*
X0228500Y0178500D03*
D17*
X0233500Y0193500D02*
X0203500Y0163500D01*
X0173500Y0133500D01*
X0158500Y0148500D01*
X0143500Y0163500D01*
X0128500Y0178500D01*
X0113500Y0193500D01*
X0083500Y0163500D01*
X0053500Y0133500D01*
X0053500Y0103500D02*
X0083500Y0133500D01*
X0113500Y0163500D01*
X0128500Y0178500D01*
X0143500Y0193500D01*
X0173500Y0223500D01*
X0181000Y0223500D01*
X0181000Y0228500D01*
X0181000Y0223500D02*
X0188500Y0223500D01*
X0202250Y0237250D01*
X0211000Y0238500D02*
X0211000Y0231000D01*
X0211000Y0238500D02*
X0203500Y0246000D01*
X0183500Y0246000D01*
X0173500Y0253500D02*
X0143500Y0223500D01*
X0113500Y0193500D01*
X0098500Y0208500D01*
X0113500Y0223500D01*
X0143500Y0253500D01*
X0146000Y0261000D02*
X0131000Y0261000D01*
X0121000Y0251000D01*
X0113500Y0253500D02*
X0083500Y0223500D01*
X0098500Y0208500D01*
X0083500Y0193500D01*
X0053500Y0163500D01*
X0053500Y0193500D02*
X0083500Y0223500D01*
X0066000Y0221000D02*
X0093500Y0248500D01*
X0066000Y0221000D02*
X0061000Y0221000D01*
X0055179Y0227679D02*
X0054358Y0228500D01*
X0047250Y0228500D01*
X0038500Y0219750D01*
X0038500Y0208500D01*
X0053500Y0193500D01*
X0113500Y0133500D02*
X0143500Y0163500D01*
X0173500Y0193500D01*
X0203500Y0223500D01*
X0209750Y0199750D02*
X0203500Y0193500D01*
X0173500Y0163500D01*
X0158500Y0148500D01*
X0143500Y0133500D01*
X0113500Y0103500D01*
X0083500Y0073500D01*
X0063500Y0071000D02*
X0032250Y0102250D01*
X0023500Y0102250D01*
X0083500Y0103500D02*
X0113500Y0133500D01*
X0143500Y0103500D02*
X0173500Y0133500D01*
X0188500Y0118500D01*
X0203500Y0103500D01*
X0218500Y0088500D01*
X0233500Y0073500D01*
X0203500Y0043500D01*
X0173500Y0043500D02*
X0203500Y0073500D01*
X0218500Y0088500D01*
X0233500Y0103500D01*
X0258500Y0128500D01*
X0263500Y0123500D01*
X0258500Y0128500D02*
X0263500Y0133500D01*
X0233500Y0133500D02*
X0263500Y0163500D01*
X0251000Y0181000D02*
X0233500Y0163500D01*
X0203500Y0133500D01*
X0188500Y0118500D01*
X0173500Y0103500D01*
X0143500Y0073500D01*
X0113500Y0043500D01*
X0113500Y0026000D01*
X0108500Y0021000D01*
X0143500Y0043500D02*
X0173500Y0073500D01*
X0203500Y0103500D01*
X0233500Y0133500D01*
X0316000Y0109750D02*
X0318904Y0109750D01*
X0318904Y0092250D02*
X0316000Y0092250D01*
X0316000Y0074750D02*
X0318904Y0074750D01*
X0318904Y0057250D02*
X0316000Y0057250D01*
X0356000Y0057250D02*
X0360154Y0057250D01*
X0360154Y0074750D02*
X0356000Y0074750D01*
X0356000Y0092250D02*
X0360154Y0092250D01*
X0360154Y0109750D02*
X0356000Y0109750D01*
X0356000Y0118500D02*
X0356000Y0121000D01*
X0143500Y0103500D02*
X0113500Y0073500D01*
D18*
X0291000Y0254750D02*
X0296000Y0254750D01*
X0306000Y0244750D01*
X0313500Y0257250D02*
X0313500Y0231000D01*
X0319750Y0231000D02*
X0319750Y0221000D01*
X0312250Y0213500D01*
X0311000Y0204750D02*
X0306000Y0204750D01*
X0311000Y0204750D02*
X0321000Y0214750D01*
X0326000Y0214750D02*
X0306000Y0194750D01*
X0314750Y0186000D02*
X0314750Y0178500D01*
X0311000Y0174750D01*
X0306000Y0174750D01*
X0306000Y0184750D02*
X0328500Y0208500D01*
X0346000Y0208500D01*
X0341000Y0203500D02*
X0332250Y0203500D01*
X0314750Y0186000D01*
X0329750Y0192250D02*
X0329750Y0138500D01*
X0326000Y0134750D01*
X0336000Y0134750D02*
X0353500Y0152250D01*
X0353500Y0169750D01*
X0366000Y0164750D02*
X0366000Y0154750D01*
X0358500Y0152250D02*
X0366000Y0144750D01*
X0356000Y0143500D02*
X0346000Y0133500D01*
X0346000Y0118500D01*
X0326000Y0118500D02*
X0326000Y0101000D01*
X0326000Y0083500D01*
X0326000Y0066000D01*
X0366000Y0066000D02*
X0366000Y0063500D01*
X0358500Y0152250D02*
X0358500Y0212250D01*
X0366000Y0214750D02*
X0349750Y0231000D01*
X0326000Y0231000D01*
X0319750Y0231000D02*
X0333500Y0244750D01*
X0366000Y0244750D01*
X0333500Y0214750D02*
X0326000Y0214750D01*
X0366000Y0194750D02*
X0381000Y0194750D01*
X0381000Y0184750D02*
X0366000Y0184750D01*
X0313500Y0257250D02*
X0306000Y0264750D01*
X0291000Y0264750D01*
D19*
X0291000Y0141000D02*
X0291000Y0133500D01*
X0296000Y0128500D01*
X0311000Y0128500D01*
X0316000Y0123500D01*
X0316000Y0118500D01*
X0316000Y0109750D01*
X0316000Y0101000D01*
X0316000Y0092250D01*
X0316000Y0083500D01*
X0316000Y0074750D01*
X0316000Y0066000D01*
X0316000Y0057250D01*
X0316000Y0053500D01*
X0318500Y0051000D01*
X0352250Y0051000D01*
X0356000Y0054750D01*
X0356000Y0057250D01*
X0356000Y0066000D01*
X0356000Y0074750D01*
X0356000Y0083500D01*
X0356000Y0092250D01*
X0356000Y0101000D01*
X0356000Y0109750D01*
X0356000Y0118500D01*
X0356000Y0121000D02*
X0363500Y0128500D01*
X0377250Y0128500D01*
X0381000Y0132250D01*
X0381000Y0139750D01*
M02*
