%
M48
M72
T01C0.02362
T02C0.03800
T03C0.04000
T04C0.16142
%
T01
X63500Y71000
X83500Y73500
X76000Y88500
X83500Y103500
X76000Y118500
X83500Y133500
X76000Y148500
X83500Y163500
X76000Y178500
X83500Y193500
X76000Y208500
X83500Y223500
X73500Y238500
X61000Y221000
X48500Y208500
X53500Y193500
X48500Y178500
X53500Y163500
X48500Y148500
X53500Y133500
X48500Y118500
X53500Y103500
X23500Y102250
X108500Y88500
X113500Y73500
X108500Y58500
X113500Y43500
X108500Y21000
X143500Y43500
X136000Y58500
X143500Y73500
X136000Y88500
X143500Y103500
X136000Y118500
X143500Y133500
X108500Y148500
X113500Y133500
X108500Y118500
X113500Y103500
X136000Y148500
X143500Y163500
X136000Y178500
X143500Y193500
X136000Y208500
X143500Y223500
X136000Y238500
X143500Y253500
X146000Y261000
X133500Y268500
X121000Y251000
X113500Y253500
X111000Y266000
X93500Y248500
X108500Y238500
X113500Y223500
X108500Y208500
X113500Y193500
X108500Y178500
X113500Y163500
X168500Y148500
X173500Y133500
X168500Y118500
X173500Y103500
X168500Y88500
X173500Y73500
X168500Y58500
X173500Y43500
X196000Y58500
X203500Y43500
X203500Y73500
X196000Y88500
X203500Y103500
X196000Y118500
X203500Y133500
X196000Y148500
X203500Y163500
X196000Y178500
X203500Y193500
X209750Y199750
X196000Y208500
X203500Y223500
X211000Y231000
X218500Y238500
X202250Y237250
X196000Y238500
X183500Y246000
X173500Y253500
X177086Y257414
X168500Y238500
X181000Y228500
X173500Y223500
X168500Y208500
X173500Y193500
X168500Y178500
X173500Y163500
X228500Y148500
X233500Y133500
X228500Y118500
X233500Y103500
X228500Y88500
X233500Y73500
X258500Y118500
X263500Y123500
X263500Y133500
X258500Y148500
X263500Y163500
X263500Y173500
X251000Y181000
X241000Y193500
X233500Y193500
X231000Y203500
X227250Y207250
X228500Y178500
X233500Y163500
X312250Y213500
X321000Y214750
X333500Y214750
X341000Y203500
X346000Y208500
X358500Y212250
X329750Y192250
X353500Y169750
X356000Y143500
X326000Y231000
X313500Y231000
T02
X366000Y264750
X366000Y254750
X366000Y244750
X366000Y234750
X366000Y224750
X366000Y214750
X366000Y204750
X366000Y194750
X366000Y184750
X366000Y174750
X366000Y164750
X366000Y154750
X366000Y144750
X366000Y134750
X356000Y134750
X336000Y134750
X326000Y134750
X316000Y134750
X306000Y134750
X306000Y144750
X306000Y154750
X306000Y164750
X306000Y174750
X306000Y184750
X306000Y194750
X306000Y204750
X306000Y214750
X306000Y224750
X306000Y234750
X306000Y244750
X306000Y254750
X306000Y264750
T03
X62250Y234750
X55179Y227679
X48108Y220608
X234358Y222642
X241429Y215571
X248500Y208500
X291000Y244750
X291000Y254750
X291000Y264750
X366000Y66000
X356000Y66000
X346000Y66000
X326000Y66000
X316000Y66000
X306000Y66000
X306000Y83500
X316000Y83500
X326000Y83500
X326000Y101000
X316000Y101000
X306000Y101000
X306000Y118500
X316000Y118500
X326000Y118500
X346000Y118500
X356000Y118500
X366000Y118500
X366000Y101000
X356000Y101000
X346000Y101000
X346000Y83500
X356000Y83500
X366000Y83500
X381000Y139750
X381000Y149750
X381000Y184750
X381000Y194750
X381000Y204750
X291000Y151000
X291000Y141000
T04
X371000Y36000
X303500Y36000
M30
